ISO-10303-21;
HEADER;
/* Generated by software containing ST-Developer
 * from STEP Tools, Inc. (www.steptools.com) 
 */

FILE_DESCRIPTION(
/* description */ (''),
/* implementation_level */ '2;1');

FILE_NAME(
/* name */ 'BottomL.step',
/* time_stamp */ '2026-08-06T18:08:10-07:00',
/* author */ (''),
/* organization */ (''),
/* preprocessor_version */ 'ST-DEVELOPER v20.1',
/* originating_system */ 'Autodesk Translation Framework v15.8.0.0',
/* authorisation */ '');

FILE_SCHEMA (('AUTOMOTIVE_DESIGN { 1 0 10303 214 3 1 1 }'));
ENDSEC;

DATA;
#10=MECHANICAL_DESIGN_GEOMETRIC_PRESENTATION_REPRESENTATION('',(#13),#1785);
#11=SHAPE_REPRESENTATION_RELATIONSHIP('SRR','None',#1792,#12);
#12=ADVANCED_BREP_SHAPE_REPRESENTATION('',(#14),#1784);
#13=STYLED_ITEM('',(#1801),#14);
#14=MANIFOLD_SOLID_BREP('bottom left',#1081);
#15=ELLIPSE('',#1124,2.5034308649948,2.5);
#16=ELLIPSE('',#1126,2.5034308649948,2.5);
#17=ELLIPSE('',#1128,2.5034308649948,2.5);
#18=ELLIPSE('',#1157,5.00686172998962,5.00000000000002);
#19=ELLIPSE('',#1161,5.0068617299896,5.);
#20=ELLIPSE('',#1174,3.35459735909304,3.35000000000001);
#21=ELLIPSE('',#1178,3.35459735909304,3.35000000000001);
#22=FACE_BOUND('',#356,.T.);
#23=FACE_BOUND('',#360,.T.);
#24=FACE_BOUND('',#365,.T.);
#25=FACE_BOUND('',#367,.T.);
#26=FACE_BOUND('',#368,.T.);
#27=FACE_BOUND('',#369,.T.);
#28=FACE_BOUND('',#385,.T.);
#29=FACE_BOUND('',#386,.T.);
#30=FACE_BOUND('',#387,.T.);
#31=FACE_BOUND('',#388,.T.);
#32=FACE_BOUND('',#409,.T.);
#33=FACE_BOUND('',#412,.T.);
#34=FACE_BOUND('',#416,.T.);
#35=FACE_BOUND('',#417,.T.);
#36=FACE_BOUND('',#420,.T.);
#37=FACE_BOUND('',#421,.T.);
#38=FACE_BOUND('',#423,.T.);
#39=CYLINDRICAL_SURFACE('',#1106,2.20000000000001);
#40=CYLINDRICAL_SURFACE('',#1111,1.35000000000002);
#41=CYLINDRICAL_SURFACE('',#1123,2.5);
#42=CYLINDRICAL_SURFACE('',#1125,2.5);
#43=CYLINDRICAL_SURFACE('',#1127,2.5);
#44=CYLINDRICAL_SURFACE('',#1131,2.575);
#45=CYLINDRICAL_SURFACE('',#1134,2.575);
#46=CYLINDRICAL_SURFACE('',#1137,2.575);
#47=CYLINDRICAL_SURFACE('',#1155,5.00000000000002);
#48=CYLINDRICAL_SURFACE('',#1159,5.);
#49=CYLINDRICAL_SURFACE('',#1165,1.75000000000001);
#50=CYLINDRICAL_SURFACE('',#1168,1.75000000000001);
#51=CYLINDRICAL_SURFACE('',#1173,3.35000000000001);
#52=CYLINDRICAL_SURFACE('',#1177,3.35000000000001);
#53=LINE('',#1493,#169);
#54=LINE('',#1495,#170);
#55=LINE('',#1497,#171);
#56=LINE('',#1498,#172);
#57=LINE('',#1501,#173);
#58=LINE('',#1503,#174);
#59=LINE('',#1504,#175);
#60=LINE('',#1507,#176);
#61=LINE('',#1509,#177);
#62=LINE('',#1510,#178);
#63=LINE('',#1512,#179);
#64=LINE('',#1513,#180);
#65=LINE('',#1519,#181);
#66=LINE('',#1526,#182);
#67=LINE('',#1532,#183);
#68=LINE('',#1534,#184);
#69=LINE('',#1536,#185);
#70=LINE('',#1537,#186);
#71=LINE('',#1541,#187);
#72=LINE('',#1543,#188);
#73=LINE('',#1545,#189);
#74=LINE('',#1546,#190);
#75=LINE('',#1550,#191);
#76=LINE('',#1552,#192);
#77=LINE('',#1554,#193);
#78=LINE('',#1555,#194);
#79=LINE('',#1559,#195);
#80=LINE('',#1561,#196);
#81=LINE('',#1563,#197);
#82=LINE('',#1564,#198);
#83=LINE('',#1567,#199);
#84=LINE('',#1569,#200);
#85=LINE('',#1571,#201);
#86=LINE('',#1572,#202);
#87=LINE('',#1574,#203);
#88=LINE('',#1575,#204);
#89=LINE('',#1578,#205);
#90=LINE('',#1580,#206);
#91=LINE('',#1582,#207);
#92=LINE('',#1584,#208);
#93=LINE('',#1586,#209);
#94=LINE('',#1588,#210);
#95=LINE('',#1590,#211);
#96=LINE('',#1591,#212);
#97=LINE('',#1594,#213);
#98=LINE('',#1596,#214);
#99=LINE('',#1598,#215);
#100=LINE('',#1600,#216);
#101=LINE('',#1601,#217);
#102=LINE('',#1603,#218);
#103=LINE('',#1605,#219);
#104=LINE('',#1607,#220);
#105=LINE('',#1609,#221);
#106=LINE('',#1611,#222);
#107=LINE('',#1612,#223);
#108=LINE('',#1622,#224);
#109=LINE('',#1626,#225);
#110=LINE('',#1630,#226);
#111=LINE('',#1635,#227);
#112=LINE('',#1640,#228);
#113=LINE('',#1645,#229);
#114=LINE('',#1648,#230);
#115=LINE('',#1649,#231);
#116=LINE('',#1651,#232);
#117=LINE('',#1653,#233);
#118=LINE('',#1654,#234);
#119=LINE('',#1657,#235);
#120=LINE('',#1658,#236);
#121=LINE('',#1661,#237);
#122=LINE('',#1662,#238);
#123=LINE('',#1665,#239);
#124=LINE('',#1666,#240);
#125=LINE('',#1669,#241);
#126=LINE('',#1670,#242);
#127=LINE('',#1673,#243);
#128=LINE('',#1675,#244);
#129=LINE('',#1676,#245);
#130=LINE('',#1680,#246);
#131=LINE('',#1681,#247);
#132=LINE('',#1682,#248);
#133=LINE('',#1683,#249);
#134=LINE('',#1684,#250);
#135=LINE('',#1689,#251);
#136=LINE('',#1691,#252);
#137=LINE('',#1692,#253);
#138=LINE('',#1695,#254);
#139=LINE('',#1696,#255);
#140=LINE('',#1699,#256);
#141=LINE('',#1700,#257);
#142=LINE('',#1703,#258);
#143=LINE('',#1704,#259);
#144=LINE('',#1707,#260);
#145=LINE('',#1708,#261);
#146=LINE('',#1711,#262);
#147=LINE('',#1712,#263);
#148=LINE('',#1715,#264);
#149=LINE('',#1716,#265);
#150=LINE('',#1718,#266);
#151=LINE('',#1724,#267);
#152=LINE('',#1727,#268);
#153=LINE('',#1730,#269);
#154=LINE('',#1732,#270);
#155=LINE('',#1733,#271);
#156=LINE('',#1739,#272);
#157=LINE('',#1741,#273);
#158=LINE('',#1743,#274);
#159=LINE('',#1745,#275);
#160=LINE('',#1750,#276);
#161=LINE('',#1756,#277);
#162=LINE('',#1764,#278);
#163=LINE('',#1771,#279);
#164=LINE('',#1773,#280);
#165=LINE('',#1775,#281);
#166=LINE('',#1776,#282);
#167=LINE('',#1778,#283);
#168=LINE('',#1780,#284);
#169=VECTOR('',#1200,10.);
#170=VECTOR('',#1201,10.);
#171=VECTOR('',#1202,10.);
#172=VECTOR('',#1203,10.);
#173=VECTOR('',#1206,10.);
#174=VECTOR('',#1207,10.);
#175=VECTOR('',#1208,10.);
#176=VECTOR('',#1211,10.);
#177=VECTOR('',#1212,10.);
#178=VECTOR('',#1213,10.);
#179=VECTOR('',#1216,10.);
#180=VECTOR('',#1217,10.);
#181=VECTOR('',#1224,2.20000000000001);
#182=VECTOR('',#1233,1.35000000000002);
#183=VECTOR('',#1240,10.);
#184=VECTOR('',#1241,10.);
#185=VECTOR('',#1242,10.);
#186=VECTOR('',#1243,10.);
#187=VECTOR('',#1246,10.);
#188=VECTOR('',#1247,10.);
#189=VECTOR('',#1248,10.);
#190=VECTOR('',#1249,10.);
#191=VECTOR('',#1252,10.);
#192=VECTOR('',#1253,10.);
#193=VECTOR('',#1254,10.);
#194=VECTOR('',#1255,10.);
#195=VECTOR('',#1258,10.);
#196=VECTOR('',#1259,10.);
#197=VECTOR('',#1260,10.);
#198=VECTOR('',#1261,10.);
#199=VECTOR('',#1264,10.);
#200=VECTOR('',#1265,10.);
#201=VECTOR('',#1266,10.);
#202=VECTOR('',#1267,10.);
#203=VECTOR('',#1268,10.);
#204=VECTOR('',#1269,10.);
#205=VECTOR('',#1270,10.);
#206=VECTOR('',#1271,10.);
#207=VECTOR('',#1272,10.);
#208=VECTOR('',#1273,10.);
#209=VECTOR('',#1274,10.);
#210=VECTOR('',#1275,10.);
#211=VECTOR('',#1276,10.);
#212=VECTOR('',#1277,10.);
#213=VECTOR('',#1280,10.);
#214=VECTOR('',#1281,10.);
#215=VECTOR('',#1282,10.);
#216=VECTOR('',#1283,10.);
#217=VECTOR('',#1284,10.);
#218=VECTOR('',#1285,10.);
#219=VECTOR('',#1286,10.);
#220=VECTOR('',#1287,10.);
#221=VECTOR('',#1288,10.);
#222=VECTOR('',#1289,10.);
#223=VECTOR('',#1290,10.);
#224=VECTOR('',#1301,2.5);
#225=VECTOR('',#1306,2.5);
#226=VECTOR('',#1311,2.5);
#227=VECTOR('',#1318,2.575);
#228=VECTOR('',#1325,2.575);
#229=VECTOR('',#1332,2.575);
#230=VECTOR('',#1335,10.);
#231=VECTOR('',#1336,10.);
#232=VECTOR('',#1337,10.);
#233=VECTOR('',#1338,10.);
#234=VECTOR('',#1339,10.);
#235=VECTOR('',#1342,10.);
#236=VECTOR('',#1343,10.);
#237=VECTOR('',#1346,10.);
#238=VECTOR('',#1347,10.);
#239=VECTOR('',#1350,10.);
#240=VECTOR('',#1351,10.);
#241=VECTOR('',#1354,10.);
#242=VECTOR('',#1355,10.);
#243=VECTOR('',#1358,10.);
#244=VECTOR('',#1359,10.);
#245=VECTOR('',#1360,10.);
#246=VECTOR('',#1363,10.);
#247=VECTOR('',#1364,10.);
#248=VECTOR('',#1365,10.);
#249=VECTOR('',#1366,10.);
#250=VECTOR('',#1367,10.);
#251=VECTOR('',#1374,10.);
#252=VECTOR('',#1375,10.);
#253=VECTOR('',#1376,10.);
#254=VECTOR('',#1379,10.);
#255=VECTOR('',#1380,10.);
#256=VECTOR('',#1383,10.);
#257=VECTOR('',#1384,10.);
#258=VECTOR('',#1387,10.);
#259=VECTOR('',#1388,10.);
#260=VECTOR('',#1391,10.);
#261=VECTOR('',#1392,10.);
#262=VECTOR('',#1395,10.);
#263=VECTOR('',#1396,10.);
#264=VECTOR('',#1399,10.);
#265=VECTOR('',#1400,10.);
#266=VECTOR('',#1403,10.);
#267=VECTOR('',#1408,10.);
#268=VECTOR('',#1411,10.);
#269=VECTOR('',#1414,10.);
#270=VECTOR('',#1415,10.);
#271=VECTOR('',#1416,10.);
#272=VECTOR('',#1423,10.);
#273=VECTOR('',#1426,10.);
#274=VECTOR('',#1429,10.);
#275=VECTOR('',#1432,10.);
#276=VECTOR('',#1437,1.75000000000001);
#277=VECTOR('',#1444,1.75000000000001);
#278=VECTOR('',#1455,3.35000000000001);
#279=VECTOR('',#1464,3.35000000000001);
#280=VECTOR('',#1467,10.);
#281=VECTOR('',#1470,10.);
#282=VECTOR('',#1471,10.);
#283=VECTOR('',#1474,10.);
#284=VECTOR('',#1477,10.);
#285=FACE_OUTER_BOUND('',#346,.T.);
#286=FACE_OUTER_BOUND('',#347,.T.);
#287=FACE_OUTER_BOUND('',#348,.T.);
#288=FACE_OUTER_BOUND('',#349,.T.);
#289=FACE_OUTER_BOUND('',#350,.T.);
#290=FACE_OUTER_BOUND('',#351,.T.);
#291=FACE_OUTER_BOUND('',#352,.T.);
#292=FACE_OUTER_BOUND('',#353,.T.);
#293=FACE_OUTER_BOUND('',#354,.T.);
#294=FACE_OUTER_BOUND('',#355,.T.);
#295=FACE_OUTER_BOUND('',#357,.T.);
#296=FACE_OUTER_BOUND('',#358,.T.);
#297=FACE_OUTER_BOUND('',#359,.T.);
#298=FACE_OUTER_BOUND('',#361,.T.);
#299=FACE_OUTER_BOUND('',#362,.T.);
#300=FACE_OUTER_BOUND('',#363,.T.);
#301=FACE_OUTER_BOUND('',#364,.T.);
#302=FACE_OUTER_BOUND('',#366,.T.);
#303=FACE_OUTER_BOUND('',#370,.T.);
#304=FACE_OUTER_BOUND('',#371,.T.);
#305=FACE_OUTER_BOUND('',#372,.T.);
#306=FACE_OUTER_BOUND('',#373,.T.);
#307=FACE_OUTER_BOUND('',#374,.T.);
#308=FACE_OUTER_BOUND('',#375,.T.);
#309=FACE_OUTER_BOUND('',#376,.T.);
#310=FACE_OUTER_BOUND('',#377,.T.);
#311=FACE_OUTER_BOUND('',#378,.T.);
#312=FACE_OUTER_BOUND('',#379,.T.);
#313=FACE_OUTER_BOUND('',#380,.T.);
#314=FACE_OUTER_BOUND('',#381,.T.);
#315=FACE_OUTER_BOUND('',#382,.T.);
#316=FACE_OUTER_BOUND('',#383,.T.);
#317=FACE_OUTER_BOUND('',#384,.T.);
#318=FACE_OUTER_BOUND('',#389,.T.);
#319=FACE_OUTER_BOUND('',#390,.T.);
#320=FACE_OUTER_BOUND('',#391,.T.);
#321=FACE_OUTER_BOUND('',#392,.T.);
#322=FACE_OUTER_BOUND('',#393,.T.);
#323=FACE_OUTER_BOUND('',#394,.T.);
#324=FACE_OUTER_BOUND('',#395,.T.);
#325=FACE_OUTER_BOUND('',#396,.T.);
#326=FACE_OUTER_BOUND('',#397,.T.);
#327=FACE_OUTER_BOUND('',#398,.T.);
#328=FACE_OUTER_BOUND('',#399,.T.);
#329=FACE_OUTER_BOUND('',#400,.T.);
#330=FACE_OUTER_BOUND('',#401,.T.);
#331=FACE_OUTER_BOUND('',#402,.T.);
#332=FACE_OUTER_BOUND('',#403,.T.);
#333=FACE_OUTER_BOUND('',#404,.T.);
#334=FACE_OUTER_BOUND('',#405,.T.);
#335=FACE_OUTER_BOUND('',#406,.T.);
#336=FACE_OUTER_BOUND('',#407,.T.);
#337=FACE_OUTER_BOUND('',#408,.T.);
#338=FACE_OUTER_BOUND('',#410,.T.);
#339=FACE_OUTER_BOUND('',#411,.T.);
#340=FACE_OUTER_BOUND('',#413,.T.);
#341=FACE_OUTER_BOUND('',#414,.T.);
#342=FACE_OUTER_BOUND('',#415,.T.);
#343=FACE_OUTER_BOUND('',#418,.T.);
#344=FACE_OUTER_BOUND('',#419,.T.);
#345=FACE_OUTER_BOUND('',#422,.T.);
#346=EDGE_LOOP('',(#685));
#347=EDGE_LOOP('',(#686));
#348=EDGE_LOOP('',(#687));
#349=EDGE_LOOP('',(#688,#689,#690,#691));
#350=EDGE_LOOP('',(#692,#693,#694,#695));
#351=EDGE_LOOP('',(#696,#697,#698,#699));
#352=EDGE_LOOP('',(#700,#701,#702,#703));
#353=EDGE_LOOP('',(#704,#705,#706,#707));
#354=EDGE_LOOP('',(#708,#709,#710,#711));
#355=EDGE_LOOP('',(#712));
#356=EDGE_LOOP('',(#713));
#357=EDGE_LOOP('',(#714,#715,#716,#717));
#358=EDGE_LOOP('',(#718));
#359=EDGE_LOOP('',(#719,#720,#721,#722));
#360=EDGE_LOOP('',(#723));
#361=EDGE_LOOP('',(#724,#725,#726,#727));
#362=EDGE_LOOP('',(#728,#729,#730,#731));
#363=EDGE_LOOP('',(#732,#733,#734,#735));
#364=EDGE_LOOP('',(#736,#737,#738,#739,#740,#741,#742,#743));
#365=EDGE_LOOP('',(#744,#745,#746,#747,#748,#749,#750,#751));
#366=EDGE_LOOP('',(#752,#753,#754,#755,#756,#757,#758,#759,#760,#761,#762,
#763,#764,#765));
#367=EDGE_LOOP('',(#766));
#368=EDGE_LOOP('',(#767));
#369=EDGE_LOOP('',(#768));
#370=EDGE_LOOP('',(#769,#770,#771,#772));
#371=EDGE_LOOP('',(#773,#774,#775,#776));
#372=EDGE_LOOP('',(#777,#778,#779,#780));
#373=EDGE_LOOP('',(#781));
#374=EDGE_LOOP('',(#782,#783,#784,#785));
#375=EDGE_LOOP('',(#786));
#376=EDGE_LOOP('',(#787,#788,#789,#790));
#377=EDGE_LOOP('',(#791));
#378=EDGE_LOOP('',(#792,#793,#794,#795));
#379=EDGE_LOOP('',(#796,#797,#798,#799,#800,#801,#802,#803));
#380=EDGE_LOOP('',(#804,#805,#806,#807));
#381=EDGE_LOOP('',(#808,#809,#810,#811));
#382=EDGE_LOOP('',(#812,#813,#814,#815));
#383=EDGE_LOOP('',(#816,#817,#818,#819));
#384=EDGE_LOOP('',(#820,#821,#822,#823));
#385=EDGE_LOOP('',(#824,#825,#826,#827));
#386=EDGE_LOOP('',(#828));
#387=EDGE_LOOP('',(#829));
#388=EDGE_LOOP('',(#830));
#389=EDGE_LOOP('',(#831,#832,#833,#834,#835,#836,#837,#838,#839,#840));
#390=EDGE_LOOP('',(#841,#842,#843,#844));
#391=EDGE_LOOP('',(#845,#846,#847,#848));
#392=EDGE_LOOP('',(#849,#850,#851,#852));
#393=EDGE_LOOP('',(#853,#854,#855,#856));
#394=EDGE_LOOP('',(#857,#858,#859,#860));
#395=EDGE_LOOP('',(#861,#862,#863,#864));
#396=EDGE_LOOP('',(#865,#866,#867,#868));
#397=EDGE_LOOP('',(#869,#870,#871,#872));
#398=EDGE_LOOP('',(#873,#874,#875,#876));
#399=EDGE_LOOP('',(#877,#878,#879,#880));
#400=EDGE_LOOP('',(#881,#882,#883,#884));
#401=EDGE_LOOP('',(#885,#886,#887,#888));
#402=EDGE_LOOP('',(#889,#890,#891,#892));
#403=EDGE_LOOP('',(#893,#894,#895,#896));
#404=EDGE_LOOP('',(#897,#898,#899,#900));
#405=EDGE_LOOP('',(#901,#902,#903,#904));
#406=EDGE_LOOP('',(#905,#906,#907,#908));
#407=EDGE_LOOP('',(#909,#910,#911,#912));
#408=EDGE_LOOP('',(#913));
#409=EDGE_LOOP('',(#914));
#410=EDGE_LOOP('',(#915,#916,#917,#918));
#411=EDGE_LOOP('',(#919));
#412=EDGE_LOOP('',(#920));
#413=EDGE_LOOP('',(#921,#922,#923,#924));
#414=EDGE_LOOP('',(#925,#926,#927,#928));
#415=EDGE_LOOP('',(#929,#930,#931,#932,#933,#934,#935,#936,#937,#938,#939,
#940,#941,#942,#943,#944,#945,#946));
#416=EDGE_LOOP('',(#947));
#417=EDGE_LOOP('',(#948));
#418=EDGE_LOOP('',(#949,#950,#951,#952));
#419=EDGE_LOOP('',(#953,#954,#955,#956,#957,#958));
#420=EDGE_LOOP('',(#959));
#421=EDGE_LOOP('',(#960));
#422=EDGE_LOOP('',(#961,#962,#963,#964));
#423=EDGE_LOOP('',(#965,#966,#967,#968,#969,#970,#971,#972));
#424=CIRCLE('',#1096,2.5);
#425=CIRCLE('',#1098,2.5);
#426=CIRCLE('',#1100,2.5);
#427=CIRCLE('',#1107,2.20000000000001);
#428=CIRCLE('',#1108,2.20000000000001);
#429=CIRCLE('',#1110,1.35000000000002);
#430=CIRCLE('',#1112,1.35000000000002);
#431=CIRCLE('',#1120,2.575);
#432=CIRCLE('',#1121,2.575);
#433=CIRCLE('',#1122,2.575);
#434=CIRCLE('',#1130,2.575);
#435=CIRCLE('',#1133,2.575);
#436=CIRCLE('',#1136,2.575);
#437=CIRCLE('',#1156,5.00000000000002);
#438=CIRCLE('',#1160,5.);
#439=CIRCLE('',#1166,1.75000000000001);
#440=CIRCLE('',#1167,1.75000000000001);
#441=CIRCLE('',#1169,1.75000000000001);
#442=CIRCLE('',#1170,1.75000000000001);
#443=CIRCLE('',#1172,3.35000000000001);
#444=CIRCLE('',#1176,3.35000000000001);
#445=VERTEX_POINT('',#1482);
#446=VERTEX_POINT('',#1485);
#447=VERTEX_POINT('',#1488);
#448=VERTEX_POINT('',#1491);
#449=VERTEX_POINT('',#1492);
#450=VERTEX_POINT('',#1494);
#451=VERTEX_POINT('',#1496);
#452=VERTEX_POINT('',#1500);
#453=VERTEX_POINT('',#1502);
#454=VERTEX_POINT('',#1506);
#455=VERTEX_POINT('',#1508);
#456=VERTEX_POINT('',#1516);
#457=VERTEX_POINT('',#1518);
#458=VERTEX_POINT('',#1522);
#459=VERTEX_POINT('',#1525);
#460=VERTEX_POINT('',#1530);
#461=VERTEX_POINT('',#1531);
#462=VERTEX_POINT('',#1533);
#463=VERTEX_POINT('',#1535);
#464=VERTEX_POINT('',#1539);
#465=VERTEX_POINT('',#1540);
#466=VERTEX_POINT('',#1542);
#467=VERTEX_POINT('',#1544);
#468=VERTEX_POINT('',#1548);
#469=VERTEX_POINT('',#1549);
#470=VERTEX_POINT('',#1551);
#471=VERTEX_POINT('',#1553);
#472=VERTEX_POINT('',#1557);
#473=VERTEX_POINT('',#1558);
#474=VERTEX_POINT('',#1560);
#475=VERTEX_POINT('',#1562);
#476=VERTEX_POINT('',#1566);
#477=VERTEX_POINT('',#1568);
#478=VERTEX_POINT('',#1570);
#479=VERTEX_POINT('',#1573);
#480=VERTEX_POINT('',#1576);
#481=VERTEX_POINT('',#1577);
#482=VERTEX_POINT('',#1579);
#483=VERTEX_POINT('',#1581);
#484=VERTEX_POINT('',#1583);
#485=VERTEX_POINT('',#1585);
#486=VERTEX_POINT('',#1587);
#487=VERTEX_POINT('',#1589);
#488=VERTEX_POINT('',#1593);
#489=VERTEX_POINT('',#1595);
#490=VERTEX_POINT('',#1597);
#491=VERTEX_POINT('',#1599);
#492=VERTEX_POINT('',#1602);
#493=VERTEX_POINT('',#1604);
#494=VERTEX_POINT('',#1606);
#495=VERTEX_POINT('',#1608);
#496=VERTEX_POINT('',#1610);
#497=VERTEX_POINT('',#1613);
#498=VERTEX_POINT('',#1615);
#499=VERTEX_POINT('',#1617);
#500=VERTEX_POINT('',#1620);
#501=VERTEX_POINT('',#1624);
#502=VERTEX_POINT('',#1628);
#503=VERTEX_POINT('',#1632);
#504=VERTEX_POINT('',#1637);
#505=VERTEX_POINT('',#1642);
#506=VERTEX_POINT('',#1647);
#507=VERTEX_POINT('',#1650);
#508=VERTEX_POINT('',#1652);
#509=VERTEX_POINT('',#1656);
#510=VERTEX_POINT('',#1660);
#511=VERTEX_POINT('',#1664);
#512=VERTEX_POINT('',#1668);
#513=VERTEX_POINT('',#1672);
#514=VERTEX_POINT('',#1674);
#515=VERTEX_POINT('',#1678);
#516=VERTEX_POINT('',#1679);
#517=VERTEX_POINT('',#1688);
#518=VERTEX_POINT('',#1690);
#519=VERTEX_POINT('',#1694);
#520=VERTEX_POINT('',#1698);
#521=VERTEX_POINT('',#1702);
#522=VERTEX_POINT('',#1706);
#523=VERTEX_POINT('',#1710);
#524=VERTEX_POINT('',#1714);
#525=VERTEX_POINT('',#1720);
#526=VERTEX_POINT('',#1721);
#527=VERTEX_POINT('',#1723);
#528=VERTEX_POINT('',#1725);
#529=VERTEX_POINT('',#1729);
#530=VERTEX_POINT('',#1731);
#531=VERTEX_POINT('',#1735);
#532=VERTEX_POINT('',#1737);
#533=VERTEX_POINT('',#1747);
#534=VERTEX_POINT('',#1749);
#535=VERTEX_POINT('',#1753);
#536=VERTEX_POINT('',#1755);
#537=VERTEX_POINT('',#1759);
#538=VERTEX_POINT('',#1762);
#539=VERTEX_POINT('',#1766);
#540=VERTEX_POINT('',#1769);
#541=EDGE_CURVE('',#445,#445,#424,.T.);
#542=EDGE_CURVE('',#446,#446,#425,.T.);
#543=EDGE_CURVE('',#447,#447,#426,.T.);
#544=EDGE_CURVE('',#448,#449,#53,.T.);
#545=EDGE_CURVE('',#448,#450,#54,.T.);
#546=EDGE_CURVE('',#450,#451,#55,.T.);
#547=EDGE_CURVE('',#449,#451,#56,.T.);
#548=EDGE_CURVE('',#452,#448,#57,.T.);
#549=EDGE_CURVE('',#452,#453,#58,.T.);
#550=EDGE_CURVE('',#453,#450,#59,.T.);
#551=EDGE_CURVE('',#454,#452,#60,.T.);
#552=EDGE_CURVE('',#454,#455,#61,.T.);
#553=EDGE_CURVE('',#455,#453,#62,.T.);
#554=EDGE_CURVE('',#449,#454,#63,.T.);
#555=EDGE_CURVE('',#451,#455,#64,.T.);
#556=EDGE_CURVE('',#456,#456,#427,.T.);
#557=EDGE_CURVE('',#456,#457,#65,.T.);
#558=EDGE_CURVE('',#457,#457,#428,.T.);
#559=EDGE_CURVE('',#458,#458,#429,.T.);
#560=EDGE_CURVE('',#458,#459,#66,.T.);
#561=EDGE_CURVE('',#459,#459,#430,.T.);
#562=EDGE_CURVE('',#460,#461,#67,.T.);
#563=EDGE_CURVE('',#462,#460,#68,.T.);
#564=EDGE_CURVE('',#463,#462,#69,.T.);
#565=EDGE_CURVE('',#461,#463,#70,.T.);
#566=EDGE_CURVE('',#464,#465,#71,.T.);
#567=EDGE_CURVE('',#466,#464,#72,.T.);
#568=EDGE_CURVE('',#467,#466,#73,.T.);
#569=EDGE_CURVE('',#465,#467,#74,.T.);
#570=EDGE_CURVE('',#468,#469,#75,.T.);
#571=EDGE_CURVE('',#470,#468,#76,.T.);
#572=EDGE_CURVE('',#471,#470,#77,.T.);
#573=EDGE_CURVE('',#469,#471,#78,.T.);
#574=EDGE_CURVE('',#472,#473,#79,.T.);
#575=EDGE_CURVE('',#474,#472,#80,.T.);
#576=EDGE_CURVE('',#475,#474,#81,.T.);
#577=EDGE_CURVE('',#473,#475,#82,.T.);
#578=EDGE_CURVE('',#476,#463,#83,.T.);
#579=EDGE_CURVE('',#462,#477,#84,.T.);
#580=EDGE_CURVE('',#477,#478,#85,.T.);
#581=EDGE_CURVE('',#465,#478,#86,.T.);
#582=EDGE_CURVE('',#467,#479,#87,.T.);
#583=EDGE_CURVE('',#479,#476,#88,.T.);
#584=EDGE_CURVE('',#480,#481,#89,.T.);
#585=EDGE_CURVE('',#481,#482,#90,.T.);
#586=EDGE_CURVE('',#482,#483,#91,.T.);
#587=EDGE_CURVE('',#483,#484,#92,.T.);
#588=EDGE_CURVE('',#484,#485,#93,.T.);
#589=EDGE_CURVE('',#485,#486,#94,.T.);
#590=EDGE_CURVE('',#486,#487,#95,.T.);
#591=EDGE_CURVE('',#487,#480,#96,.T.);
#592=EDGE_CURVE('',#488,#464,#97,.T.);
#593=EDGE_CURVE('',#478,#489,#98,.T.);
#594=EDGE_CURVE('',#489,#490,#99,.T.);
#595=EDGE_CURVE('',#490,#491,#100,.T.);
#596=EDGE_CURVE('',#491,#468,#101,.T.);
#597=EDGE_CURVE('',#469,#492,#102,.T.);
#598=EDGE_CURVE('',#492,#493,#103,.T.);
#599=EDGE_CURVE('',#493,#494,#104,.T.);
#600=EDGE_CURVE('',#494,#495,#105,.T.);
#601=EDGE_CURVE('',#495,#496,#106,.T.);
#602=EDGE_CURVE('',#496,#488,#107,.T.);
#603=EDGE_CURVE('',#497,#497,#431,.T.);
#604=EDGE_CURVE('',#498,#498,#432,.T.);
#605=EDGE_CURVE('',#499,#499,#433,.T.);
#606=EDGE_CURVE('',#500,#500,#15,.T.);
#607=EDGE_CURVE('',#500,#445,#108,.T.);
#608=EDGE_CURVE('',#501,#501,#16,.T.);
#609=EDGE_CURVE('',#501,#447,#109,.T.);
#610=EDGE_CURVE('',#502,#502,#17,.T.);
#611=EDGE_CURVE('',#502,#446,#110,.T.);
#612=EDGE_CURVE('',#503,#503,#434,.T.);
#613=EDGE_CURVE('',#503,#499,#111,.T.);
#614=EDGE_CURVE('',#504,#504,#435,.T.);
#615=EDGE_CURVE('',#504,#498,#112,.T.);
#616=EDGE_CURVE('',#505,#505,#436,.T.);
#617=EDGE_CURVE('',#505,#497,#113,.T.);
#618=EDGE_CURVE('',#491,#506,#114,.T.);
#619=EDGE_CURVE('',#473,#506,#115,.T.);
#620=EDGE_CURVE('',#475,#507,#116,.T.);
#621=EDGE_CURVE('',#508,#507,#117,.T.);
#622=EDGE_CURVE('',#508,#470,#118,.T.);
#623=EDGE_CURVE('',#479,#509,#119,.T.);
#624=EDGE_CURVE('',#509,#466,#120,.T.);
#625=EDGE_CURVE('',#510,#476,#121,.T.);
#626=EDGE_CURVE('',#510,#461,#122,.T.);
#627=EDGE_CURVE('',#511,#508,#123,.T.);
#628=EDGE_CURVE('',#511,#471,#124,.T.);
#629=EDGE_CURVE('',#507,#512,#125,.T.);
#630=EDGE_CURVE('',#512,#474,#126,.T.);
#631=EDGE_CURVE('',#513,#489,#127,.T.);
#632=EDGE_CURVE('',#514,#513,#128,.T.);
#633=EDGE_CURVE('',#514,#490,#129,.T.);
#634=EDGE_CURVE('',#515,#516,#130,.T.);
#635=EDGE_CURVE('',#472,#516,#131,.T.);
#636=EDGE_CURVE('',#506,#514,#132,.T.);
#637=EDGE_CURVE('',#477,#513,#133,.T.);
#638=EDGE_CURVE('',#515,#460,#134,.T.);
#639=EDGE_CURVE('',#517,#483,#135,.T.);
#640=EDGE_CURVE('',#518,#517,#136,.T.);
#641=EDGE_CURVE('',#518,#484,#137,.T.);
#642=EDGE_CURVE('',#519,#482,#138,.T.);
#643=EDGE_CURVE('',#517,#519,#139,.T.);
#644=EDGE_CURVE('',#520,#481,#140,.T.);
#645=EDGE_CURVE('',#519,#520,#141,.T.);
#646=EDGE_CURVE('',#521,#480,#142,.T.);
#647=EDGE_CURVE('',#520,#521,#143,.T.);
#648=EDGE_CURVE('',#522,#487,#144,.T.);
#649=EDGE_CURVE('',#521,#522,#145,.T.);
#650=EDGE_CURVE('',#523,#486,#146,.T.);
#651=EDGE_CURVE('',#522,#523,#147,.T.);
#652=EDGE_CURVE('',#524,#485,#148,.T.);
#653=EDGE_CURVE('',#523,#524,#149,.T.);
#654=EDGE_CURVE('',#524,#518,#150,.T.);
#655=EDGE_CURVE('',#525,#526,#437,.T.);
#656=EDGE_CURVE('',#527,#526,#151,.T.);
#657=EDGE_CURVE('',#527,#528,#18,.T.);
#658=EDGE_CURVE('',#528,#525,#152,.T.);
#659=EDGE_CURVE('',#529,#525,#153,.T.);
#660=EDGE_CURVE('',#530,#528,#154,.F.);
#661=EDGE_CURVE('',#530,#529,#155,.T.);
#662=EDGE_CURVE('',#531,#529,#438,.T.);
#663=EDGE_CURVE('',#530,#532,#19,.T.);
#664=EDGE_CURVE('',#532,#531,#156,.T.);
#665=EDGE_CURVE('',#510,#515,#157,.T.);
#666=EDGE_CURVE('',#488,#509,#158,.T.);
#667=EDGE_CURVE('',#516,#512,#159,.T.);
#668=EDGE_CURVE('',#533,#533,#439,.T.);
#669=EDGE_CURVE('',#533,#534,#160,.T.);
#670=EDGE_CURVE('',#534,#534,#440,.T.);
#671=EDGE_CURVE('',#535,#535,#441,.T.);
#672=EDGE_CURVE('',#535,#536,#161,.T.);
#673=EDGE_CURVE('',#536,#536,#442,.T.);
#674=EDGE_CURVE('',#537,#537,#443,.T.);
#675=EDGE_CURVE('',#538,#538,#20,.T.);
#676=EDGE_CURVE('',#538,#537,#162,.T.);
#677=EDGE_CURVE('',#539,#539,#444,.T.);
#678=EDGE_CURVE('',#540,#540,#21,.T.);
#679=EDGE_CURVE('',#540,#539,#163,.T.);
#680=EDGE_CURVE('',#511,#492,#164,.T.);
#681=EDGE_CURVE('',#526,#496,#165,.T.);
#682=EDGE_CURVE('',#493,#531,#166,.T.);
#683=EDGE_CURVE('',#494,#532,#167,.F.);
#684=EDGE_CURVE('',#527,#495,#168,.T.);
#685=ORIENTED_EDGE('',*,*,#541,.T.);
#686=ORIENTED_EDGE('',*,*,#542,.T.);
#687=ORIENTED_EDGE('',*,*,#543,.T.);
#688=ORIENTED_EDGE('',*,*,#544,.F.);
#689=ORIENTED_EDGE('',*,*,#545,.T.);
#690=ORIENTED_EDGE('',*,*,#546,.T.);
#691=ORIENTED_EDGE('',*,*,#547,.F.);
#692=ORIENTED_EDGE('',*,*,#548,.F.);
#693=ORIENTED_EDGE('',*,*,#549,.T.);
#694=ORIENTED_EDGE('',*,*,#550,.T.);
#695=ORIENTED_EDGE('',*,*,#545,.F.);
#696=ORIENTED_EDGE('',*,*,#551,.F.);
#697=ORIENTED_EDGE('',*,*,#552,.T.);
#698=ORIENTED_EDGE('',*,*,#553,.T.);
#699=ORIENTED_EDGE('',*,*,#549,.F.);
#700=ORIENTED_EDGE('',*,*,#554,.F.);
#701=ORIENTED_EDGE('',*,*,#547,.T.);
#702=ORIENTED_EDGE('',*,*,#555,.T.);
#703=ORIENTED_EDGE('',*,*,#552,.F.);
#704=ORIENTED_EDGE('',*,*,#555,.F.);
#705=ORIENTED_EDGE('',*,*,#546,.F.);
#706=ORIENTED_EDGE('',*,*,#550,.F.);
#707=ORIENTED_EDGE('',*,*,#553,.F.);
#708=ORIENTED_EDGE('',*,*,#556,.F.);
#709=ORIENTED_EDGE('',*,*,#557,.T.);
#710=ORIENTED_EDGE('',*,*,#558,.T.);
#711=ORIENTED_EDGE('',*,*,#557,.F.);
#712=ORIENTED_EDGE('',*,*,#558,.F.);
#713=ORIENTED_EDGE('',*,*,#559,.F.);
#714=ORIENTED_EDGE('',*,*,#559,.T.);
#715=ORIENTED_EDGE('',*,*,#560,.T.);
#716=ORIENTED_EDGE('',*,*,#561,.T.);
#717=ORIENTED_EDGE('',*,*,#560,.F.);
#718=ORIENTED_EDGE('',*,*,#561,.F.);
#719=ORIENTED_EDGE('',*,*,#562,.F.);
#720=ORIENTED_EDGE('',*,*,#563,.F.);
#721=ORIENTED_EDGE('',*,*,#564,.F.);
#722=ORIENTED_EDGE('',*,*,#565,.F.);
#723=ORIENTED_EDGE('',*,*,#556,.T.);
#724=ORIENTED_EDGE('',*,*,#566,.F.);
#725=ORIENTED_EDGE('',*,*,#567,.F.);
#726=ORIENTED_EDGE('',*,*,#568,.F.);
#727=ORIENTED_EDGE('',*,*,#569,.F.);
#728=ORIENTED_EDGE('',*,*,#570,.F.);
#729=ORIENTED_EDGE('',*,*,#571,.F.);
#730=ORIENTED_EDGE('',*,*,#572,.F.);
#731=ORIENTED_EDGE('',*,*,#573,.F.);
#732=ORIENTED_EDGE('',*,*,#574,.F.);
#733=ORIENTED_EDGE('',*,*,#575,.F.);
#734=ORIENTED_EDGE('',*,*,#576,.F.);
#735=ORIENTED_EDGE('',*,*,#577,.F.);
#736=ORIENTED_EDGE('',*,*,#578,.T.);
#737=ORIENTED_EDGE('',*,*,#564,.T.);
#738=ORIENTED_EDGE('',*,*,#579,.T.);
#739=ORIENTED_EDGE('',*,*,#580,.T.);
#740=ORIENTED_EDGE('',*,*,#581,.F.);
#741=ORIENTED_EDGE('',*,*,#569,.T.);
#742=ORIENTED_EDGE('',*,*,#582,.T.);
#743=ORIENTED_EDGE('',*,*,#583,.T.);
#744=ORIENTED_EDGE('',*,*,#584,.T.);
#745=ORIENTED_EDGE('',*,*,#585,.T.);
#746=ORIENTED_EDGE('',*,*,#586,.T.);
#747=ORIENTED_EDGE('',*,*,#587,.T.);
#748=ORIENTED_EDGE('',*,*,#588,.T.);
#749=ORIENTED_EDGE('',*,*,#589,.T.);
#750=ORIENTED_EDGE('',*,*,#590,.T.);
#751=ORIENTED_EDGE('',*,*,#591,.T.);
#752=ORIENTED_EDGE('',*,*,#592,.T.);
#753=ORIENTED_EDGE('',*,*,#566,.T.);
#754=ORIENTED_EDGE('',*,*,#581,.T.);
#755=ORIENTED_EDGE('',*,*,#593,.T.);
#756=ORIENTED_EDGE('',*,*,#594,.T.);
#757=ORIENTED_EDGE('',*,*,#595,.T.);
#758=ORIENTED_EDGE('',*,*,#596,.T.);
#759=ORIENTED_EDGE('',*,*,#570,.T.);
#760=ORIENTED_EDGE('',*,*,#597,.T.);
#761=ORIENTED_EDGE('',*,*,#598,.T.);
#762=ORIENTED_EDGE('',*,*,#599,.T.);
#763=ORIENTED_EDGE('',*,*,#600,.T.);
#764=ORIENTED_EDGE('',*,*,#601,.T.);
#765=ORIENTED_EDGE('',*,*,#602,.T.);
#766=ORIENTED_EDGE('',*,*,#603,.T.);
#767=ORIENTED_EDGE('',*,*,#604,.T.);
#768=ORIENTED_EDGE('',*,*,#605,.T.);
#769=ORIENTED_EDGE('',*,*,#606,.F.);
#770=ORIENTED_EDGE('',*,*,#607,.T.);
#771=ORIENTED_EDGE('',*,*,#541,.F.);
#772=ORIENTED_EDGE('',*,*,#607,.F.);
#773=ORIENTED_EDGE('',*,*,#608,.F.);
#774=ORIENTED_EDGE('',*,*,#609,.T.);
#775=ORIENTED_EDGE('',*,*,#543,.F.);
#776=ORIENTED_EDGE('',*,*,#609,.F.);
#777=ORIENTED_EDGE('',*,*,#610,.F.);
#778=ORIENTED_EDGE('',*,*,#611,.T.);
#779=ORIENTED_EDGE('',*,*,#542,.F.);
#780=ORIENTED_EDGE('',*,*,#611,.F.);
#781=ORIENTED_EDGE('',*,*,#612,.F.);
#782=ORIENTED_EDGE('',*,*,#612,.T.);
#783=ORIENTED_EDGE('',*,*,#613,.T.);
#784=ORIENTED_EDGE('',*,*,#605,.F.);
#785=ORIENTED_EDGE('',*,*,#613,.F.);
#786=ORIENTED_EDGE('',*,*,#614,.F.);
#787=ORIENTED_EDGE('',*,*,#614,.T.);
#788=ORIENTED_EDGE('',*,*,#615,.T.);
#789=ORIENTED_EDGE('',*,*,#604,.F.);
#790=ORIENTED_EDGE('',*,*,#615,.F.);
#791=ORIENTED_EDGE('',*,*,#616,.F.);
#792=ORIENTED_EDGE('',*,*,#616,.T.);
#793=ORIENTED_EDGE('',*,*,#617,.T.);
#794=ORIENTED_EDGE('',*,*,#603,.F.);
#795=ORIENTED_EDGE('',*,*,#617,.F.);
#796=ORIENTED_EDGE('',*,*,#571,.T.);
#797=ORIENTED_EDGE('',*,*,#596,.F.);
#798=ORIENTED_EDGE('',*,*,#618,.T.);
#799=ORIENTED_EDGE('',*,*,#619,.F.);
#800=ORIENTED_EDGE('',*,*,#577,.T.);
#801=ORIENTED_EDGE('',*,*,#620,.T.);
#802=ORIENTED_EDGE('',*,*,#621,.F.);
#803=ORIENTED_EDGE('',*,*,#622,.T.);
#804=ORIENTED_EDGE('',*,*,#623,.F.);
#805=ORIENTED_EDGE('',*,*,#582,.F.);
#806=ORIENTED_EDGE('',*,*,#568,.T.);
#807=ORIENTED_EDGE('',*,*,#624,.F.);
#808=ORIENTED_EDGE('',*,*,#625,.F.);
#809=ORIENTED_EDGE('',*,*,#626,.T.);
#810=ORIENTED_EDGE('',*,*,#565,.T.);
#811=ORIENTED_EDGE('',*,*,#578,.F.);
#812=ORIENTED_EDGE('',*,*,#627,.F.);
#813=ORIENTED_EDGE('',*,*,#628,.T.);
#814=ORIENTED_EDGE('',*,*,#572,.T.);
#815=ORIENTED_EDGE('',*,*,#622,.F.);
#816=ORIENTED_EDGE('',*,*,#629,.F.);
#817=ORIENTED_EDGE('',*,*,#620,.F.);
#818=ORIENTED_EDGE('',*,*,#576,.T.);
#819=ORIENTED_EDGE('',*,*,#630,.F.);
#820=ORIENTED_EDGE('',*,*,#594,.F.);
#821=ORIENTED_EDGE('',*,*,#631,.F.);
#822=ORIENTED_EDGE('',*,*,#632,.F.);
#823=ORIENTED_EDGE('',*,*,#633,.T.);
#824=ORIENTED_EDGE('',*,*,#544,.T.);
#825=ORIENTED_EDGE('',*,*,#554,.T.);
#826=ORIENTED_EDGE('',*,*,#551,.T.);
#827=ORIENTED_EDGE('',*,*,#548,.T.);
#828=ORIENTED_EDGE('',*,*,#606,.T.);
#829=ORIENTED_EDGE('',*,*,#608,.T.);
#830=ORIENTED_EDGE('',*,*,#610,.T.);
#831=ORIENTED_EDGE('',*,*,#634,.T.);
#832=ORIENTED_EDGE('',*,*,#635,.F.);
#833=ORIENTED_EDGE('',*,*,#574,.T.);
#834=ORIENTED_EDGE('',*,*,#619,.T.);
#835=ORIENTED_EDGE('',*,*,#636,.T.);
#836=ORIENTED_EDGE('',*,*,#632,.T.);
#837=ORIENTED_EDGE('',*,*,#637,.F.);
#838=ORIENTED_EDGE('',*,*,#579,.F.);
#839=ORIENTED_EDGE('',*,*,#563,.T.);
#840=ORIENTED_EDGE('',*,*,#638,.F.);
#841=ORIENTED_EDGE('',*,*,#595,.F.);
#842=ORIENTED_EDGE('',*,*,#633,.F.);
#843=ORIENTED_EDGE('',*,*,#636,.F.);
#844=ORIENTED_EDGE('',*,*,#618,.F.);
#845=ORIENTED_EDGE('',*,*,#593,.F.);
#846=ORIENTED_EDGE('',*,*,#580,.F.);
#847=ORIENTED_EDGE('',*,*,#637,.T.);
#848=ORIENTED_EDGE('',*,*,#631,.T.);
#849=ORIENTED_EDGE('',*,*,#587,.F.);
#850=ORIENTED_EDGE('',*,*,#639,.F.);
#851=ORIENTED_EDGE('',*,*,#640,.F.);
#852=ORIENTED_EDGE('',*,*,#641,.T.);
#853=ORIENTED_EDGE('',*,*,#586,.F.);
#854=ORIENTED_EDGE('',*,*,#642,.F.);
#855=ORIENTED_EDGE('',*,*,#643,.F.);
#856=ORIENTED_EDGE('',*,*,#639,.T.);
#857=ORIENTED_EDGE('',*,*,#585,.F.);
#858=ORIENTED_EDGE('',*,*,#644,.F.);
#859=ORIENTED_EDGE('',*,*,#645,.F.);
#860=ORIENTED_EDGE('',*,*,#642,.T.);
#861=ORIENTED_EDGE('',*,*,#584,.F.);
#862=ORIENTED_EDGE('',*,*,#646,.F.);
#863=ORIENTED_EDGE('',*,*,#647,.F.);
#864=ORIENTED_EDGE('',*,*,#644,.T.);
#865=ORIENTED_EDGE('',*,*,#591,.F.);
#866=ORIENTED_EDGE('',*,*,#648,.F.);
#867=ORIENTED_EDGE('',*,*,#649,.F.);
#868=ORIENTED_EDGE('',*,*,#646,.T.);
#869=ORIENTED_EDGE('',*,*,#590,.F.);
#870=ORIENTED_EDGE('',*,*,#650,.F.);
#871=ORIENTED_EDGE('',*,*,#651,.F.);
#872=ORIENTED_EDGE('',*,*,#648,.T.);
#873=ORIENTED_EDGE('',*,*,#589,.F.);
#874=ORIENTED_EDGE('',*,*,#652,.F.);
#875=ORIENTED_EDGE('',*,*,#653,.F.);
#876=ORIENTED_EDGE('',*,*,#650,.T.);
#877=ORIENTED_EDGE('',*,*,#588,.F.);
#878=ORIENTED_EDGE('',*,*,#641,.F.);
#879=ORIENTED_EDGE('',*,*,#654,.F.);
#880=ORIENTED_EDGE('',*,*,#652,.T.);
#881=ORIENTED_EDGE('',*,*,#655,.T.);
#882=ORIENTED_EDGE('',*,*,#656,.F.);
#883=ORIENTED_EDGE('',*,*,#657,.T.);
#884=ORIENTED_EDGE('',*,*,#658,.T.);
#885=ORIENTED_EDGE('',*,*,#659,.T.);
#886=ORIENTED_EDGE('',*,*,#658,.F.);
#887=ORIENTED_EDGE('',*,*,#660,.F.);
#888=ORIENTED_EDGE('',*,*,#661,.T.);
#889=ORIENTED_EDGE('',*,*,#662,.T.);
#890=ORIENTED_EDGE('',*,*,#661,.F.);
#891=ORIENTED_EDGE('',*,*,#663,.T.);
#892=ORIENTED_EDGE('',*,*,#664,.T.);
#893=ORIENTED_EDGE('',*,*,#665,.T.);
#894=ORIENTED_EDGE('',*,*,#638,.T.);
#895=ORIENTED_EDGE('',*,*,#562,.T.);
#896=ORIENTED_EDGE('',*,*,#626,.F.);
#897=ORIENTED_EDGE('',*,*,#592,.F.);
#898=ORIENTED_EDGE('',*,*,#666,.T.);
#899=ORIENTED_EDGE('',*,*,#624,.T.);
#900=ORIENTED_EDGE('',*,*,#567,.T.);
#901=ORIENTED_EDGE('',*,*,#667,.T.);
#902=ORIENTED_EDGE('',*,*,#630,.T.);
#903=ORIENTED_EDGE('',*,*,#575,.T.);
#904=ORIENTED_EDGE('',*,*,#635,.T.);
#905=ORIENTED_EDGE('',*,*,#668,.T.);
#906=ORIENTED_EDGE('',*,*,#669,.T.);
#907=ORIENTED_EDGE('',*,*,#670,.F.);
#908=ORIENTED_EDGE('',*,*,#669,.F.);
#909=ORIENTED_EDGE('',*,*,#671,.T.);
#910=ORIENTED_EDGE('',*,*,#672,.T.);
#911=ORIENTED_EDGE('',*,*,#673,.F.);
#912=ORIENTED_EDGE('',*,*,#672,.F.);
#913=ORIENTED_EDGE('',*,*,#674,.F.);
#914=ORIENTED_EDGE('',*,*,#671,.F.);
#915=ORIENTED_EDGE('',*,*,#675,.F.);
#916=ORIENTED_EDGE('',*,*,#676,.T.);
#917=ORIENTED_EDGE('',*,*,#674,.T.);
#918=ORIENTED_EDGE('',*,*,#676,.F.);
#919=ORIENTED_EDGE('',*,*,#677,.F.);
#920=ORIENTED_EDGE('',*,*,#668,.F.);
#921=ORIENTED_EDGE('',*,*,#678,.F.);
#922=ORIENTED_EDGE('',*,*,#679,.T.);
#923=ORIENTED_EDGE('',*,*,#677,.T.);
#924=ORIENTED_EDGE('',*,*,#679,.F.);
#925=ORIENTED_EDGE('',*,*,#597,.F.);
#926=ORIENTED_EDGE('',*,*,#573,.T.);
#927=ORIENTED_EDGE('',*,*,#628,.F.);
#928=ORIENTED_EDGE('',*,*,#680,.T.);
#929=ORIENTED_EDGE('',*,*,#602,.F.);
#930=ORIENTED_EDGE('',*,*,#681,.F.);
#931=ORIENTED_EDGE('',*,*,#655,.F.);
#932=ORIENTED_EDGE('',*,*,#659,.F.);
#933=ORIENTED_EDGE('',*,*,#662,.F.);
#934=ORIENTED_EDGE('',*,*,#682,.F.);
#935=ORIENTED_EDGE('',*,*,#598,.F.);
#936=ORIENTED_EDGE('',*,*,#680,.F.);
#937=ORIENTED_EDGE('',*,*,#627,.T.);
#938=ORIENTED_EDGE('',*,*,#621,.T.);
#939=ORIENTED_EDGE('',*,*,#629,.T.);
#940=ORIENTED_EDGE('',*,*,#667,.F.);
#941=ORIENTED_EDGE('',*,*,#634,.F.);
#942=ORIENTED_EDGE('',*,*,#665,.F.);
#943=ORIENTED_EDGE('',*,*,#625,.T.);
#944=ORIENTED_EDGE('',*,*,#583,.F.);
#945=ORIENTED_EDGE('',*,*,#623,.T.);
#946=ORIENTED_EDGE('',*,*,#666,.F.);
#947=ORIENTED_EDGE('',*,*,#673,.T.);
#948=ORIENTED_EDGE('',*,*,#670,.T.);
#949=ORIENTED_EDGE('',*,*,#599,.F.);
#950=ORIENTED_EDGE('',*,*,#682,.T.);
#951=ORIENTED_EDGE('',*,*,#664,.F.);
#952=ORIENTED_EDGE('',*,*,#683,.F.);
#953=ORIENTED_EDGE('',*,*,#600,.F.);
#954=ORIENTED_EDGE('',*,*,#683,.T.);
#955=ORIENTED_EDGE('',*,*,#663,.F.);
#956=ORIENTED_EDGE('',*,*,#660,.T.);
#957=ORIENTED_EDGE('',*,*,#657,.F.);
#958=ORIENTED_EDGE('',*,*,#684,.T.);
#959=ORIENTED_EDGE('',*,*,#675,.T.);
#960=ORIENTED_EDGE('',*,*,#678,.T.);
#961=ORIENTED_EDGE('',*,*,#601,.F.);
#962=ORIENTED_EDGE('',*,*,#684,.F.);
#963=ORIENTED_EDGE('',*,*,#656,.T.);
#964=ORIENTED_EDGE('',*,*,#681,.T.);
#965=ORIENTED_EDGE('',*,*,#647,.T.);
#966=ORIENTED_EDGE('',*,*,#649,.T.);
#967=ORIENTED_EDGE('',*,*,#651,.T.);
#968=ORIENTED_EDGE('',*,*,#653,.T.);
#969=ORIENTED_EDGE('',*,*,#654,.T.);
#970=ORIENTED_EDGE('',*,*,#640,.T.);
#971=ORIENTED_EDGE('',*,*,#643,.T.);
#972=ORIENTED_EDGE('',*,*,#645,.T.);
#973=PLANE('',#1095);
#974=PLANE('',#1097);
#975=PLANE('',#1099);
#976=PLANE('',#1101);
#977=PLANE('',#1102);
#978=PLANE('',#1103);
#979=PLANE('',#1104);
#980=PLANE('',#1105);
#981=PLANE('',#1109);
#982=PLANE('',#1113);
#983=PLANE('',#1114);
#984=PLANE('',#1115);
#985=PLANE('',#1116);
#986=PLANE('',#1117);
#987=PLANE('',#1118);
#988=PLANE('',#1119);
#989=PLANE('',#1129);
#990=PLANE('',#1132);
#991=PLANE('',#1135);
#992=PLANE('',#1138);
#993=PLANE('',#1139);
#994=PLANE('',#1140);
#995=PLANE('',#1141);
#996=PLANE('',#1142);
#997=PLANE('',#1143);
#998=PLANE('',#1144);
#999=PLANE('',#1145);
#1000=PLANE('',#1146);
#1001=PLANE('',#1147);
#1002=PLANE('',#1148);
#1003=PLANE('',#1149);
#1004=PLANE('',#1150);
#1005=PLANE('',#1151);
#1006=PLANE('',#1152);
#1007=PLANE('',#1153);
#1008=PLANE('',#1154);
#1009=PLANE('',#1158);
#1010=PLANE('',#1162);
#1011=PLANE('',#1163);
#1012=PLANE('',#1164);
#1013=PLANE('',#1171);
#1014=PLANE('',#1175);
#1015=PLANE('',#1179);
#1016=PLANE('',#1180);
#1017=PLANE('',#1181);
#1018=PLANE('',#1182);
#1019=PLANE('',#1183);
#1020=ADVANCED_FACE('',(#285),#973,.T.);
#1021=ADVANCED_FACE('',(#286),#974,.T.);
#1022=ADVANCED_FACE('',(#287),#975,.T.);
#1023=ADVANCED_FACE('',(#288),#976,.F.);
#1024=ADVANCED_FACE('',(#289),#977,.F.);
#1025=ADVANCED_FACE('',(#290),#978,.F.);
#1026=ADVANCED_FACE('',(#291),#979,.F.);
#1027=ADVANCED_FACE('',(#292),#980,.F.);
#1028=ADVANCED_FACE('',(#293),#39,.F.);
#1029=ADVANCED_FACE('',(#294,#22),#981,.T.);
#1030=ADVANCED_FACE('',(#295),#40,.F.);
#1031=ADVANCED_FACE('',(#296),#982,.T.);
#1032=ADVANCED_FACE('',(#297,#23),#983,.F.);
#1033=ADVANCED_FACE('',(#298),#984,.F.);
#1034=ADVANCED_FACE('',(#299),#985,.F.);
#1035=ADVANCED_FACE('',(#300),#986,.F.);
#1036=ADVANCED_FACE('',(#301,#24),#987,.T.);
#1037=ADVANCED_FACE('',(#302,#25,#26,#27),#988,.T.);
#1038=ADVANCED_FACE('',(#303),#41,.T.);
#1039=ADVANCED_FACE('',(#304),#42,.T.);
#1040=ADVANCED_FACE('',(#305),#43,.T.);
#1041=ADVANCED_FACE('',(#306),#989,.T.);
#1042=ADVANCED_FACE('',(#307),#44,.F.);
#1043=ADVANCED_FACE('',(#308),#990,.T.);
#1044=ADVANCED_FACE('',(#309),#45,.F.);
#1045=ADVANCED_FACE('',(#310),#991,.T.);
#1046=ADVANCED_FACE('',(#311),#46,.F.);
#1047=ADVANCED_FACE('',(#312),#992,.F.);
#1048=ADVANCED_FACE('',(#313),#993,.F.);
#1049=ADVANCED_FACE('',(#314),#994,.F.);
#1050=ADVANCED_FACE('',(#315),#995,.F.);
#1051=ADVANCED_FACE('',(#316),#996,.F.);
#1052=ADVANCED_FACE('',(#317,#28,#29,#30,#31),#997,.F.);
#1053=ADVANCED_FACE('',(#318),#998,.F.);
#1054=ADVANCED_FACE('',(#319),#999,.F.);
#1055=ADVANCED_FACE('',(#320),#1000,.F.);
#1056=ADVANCED_FACE('',(#321),#1001,.F.);
#1057=ADVANCED_FACE('',(#322),#1002,.F.);
#1058=ADVANCED_FACE('',(#323),#1003,.F.);
#1059=ADVANCED_FACE('',(#324),#1004,.F.);
#1060=ADVANCED_FACE('',(#325),#1005,.F.);
#1061=ADVANCED_FACE('',(#326),#1006,.F.);
#1062=ADVANCED_FACE('',(#327),#1007,.F.);
#1063=ADVANCED_FACE('',(#328),#1008,.F.);
#1064=ADVANCED_FACE('',(#329),#47,.T.);
#1065=ADVANCED_FACE('',(#330),#1009,.T.);
#1066=ADVANCED_FACE('',(#331),#48,.T.);
#1067=ADVANCED_FACE('',(#332),#1010,.T.);
#1068=ADVANCED_FACE('',(#333),#1011,.T.);
#1069=ADVANCED_FACE('',(#334),#1012,.T.);
#1070=ADVANCED_FACE('',(#335),#49,.F.);
#1071=ADVANCED_FACE('',(#336),#50,.F.);
#1072=ADVANCED_FACE('',(#337,#32),#1013,.F.);
#1073=ADVANCED_FACE('',(#338),#51,.F.);
#1074=ADVANCED_FACE('',(#339,#33),#1014,.F.);
#1075=ADVANCED_FACE('',(#340),#52,.F.);
#1076=ADVANCED_FACE('',(#341),#1015,.T.);
#1077=ADVANCED_FACE('',(#342,#34,#35),#1016,.T.);
#1078=ADVANCED_FACE('',(#343),#1017,.T.);
#1079=ADVANCED_FACE('',(#344,#36,#37),#1018,.F.);
#1080=ADVANCED_FACE('',(#345,#38),#1019,.T.);
#1081=CLOSED_SHELL('',(#1020,#1021,#1022,#1023,#1024,#1025,#1026,#1027,
#1028,#1029,#1030,#1031,#1032,#1033,#1034,#1035,#1036,#1037,#1038,#1039,
#1040,#1041,#1042,#1043,#1044,#1045,#1046,#1047,#1048,#1049,#1050,#1051,
#1052,#1053,#1054,#1055,#1056,#1057,#1058,#1059,#1060,#1061,#1062,#1063,
#1064,#1065,#1066,#1067,#1068,#1069,#1070,#1071,#1072,#1073,#1074,#1075,
#1076,#1077,#1078,#1079,#1080));
#1082=DERIVED_UNIT_ELEMENT(#1084,1.);
#1083=DERIVED_UNIT_ELEMENT(#1787,-3.);
#1084=(
MASS_UNIT()
NAMED_UNIT(*)
SI_UNIT(.KILO.,.GRAM.)
);
#1085=DERIVED_UNIT((#1082,#1083));
#1086=MEASURE_REPRESENTATION_ITEM('density measure',
POSITIVE_RATIO_MEASURE(7850.),#1085);
#1087=PROPERTY_DEFINITION_REPRESENTATION(#1092,#1089);
#1088=PROPERTY_DEFINITION_REPRESENTATION(#1093,#1090);
#1089=REPRESENTATION('material name',(#1091),#1784);
#1090=REPRESENTATION('density',(#1086),#1784);
#1091=DESCRIPTIVE_REPRESENTATION_ITEM('Steel','Steel');
#1092=PROPERTY_DEFINITION('material property','material name',#1794);
#1093=PROPERTY_DEFINITION('material property','density of part',#1794);
#1094=AXIS2_PLACEMENT_3D('',#1480,#1184,#1185);
#1095=AXIS2_PLACEMENT_3D('',#1481,#1186,#1187);
#1096=AXIS2_PLACEMENT_3D('',#1483,#1188,#1189);
#1097=AXIS2_PLACEMENT_3D('',#1484,#1190,#1191);
#1098=AXIS2_PLACEMENT_3D('',#1486,#1192,#1193);
#1099=AXIS2_PLACEMENT_3D('',#1487,#1194,#1195);
#1100=AXIS2_PLACEMENT_3D('',#1489,#1196,#1197);
#1101=AXIS2_PLACEMENT_3D('',#1490,#1198,#1199);
#1102=AXIS2_PLACEMENT_3D('',#1499,#1204,#1205);
#1103=AXIS2_PLACEMENT_3D('',#1505,#1209,#1210);
#1104=AXIS2_PLACEMENT_3D('',#1511,#1214,#1215);
#1105=AXIS2_PLACEMENT_3D('',#1514,#1218,#1219);
#1106=AXIS2_PLACEMENT_3D('',#1515,#1220,#1221);
#1107=AXIS2_PLACEMENT_3D('',#1517,#1222,#1223);
#1108=AXIS2_PLACEMENT_3D('',#1520,#1225,#1226);
#1109=AXIS2_PLACEMENT_3D('',#1521,#1227,#1228);
#1110=AXIS2_PLACEMENT_3D('',#1523,#1229,#1230);
#1111=AXIS2_PLACEMENT_3D('',#1524,#1231,#1232);
#1112=AXIS2_PLACEMENT_3D('',#1527,#1234,#1235);
#1113=AXIS2_PLACEMENT_3D('',#1528,#1236,#1237);
#1114=AXIS2_PLACEMENT_3D('',#1529,#1238,#1239);
#1115=AXIS2_PLACEMENT_3D('',#1538,#1244,#1245);
#1116=AXIS2_PLACEMENT_3D('',#1547,#1250,#1251);
#1117=AXIS2_PLACEMENT_3D('',#1556,#1256,#1257);
#1118=AXIS2_PLACEMENT_3D('',#1565,#1262,#1263);
#1119=AXIS2_PLACEMENT_3D('',#1592,#1278,#1279);
#1120=AXIS2_PLACEMENT_3D('',#1614,#1291,#1292);
#1121=AXIS2_PLACEMENT_3D('',#1616,#1293,#1294);
#1122=AXIS2_PLACEMENT_3D('',#1618,#1295,#1296);
#1123=AXIS2_PLACEMENT_3D('',#1619,#1297,#1298);
#1124=AXIS2_PLACEMENT_3D('',#1621,#1299,#1300);
#1125=AXIS2_PLACEMENT_3D('',#1623,#1302,#1303);
#1126=AXIS2_PLACEMENT_3D('',#1625,#1304,#1305);
#1127=AXIS2_PLACEMENT_3D('',#1627,#1307,#1308);
#1128=AXIS2_PLACEMENT_3D('',#1629,#1309,#1310);
#1129=AXIS2_PLACEMENT_3D('',#1631,#1312,#1313);
#1130=AXIS2_PLACEMENT_3D('',#1633,#1314,#1315);
#1131=AXIS2_PLACEMENT_3D('',#1634,#1316,#1317);
#1132=AXIS2_PLACEMENT_3D('',#1636,#1319,#1320);
#1133=AXIS2_PLACEMENT_3D('',#1638,#1321,#1322);
#1134=AXIS2_PLACEMENT_3D('',#1639,#1323,#1324);
#1135=AXIS2_PLACEMENT_3D('',#1641,#1326,#1327);
#1136=AXIS2_PLACEMENT_3D('',#1643,#1328,#1329);
#1137=AXIS2_PLACEMENT_3D('',#1644,#1330,#1331);
#1138=AXIS2_PLACEMENT_3D('',#1646,#1333,#1334);
#1139=AXIS2_PLACEMENT_3D('',#1655,#1340,#1341);
#1140=AXIS2_PLACEMENT_3D('',#1659,#1344,#1345);
#1141=AXIS2_PLACEMENT_3D('',#1663,#1348,#1349);
#1142=AXIS2_PLACEMENT_3D('',#1667,#1352,#1353);
#1143=AXIS2_PLACEMENT_3D('',#1671,#1356,#1357);
#1144=AXIS2_PLACEMENT_3D('',#1677,#1361,#1362);
#1145=AXIS2_PLACEMENT_3D('',#1685,#1368,#1369);
#1146=AXIS2_PLACEMENT_3D('',#1686,#1370,#1371);
#1147=AXIS2_PLACEMENT_3D('',#1687,#1372,#1373);
#1148=AXIS2_PLACEMENT_3D('',#1693,#1377,#1378);
#1149=AXIS2_PLACEMENT_3D('',#1697,#1381,#1382);
#1150=AXIS2_PLACEMENT_3D('',#1701,#1385,#1386);
#1151=AXIS2_PLACEMENT_3D('',#1705,#1389,#1390);
#1152=AXIS2_PLACEMENT_3D('',#1709,#1393,#1394);
#1153=AXIS2_PLACEMENT_3D('',#1713,#1397,#1398);
#1154=AXIS2_PLACEMENT_3D('',#1717,#1401,#1402);
#1155=AXIS2_PLACEMENT_3D('',#1719,#1404,#1405);
#1156=AXIS2_PLACEMENT_3D('',#1722,#1406,#1407);
#1157=AXIS2_PLACEMENT_3D('',#1726,#1409,#1410);
#1158=AXIS2_PLACEMENT_3D('',#1728,#1412,#1413);
#1159=AXIS2_PLACEMENT_3D('',#1734,#1417,#1418);
#1160=AXIS2_PLACEMENT_3D('',#1736,#1419,#1420);
#1161=AXIS2_PLACEMENT_3D('',#1738,#1421,#1422);
#1162=AXIS2_PLACEMENT_3D('',#1740,#1424,#1425);
#1163=AXIS2_PLACEMENT_3D('',#1742,#1427,#1428);
#1164=AXIS2_PLACEMENT_3D('',#1744,#1430,#1431);
#1165=AXIS2_PLACEMENT_3D('',#1746,#1433,#1434);
#1166=AXIS2_PLACEMENT_3D('',#1748,#1435,#1436);
#1167=AXIS2_PLACEMENT_3D('',#1751,#1438,#1439);
#1168=AXIS2_PLACEMENT_3D('',#1752,#1440,#1441);
#1169=AXIS2_PLACEMENT_3D('',#1754,#1442,#1443);
#1170=AXIS2_PLACEMENT_3D('',#1757,#1445,#1446);
#1171=AXIS2_PLACEMENT_3D('',#1758,#1447,#1448);
#1172=AXIS2_PLACEMENT_3D('',#1760,#1449,#1450);
#1173=AXIS2_PLACEMENT_3D('',#1761,#1451,#1452);
#1174=AXIS2_PLACEMENT_3D('',#1763,#1453,#1454);
#1175=AXIS2_PLACEMENT_3D('',#1765,#1456,#1457);
#1176=AXIS2_PLACEMENT_3D('',#1767,#1458,#1459);
#1177=AXIS2_PLACEMENT_3D('',#1768,#1460,#1461);
#1178=AXIS2_PLACEMENT_3D('',#1770,#1462,#1463);
#1179=AXIS2_PLACEMENT_3D('',#1772,#1465,#1466);
#1180=AXIS2_PLACEMENT_3D('',#1774,#1468,#1469);
#1181=AXIS2_PLACEMENT_3D('',#1777,#1472,#1473);
#1182=AXIS2_PLACEMENT_3D('',#1779,#1475,#1476);
#1183=AXIS2_PLACEMENT_3D('',#1781,#1478,#1479);
#1184=DIRECTION('axis',(0.,0.,1.));
#1185=DIRECTION('refdir',(1.,0.,0.));
#1186=DIRECTION('center_axis',(0.,0.,1.));
#1187=DIRECTION('ref_axis',(1.,0.,0.));
#1188=DIRECTION('center_axis',(0.,0.,1.));
#1189=DIRECTION('ref_axis',(1.,0.,0.));
#1190=DIRECTION('center_axis',(0.,0.,1.));
#1191=DIRECTION('ref_axis',(1.,0.,0.));
#1192=DIRECTION('center_axis',(0.,0.,1.));
#1193=DIRECTION('ref_axis',(1.,0.,0.));
#1194=DIRECTION('center_axis',(0.,0.,1.));
#1195=DIRECTION('ref_axis',(1.,0.,0.));
#1196=DIRECTION('center_axis',(0.,0.,1.));
#1197=DIRECTION('ref_axis',(1.,0.,0.));
#1198=DIRECTION('center_axis',(0.,0.998629534754574,-0.0523359562429349));
#1199=DIRECTION('ref_axis',(1.,0.,0.));
#1200=DIRECTION('',(1.,0.,0.));
#1201=DIRECTION('',(0.,-0.0523359562429349,-0.998629534754574));
#1202=DIRECTION('',(1.,0.,0.));
#1203=DIRECTION('',(0.,-0.0523359562429349,-0.998629534754574));
#1204=DIRECTION('center_axis',(-1.,0.,0.));
#1205=DIRECTION('ref_axis',(0.,0.998629534754574,-0.0523359562429423));
#1206=DIRECTION('',(0.,0.998629534754574,-0.0523359562429437));
#1207=DIRECTION('',(0.,-0.0523359562429349,-0.998629534754574));
#1208=DIRECTION('',(0.,0.998629534754574,-0.0523359562429423));
#1209=DIRECTION('center_axis',(0.,-0.998629534754574,0.0523359562429349));
#1210=DIRECTION('ref_axis',(-1.,0.,0.));
#1211=DIRECTION('',(-1.,0.,0.));
#1212=DIRECTION('',(0.,-0.0523359562429349,-0.998629534754574));
#1213=DIRECTION('',(-1.,0.,0.));
#1214=DIRECTION('center_axis',(1.,0.,0.));
#1215=DIRECTION('ref_axis',(0.,-0.998629534754574,0.0523359562429423));
#1216=DIRECTION('',(0.,-0.998629534754574,0.0523359562429437));
#1217=DIRECTION('',(0.,-0.998629534754574,0.0523359562429423));
#1218=DIRECTION('center_axis',(0.,-0.0523359562429349,-0.998629534754574));
#1219=DIRECTION('ref_axis',(-1.,0.,0.));
#1220=DIRECTION('center_axis',(0.,0.,-1.));
#1221=DIRECTION('ref_axis',(-1.,0.,0.));
#1222=DIRECTION('center_axis',(0.,0.,-1.));
#1223=DIRECTION('ref_axis',(-1.,0.,0.));
#1224=DIRECTION('',(0.,0.,-1.));
#1225=DIRECTION('center_axis',(0.,0.,-1.));
#1226=DIRECTION('ref_axis',(-1.,0.,0.));
#1227=DIRECTION('center_axis',(0.,0.,1.));
#1228=DIRECTION('ref_axis',(-1.,0.,0.));
#1229=DIRECTION('center_axis',(0.,0.,1.));
#1230=DIRECTION('ref_axis',(-1.,0.,0.));
#1231=DIRECTION('center_axis',(0.,0.,-1.));
#1232=DIRECTION('ref_axis',(-1.,0.,0.));
#1233=DIRECTION('',(0.,0.,-1.));
#1234=DIRECTION('center_axis',(0.,0.,-1.));
#1235=DIRECTION('ref_axis',(-1.,0.,0.));
#1236=DIRECTION('center_axis',(0.,0.,1.));
#1237=DIRECTION('ref_axis',(-1.,0.,0.));
#1238=DIRECTION('center_axis',(0.,0.,-1.));
#1239=DIRECTION('ref_axis',(-1.,0.,0.));
#1240=DIRECTION('',(1.,0.,0.));
#1241=DIRECTION('',(0.,1.,0.));
#1242=DIRECTION('',(-1.,0.,0.));
#1243=DIRECTION('',(0.,-1.,0.));
#1244=DIRECTION('center_axis',(0.,0.,-1.));
#1245=DIRECTION('ref_axis',(-1.,0.,0.));
#1246=DIRECTION('',(0.,-1.,0.));
#1247=DIRECTION('',(1.,0.,0.));
#1248=DIRECTION('',(0.,1.,0.));
#1249=DIRECTION('',(-1.,0.,0.));
#1250=DIRECTION('center_axis',(0.,0.,-1.));
#1251=DIRECTION('ref_axis',(-1.,0.,0.));
#1252=DIRECTION('',(0.,-1.,0.));
#1253=DIRECTION('',(1.,0.,0.));
#1254=DIRECTION('',(0.,1.,0.));
#1255=DIRECTION('',(-1.,0.,0.));
#1256=DIRECTION('center_axis',(0.,0.,-1.));
#1257=DIRECTION('ref_axis',(-1.,0.,0.));
#1258=DIRECTION('',(0.,1.,0.));
#1259=DIRECTION('',(-1.,0.,0.));
#1260=DIRECTION('',(0.,-1.,0.));
#1261=DIRECTION('',(1.,0.,0.));
#1262=DIRECTION('center_axis',(0.,-1.,0.));
#1263=DIRECTION('ref_axis',(0.,0.,-1.));
#1264=DIRECTION('',(0.,0.,-1.));
#1265=DIRECTION('',(0.,0.,-1.));
#1266=DIRECTION('',(1.,0.,0.));
#1267=DIRECTION('',(0.,0.,-1.));
#1268=DIRECTION('',(0.,0.,1.));
#1269=DIRECTION('',(-1.,0.,0.));
#1270=DIRECTION('',(0.707106781186546,0.,-0.707106781186549));
#1271=DIRECTION('',(0.,0.,-1.));
#1272=DIRECTION('',(-0.720833064901853,0.,-0.693108716251788));
#1273=DIRECTION('',(-1.,0.,-1.73472347597681E-15));
#1274=DIRECTION('',(-0.707106781186547,0.,0.707106781186548));
#1275=DIRECTION('',(0.,0.,1.));
#1276=DIRECTION('',(0.707106781186546,0.,0.707106781186549));
#1277=DIRECTION('',(1.,0.,0.));
#1278=DIRECTION('center_axis',(1.,0.,0.));
#1279=DIRECTION('ref_axis',(0.,0.,-1.));
#1280=DIRECTION('',(0.,0.,-1.));
#1281=DIRECTION('',(0.,-1.,0.));
#1282=DIRECTION('',(0.,-0.998629534754574,0.0523359562429437));
#1283=DIRECTION('',(0.,-1.,0.));
#1284=DIRECTION('',(0.,0.,1.));
#1285=DIRECTION('',(0.,0.,1.));
#1286=DIRECTION('',(0.,-1.,0.));
#1287=DIRECTION('',(0.,0.,-1.));
#1288=DIRECTION('',(0.,0.998629534754574,-0.0523359562429438));
#1289=DIRECTION('',(0.,0.,1.));
#1290=DIRECTION('',(0.,-1.,0.));
#1291=DIRECTION('center_axis',(-1.,0.,0.));
#1292=DIRECTION('ref_axis',(0.,1.,0.));
#1293=DIRECTION('center_axis',(-1.,0.,0.));
#1294=DIRECTION('ref_axis',(0.,1.,0.));
#1295=DIRECTION('center_axis',(-1.,0.,0.));
#1296=DIRECTION('ref_axis',(0.,1.,0.));
#1297=DIRECTION('center_axis',(0.,0.,-1.));
#1298=DIRECTION('ref_axis',(1.,0.,0.));
#1299=DIRECTION('center_axis',(0.,-0.0523359562429437,-0.998629534754574));
#1300=DIRECTION('ref_axis',(0.,-0.998629534754574,0.0523359562429437));
#1301=DIRECTION('',(0.,0.,1.));
#1302=DIRECTION('center_axis',(0.,0.,-1.));
#1303=DIRECTION('ref_axis',(1.,0.,0.));
#1304=DIRECTION('center_axis',(0.,-0.0523359562429437,-0.998629534754574));
#1305=DIRECTION('ref_axis',(0.,-0.998629534754574,0.0523359562429437));
#1306=DIRECTION('',(0.,0.,1.));
#1307=DIRECTION('center_axis',(0.,0.,-1.));
#1308=DIRECTION('ref_axis',(1.,0.,0.));
#1309=DIRECTION('center_axis',(0.,-0.0523359562429437,-0.998629534754574));
#1310=DIRECTION('ref_axis',(0.,-0.998629534754574,0.0523359562429437));
#1311=DIRECTION('',(0.,0.,1.));
#1312=DIRECTION('center_axis',(1.,0.,0.));
#1313=DIRECTION('ref_axis',(0.,1.,0.));
#1314=DIRECTION('center_axis',(-1.,0.,0.));
#1315=DIRECTION('ref_axis',(0.,1.,0.));
#1316=DIRECTION('center_axis',(1.,0.,0.));
#1317=DIRECTION('ref_axis',(0.,1.,0.));
#1318=DIRECTION('',(1.,0.,0.));
#1319=DIRECTION('center_axis',(1.,0.,0.));
#1320=DIRECTION('ref_axis',(0.,1.,0.));
#1321=DIRECTION('center_axis',(-1.,0.,0.));
#1322=DIRECTION('ref_axis',(0.,1.,0.));
#1323=DIRECTION('center_axis',(1.,0.,0.));
#1324=DIRECTION('ref_axis',(0.,1.,0.));
#1325=DIRECTION('',(1.,0.,0.));
#1326=DIRECTION('center_axis',(1.,0.,0.));
#1327=DIRECTION('ref_axis',(0.,1.,0.));
#1328=DIRECTION('center_axis',(-1.,0.,0.));
#1329=DIRECTION('ref_axis',(0.,1.,0.));
#1330=DIRECTION('center_axis',(1.,0.,0.));
#1331=DIRECTION('ref_axis',(0.,1.,0.));
#1332=DIRECTION('',(1.,0.,0.));
#1333=DIRECTION('center_axis',(0.,-1.,0.));
#1334=DIRECTION('ref_axis',(0.,0.,-1.));
#1335=DIRECTION('',(-1.,0.,0.));
#1336=DIRECTION('',(0.,0.,-1.));
#1337=DIRECTION('',(0.,0.,1.));
#1338=DIRECTION('',(-1.,0.,0.));
#1339=DIRECTION('',(0.,0.,-1.));
#1340=DIRECTION('center_axis',(-1.,0.,0.));
#1341=DIRECTION('ref_axis',(0.,1.,0.));
#1342=DIRECTION('',(0.,1.,0.));
#1343=DIRECTION('',(0.,0.,-1.));
#1344=DIRECTION('center_axis',(1.,0.,0.));
#1345=DIRECTION('ref_axis',(0.,-1.,0.));
#1346=DIRECTION('',(0.,-1.,0.));
#1347=DIRECTION('',(0.,0.,-1.));
#1348=DIRECTION('center_axis',(-1.,0.,0.));
#1349=DIRECTION('ref_axis',(0.,1.,0.));
#1350=DIRECTION('',(0.,1.,0.));
#1351=DIRECTION('',(0.,0.,-1.));
#1352=DIRECTION('center_axis',(1.,0.,0.));
#1353=DIRECTION('ref_axis',(0.,-1.,0.));
#1354=DIRECTION('',(0.,-1.,0.));
#1355=DIRECTION('',(0.,0.,-1.));
#1356=DIRECTION('center_axis',(0.,-0.0523359562429437,-0.998629534754574));
#1357=DIRECTION('ref_axis',(-1.,0.,0.));
#1358=DIRECTION('',(1.,0.,0.));
#1359=DIRECTION('',(0.,0.998629534754574,-0.0523359562429438));
#1360=DIRECTION('',(1.,0.,0.));
#1361=DIRECTION('center_axis',(-1.,0.,0.));
#1362=DIRECTION('ref_axis',(0.,0.,1.));
#1363=DIRECTION('',(0.,-1.,0.));
#1364=DIRECTION('',(0.,0.,1.));
#1365=DIRECTION('',(0.,1.,0.));
#1366=DIRECTION('',(0.,-1.,0.));
#1367=DIRECTION('',(0.,0.,-1.));
#1368=DIRECTION('center_axis',(0.,0.,-1.));
#1369=DIRECTION('ref_axis',(-1.,0.,0.));
#1370=DIRECTION('center_axis',(0.,0.,-1.));
#1371=DIRECTION('ref_axis',(0.,1.,0.));
#1372=DIRECTION('center_axis',(1.73472347597681E-15,0.,-1.));
#1373=DIRECTION('ref_axis',(1.,0.,1.73472347597681E-15));
#1374=DIRECTION('',(0.,-1.,0.));
#1375=DIRECTION('',(1.,0.,1.73472347597681E-15));
#1376=DIRECTION('',(0.,-1.,0.));
#1377=DIRECTION('center_axis',(0.693108716251788,0.,-0.720833064901853));
#1378=DIRECTION('ref_axis',(0.720833064901853,0.,0.693108716251788));
#1379=DIRECTION('',(0.,-1.,0.));
#1380=DIRECTION('',(0.720833064901853,0.,0.693108716251788));
#1381=DIRECTION('center_axis',(1.,0.,0.));
#1382=DIRECTION('ref_axis',(0.,0.,1.));
#1383=DIRECTION('',(0.,-1.,0.));
#1384=DIRECTION('',(0.,0.,1.));
#1385=DIRECTION('center_axis',(0.707106781186549,0.,0.707106781186546));
#1386=DIRECTION('ref_axis',(-0.707106781186546,0.,0.707106781186549));
#1387=DIRECTION('',(0.,-1.,0.));
#1388=DIRECTION('',(-0.707106781186546,0.,0.707106781186549));
#1389=DIRECTION('center_axis',(0.,0.,1.));
#1390=DIRECTION('ref_axis',(-1.,0.,0.));
#1391=DIRECTION('',(0.,-1.,0.));
#1392=DIRECTION('',(-1.,0.,0.));
#1393=DIRECTION('center_axis',(-0.707106781186549,0.,0.707106781186546));
#1394=DIRECTION('ref_axis',(-0.707106781186546,0.,-0.707106781186549));
#1395=DIRECTION('',(0.,-1.,0.));
#1396=DIRECTION('',(-0.707106781186546,0.,-0.707106781186549));
#1397=DIRECTION('center_axis',(-1.,0.,0.));
#1398=DIRECTION('ref_axis',(0.,0.,-1.));
#1399=DIRECTION('',(0.,-1.,0.));
#1400=DIRECTION('',(0.,0.,-1.));
#1401=DIRECTION('center_axis',(-0.707106781186548,0.,-0.707106781186547));
#1402=DIRECTION('ref_axis',(0.707106781186547,0.,-0.707106781186548));
#1403=DIRECTION('',(0.707106781186547,0.,-0.707106781186548));
#1404=DIRECTION('center_axis',(0.,0.,1.));
#1405=DIRECTION('ref_axis',(-3.55271367880049E-15,1.,0.));
#1406=DIRECTION('center_axis',(0.,0.,-1.));
#1407=DIRECTION('ref_axis',(-3.55271367880049E-15,1.,0.));
#1408=DIRECTION('',(0.,0.,1.));
#1409=DIRECTION('center_axis',(0.,0.0523359562429438,0.998629534754574));
#1410=DIRECTION('ref_axis',(-3.54784480817674E-15,0.998629534754574,-0.0523359562429438));
#1411=DIRECTION('',(0.,0.,1.));
#1412=DIRECTION('center_axis',(-1.,0.,0.));
#1413=DIRECTION('ref_axis',(0.,-1.,0.));
#1414=DIRECTION('',(0.,1.,0.));
#1415=DIRECTION('',(0.,-0.998629534754574,0.0523359562429438));
#1416=DIRECTION('',(0.,0.,1.));
#1417=DIRECTION('center_axis',(0.,0.,1.));
#1418=DIRECTION('ref_axis',(-1.,0.,0.));
#1419=DIRECTION('center_axis',(0.,0.,-1.));
#1420=DIRECTION('ref_axis',(-1.,0.,0.));
#1421=DIRECTION('center_axis',(0.,0.0523359562429438,0.998629534754574));
#1422=DIRECTION('ref_axis',(0.,-0.998629534754574,0.0523359562429438));
#1423=DIRECTION('',(0.,0.,1.));
#1424=DIRECTION('center_axis',(0.,-1.,0.));
#1425=DIRECTION('ref_axis',(1.,0.,0.));
#1426=DIRECTION('',(-1.,0.,0.));
#1427=DIRECTION('center_axis',(0.,-1.,0.));
#1428=DIRECTION('ref_axis',(1.,0.,0.));
#1429=DIRECTION('',(-1.,0.,0.));
#1430=DIRECTION('center_axis',(0.,1.,0.));
#1431=DIRECTION('ref_axis',(-1.,0.,0.));
#1432=DIRECTION('',(1.,0.,0.));
#1433=DIRECTION('center_axis',(0.,0.,1.));
#1434=DIRECTION('ref_axis',(-1.,0.,0.));
#1435=DIRECTION('center_axis',(0.,0.,-1.));
#1436=DIRECTION('ref_axis',(-1.,0.,0.));
#1437=DIRECTION('',(0.,0.,1.));
#1438=DIRECTION('center_axis',(0.,0.,-1.));
#1439=DIRECTION('ref_axis',(-1.,0.,0.));
#1440=DIRECTION('center_axis',(0.,0.,1.));
#1441=DIRECTION('ref_axis',(-1.,0.,0.));
#1442=DIRECTION('center_axis',(0.,0.,-1.));
#1443=DIRECTION('ref_axis',(-1.,0.,0.));
#1444=DIRECTION('',(0.,0.,1.));
#1445=DIRECTION('center_axis',(0.,0.,-1.));
#1446=DIRECTION('ref_axis',(-1.,0.,0.));
#1447=DIRECTION('center_axis',(0.,0.,1.));
#1448=DIRECTION('ref_axis',(-1.,0.,0.));
#1449=DIRECTION('center_axis',(0.,0.,1.));
#1450=DIRECTION('ref_axis',(-1.,0.,0.));
#1451=DIRECTION('center_axis',(0.,0.,1.));
#1452=DIRECTION('ref_axis',(-1.,0.,0.));
#1453=DIRECTION('center_axis',(0.,0.0523359562429438,0.998629534754574));
#1454=DIRECTION('ref_axis',(0.,-0.998629534754574,0.0523359562429438));
#1455=DIRECTION('',(0.,0.,1.));
#1456=DIRECTION('center_axis',(0.,0.,1.));
#1457=DIRECTION('ref_axis',(-1.,0.,0.));
#1458=DIRECTION('center_axis',(0.,0.,1.));
#1459=DIRECTION('ref_axis',(-1.,0.,0.));
#1460=DIRECTION('center_axis',(0.,0.,1.));
#1461=DIRECTION('ref_axis',(-1.,0.,0.));
#1462=DIRECTION('center_axis',(0.,0.0523359562429438,0.998629534754574));
#1463=DIRECTION('ref_axis',(0.,-0.998629534754574,0.0523359562429438));
#1464=DIRECTION('',(0.,0.,1.));
#1465=DIRECTION('center_axis',(0.,1.,0.));
#1466=DIRECTION('ref_axis',(-1.,0.,0.));
#1467=DIRECTION('',(1.,0.,0.));
#1468=DIRECTION('center_axis',(0.,0.,1.));
#1469=DIRECTION('ref_axis',(1.,0.,0.));
#1470=DIRECTION('',(1.,0.,0.));
#1471=DIRECTION('',(-1.,0.,0.));
#1472=DIRECTION('center_axis',(0.,-1.,0.));
#1473=DIRECTION('ref_axis',(1.,0.,0.));
#1474=DIRECTION('',(1.,0.,0.));
#1475=DIRECTION('center_axis',(0.,0.0523359562429438,0.998629534754574));
#1476=DIRECTION('ref_axis',(1.,0.,0.));
#1477=DIRECTION('',(1.,0.,0.));
#1478=DIRECTION('center_axis',(0.,1.,0.));
#1479=DIRECTION('ref_axis',(-1.,0.,0.));
#1480=CARTESIAN_POINT('',(0.,0.,0.));
#1481=CARTESIAN_POINT('Origin',(-95.1454768441947,42.1173748701686,12.25));
#1482=CARTESIAN_POINT('',(-97.6454768441947,42.1173748701686,12.25));
#1483=CARTESIAN_POINT('Origin',(-95.1454768441947,42.1173748701686,12.25));
#1484=CARTESIAN_POINT('Origin',(-79.8671918117714,-0.293892110945959,12.25));
#1485=CARTESIAN_POINT('',(-82.3671918117714,-0.29389211094596,12.25));
#1486=CARTESIAN_POINT('Origin',(-79.8671918117714,-0.293892110945959,12.25));
#1487=CARTESIAN_POINT('Origin',(-40.227468647136,18.7438462977055,12.25));
#1488=CARTESIAN_POINT('',(-42.727468647136,18.7438462977055,12.25));
#1489=CARTESIAN_POINT('Origin',(-40.227468647136,18.7438462977055,12.25));
#1490=CARTESIAN_POINT('Origin',(-79.0578518271197,-7.38835983268387,7.32190801559682));
#1491=CARTESIAN_POINT('',(-79.0578518271197,-7.38835983268387,7.32190801559682));
#1492=CARTESIAN_POINT('',(-19.2612991903751,-7.38835983268387,7.32190801559682));
#1493=CARTESIAN_POINT('',(-39.5289259135598,-7.38835983268387,7.32190801559683));
#1494=CARTESIAN_POINT('',(-79.0578518271197,-7.41452781080535,6.82259324821954));
#1495=CARTESIAN_POINT('',(-79.0578518271197,-7.38835983268387,7.32190801559682));
#1496=CARTESIAN_POINT('',(-19.2612991903751,-7.41452781080535,6.82259324821954));
#1497=CARTESIAN_POINT('',(-19.2612991903751,-7.41452781080533,6.82259324821954));
#1498=CARTESIAN_POINT('',(-19.2612991903751,-7.38835983268387,7.32190801559682));
#1499=CARTESIAN_POINT('Origin',(-79.0578518271197,-47.6983581770573,9.43446551172843));
#1500=CARTESIAN_POINT('',(-79.0578518271197,-47.6983581770572,9.43446551172843));
#1501=CARTESIAN_POINT('',(-79.0578518271197,-23.2199679400834,8.15160743898503));
#1502=CARTESIAN_POINT('',(-79.0578518271197,-47.7245261551787,8.93515074435115));
#1503=CARTESIAN_POINT('',(-79.0578518271197,-47.6983581770572,9.43446551172843));
#1504=CARTESIAN_POINT('',(-79.0578518271197,-7.41452781080533,6.82259324821954));
#1505=CARTESIAN_POINT('Origin',(-19.2612991903751,-47.6983581770572,9.43446551172843));
#1506=CARTESIAN_POINT('',(-19.2612991903751,-47.6983581770572,9.43446551172843));
#1507=CARTESIAN_POINT('',(-9.63064959518755,-47.6983581770572,9.4344655117285));
#1508=CARTESIAN_POINT('',(-19.2612991903751,-47.7245261551787,8.93515074435115));
#1509=CARTESIAN_POINT('',(-19.2612991903751,-47.6983581770572,9.43446551172843));
#1510=CARTESIAN_POINT('',(-79.0578518271197,-47.7245261551787,8.93515074435115));
#1511=CARTESIAN_POINT('Origin',(-19.2612991903751,-7.38835983268387,7.32190801559682));
#1512=CARTESIAN_POINT('',(-19.2612991903751,-3.06496876789675,7.0953286909192));
#1513=CARTESIAN_POINT('',(-19.2612991903751,-47.7245261551787,8.93515074435115));
#1514=CARTESIAN_POINT('Origin',(-49.1595755087474,-27.569526982992,7.87887199628549));
#1515=CARTESIAN_POINT('Origin',(-137.99999691546,68.7499984633178,16.));
#1516=CARTESIAN_POINT('',(-135.79999691546,68.7499984633178,16.));
#1517=CARTESIAN_POINT('Origin',(-137.99999691546,68.7499984633178,16.));
#1518=CARTESIAN_POINT('',(-135.79999691546,68.7499984633178,12.3));
#1519=CARTESIAN_POINT('',(-135.79999691546,68.7499984633178,16.));
#1520=CARTESIAN_POINT('Origin',(-137.99999691546,68.7499984633178,12.3));
#1521=CARTESIAN_POINT('Origin',(-137.99999691546,68.7499984633178,12.3));
#1522=CARTESIAN_POINT('',(-136.64999691546,68.7499984633178,12.3));
#1523=CARTESIAN_POINT('Origin',(-137.99999691546,68.7499984633178,12.3));
#1524=CARTESIAN_POINT('Origin',(-137.99999691546,68.7499984633178,16.));
#1525=CARTESIAN_POINT('',(-136.64999691546,68.7499984633178,3.99999999999999));
#1526=CARTESIAN_POINT('',(-136.64999691546,68.7499984633178,16.));
#1527=CARTESIAN_POINT('Origin',(-137.99999691546,68.7499984633178,3.99999999999999));
#1528=CARTESIAN_POINT('Origin',(-137.99999691546,68.7499984633178,3.99999999999999));
#1529=CARTESIAN_POINT('Origin',(-138.75,68.75,16.));
#1530=CARTESIAN_POINT('',(-158.,71.5,16.));
#1531=CARTESIAN_POINT('',(-119.5,71.5,16.));
#1532=CARTESIAN_POINT('',(158.,71.5,16.));
#1533=CARTESIAN_POINT('',(-158.,66.,16.));
#1534=CARTESIAN_POINT('',(-158.,71.5,16.));
#1535=CARTESIAN_POINT('',(-119.5,66.,16.));
#1536=CARTESIAN_POINT('',(-148.375,66.,16.));
#1537=CARTESIAN_POINT('',(-119.5,71.5,16.));
#1538=CARTESIAN_POINT('Origin',(0.,68.75,16.));
#1539=CARTESIAN_POINT('',(0.,71.5,16.));
#1540=CARTESIAN_POINT('',(0.,66.,16.));
#1541=CARTESIAN_POINT('',(0.,34.875,16.));
#1542=CARTESIAN_POINT('',(-52.5,71.5,16.));
#1543=CARTESIAN_POINT('',(-52.5,71.5,16.));
#1544=CARTESIAN_POINT('',(-52.5,66.,16.));
#1545=CARTESIAN_POINT('',(-52.5,66.,16.));
#1546=CARTESIAN_POINT('',(-79.,66.,16.));
#1547=CARTESIAN_POINT('Origin',(0.100000000000016,-66.9,16.));
#1548=CARTESIAN_POINT('',(0.,-64.,16.));
#1549=CARTESIAN_POINT('',(0.,-69.8,16.));
#1550=CARTESIAN_POINT('',(0.,-32.95,16.));
#1551=CARTESIAN_POINT('',(-52.4,-64.,16.));
#1552=CARTESIAN_POINT('',(-78.95,-64.,16.));
#1553=CARTESIAN_POINT('',(-52.4,-69.8,16.));
#1554=CARTESIAN_POINT('',(-52.4,-64.,16.));
#1555=CARTESIAN_POINT('',(-52.4,-69.8,16.));
#1556=CARTESIAN_POINT('Origin',(-138.7,-66.9,16.));
#1557=CARTESIAN_POINT('',(-158.,-69.8,16.));
#1558=CARTESIAN_POINT('',(-158.,-64.,16.));
#1559=CARTESIAN_POINT('',(-158.,-64.,16.));
#1560=CARTESIAN_POINT('',(-119.4,-69.8,16.));
#1561=CARTESIAN_POINT('',(-158.,-69.8,16.));
#1562=CARTESIAN_POINT('',(-119.4,-64.,16.));
#1563=CARTESIAN_POINT('',(-119.4,-69.8,16.));
#1564=CARTESIAN_POINT('',(-148.35,-64.,16.));
#1565=CARTESIAN_POINT('Origin',(-158.,66.,18.));
#1566=CARTESIAN_POINT('',(-119.5,66.,20.));
#1567=CARTESIAN_POINT('',(-119.5,66.,19.));
#1568=CARTESIAN_POINT('',(-158.,66.0000009834766,3.69090379115999));
#1569=CARTESIAN_POINT('',(-158.,66.0000009834766,5.68816286066914));
#1570=CARTESIAN_POINT('',(0.,66.0000009834766,3.69090379115999));
#1571=CARTESIAN_POINT('',(-158.,66.0000009834766,3.69090379115999));
#1572=CARTESIAN_POINT('',(0.,66.,14.));
#1573=CARTESIAN_POINT('',(-52.5,66.,20.));
#1574=CARTESIAN_POINT('',(-52.5,66.,19.));
#1575=CARTESIAN_POINT('',(-79.,66.,20.));
#1576=CARTESIAN_POINT('',(-121.75,66.,13.));
#1577=CARTESIAN_POINT('',(-120.75,66.,12.));
#1578=CARTESIAN_POINT('',(-131.5625,66.,22.8125));
#1579=CARTESIAN_POINT('',(-120.75,66.,9.00000000000002));
#1580=CARTESIAN_POINT('',(-120.75,66.,13.5));
#1581=CARTESIAN_POINT('',(-121.79,66.,8.00000000000001));
#1582=CARTESIAN_POINT('',(-128.699285165257,66.,1.35645657186782));
#1583=CARTESIAN_POINT('',(-130.75,66.,8.));
#1584=CARTESIAN_POINT('',(-144.375,66.,7.99999999999998));
#1585=CARTESIAN_POINT('',(-131.75,66.,9.));
#1586=CARTESIAN_POINT('',(-140.5625,66.,17.8125));
#1587=CARTESIAN_POINT('',(-131.75,66.,12.));
#1588=CARTESIAN_POINT('',(-131.75,66.,15.));
#1589=CARTESIAN_POINT('',(-130.75,66.,13.));
#1590=CARTESIAN_POINT('',(-136.3125,66.,7.4375));
#1591=CARTESIAN_POINT('',(-139.875,66.,13.));
#1592=CARTESIAN_POINT('Origin',(0.,0.999999999999996,10.));
#1593=CARTESIAN_POINT('',(0.,71.5,20.));
#1594=CARTESIAN_POINT('',(0.,71.5,15.));
#1595=CARTESIAN_POINT('',(0.,61.8953280875141,3.69090379115999));
#1596=CARTESIAN_POINT('',(0.,31.4476640437571,3.69090379115999));
#1597=CARTESIAN_POINT('',(0.,-58.0523718431386,9.97709637463409));
#1598=CARTESIAN_POINT('',(0.,1.0477388603274,6.87979081728355));
#1599=CARTESIAN_POINT('',(0.,-64.,9.97709637463408));
#1600=CARTESIAN_POINT('',(0.,-28.5,9.97709637463409));
#1601=CARTESIAN_POINT('',(0.,-64.,10.988548187317));
#1602=CARTESIAN_POINT('',(0.,-69.8,20.));
#1603=CARTESIAN_POINT('',(0.,-69.8,13.5));
#1604=CARTESIAN_POINT('',(0.,-73.,20.));
#1605=CARTESIAN_POINT('',(0.,0.999999999999996,20.));
#1606=CARTESIAN_POINT('',(0.,-73.,7.7563513338901));
#1607=CARTESIAN_POINT('',(0.,-73.,5.));
#1608=CARTESIAN_POINT('',(0.,75.,0.));
#1609=CARTESIAN_POINT('',(0.,0.890730991598575,3.88390221301983));
#1610=CARTESIAN_POINT('',(0.,75.,20.));
#1611=CARTESIAN_POINT('',(0.,75.,5.));
#1612=CARTESIAN_POINT('',(0.,0.999999999999996,20.));
#1613=CARTESIAN_POINT('',(0.,67.9250009606359,4.00000000000002));
#1614=CARTESIAN_POINT('Origin',(0.,70.500000960636,4.00000000000002));
#1615=CARTESIAN_POINT('',(0.,67.9250003694754,12.));
#1616=CARTESIAN_POINT('Origin',(0.,70.5000003694754,12.));
#1617=CARTESIAN_POINT('',(0.,-71.5750010281801,12.));
#1618=CARTESIAN_POINT('Origin',(0.,-69.0000010281801,12.));
#1619=CARTESIAN_POINT('Origin',(-95.1454768441947,42.1173748701686,11.75));
#1620=CARTESIAN_POINT('',(-97.6454768441947,42.1173748701686,4.72742239804495));
#1621=CARTESIAN_POINT('Origin',(-95.1454768441947,42.1173748701686,4.72742239804495));
#1622=CARTESIAN_POINT('',(-97.6454768441947,42.1173748701686,11.75));
#1623=CARTESIAN_POINT('Origin',(-40.227468647136,18.7438462977055,11.75));
#1624=CARTESIAN_POINT('',(-42.727468647136,18.7438462977055,5.95237712453645));
#1625=CARTESIAN_POINT('Origin',(-40.227468647136,18.7438462977055,5.95237712453645));
#1626=CARTESIAN_POINT('',(-42.727468647136,18.7438462977055,11.75));
#1627=CARTESIAN_POINT('Origin',(-79.8671918117714,-0.293892110945959,11.75));
#1628=CARTESIAN_POINT('',(-82.3671918117714,-0.293892110945959,6.95010271710533));
#1629=CARTESIAN_POINT('Origin',(-79.8671918117714,-0.293892110945959,6.95010271710533));
#1630=CARTESIAN_POINT('',(-82.3671918117714,-0.293892110945959,11.75));
#1631=CARTESIAN_POINT('Origin',(-5.,-69.0000010281801,12.));
#1632=CARTESIAN_POINT('',(-5.,-71.5750010281801,12.));
#1633=CARTESIAN_POINT('Origin',(-5.,-69.0000010281801,12.));
#1634=CARTESIAN_POINT('Origin',(0.,-69.0000010281801,12.));
#1635=CARTESIAN_POINT('',(0.,-71.5750010281801,12.));
#1636=CARTESIAN_POINT('Origin',(-5.,70.5000003694754,12.));
#1637=CARTESIAN_POINT('',(-5.,67.9250003694754,12.));
#1638=CARTESIAN_POINT('Origin',(-5.,70.5000003694754,12.));
#1639=CARTESIAN_POINT('Origin',(0.,70.5000003694754,12.));
#1640=CARTESIAN_POINT('',(0.,67.9250003694754,12.));
#1641=CARTESIAN_POINT('Origin',(-5.,70.500000960636,4.00000000000002));
#1642=CARTESIAN_POINT('',(-5.,67.9250009606359,4.00000000000002));
#1643=CARTESIAN_POINT('Origin',(-5.,70.500000960636,4.00000000000002));
#1644=CARTESIAN_POINT('Origin',(0.,70.500000960636,4.00000000000002));
#1645=CARTESIAN_POINT('',(0.,67.9250009606359,4.00000000000002));
#1646=CARTESIAN_POINT('Origin',(-158.,-64.,11.9770963746341));
#1647=CARTESIAN_POINT('',(-158.,-64.,9.97709637463409));
#1648=CARTESIAN_POINT('',(-79.,-64.,9.97709637463408));
#1649=CARTESIAN_POINT('',(-158.,-64.,11.9770963746341));
#1650=CARTESIAN_POINT('',(-119.4,-64.,20.));
#1651=CARTESIAN_POINT('',(-119.4,-64.,15.988548187317));
#1652=CARTESIAN_POINT('',(-52.4,-64.,20.));
#1653=CARTESIAN_POINT('',(-79.,-64.,20.));
#1654=CARTESIAN_POINT('',(-52.4,-64.,15.988548187317));
#1655=CARTESIAN_POINT('Origin',(-52.5,66.,20.));
#1656=CARTESIAN_POINT('',(-52.5,71.5,20.));
#1657=CARTESIAN_POINT('',(-52.5,33.5,20.));
#1658=CARTESIAN_POINT('',(-52.5,71.5,20.));
#1659=CARTESIAN_POINT('Origin',(-119.5,71.5,20.));
#1660=CARTESIAN_POINT('',(-119.5,71.5,20.));
#1661=CARTESIAN_POINT('',(-119.5,36.25,20.));
#1662=CARTESIAN_POINT('',(-119.5,71.5,20.));
#1663=CARTESIAN_POINT('Origin',(-52.4,-69.8,20.));
#1664=CARTESIAN_POINT('',(-52.4,-69.8,20.));
#1665=CARTESIAN_POINT('',(-52.4,-34.4,20.));
#1666=CARTESIAN_POINT('',(-52.4,-69.8,20.));
#1667=CARTESIAN_POINT('Origin',(-119.4,-64.,20.));
#1668=CARTESIAN_POINT('',(-119.4,-69.8,20.));
#1669=CARTESIAN_POINT('',(-119.4,-31.5,20.));
#1670=CARTESIAN_POINT('',(-119.4,-69.8,20.));
#1671=CARTESIAN_POINT('Origin',(0.,1.25842229689036,6.86874936624156));
#1672=CARTESIAN_POINT('',(-158.,61.8953280875141,3.69090379115999));
#1673=CARTESIAN_POINT('',(-79.,61.8953280875141,3.69090379115999));
#1674=CARTESIAN_POINT('',(-158.,-58.0523718431386,9.97709637463409));
#1675=CARTESIAN_POINT('',(-158.,35.7145627135992,5.06297956433721));
#1676=CARTESIAN_POINT('',(-79.,-58.0523718431386,9.97709637463409));
#1677=CARTESIAN_POINT('Origin',(-158.,70.,0.));
#1678=CARTESIAN_POINT('',(-158.,71.5,20.));
#1679=CARTESIAN_POINT('',(-158.,-69.8,20.));
#1680=CARTESIAN_POINT('',(-158.,35.5,20.));
#1681=CARTESIAN_POINT('',(-158.,-69.8,20.));
#1682=CARTESIAN_POINT('',(-158.,-58.,9.97709637463409));
#1683=CARTESIAN_POINT('',(-158.,66.0000009834766,3.69090379115999));
#1684=CARTESIAN_POINT('',(-158.,71.5,20.));
#1685=CARTESIAN_POINT('Origin',(-158.,-58.,9.97709637463409));
#1686=CARTESIAN_POINT('Origin',(-158.,61.8953280875141,3.69090379115999));
#1687=CARTESIAN_POINT('Origin',(-130.75,75.,8.));
#1688=CARTESIAN_POINT('',(-121.79,75.,8.00000000000001));
#1689=CARTESIAN_POINT('',(-121.79,75.,8.00000000000001));
#1690=CARTESIAN_POINT('',(-130.75,75.,8.));
#1691=CARTESIAN_POINT('',(14.625,75.,8.00000000000025));
#1692=CARTESIAN_POINT('',(-130.75,75.,8.));
#1693=CARTESIAN_POINT('Origin',(-121.79,75.,8.00000000000001));
#1694=CARTESIAN_POINT('',(-120.75,75.,9.00000000000002));
#1695=CARTESIAN_POINT('',(-120.75,75.,9.00000000000002));
#1696=CARTESIAN_POINT('',(-50.5793774019992,75.,76.4717524980784));
#1697=CARTESIAN_POINT('Origin',(-120.75,75.,9.00000000000002));
#1698=CARTESIAN_POINT('',(-120.75,75.,12.));
#1699=CARTESIAN_POINT('',(-120.75,75.,12.));
#1700=CARTESIAN_POINT('',(-120.75,75.,4.50000000000001));
#1701=CARTESIAN_POINT('Origin',(-120.75,75.,12.));
#1702=CARTESIAN_POINT('',(-121.75,75.,13.));
#1703=CARTESIAN_POINT('',(-121.75,75.,13.));
#1704=CARTESIAN_POINT('',(-47.5625000000003,75.,-61.1875));
#1705=CARTESIAN_POINT('Origin',(-121.75,75.,13.));
#1706=CARTESIAN_POINT('',(-130.75,75.,13.));
#1707=CARTESIAN_POINT('',(-130.75,75.,13.));
#1708=CARTESIAN_POINT('',(19.125,75.,13.));
#1709=CARTESIAN_POINT('Origin',(-130.75,75.,13.));
#1710=CARTESIAN_POINT('',(-131.75,75.,12.));
#1711=CARTESIAN_POINT('',(-131.75,75.,12.));
#1712=CARTESIAN_POINT('',(-61.3125000000003,75.,82.4375));
#1713=CARTESIAN_POINT('Origin',(-131.75,75.,12.));
#1714=CARTESIAN_POINT('',(-131.75,75.,9.));
#1715=CARTESIAN_POINT('',(-131.75,75.,9.));
#1716=CARTESIAN_POINT('',(-131.75,75.,6.));
#1717=CARTESIAN_POINT('Origin',(-131.75,75.,9.));
#1718=CARTESIAN_POINT('',(-56.5625000000002,75.,-66.1875));
#1719=CARTESIAN_POINT('Origin',(-160.,70.,0.));
#1720=CARTESIAN_POINT('',(-165.,70.,20.));
#1721=CARTESIAN_POINT('',(-160.,75.,20.));
#1722=CARTESIAN_POINT('Origin',(-160.,70.,20.));
#1723=CARTESIAN_POINT('',(-160.,75.,0.));
#1724=CARTESIAN_POINT('',(-160.,75.,18.));
#1725=CARTESIAN_POINT('',(-165.,70.,0.262038896415206));
#1726=CARTESIAN_POINT('Origin',(-160.,70.,0.262038896415206));
#1727=CARTESIAN_POINT('',(-165.,70.,18.));
#1728=CARTESIAN_POINT('Origin',(-165.,70.,0.));
#1729=CARTESIAN_POINT('',(-165.,-68.,20.));
#1730=CARTESIAN_POINT('',(-165.,35.5,20.));
#1731=CARTESIAN_POINT('',(-165.,-68.,7.49431243747489));
#1732=CARTESIAN_POINT('',(-165.,35.5575548448704,2.06709096007349));
#1733=CARTESIAN_POINT('',(-165.,-68.,18.));
#1734=CARTESIAN_POINT('Origin',(-160.,-68.,0.));
#1735=CARTESIAN_POINT('',(-160.,-73.,20.));
#1736=CARTESIAN_POINT('Origin',(-160.,-68.,20.));
#1737=CARTESIAN_POINT('',(-160.,-73.,7.7563513338901));
#1738=CARTESIAN_POINT('Origin',(-160.,-68.,7.49431243747489));
#1739=CARTESIAN_POINT('',(-160.,-73.,18.));
#1740=CARTESIAN_POINT('Origin',(-158.,71.5,20.));
#1741=CARTESIAN_POINT('',(-78.9999999999999,71.5,20.));
#1742=CARTESIAN_POINT('Origin',(-158.,71.5,20.));
#1743=CARTESIAN_POINT('',(-78.9999999999999,71.5,20.));
#1744=CARTESIAN_POINT('Origin',(158.,-69.8,20.));
#1745=CARTESIAN_POINT('',(79.,-69.8,20.));
#1746=CARTESIAN_POINT('Origin',(-86.,-67.602784893407,0.));
#1747=CARTESIAN_POINT('',(-84.25,-67.602784893407,13.));
#1748=CARTESIAN_POINT('Origin',(-86.,-67.602784893407,13.));
#1749=CARTESIAN_POINT('',(-84.25,-67.602784893407,20.));
#1750=CARTESIAN_POINT('',(-84.25,-67.602784893407,0.));
#1751=CARTESIAN_POINT('Origin',(-86.,-67.602784893407,20.));
#1752=CARTESIAN_POINT('Origin',(-86.,69.3972151065931,0.));
#1753=CARTESIAN_POINT('',(-84.25,69.3972151065931,3.3));
#1754=CARTESIAN_POINT('Origin',(-86.,69.3972151065931,3.3));
#1755=CARTESIAN_POINT('',(-84.25,69.3972151065931,20.));
#1756=CARTESIAN_POINT('',(-84.25,69.3972151065931,0.));
#1757=CARTESIAN_POINT('Origin',(-86.,69.3972151065931,20.));
#1758=CARTESIAN_POINT('Origin',(-86.,69.3972151065931,3.3));
#1759=CARTESIAN_POINT('',(-82.65,69.3972151065931,3.3));
#1760=CARTESIAN_POINT('Origin',(-86.,69.3972151065931,3.3));
#1761=CARTESIAN_POINT('Origin',(-86.,69.3972151065931,0.));
#1762=CARTESIAN_POINT('',(-82.65,69.3972151065931,0.293629514064028));
#1763=CARTESIAN_POINT('Origin',(-86.,69.3972151065931,0.293629514064028));
#1764=CARTESIAN_POINT('',(-82.65,69.3972151065931,0.));
#1765=CARTESIAN_POINT('Origin',(-86.,-67.602784893407,13.));
#1766=CARTESIAN_POINT('',(-82.65,-67.602784893407,13.));
#1767=CARTESIAN_POINT('Origin',(-86.,-67.602784893407,13.));
#1768=CARTESIAN_POINT('Origin',(-86.,-67.602784893407,0.));
#1769=CARTESIAN_POINT('',(-82.65,-67.602784893407,7.47349527584067));
#1770=CARTESIAN_POINT('Origin',(-86.,-67.602784893407,7.47349527584067));
#1771=CARTESIAN_POINT('',(-82.65,-67.602784893407,0.));
#1772=CARTESIAN_POINT('Origin',(158.,-69.8,20.));
#1773=CARTESIAN_POINT('',(79.,-69.8,20.));
#1774=CARTESIAN_POINT('Origin',(0.,0.999999999999996,20.));
#1775=CARTESIAN_POINT('',(80.,75.,20.));
#1776=CARTESIAN_POINT('',(-80.,-73.,20.));
#1777=CARTESIAN_POINT('Origin',(-160.,-73.,0.));
#1778=CARTESIAN_POINT('',(-80.,-73.,7.7563513338901));
#1779=CARTESIAN_POINT('Origin',(0.,1.10141442816153,3.87286076197784));
#1780=CARTESIAN_POINT('',(-160.,75.,0.));
#1781=CARTESIAN_POINT('Origin',(160.,75.,0.));
#1782=UNCERTAINTY_MEASURE_WITH_UNIT(LENGTH_MEASURE(0.01),#1786,
'DISTANCE_ACCURACY_VALUE',
'Maximum model space distance between geometric entities at asserted c
onnectivities');
#1783=UNCERTAINTY_MEASURE_WITH_UNIT(LENGTH_MEASURE(0.01),#1786,
'DISTANCE_ACCURACY_VALUE',
'Maximum model space distance between geometric entities at asserted c
onnectivities');
#1784=(
GEOMETRIC_REPRESENTATION_CONTEXT(3)
GLOBAL_UNCERTAINTY_ASSIGNED_CONTEXT((#1782))
GLOBAL_UNIT_ASSIGNED_CONTEXT((#1786,#1788,#1789))
REPRESENTATION_CONTEXT('','3D')
);
#1785=(
GEOMETRIC_REPRESENTATION_CONTEXT(3)
GLOBAL_UNCERTAINTY_ASSIGNED_CONTEXT((#1783))
GLOBAL_UNIT_ASSIGNED_CONTEXT((#1786,#1788,#1789))
REPRESENTATION_CONTEXT('','3D')
);
#1786=(
LENGTH_UNIT()
NAMED_UNIT(*)
SI_UNIT(.MILLI.,.METRE.)
);
#1787=(
LENGTH_UNIT()
NAMED_UNIT(*)
SI_UNIT($,.METRE.)
);
#1788=(
NAMED_UNIT(*)
PLANE_ANGLE_UNIT()
SI_UNIT($,.RADIAN.)
);
#1789=(
NAMED_UNIT(*)
SI_UNIT($,.STERADIAN.)
SOLID_ANGLE_UNIT()
);
#1790=SHAPE_DEFINITION_REPRESENTATION(#1791,#1792);
#1791=PRODUCT_DEFINITION_SHAPE('',$,#1794);
#1792=SHAPE_REPRESENTATION('',(#1094),#1784);
#1793=PRODUCT_DEFINITION_CONTEXT('part definition',#1798,'design');
#1794=PRODUCT_DEFINITION('2026-05-12-09-43-54-783','Case',#1795,#1793);
#1795=PRODUCT_DEFINITION_FORMATION('',$,#1800);
#1796=PRODUCT_RELATED_PRODUCT_CATEGORY('Case','Case',(#1800));
#1797=APPLICATION_PROTOCOL_DEFINITION('international standard',
'automotive_design',2009,#1798);
#1798=APPLICATION_CONTEXT(
'Core Data for Automotive Mechanical Design Process');
#1799=PRODUCT_CONTEXT('part definition',#1798,'mechanical');
#1800=PRODUCT('2026-05-12-09-43-54-783','Case',$,(#1799));
#1801=PRESENTATION_STYLE_ASSIGNMENT((#1802));
#1802=SURFACE_STYLE_USAGE(.BOTH.,#1803);
#1803=SURFACE_SIDE_STYLE('',(#1804));
#1804=SURFACE_STYLE_FILL_AREA(#1805);
#1805=FILL_AREA_STYLE('Steel - Satin',(#1806));
#1806=FILL_AREA_STYLE_COLOUR('Steel - Satin',#1807);
#1807=COLOUR_RGB('Steel - Satin',0.627450980392157,0.627450980392157,0.627450980392157);
ENDSEC;
END-ISO-10303-21;
