ISO-10303-21;
HEADER;
/* Generated by software containing ST-Developer
 * from STEP Tools, Inc. (www.steptools.com) 
 */

FILE_DESCRIPTION(
/* description */ (''),
/* implementation_level */ '2;1');

FILE_NAME(
/* name */ 'BottomR.step',
/* time_stamp */ '2026-08-06T18:08:26-07:00',
/* author */ (''),
/* organization */ (''),
/* preprocessor_version */ 'ST-DEVELOPER v20.1',
/* originating_system */ 'Autodesk Translation Framework v15.8.0.0',
/* authorisation */ '');

FILE_SCHEMA (('AUTOMOTIVE_DESIGN { 1 0 10303 214 3 1 1 }'));
ENDSEC;

DATA;
#10=MECHANICAL_DESIGN_GEOMETRIC_PRESENTATION_REPRESENTATION('',(#13),#1420);
#11=SHAPE_REPRESENTATION_RELATIONSHIP('SRR','None',#1427,#12);
#12=ADVANCED_BREP_SHAPE_REPRESENTATION('',(#14),#1419);
#13=STYLED_ITEM('',(#1436),#14);
#14=MANIFOLD_SOLID_BREP('bottom right',#844);
#15=ELLIPSE('',#881,2.5034308649948,2.5);
#16=ELLIPSE('',#883,2.5034308649948,2.5);
#17=ELLIPSE('',#885,2.5034308649948,2.5);
#18=ELLIPSE('',#887,2.50343086499479,2.49999999999999);
#19=ELLIPSE('',#906,3.35459735909304,3.35000000000001);
#20=ELLIPSE('',#911,3.35459735909304,3.35000000000001);
#21=ELLIPSE('',#932,5.0068617299896,5.);
#22=ELLIPSE('',#933,5.00686172998962,5.00000000000002);
#23=FACE_BOUND('',#271,.T.);
#24=FACE_BOUND('',#278,.T.);
#25=FACE_BOUND('',#292,.T.);
#26=FACE_BOUND('',#293,.T.);
#27=FACE_BOUND('',#294,.T.);
#28=FACE_BOUND('',#298,.T.);
#29=FACE_BOUND('',#299,.T.);
#30=FACE_BOUND('',#300,.T.);
#31=FACE_BOUND('',#301,.T.);
#32=FACE_BOUND('',#305,.T.);
#33=FACE_BOUND('',#308,.T.);
#34=FACE_BOUND('',#320,.T.);
#35=FACE_BOUND('',#321,.T.);
#36=FACE_BOUND('',#324,.T.);
#37=FACE_BOUND('',#325,.T.);
#38=LINE('',#1198,#119);
#39=LINE('',#1205,#120);
#40=LINE('',#1211,#121);
#41=LINE('',#1213,#122);
#42=LINE('',#1215,#123);
#43=LINE('',#1216,#124);
#44=LINE('',#1220,#125);
#45=LINE('',#1222,#126);
#46=LINE('',#1224,#127);
#47=LINE('',#1225,#128);
#48=LINE('',#1229,#129);
#49=LINE('',#1231,#130);
#50=LINE('',#1233,#131);
#51=LINE('',#1234,#132);
#52=LINE('',#1238,#133);
#53=LINE('',#1240,#134);
#54=LINE('',#1242,#135);
#55=LINE('',#1243,#136);
#56=LINE('',#1246,#137);
#57=LINE('',#1248,#138);
#58=LINE('',#1250,#139);
#59=LINE('',#1251,#140);
#60=LINE('',#1253,#141);
#61=LINE('',#1254,#142);
#62=LINE('',#1257,#143);
#63=LINE('',#1259,#144);
#64=LINE('',#1261,#145);
#65=LINE('',#1262,#146);
#66=LINE('',#1264,#147);
#67=LINE('',#1265,#148);
#68=LINE('',#1269,#149);
#69=LINE('',#1273,#150);
#70=LINE('',#1277,#151);
#71=LINE('',#1281,#152);
#72=LINE('',#1286,#153);
#73=LINE('',#1293,#154);
#74=LINE('',#1300,#155);
#75=LINE('',#1305,#156);
#76=LINE('',#1307,#157);
#77=LINE('',#1309,#158);
#78=LINE('',#1311,#159);
#79=LINE('',#1313,#160);
#80=LINE('',#1315,#161);
#81=LINE('',#1316,#162);
#82=LINE('',#1318,#163);
#83=LINE('',#1320,#164);
#84=LINE('',#1321,#165);
#85=LINE('',#1324,#166);
#86=LINE('',#1325,#167);
#87=LINE('',#1328,#168);
#88=LINE('',#1329,#169);
#89=LINE('',#1332,#170);
#90=LINE('',#1333,#171);
#91=LINE('',#1335,#172);
#92=LINE('',#1340,#173);
#93=LINE('',#1349,#174);
#94=LINE('',#1356,#175);
#95=LINE('',#1360,#176);
#96=LINE('',#1365,#177);
#97=LINE('',#1366,#178);
#98=LINE('',#1367,#179);
#99=LINE('',#1370,#180);
#100=LINE('',#1371,#181);
#101=LINE('',#1374,#182);
#102=LINE('',#1375,#183);
#103=LINE('',#1378,#184);
#104=LINE('',#1380,#185);
#105=LINE('',#1381,#186);
#106=LINE('',#1383,#187);
#107=LINE('',#1386,#188);
#108=LINE('',#1387,#189);
#109=LINE('',#1389,#190);
#110=LINE('',#1391,#191);
#111=LINE('',#1393,#192);
#112=LINE('',#1397,#193);
#113=LINE('',#1400,#194);
#114=LINE('',#1404,#195);
#115=LINE('',#1408,#196);
#116=LINE('',#1411,#197);
#117=LINE('',#1413,#198);
#118=LINE('',#1415,#199);
#119=VECTOR('',#960,2.20000000000001);
#120=VECTOR('',#969,1.35);
#121=VECTOR('',#976,10.);
#122=VECTOR('',#977,10.);
#123=VECTOR('',#978,10.);
#124=VECTOR('',#979,10.);
#125=VECTOR('',#982,10.);
#126=VECTOR('',#983,10.);
#127=VECTOR('',#984,10.);
#128=VECTOR('',#985,10.);
#129=VECTOR('',#988,10.);
#130=VECTOR('',#989,10.);
#131=VECTOR('',#990,10.);
#132=VECTOR('',#991,10.);
#133=VECTOR('',#994,10.);
#134=VECTOR('',#995,10.);
#135=VECTOR('',#996,10.);
#136=VECTOR('',#997,10.);
#137=VECTOR('',#1000,10.);
#138=VECTOR('',#1001,10.);
#139=VECTOR('',#1002,10.);
#140=VECTOR('',#1003,10.);
#141=VECTOR('',#1004,10.);
#142=VECTOR('',#1005,10.);
#143=VECTOR('',#1008,10.);
#144=VECTOR('',#1009,10.);
#145=VECTOR('',#1010,10.);
#146=VECTOR('',#1011,10.);
#147=VECTOR('',#1012,10.);
#148=VECTOR('',#1013,10.);
#149=VECTOR('',#1018,2.5);
#150=VECTOR('',#1023,2.5);
#151=VECTOR('',#1028,2.5);
#152=VECTOR('',#1033,2.49999999999999);
#153=VECTOR('',#1038,2.575);
#154=VECTOR('',#1047,2.575);
#155=VECTOR('',#1056,2.575);
#156=VECTOR('',#1063,10.);
#157=VECTOR('',#1064,10.);
#158=VECTOR('',#1065,10.);
#159=VECTOR('',#1066,10.);
#160=VECTOR('',#1067,10.);
#161=VECTOR('',#1068,10.);
#162=VECTOR('',#1069,10.);
#163=VECTOR('',#1070,10.);
#164=VECTOR('',#1071,10.);
#165=VECTOR('',#1072,10.);
#166=VECTOR('',#1075,10.);
#167=VECTOR('',#1076,10.);
#168=VECTOR('',#1079,10.);
#169=VECTOR('',#1080,10.);
#170=VECTOR('',#1083,10.);
#171=VECTOR('',#1084,10.);
#172=VECTOR('',#1087,10.);
#173=VECTOR('',#1092,3.35000000000001);
#174=VECTOR('',#1103,3.35000000000001);
#175=VECTOR('',#1112,1.75000000000001);
#176=VECTOR('',#1117,1.75000000000001);
#177=VECTOR('',#1122,10.);
#178=VECTOR('',#1123,10.);
#179=VECTOR('',#1124,10.);
#180=VECTOR('',#1127,10.);
#181=VECTOR('',#1128,10.);
#182=VECTOR('',#1131,10.);
#183=VECTOR('',#1132,10.);
#184=VECTOR('',#1135,10.);
#185=VECTOR('',#1136,10.);
#186=VECTOR('',#1137,10.);
#187=VECTOR('',#1140,10.);
#188=VECTOR('',#1143,10.);
#189=VECTOR('',#1144,10.);
#190=VECTOR('',#1147,10.);
#191=VECTOR('',#1150,10.);
#192=VECTOR('',#1153,10.);
#193=VECTOR('',#1156,10.);
#194=VECTOR('',#1159,10.);
#195=VECTOR('',#1164,10.);
#196=VECTOR('',#1167,10.);
#197=VECTOR('',#1172,10.);
#198=VECTOR('',#1175,10.);
#199=VECTOR('',#1178,10.);
#200=CYLINDRICAL_SURFACE('',#866,2.20000000000001);
#201=CYLINDRICAL_SURFACE('',#871,1.35);
#202=CYLINDRICAL_SURFACE('',#880,2.5);
#203=CYLINDRICAL_SURFACE('',#882,2.5);
#204=CYLINDRICAL_SURFACE('',#884,2.5);
#205=CYLINDRICAL_SURFACE('',#886,2.49999999999999);
#206=CYLINDRICAL_SURFACE('',#888,2.575);
#207=CYLINDRICAL_SURFACE('',#892,2.575);
#208=CYLINDRICAL_SURFACE('',#896,2.575);
#209=CYLINDRICAL_SURFACE('',#905,3.35000000000001);
#210=CYLINDRICAL_SURFACE('',#910,3.35000000000001);
#211=CYLINDRICAL_SURFACE('',#915,1.75000000000001);
#212=CYLINDRICAL_SURFACE('',#917,1.75000000000001);
#213=CYLINDRICAL_SURFACE('',#935,5.00000000000002);
#214=CYLINDRICAL_SURFACE('',#937,5.);
#215=FACE_OUTER_BOUND('',#265,.T.);
#216=FACE_OUTER_BOUND('',#266,.T.);
#217=FACE_OUTER_BOUND('',#267,.T.);
#218=FACE_OUTER_BOUND('',#268,.T.);
#219=FACE_OUTER_BOUND('',#269,.T.);
#220=FACE_OUTER_BOUND('',#270,.T.);
#221=FACE_OUTER_BOUND('',#272,.T.);
#222=FACE_OUTER_BOUND('',#273,.T.);
#223=FACE_OUTER_BOUND('',#274,.T.);
#224=FACE_OUTER_BOUND('',#275,.T.);
#225=FACE_OUTER_BOUND('',#276,.T.);
#226=FACE_OUTER_BOUND('',#277,.T.);
#227=FACE_OUTER_BOUND('',#279,.T.);
#228=FACE_OUTER_BOUND('',#280,.T.);
#229=FACE_OUTER_BOUND('',#281,.T.);
#230=FACE_OUTER_BOUND('',#282,.T.);
#231=FACE_OUTER_BOUND('',#283,.T.);
#232=FACE_OUTER_BOUND('',#284,.T.);
#233=FACE_OUTER_BOUND('',#285,.T.);
#234=FACE_OUTER_BOUND('',#286,.T.);
#235=FACE_OUTER_BOUND('',#287,.T.);
#236=FACE_OUTER_BOUND('',#288,.T.);
#237=FACE_OUTER_BOUND('',#289,.T.);
#238=FACE_OUTER_BOUND('',#290,.T.);
#239=FACE_OUTER_BOUND('',#291,.T.);
#240=FACE_OUTER_BOUND('',#295,.T.);
#241=FACE_OUTER_BOUND('',#296,.T.);
#242=FACE_OUTER_BOUND('',#297,.T.);
#243=FACE_OUTER_BOUND('',#302,.T.);
#244=FACE_OUTER_BOUND('',#303,.T.);
#245=FACE_OUTER_BOUND('',#304,.T.);
#246=FACE_OUTER_BOUND('',#306,.T.);
#247=FACE_OUTER_BOUND('',#307,.T.);
#248=FACE_OUTER_BOUND('',#309,.T.);
#249=FACE_OUTER_BOUND('',#310,.T.);
#250=FACE_OUTER_BOUND('',#311,.T.);
#251=FACE_OUTER_BOUND('',#312,.T.);
#252=FACE_OUTER_BOUND('',#313,.T.);
#253=FACE_OUTER_BOUND('',#314,.T.);
#254=FACE_OUTER_BOUND('',#315,.T.);
#255=FACE_OUTER_BOUND('',#316,.T.);
#256=FACE_OUTER_BOUND('',#317,.T.);
#257=FACE_OUTER_BOUND('',#318,.T.);
#258=FACE_OUTER_BOUND('',#319,.T.);
#259=FACE_OUTER_BOUND('',#322,.T.);
#260=FACE_OUTER_BOUND('',#323,.T.);
#261=FACE_OUTER_BOUND('',#326,.T.);
#262=FACE_OUTER_BOUND('',#327,.T.);
#263=FACE_OUTER_BOUND('',#328,.T.);
#264=FACE_OUTER_BOUND('',#329,.T.);
#265=EDGE_LOOP('',(#537));
#266=EDGE_LOOP('',(#538));
#267=EDGE_LOOP('',(#539));
#268=EDGE_LOOP('',(#540));
#269=EDGE_LOOP('',(#541,#542,#543,#544));
#270=EDGE_LOOP('',(#545));
#271=EDGE_LOOP('',(#546));
#272=EDGE_LOOP('',(#547,#548,#549,#550));
#273=EDGE_LOOP('',(#551));
#274=EDGE_LOOP('',(#552,#553,#554,#555));
#275=EDGE_LOOP('',(#556,#557,#558,#559));
#276=EDGE_LOOP('',(#560,#561,#562,#563));
#277=EDGE_LOOP('',(#564,#565,#566,#567));
#278=EDGE_LOOP('',(#568));
#279=EDGE_LOOP('',(#569,#570,#571,#572,#573,#574,#575,#576));
#280=EDGE_LOOP('',(#577,#578,#579,#580,#581,#582,#583,#584));
#281=EDGE_LOOP('',(#585,#586,#587,#588));
#282=EDGE_LOOP('',(#589,#590,#591,#592));
#283=EDGE_LOOP('',(#593,#594,#595,#596));
#284=EDGE_LOOP('',(#597,#598,#599,#600));
#285=EDGE_LOOP('',(#601,#602,#603,#604));
#286=EDGE_LOOP('',(#605));
#287=EDGE_LOOP('',(#606,#607,#608,#609));
#288=EDGE_LOOP('',(#610));
#289=EDGE_LOOP('',(#611,#612,#613,#614));
#290=EDGE_LOOP('',(#615));
#291=EDGE_LOOP('',(#616,#617,#618,#619,#620,#621,#622,#623,#624,#625,#626,
#627,#628,#629));
#292=EDGE_LOOP('',(#630));
#293=EDGE_LOOP('',(#631));
#294=EDGE_LOOP('',(#632));
#295=EDGE_LOOP('',(#633,#634,#635,#636));
#296=EDGE_LOOP('',(#637,#638,#639,#640));
#297=EDGE_LOOP('',(#641,#642,#643,#644));
#298=EDGE_LOOP('',(#645));
#299=EDGE_LOOP('',(#646));
#300=EDGE_LOOP('',(#647));
#301=EDGE_LOOP('',(#648));
#302=EDGE_LOOP('',(#649,#650,#651,#652));
#303=EDGE_LOOP('',(#653,#654,#655,#656));
#304=EDGE_LOOP('',(#657));
#305=EDGE_LOOP('',(#658));
#306=EDGE_LOOP('',(#659,#660,#661,#662));
#307=EDGE_LOOP('',(#663));
#308=EDGE_LOOP('',(#664));
#309=EDGE_LOOP('',(#665,#666,#667,#668));
#310=EDGE_LOOP('',(#669,#670,#671,#672));
#311=EDGE_LOOP('',(#673,#674,#675,#676));
#312=EDGE_LOOP('',(#677,#678,#679,#680,#681,#682,#683,#684,#685,#686));
#313=EDGE_LOOP('',(#687,#688,#689,#690));
#314=EDGE_LOOP('',(#691,#692,#693,#694));
#315=EDGE_LOOP('',(#695,#696,#697,#698));
#316=EDGE_LOOP('',(#699,#700,#701,#702));
#317=EDGE_LOOP('',(#703,#704,#705,#706));
#318=EDGE_LOOP('',(#707,#708,#709,#710));
#319=EDGE_LOOP('',(#711,#712,#713,#714,#715,#716,#717,#718,#719,#720,#721,
#722,#723,#724,#725,#726,#727,#728));
#320=EDGE_LOOP('',(#729));
#321=EDGE_LOOP('',(#730));
#322=EDGE_LOOP('',(#731,#732,#733,#734));
#323=EDGE_LOOP('',(#735,#736,#737,#738,#739,#740));
#324=EDGE_LOOP('',(#741));
#325=EDGE_LOOP('',(#742));
#326=EDGE_LOOP('',(#743,#744,#745,#746));
#327=EDGE_LOOP('',(#747,#748,#749,#750));
#328=EDGE_LOOP('',(#751,#752,#753,#754));
#329=EDGE_LOOP('',(#755,#756,#757,#758));
#330=CIRCLE('',#859,2.5);
#331=CIRCLE('',#861,2.5);
#332=CIRCLE('',#863,2.5);
#333=CIRCLE('',#865,2.49999999999999);
#334=CIRCLE('',#867,2.20000000000001);
#335=CIRCLE('',#868,2.20000000000001);
#336=CIRCLE('',#870,1.35);
#337=CIRCLE('',#872,1.35);
#338=CIRCLE('',#889,2.575);
#339=CIRCLE('',#890,2.575);
#340=CIRCLE('',#893,2.575);
#341=CIRCLE('',#894,2.575);
#342=CIRCLE('',#897,2.575);
#343=CIRCLE('',#898,2.575);
#344=CIRCLE('',#907,3.35000000000001);
#345=CIRCLE('',#909,1.75000000000001);
#346=CIRCLE('',#912,3.35000000000001);
#347=CIRCLE('',#914,1.75000000000001);
#348=CIRCLE('',#916,1.75000000000001);
#349=CIRCLE('',#918,1.75000000000001);
#350=CIRCLE('',#928,5.00000000000002);
#351=CIRCLE('',#929,5.);
#352=VERTEX_POINT('',#1183);
#353=VERTEX_POINT('',#1186);
#354=VERTEX_POINT('',#1189);
#355=VERTEX_POINT('',#1192);
#356=VERTEX_POINT('',#1195);
#357=VERTEX_POINT('',#1197);
#358=VERTEX_POINT('',#1201);
#359=VERTEX_POINT('',#1204);
#360=VERTEX_POINT('',#1209);
#361=VERTEX_POINT('',#1210);
#362=VERTEX_POINT('',#1212);
#363=VERTEX_POINT('',#1214);
#364=VERTEX_POINT('',#1218);
#365=VERTEX_POINT('',#1219);
#366=VERTEX_POINT('',#1221);
#367=VERTEX_POINT('',#1223);
#368=VERTEX_POINT('',#1227);
#369=VERTEX_POINT('',#1228);
#370=VERTEX_POINT('',#1230);
#371=VERTEX_POINT('',#1232);
#372=VERTEX_POINT('',#1236);
#373=VERTEX_POINT('',#1237);
#374=VERTEX_POINT('',#1239);
#375=VERTEX_POINT('',#1241);
#376=VERTEX_POINT('',#1245);
#377=VERTEX_POINT('',#1247);
#378=VERTEX_POINT('',#1249);
#379=VERTEX_POINT('',#1252);
#380=VERTEX_POINT('',#1256);
#381=VERTEX_POINT('',#1258);
#382=VERTEX_POINT('',#1260);
#383=VERTEX_POINT('',#1263);
#384=VERTEX_POINT('',#1267);
#385=VERTEX_POINT('',#1271);
#386=VERTEX_POINT('',#1275);
#387=VERTEX_POINT('',#1279);
#388=VERTEX_POINT('',#1283);
#389=VERTEX_POINT('',#1285);
#390=VERTEX_POINT('',#1290);
#391=VERTEX_POINT('',#1292);
#392=VERTEX_POINT('',#1297);
#393=VERTEX_POINT('',#1299);
#394=VERTEX_POINT('',#1304);
#395=VERTEX_POINT('',#1306);
#396=VERTEX_POINT('',#1308);
#397=VERTEX_POINT('',#1310);
#398=VERTEX_POINT('',#1312);
#399=VERTEX_POINT('',#1314);
#400=VERTEX_POINT('',#1317);
#401=VERTEX_POINT('',#1319);
#402=VERTEX_POINT('',#1323);
#403=VERTEX_POINT('',#1327);
#404=VERTEX_POINT('',#1331);
#405=VERTEX_POINT('',#1337);
#406=VERTEX_POINT('',#1339);
#407=VERTEX_POINT('',#1343);
#408=VERTEX_POINT('',#1346);
#409=VERTEX_POINT('',#1348);
#410=VERTEX_POINT('',#1352);
#411=VERTEX_POINT('',#1355);
#412=VERTEX_POINT('',#1359);
#413=VERTEX_POINT('',#1363);
#414=VERTEX_POINT('',#1364);
#415=VERTEX_POINT('',#1369);
#416=VERTEX_POINT('',#1373);
#417=VERTEX_POINT('',#1377);
#418=VERTEX_POINT('',#1379);
#419=VERTEX_POINT('',#1385);
#420=VERTEX_POINT('',#1394);
#421=VERTEX_POINT('',#1396);
#422=VERTEX_POINT('',#1398);
#423=VERTEX_POINT('',#1403);
#424=VERTEX_POINT('',#1405);
#425=VERTEX_POINT('',#1407);
#426=EDGE_CURVE('',#352,#352,#330,.T.);
#427=EDGE_CURVE('',#353,#353,#331,.T.);
#428=EDGE_CURVE('',#354,#354,#332,.T.);
#429=EDGE_CURVE('',#355,#355,#333,.T.);
#430=EDGE_CURVE('',#356,#356,#334,.T.);
#431=EDGE_CURVE('',#356,#357,#38,.T.);
#432=EDGE_CURVE('',#357,#357,#335,.T.);
#433=EDGE_CURVE('',#358,#358,#336,.T.);
#434=EDGE_CURVE('',#358,#359,#39,.T.);
#435=EDGE_CURVE('',#359,#359,#337,.T.);
#436=EDGE_CURVE('',#360,#361,#40,.T.);
#437=EDGE_CURVE('',#362,#360,#41,.T.);
#438=EDGE_CURVE('',#363,#362,#42,.T.);
#439=EDGE_CURVE('',#361,#363,#43,.T.);
#440=EDGE_CURVE('',#364,#365,#44,.T.);
#441=EDGE_CURVE('',#366,#364,#45,.T.);
#442=EDGE_CURVE('',#367,#366,#46,.T.);
#443=EDGE_CURVE('',#365,#367,#47,.T.);
#444=EDGE_CURVE('',#368,#369,#48,.T.);
#445=EDGE_CURVE('',#370,#368,#49,.T.);
#446=EDGE_CURVE('',#371,#370,#50,.T.);
#447=EDGE_CURVE('',#369,#371,#51,.T.);
#448=EDGE_CURVE('',#372,#373,#52,.T.);
#449=EDGE_CURVE('',#374,#372,#53,.T.);
#450=EDGE_CURVE('',#375,#374,#54,.T.);
#451=EDGE_CURVE('',#373,#375,#55,.T.);
#452=EDGE_CURVE('',#376,#365,#56,.T.);
#453=EDGE_CURVE('',#377,#367,#57,.T.);
#454=EDGE_CURVE('',#377,#378,#58,.T.);
#455=EDGE_CURVE('',#378,#369,#59,.T.);
#456=EDGE_CURVE('',#371,#379,#60,.T.);
#457=EDGE_CURVE('',#376,#379,#61,.T.);
#458=EDGE_CURVE('',#380,#362,#62,.T.);
#459=EDGE_CURVE('',#360,#381,#63,.T.);
#460=EDGE_CURVE('',#381,#382,#64,.T.);
#461=EDGE_CURVE('',#374,#382,#65,.T.);
#462=EDGE_CURVE('',#372,#383,#66,.T.);
#463=EDGE_CURVE('',#383,#380,#67,.T.);
#464=EDGE_CURVE('',#384,#384,#15,.T.);
#465=EDGE_CURVE('',#384,#352,#68,.T.);
#466=EDGE_CURVE('',#385,#385,#16,.T.);
#467=EDGE_CURVE('',#385,#353,#69,.T.);
#468=EDGE_CURVE('',#386,#386,#17,.T.);
#469=EDGE_CURVE('',#386,#354,#70,.T.);
#470=EDGE_CURVE('',#387,#387,#18,.T.);
#471=EDGE_CURVE('',#387,#355,#71,.T.);
#472=EDGE_CURVE('',#388,#388,#338,.T.);
#473=EDGE_CURVE('',#388,#389,#72,.T.);
#474=EDGE_CURVE('',#389,#389,#339,.T.);
#475=EDGE_CURVE('',#390,#390,#340,.T.);
#476=EDGE_CURVE('',#390,#391,#73,.T.);
#477=EDGE_CURVE('',#391,#391,#341,.T.);
#478=EDGE_CURVE('',#392,#392,#342,.T.);
#479=EDGE_CURVE('',#392,#393,#74,.T.);
#480=EDGE_CURVE('',#393,#393,#343,.T.);
#481=EDGE_CURVE('',#394,#361,#75,.T.);
#482=EDGE_CURVE('',#395,#394,#76,.T.);
#483=EDGE_CURVE('',#396,#395,#77,.T.);
#484=EDGE_CURVE('',#397,#396,#78,.T.);
#485=EDGE_CURVE('',#398,#397,#79,.T.);
#486=EDGE_CURVE('',#399,#398,#80,.T.);
#487=EDGE_CURVE('',#399,#368,#81,.T.);
#488=EDGE_CURVE('',#400,#378,#82,.T.);
#489=EDGE_CURVE('',#401,#400,#83,.T.);
#490=EDGE_CURVE('',#381,#401,#84,.T.);
#491=EDGE_CURVE('',#402,#363,#85,.T.);
#492=EDGE_CURVE('',#402,#394,#86,.T.);
#493=EDGE_CURVE('',#401,#403,#87,.T.);
#494=EDGE_CURVE('',#403,#382,#88,.T.);
#495=EDGE_CURVE('',#400,#404,#89,.T.);
#496=EDGE_CURVE('',#403,#404,#90,.T.);
#497=EDGE_CURVE('',#404,#377,#91,.T.);
#498=EDGE_CURVE('',#405,#405,#19,.T.);
#499=EDGE_CURVE('',#405,#406,#92,.T.);
#500=EDGE_CURVE('',#406,#406,#344,.T.);
#501=EDGE_CURVE('',#407,#407,#345,.T.);
#502=EDGE_CURVE('',#408,#408,#20,.T.);
#503=EDGE_CURVE('',#408,#409,#93,.T.);
#504=EDGE_CURVE('',#409,#409,#346,.T.);
#505=EDGE_CURVE('',#410,#410,#347,.T.);
#506=EDGE_CURVE('',#410,#411,#94,.T.);
#507=EDGE_CURVE('',#411,#411,#348,.T.);
#508=EDGE_CURVE('',#407,#412,#95,.T.);
#509=EDGE_CURVE('',#412,#412,#349,.T.);
#510=EDGE_CURVE('',#413,#414,#96,.T.);
#511=EDGE_CURVE('',#414,#366,#97,.T.);
#512=EDGE_CURVE('',#413,#364,#98,.T.);
#513=EDGE_CURVE('',#414,#415,#99,.T.);
#514=EDGE_CURVE('',#415,#375,#100,.T.);
#515=EDGE_CURVE('',#415,#416,#101,.T.);
#516=EDGE_CURVE('',#416,#373,#102,.T.);
#517=EDGE_CURVE('',#417,#397,#103,.F.);
#518=EDGE_CURVE('',#417,#418,#104,.T.);
#519=EDGE_CURVE('',#418,#398,#105,.T.);
#520=EDGE_CURVE('',#413,#376,#106,.T.);
#521=EDGE_CURVE('',#379,#419,#107,.T.);
#522=EDGE_CURVE('',#419,#370,#108,.T.);
#523=EDGE_CURVE('',#383,#416,#109,.T.);
#524=EDGE_CURVE('',#402,#380,#110,.T.);
#525=EDGE_CURVE('',#399,#419,#111,.T.);
#526=EDGE_CURVE('',#420,#418,#350,.T.);
#527=EDGE_CURVE('',#421,#420,#112,.T.);
#528=EDGE_CURVE('',#422,#421,#351,.T.);
#529=EDGE_CURVE('',#395,#422,#113,.T.);
#530=EDGE_CURVE('',#396,#423,#114,.T.);
#531=EDGE_CURVE('',#424,#423,#21,.T.);
#532=EDGE_CURVE('',#424,#425,#115,.F.);
#533=EDGE_CURVE('',#417,#425,#22,.T.);
#534=EDGE_CURVE('',#423,#422,#116,.T.);
#535=EDGE_CURVE('',#425,#420,#117,.T.);
#536=EDGE_CURVE('',#424,#421,#118,.T.);
#537=ORIENTED_EDGE('',*,*,#426,.T.);
#538=ORIENTED_EDGE('',*,*,#427,.T.);
#539=ORIENTED_EDGE('',*,*,#428,.T.);
#540=ORIENTED_EDGE('',*,*,#429,.T.);
#541=ORIENTED_EDGE('',*,*,#430,.F.);
#542=ORIENTED_EDGE('',*,*,#431,.T.);
#543=ORIENTED_EDGE('',*,*,#432,.T.);
#544=ORIENTED_EDGE('',*,*,#431,.F.);
#545=ORIENTED_EDGE('',*,*,#432,.F.);
#546=ORIENTED_EDGE('',*,*,#433,.F.);
#547=ORIENTED_EDGE('',*,*,#433,.T.);
#548=ORIENTED_EDGE('',*,*,#434,.T.);
#549=ORIENTED_EDGE('',*,*,#435,.T.);
#550=ORIENTED_EDGE('',*,*,#434,.F.);
#551=ORIENTED_EDGE('',*,*,#435,.F.);
#552=ORIENTED_EDGE('',*,*,#436,.F.);
#553=ORIENTED_EDGE('',*,*,#437,.F.);
#554=ORIENTED_EDGE('',*,*,#438,.F.);
#555=ORIENTED_EDGE('',*,*,#439,.F.);
#556=ORIENTED_EDGE('',*,*,#440,.F.);
#557=ORIENTED_EDGE('',*,*,#441,.F.);
#558=ORIENTED_EDGE('',*,*,#442,.F.);
#559=ORIENTED_EDGE('',*,*,#443,.F.);
#560=ORIENTED_EDGE('',*,*,#444,.F.);
#561=ORIENTED_EDGE('',*,*,#445,.F.);
#562=ORIENTED_EDGE('',*,*,#446,.F.);
#563=ORIENTED_EDGE('',*,*,#447,.F.);
#564=ORIENTED_EDGE('',*,*,#448,.F.);
#565=ORIENTED_EDGE('',*,*,#449,.F.);
#566=ORIENTED_EDGE('',*,*,#450,.F.);
#567=ORIENTED_EDGE('',*,*,#451,.F.);
#568=ORIENTED_EDGE('',*,*,#430,.T.);
#569=ORIENTED_EDGE('',*,*,#452,.T.);
#570=ORIENTED_EDGE('',*,*,#443,.T.);
#571=ORIENTED_EDGE('',*,*,#453,.F.);
#572=ORIENTED_EDGE('',*,*,#454,.T.);
#573=ORIENTED_EDGE('',*,*,#455,.T.);
#574=ORIENTED_EDGE('',*,*,#447,.T.);
#575=ORIENTED_EDGE('',*,*,#456,.T.);
#576=ORIENTED_EDGE('',*,*,#457,.F.);
#577=ORIENTED_EDGE('',*,*,#458,.T.);
#578=ORIENTED_EDGE('',*,*,#437,.T.);
#579=ORIENTED_EDGE('',*,*,#459,.T.);
#580=ORIENTED_EDGE('',*,*,#460,.T.);
#581=ORIENTED_EDGE('',*,*,#461,.F.);
#582=ORIENTED_EDGE('',*,*,#449,.T.);
#583=ORIENTED_EDGE('',*,*,#462,.T.);
#584=ORIENTED_EDGE('',*,*,#463,.T.);
#585=ORIENTED_EDGE('',*,*,#464,.F.);
#586=ORIENTED_EDGE('',*,*,#465,.T.);
#587=ORIENTED_EDGE('',*,*,#426,.F.);
#588=ORIENTED_EDGE('',*,*,#465,.F.);
#589=ORIENTED_EDGE('',*,*,#466,.F.);
#590=ORIENTED_EDGE('',*,*,#467,.T.);
#591=ORIENTED_EDGE('',*,*,#427,.F.);
#592=ORIENTED_EDGE('',*,*,#467,.F.);
#593=ORIENTED_EDGE('',*,*,#468,.F.);
#594=ORIENTED_EDGE('',*,*,#469,.T.);
#595=ORIENTED_EDGE('',*,*,#428,.F.);
#596=ORIENTED_EDGE('',*,*,#469,.F.);
#597=ORIENTED_EDGE('',*,*,#470,.F.);
#598=ORIENTED_EDGE('',*,*,#471,.T.);
#599=ORIENTED_EDGE('',*,*,#429,.F.);
#600=ORIENTED_EDGE('',*,*,#471,.F.);
#601=ORIENTED_EDGE('',*,*,#472,.F.);
#602=ORIENTED_EDGE('',*,*,#473,.T.);
#603=ORIENTED_EDGE('',*,*,#474,.T.);
#604=ORIENTED_EDGE('',*,*,#473,.F.);
#605=ORIENTED_EDGE('',*,*,#474,.F.);
#606=ORIENTED_EDGE('',*,*,#475,.F.);
#607=ORIENTED_EDGE('',*,*,#476,.T.);
#608=ORIENTED_EDGE('',*,*,#477,.T.);
#609=ORIENTED_EDGE('',*,*,#476,.F.);
#610=ORIENTED_EDGE('',*,*,#477,.F.);
#611=ORIENTED_EDGE('',*,*,#478,.F.);
#612=ORIENTED_EDGE('',*,*,#479,.T.);
#613=ORIENTED_EDGE('',*,*,#480,.T.);
#614=ORIENTED_EDGE('',*,*,#479,.F.);
#615=ORIENTED_EDGE('',*,*,#480,.F.);
#616=ORIENTED_EDGE('',*,*,#481,.F.);
#617=ORIENTED_EDGE('',*,*,#482,.F.);
#618=ORIENTED_EDGE('',*,*,#483,.F.);
#619=ORIENTED_EDGE('',*,*,#484,.F.);
#620=ORIENTED_EDGE('',*,*,#485,.F.);
#621=ORIENTED_EDGE('',*,*,#486,.F.);
#622=ORIENTED_EDGE('',*,*,#487,.T.);
#623=ORIENTED_EDGE('',*,*,#444,.T.);
#624=ORIENTED_EDGE('',*,*,#455,.F.);
#625=ORIENTED_EDGE('',*,*,#488,.F.);
#626=ORIENTED_EDGE('',*,*,#489,.F.);
#627=ORIENTED_EDGE('',*,*,#490,.F.);
#628=ORIENTED_EDGE('',*,*,#459,.F.);
#629=ORIENTED_EDGE('',*,*,#436,.T.);
#630=ORIENTED_EDGE('',*,*,#472,.T.);
#631=ORIENTED_EDGE('',*,*,#475,.T.);
#632=ORIENTED_EDGE('',*,*,#478,.T.);
#633=ORIENTED_EDGE('',*,*,#481,.T.);
#634=ORIENTED_EDGE('',*,*,#439,.T.);
#635=ORIENTED_EDGE('',*,*,#491,.F.);
#636=ORIENTED_EDGE('',*,*,#492,.T.);
#637=ORIENTED_EDGE('',*,*,#490,.T.);
#638=ORIENTED_EDGE('',*,*,#493,.T.);
#639=ORIENTED_EDGE('',*,*,#494,.T.);
#640=ORIENTED_EDGE('',*,*,#460,.F.);
#641=ORIENTED_EDGE('',*,*,#489,.T.);
#642=ORIENTED_EDGE('',*,*,#495,.T.);
#643=ORIENTED_EDGE('',*,*,#496,.F.);
#644=ORIENTED_EDGE('',*,*,#493,.F.);
#645=ORIENTED_EDGE('',*,*,#464,.T.);
#646=ORIENTED_EDGE('',*,*,#466,.T.);
#647=ORIENTED_EDGE('',*,*,#468,.T.);
#648=ORIENTED_EDGE('',*,*,#470,.T.);
#649=ORIENTED_EDGE('',*,*,#488,.T.);
#650=ORIENTED_EDGE('',*,*,#454,.F.);
#651=ORIENTED_EDGE('',*,*,#497,.F.);
#652=ORIENTED_EDGE('',*,*,#495,.F.);
#653=ORIENTED_EDGE('',*,*,#498,.F.);
#654=ORIENTED_EDGE('',*,*,#499,.T.);
#655=ORIENTED_EDGE('',*,*,#500,.T.);
#656=ORIENTED_EDGE('',*,*,#499,.F.);
#657=ORIENTED_EDGE('',*,*,#500,.F.);
#658=ORIENTED_EDGE('',*,*,#501,.F.);
#659=ORIENTED_EDGE('',*,*,#502,.F.);
#660=ORIENTED_EDGE('',*,*,#503,.T.);
#661=ORIENTED_EDGE('',*,*,#504,.T.);
#662=ORIENTED_EDGE('',*,*,#503,.F.);
#663=ORIENTED_EDGE('',*,*,#504,.F.);
#664=ORIENTED_EDGE('',*,*,#505,.F.);
#665=ORIENTED_EDGE('',*,*,#505,.T.);
#666=ORIENTED_EDGE('',*,*,#506,.T.);
#667=ORIENTED_EDGE('',*,*,#507,.F.);
#668=ORIENTED_EDGE('',*,*,#506,.F.);
#669=ORIENTED_EDGE('',*,*,#501,.T.);
#670=ORIENTED_EDGE('',*,*,#508,.T.);
#671=ORIENTED_EDGE('',*,*,#509,.F.);
#672=ORIENTED_EDGE('',*,*,#508,.F.);
#673=ORIENTED_EDGE('',*,*,#510,.T.);
#674=ORIENTED_EDGE('',*,*,#511,.T.);
#675=ORIENTED_EDGE('',*,*,#441,.T.);
#676=ORIENTED_EDGE('',*,*,#512,.F.);
#677=ORIENTED_EDGE('',*,*,#513,.T.);
#678=ORIENTED_EDGE('',*,*,#514,.T.);
#679=ORIENTED_EDGE('',*,*,#450,.T.);
#680=ORIENTED_EDGE('',*,*,#461,.T.);
#681=ORIENTED_EDGE('',*,*,#494,.F.);
#682=ORIENTED_EDGE('',*,*,#496,.T.);
#683=ORIENTED_EDGE('',*,*,#497,.T.);
#684=ORIENTED_EDGE('',*,*,#453,.T.);
#685=ORIENTED_EDGE('',*,*,#442,.T.);
#686=ORIENTED_EDGE('',*,*,#511,.F.);
#687=ORIENTED_EDGE('',*,*,#515,.T.);
#688=ORIENTED_EDGE('',*,*,#516,.T.);
#689=ORIENTED_EDGE('',*,*,#451,.T.);
#690=ORIENTED_EDGE('',*,*,#514,.F.);
#691=ORIENTED_EDGE('',*,*,#485,.T.);
#692=ORIENTED_EDGE('',*,*,#517,.F.);
#693=ORIENTED_EDGE('',*,*,#518,.T.);
#694=ORIENTED_EDGE('',*,*,#519,.T.);
#695=ORIENTED_EDGE('',*,*,#520,.F.);
#696=ORIENTED_EDGE('',*,*,#512,.T.);
#697=ORIENTED_EDGE('',*,*,#440,.T.);
#698=ORIENTED_EDGE('',*,*,#452,.F.);
#699=ORIENTED_EDGE('',*,*,#521,.F.);
#700=ORIENTED_EDGE('',*,*,#456,.F.);
#701=ORIENTED_EDGE('',*,*,#446,.T.);
#702=ORIENTED_EDGE('',*,*,#522,.F.);
#703=ORIENTED_EDGE('',*,*,#523,.F.);
#704=ORIENTED_EDGE('',*,*,#462,.F.);
#705=ORIENTED_EDGE('',*,*,#448,.T.);
#706=ORIENTED_EDGE('',*,*,#516,.F.);
#707=ORIENTED_EDGE('',*,*,#524,.F.);
#708=ORIENTED_EDGE('',*,*,#491,.T.);
#709=ORIENTED_EDGE('',*,*,#438,.T.);
#710=ORIENTED_EDGE('',*,*,#458,.F.);
#711=ORIENTED_EDGE('',*,*,#482,.T.);
#712=ORIENTED_EDGE('',*,*,#492,.F.);
#713=ORIENTED_EDGE('',*,*,#524,.T.);
#714=ORIENTED_EDGE('',*,*,#463,.F.);
#715=ORIENTED_EDGE('',*,*,#523,.T.);
#716=ORIENTED_EDGE('',*,*,#515,.F.);
#717=ORIENTED_EDGE('',*,*,#513,.F.);
#718=ORIENTED_EDGE('',*,*,#510,.F.);
#719=ORIENTED_EDGE('',*,*,#520,.T.);
#720=ORIENTED_EDGE('',*,*,#457,.T.);
#721=ORIENTED_EDGE('',*,*,#521,.T.);
#722=ORIENTED_EDGE('',*,*,#525,.F.);
#723=ORIENTED_EDGE('',*,*,#486,.T.);
#724=ORIENTED_EDGE('',*,*,#519,.F.);
#725=ORIENTED_EDGE('',*,*,#526,.F.);
#726=ORIENTED_EDGE('',*,*,#527,.F.);
#727=ORIENTED_EDGE('',*,*,#528,.F.);
#728=ORIENTED_EDGE('',*,*,#529,.F.);
#729=ORIENTED_EDGE('',*,*,#509,.T.);
#730=ORIENTED_EDGE('',*,*,#507,.T.);
#731=ORIENTED_EDGE('',*,*,#487,.F.);
#732=ORIENTED_EDGE('',*,*,#525,.T.);
#733=ORIENTED_EDGE('',*,*,#522,.T.);
#734=ORIENTED_EDGE('',*,*,#445,.T.);
#735=ORIENTED_EDGE('',*,*,#484,.T.);
#736=ORIENTED_EDGE('',*,*,#530,.T.);
#737=ORIENTED_EDGE('',*,*,#531,.F.);
#738=ORIENTED_EDGE('',*,*,#532,.T.);
#739=ORIENTED_EDGE('',*,*,#533,.F.);
#740=ORIENTED_EDGE('',*,*,#517,.T.);
#741=ORIENTED_EDGE('',*,*,#498,.T.);
#742=ORIENTED_EDGE('',*,*,#502,.T.);
#743=ORIENTED_EDGE('',*,*,#483,.T.);
#744=ORIENTED_EDGE('',*,*,#529,.T.);
#745=ORIENTED_EDGE('',*,*,#534,.F.);
#746=ORIENTED_EDGE('',*,*,#530,.F.);
#747=ORIENTED_EDGE('',*,*,#526,.T.);
#748=ORIENTED_EDGE('',*,*,#518,.F.);
#749=ORIENTED_EDGE('',*,*,#533,.T.);
#750=ORIENTED_EDGE('',*,*,#535,.T.);
#751=ORIENTED_EDGE('',*,*,#527,.T.);
#752=ORIENTED_EDGE('',*,*,#535,.F.);
#753=ORIENTED_EDGE('',*,*,#532,.F.);
#754=ORIENTED_EDGE('',*,*,#536,.T.);
#755=ORIENTED_EDGE('',*,*,#528,.T.);
#756=ORIENTED_EDGE('',*,*,#536,.F.);
#757=ORIENTED_EDGE('',*,*,#531,.T.);
#758=ORIENTED_EDGE('',*,*,#534,.T.);
#759=PLANE('',#858);
#760=PLANE('',#860);
#761=PLANE('',#862);
#762=PLANE('',#864);
#763=PLANE('',#869);
#764=PLANE('',#873);
#765=PLANE('',#874);
#766=PLANE('',#875);
#767=PLANE('',#876);
#768=PLANE('',#877);
#769=PLANE('',#878);
#770=PLANE('',#879);
#771=PLANE('',#891);
#772=PLANE('',#895);
#773=PLANE('',#899);
#774=PLANE('',#900);
#775=PLANE('',#901);
#776=PLANE('',#902);
#777=PLANE('',#903);
#778=PLANE('',#904);
#779=PLANE('',#908);
#780=PLANE('',#913);
#781=PLANE('',#919);
#782=PLANE('',#920);
#783=PLANE('',#921);
#784=PLANE('',#922);
#785=PLANE('',#923);
#786=PLANE('',#924);
#787=PLANE('',#925);
#788=PLANE('',#926);
#789=PLANE('',#927);
#790=PLANE('',#930);
#791=PLANE('',#931);
#792=PLANE('',#934);
#793=PLANE('',#936);
#794=ADVANCED_FACE('',(#215),#759,.T.);
#795=ADVANCED_FACE('',(#216),#760,.T.);
#796=ADVANCED_FACE('',(#217),#761,.T.);
#797=ADVANCED_FACE('',(#218),#762,.T.);
#798=ADVANCED_FACE('',(#219),#200,.F.);
#799=ADVANCED_FACE('',(#220,#23),#763,.T.);
#800=ADVANCED_FACE('',(#221),#201,.F.);
#801=ADVANCED_FACE('',(#222),#764,.T.);
#802=ADVANCED_FACE('',(#223),#765,.F.);
#803=ADVANCED_FACE('',(#224),#766,.F.);
#804=ADVANCED_FACE('',(#225),#767,.F.);
#805=ADVANCED_FACE('',(#226,#24),#768,.F.);
#806=ADVANCED_FACE('',(#227),#769,.F.);
#807=ADVANCED_FACE('',(#228),#770,.T.);
#808=ADVANCED_FACE('',(#229),#202,.T.);
#809=ADVANCED_FACE('',(#230),#203,.T.);
#810=ADVANCED_FACE('',(#231),#204,.T.);
#811=ADVANCED_FACE('',(#232),#205,.T.);
#812=ADVANCED_FACE('',(#233),#206,.F.);
#813=ADVANCED_FACE('',(#234),#771,.F.);
#814=ADVANCED_FACE('',(#235),#207,.F.);
#815=ADVANCED_FACE('',(#236),#772,.F.);
#816=ADVANCED_FACE('',(#237),#208,.F.);
#817=ADVANCED_FACE('',(#238),#773,.F.);
#818=ADVANCED_FACE('',(#239,#25,#26,#27),#774,.F.);
#819=ADVANCED_FACE('',(#240),#775,.T.);
#820=ADVANCED_FACE('',(#241),#776,.F.);
#821=ADVANCED_FACE('',(#242,#28,#29,#30,#31),#777,.F.);
#822=ADVANCED_FACE('',(#243),#778,.F.);
#823=ADVANCED_FACE('',(#244),#209,.F.);
#824=ADVANCED_FACE('',(#245,#32),#779,.F.);
#825=ADVANCED_FACE('',(#246),#210,.F.);
#826=ADVANCED_FACE('',(#247,#33),#780,.F.);
#827=ADVANCED_FACE('',(#248),#211,.F.);
#828=ADVANCED_FACE('',(#249),#212,.F.);
#829=ADVANCED_FACE('',(#250),#781,.T.);
#830=ADVANCED_FACE('',(#251),#782,.F.);
#831=ADVANCED_FACE('',(#252),#783,.T.);
#832=ADVANCED_FACE('',(#253),#784,.T.);
#833=ADVANCED_FACE('',(#254),#785,.F.);
#834=ADVANCED_FACE('',(#255),#786,.F.);
#835=ADVANCED_FACE('',(#256),#787,.F.);
#836=ADVANCED_FACE('',(#257),#788,.F.);
#837=ADVANCED_FACE('',(#258,#34,#35),#789,.T.);
#838=ADVANCED_FACE('',(#259),#790,.T.);
#839=ADVANCED_FACE('',(#260,#36,#37),#791,.F.);
#840=ADVANCED_FACE('',(#261),#792,.T.);
#841=ADVANCED_FACE('',(#262),#213,.T.);
#842=ADVANCED_FACE('',(#263),#793,.T.);
#843=ADVANCED_FACE('',(#264),#214,.T.);
#844=CLOSED_SHELL('',(#794,#795,#796,#797,#798,#799,#800,#801,#802,#803,
#804,#805,#806,#807,#808,#809,#810,#811,#812,#813,#814,#815,#816,#817,#818,
#819,#820,#821,#822,#823,#824,#825,#826,#827,#828,#829,#830,#831,#832,#833,
#834,#835,#836,#837,#838,#839,#840,#841,#842,#843));
#845=DERIVED_UNIT_ELEMENT(#847,1.);
#846=DERIVED_UNIT_ELEMENT(#1422,-3.);
#847=(
MASS_UNIT()
NAMED_UNIT(*)
SI_UNIT(.KILO.,.GRAM.)
);
#848=DERIVED_UNIT((#845,#846));
#849=MEASURE_REPRESENTATION_ITEM('density measure',
POSITIVE_RATIO_MEASURE(7850.),#848);
#850=PROPERTY_DEFINITION_REPRESENTATION(#855,#852);
#851=PROPERTY_DEFINITION_REPRESENTATION(#856,#853);
#852=REPRESENTATION('material name',(#854),#1419);
#853=REPRESENTATION('density',(#849),#1419);
#854=DESCRIPTIVE_REPRESENTATION_ITEM('Steel','Steel');
#855=PROPERTY_DEFINITION('material property','material name',#1429);
#856=PROPERTY_DEFINITION('material property','density of part',#1429);
#857=AXIS2_PLACEMENT_3D('',#1181,#938,#939);
#858=AXIS2_PLACEMENT_3D('',#1182,#940,#941);
#859=AXIS2_PLACEMENT_3D('',#1184,#942,#943);
#860=AXIS2_PLACEMENT_3D('',#1185,#944,#945);
#861=AXIS2_PLACEMENT_3D('',#1187,#946,#947);
#862=AXIS2_PLACEMENT_3D('',#1188,#948,#949);
#863=AXIS2_PLACEMENT_3D('',#1190,#950,#951);
#864=AXIS2_PLACEMENT_3D('',#1191,#952,#953);
#865=AXIS2_PLACEMENT_3D('',#1193,#954,#955);
#866=AXIS2_PLACEMENT_3D('',#1194,#956,#957);
#867=AXIS2_PLACEMENT_3D('',#1196,#958,#959);
#868=AXIS2_PLACEMENT_3D('',#1199,#961,#962);
#869=AXIS2_PLACEMENT_3D('',#1200,#963,#964);
#870=AXIS2_PLACEMENT_3D('',#1202,#965,#966);
#871=AXIS2_PLACEMENT_3D('',#1203,#967,#968);
#872=AXIS2_PLACEMENT_3D('',#1206,#970,#971);
#873=AXIS2_PLACEMENT_3D('',#1207,#972,#973);
#874=AXIS2_PLACEMENT_3D('',#1208,#974,#975);
#875=AXIS2_PLACEMENT_3D('',#1217,#980,#981);
#876=AXIS2_PLACEMENT_3D('',#1226,#986,#987);
#877=AXIS2_PLACEMENT_3D('',#1235,#992,#993);
#878=AXIS2_PLACEMENT_3D('',#1244,#998,#999);
#879=AXIS2_PLACEMENT_3D('',#1255,#1006,#1007);
#880=AXIS2_PLACEMENT_3D('',#1266,#1014,#1015);
#881=AXIS2_PLACEMENT_3D('',#1268,#1016,#1017);
#882=AXIS2_PLACEMENT_3D('',#1270,#1019,#1020);
#883=AXIS2_PLACEMENT_3D('',#1272,#1021,#1022);
#884=AXIS2_PLACEMENT_3D('',#1274,#1024,#1025);
#885=AXIS2_PLACEMENT_3D('',#1276,#1026,#1027);
#886=AXIS2_PLACEMENT_3D('',#1278,#1029,#1030);
#887=AXIS2_PLACEMENT_3D('',#1280,#1031,#1032);
#888=AXIS2_PLACEMENT_3D('',#1282,#1034,#1035);
#889=AXIS2_PLACEMENT_3D('',#1284,#1036,#1037);
#890=AXIS2_PLACEMENT_3D('',#1287,#1039,#1040);
#891=AXIS2_PLACEMENT_3D('',#1288,#1041,#1042);
#892=AXIS2_PLACEMENT_3D('',#1289,#1043,#1044);
#893=AXIS2_PLACEMENT_3D('',#1291,#1045,#1046);
#894=AXIS2_PLACEMENT_3D('',#1294,#1048,#1049);
#895=AXIS2_PLACEMENT_3D('',#1295,#1050,#1051);
#896=AXIS2_PLACEMENT_3D('',#1296,#1052,#1053);
#897=AXIS2_PLACEMENT_3D('',#1298,#1054,#1055);
#898=AXIS2_PLACEMENT_3D('',#1301,#1057,#1058);
#899=AXIS2_PLACEMENT_3D('',#1302,#1059,#1060);
#900=AXIS2_PLACEMENT_3D('',#1303,#1061,#1062);
#901=AXIS2_PLACEMENT_3D('',#1322,#1073,#1074);
#902=AXIS2_PLACEMENT_3D('',#1326,#1077,#1078);
#903=AXIS2_PLACEMENT_3D('',#1330,#1081,#1082);
#904=AXIS2_PLACEMENT_3D('',#1334,#1085,#1086);
#905=AXIS2_PLACEMENT_3D('',#1336,#1088,#1089);
#906=AXIS2_PLACEMENT_3D('',#1338,#1090,#1091);
#907=AXIS2_PLACEMENT_3D('',#1341,#1093,#1094);
#908=AXIS2_PLACEMENT_3D('',#1342,#1095,#1096);
#909=AXIS2_PLACEMENT_3D('',#1344,#1097,#1098);
#910=AXIS2_PLACEMENT_3D('',#1345,#1099,#1100);
#911=AXIS2_PLACEMENT_3D('',#1347,#1101,#1102);
#912=AXIS2_PLACEMENT_3D('',#1350,#1104,#1105);
#913=AXIS2_PLACEMENT_3D('',#1351,#1106,#1107);
#914=AXIS2_PLACEMENT_3D('',#1353,#1108,#1109);
#915=AXIS2_PLACEMENT_3D('',#1354,#1110,#1111);
#916=AXIS2_PLACEMENT_3D('',#1357,#1113,#1114);
#917=AXIS2_PLACEMENT_3D('',#1358,#1115,#1116);
#918=AXIS2_PLACEMENT_3D('',#1361,#1118,#1119);
#919=AXIS2_PLACEMENT_3D('',#1362,#1120,#1121);
#920=AXIS2_PLACEMENT_3D('',#1368,#1125,#1126);
#921=AXIS2_PLACEMENT_3D('',#1372,#1129,#1130);
#922=AXIS2_PLACEMENT_3D('',#1376,#1133,#1134);
#923=AXIS2_PLACEMENT_3D('',#1382,#1138,#1139);
#924=AXIS2_PLACEMENT_3D('',#1384,#1141,#1142);
#925=AXIS2_PLACEMENT_3D('',#1388,#1145,#1146);
#926=AXIS2_PLACEMENT_3D('',#1390,#1148,#1149);
#927=AXIS2_PLACEMENT_3D('',#1392,#1151,#1152);
#928=AXIS2_PLACEMENT_3D('',#1395,#1154,#1155);
#929=AXIS2_PLACEMENT_3D('',#1399,#1157,#1158);
#930=AXIS2_PLACEMENT_3D('',#1401,#1160,#1161);
#931=AXIS2_PLACEMENT_3D('',#1402,#1162,#1163);
#932=AXIS2_PLACEMENT_3D('',#1406,#1165,#1166);
#933=AXIS2_PLACEMENT_3D('',#1409,#1168,#1169);
#934=AXIS2_PLACEMENT_3D('',#1410,#1170,#1171);
#935=AXIS2_PLACEMENT_3D('',#1412,#1173,#1174);
#936=AXIS2_PLACEMENT_3D('',#1414,#1176,#1177);
#937=AXIS2_PLACEMENT_3D('',#1416,#1179,#1180);
#938=DIRECTION('axis',(0.,0.,1.));
#939=DIRECTION('refdir',(1.,0.,0.));
#940=DIRECTION('center_axis',(0.,0.,1.));
#941=DIRECTION('ref_axis',(1.,0.,0.));
#942=DIRECTION('center_axis',(0.,0.,1.));
#943=DIRECTION('ref_axis',(1.,0.,0.));
#944=DIRECTION('center_axis',(0.,0.,1.));
#945=DIRECTION('ref_axis',(1.,0.,0.));
#946=DIRECTION('center_axis',(0.,0.,1.));
#947=DIRECTION('ref_axis',(1.,0.,0.));
#948=DIRECTION('center_axis',(0.,0.,1.));
#949=DIRECTION('ref_axis',(1.,0.,0.));
#950=DIRECTION('center_axis',(0.,0.,1.));
#951=DIRECTION('ref_axis',(1.,0.,0.));
#952=DIRECTION('center_axis',(0.,0.,1.));
#953=DIRECTION('ref_axis',(1.,0.,0.));
#954=DIRECTION('center_axis',(0.,0.,1.));
#955=DIRECTION('ref_axis',(1.,0.,0.));
#956=DIRECTION('center_axis',(0.,0.,-1.));
#957=DIRECTION('ref_axis',(-1.,0.,0.));
#958=DIRECTION('center_axis',(0.,0.,-1.));
#959=DIRECTION('ref_axis',(-1.,0.,0.));
#960=DIRECTION('',(0.,0.,-1.));
#961=DIRECTION('center_axis',(0.,0.,-1.));
#962=DIRECTION('ref_axis',(-1.,0.,0.));
#963=DIRECTION('center_axis',(0.,0.,1.));
#964=DIRECTION('ref_axis',(-1.,0.,0.));
#965=DIRECTION('center_axis',(0.,0.,1.));
#966=DIRECTION('ref_axis',(-1.,0.,0.));
#967=DIRECTION('center_axis',(0.,0.,-1.));
#968=DIRECTION('ref_axis',(-1.,0.,0.));
#969=DIRECTION('',(0.,0.,-1.));
#970=DIRECTION('center_axis',(0.,0.,-1.));
#971=DIRECTION('ref_axis',(-1.,0.,0.));
#972=DIRECTION('center_axis',(0.,0.,1.));
#973=DIRECTION('ref_axis',(-1.,0.,0.));
#974=DIRECTION('center_axis',(0.,0.,-1.));
#975=DIRECTION('ref_axis',(-1.,0.,0.));
#976=DIRECTION('',(0.,1.,0.));
#977=DIRECTION('',(-1.,0.,0.));
#978=DIRECTION('',(1.61486985400023E-15,-1.,0.));
#979=DIRECTION('',(1.,0.,0.));
#980=DIRECTION('center_axis',(0.,0.,-1.));
#981=DIRECTION('ref_axis',(-1.,0.,0.));
#982=DIRECTION('',(0.,1.,0.));
#983=DIRECTION('',(-1.,0.,0.));
#984=DIRECTION('',(0.,-1.,0.));
#985=DIRECTION('',(1.,0.,0.));
#986=DIRECTION('center_axis',(0.,0.,-1.));
#987=DIRECTION('ref_axis',(-1.,0.,0.));
#988=DIRECTION('',(0.,1.,0.));
#989=DIRECTION('',(-1.,0.,0.));
#990=DIRECTION('',(1.53134210293125E-15,-1.,0.));
#991=DIRECTION('',(1.,0.,0.));
#992=DIRECTION('center_axis',(0.,0.,-1.));
#993=DIRECTION('ref_axis',(-1.,0.,0.));
#994=DIRECTION('',(0.,1.,0.));
#995=DIRECTION('',(-1.,0.,0.));
#996=DIRECTION('',(0.,-1.,0.));
#997=DIRECTION('',(1.,0.,0.));
#998=DIRECTION('center_axis',(0.,-1.,0.));
#999=DIRECTION('ref_axis',(0.,0.,-1.));
#1000=DIRECTION('',(0.,0.,-1.));
#1001=DIRECTION('',(0.,0.,1.));
#1002=DIRECTION('',(-1.,0.,0.));
#1003=DIRECTION('',(0.,0.,1.));
#1004=DIRECTION('',(0.,0.,1.));
#1005=DIRECTION('',(-1.,0.,0.));
#1006=DIRECTION('center_axis',(0.,-1.,0.));
#1007=DIRECTION('ref_axis',(0.,0.,-1.));
#1008=DIRECTION('',(0.,0.,-1.));
#1009=DIRECTION('',(0.,0.,-1.));
#1010=DIRECTION('',(1.,0.,0.));
#1011=DIRECTION('',(0.,0.,-1.));
#1012=DIRECTION('',(0.,0.,1.));
#1013=DIRECTION('',(-1.,0.,0.));
#1014=DIRECTION('center_axis',(0.,0.,-1.));
#1015=DIRECTION('ref_axis',(1.,0.,0.));
#1016=DIRECTION('center_axis',(0.,-0.0523359562429437,-0.998629534754574));
#1017=DIRECTION('ref_axis',(0.,-0.998629534754574,0.0523359562429437));
#1018=DIRECTION('',(0.,0.,1.));
#1019=DIRECTION('center_axis',(0.,0.,-1.));
#1020=DIRECTION('ref_axis',(1.,0.,0.));
#1021=DIRECTION('center_axis',(0.,-0.0523359562429437,-0.998629534754574));
#1022=DIRECTION('ref_axis',(0.,-0.998629534754574,0.0523359562429437));
#1023=DIRECTION('',(0.,0.,1.));
#1024=DIRECTION('center_axis',(0.,0.,-1.));
#1025=DIRECTION('ref_axis',(1.,0.,0.));
#1026=DIRECTION('center_axis',(0.,-0.0523359562429437,-0.998629534754574));
#1027=DIRECTION('ref_axis',(0.,-0.998629534754574,0.0523359562429437));
#1028=DIRECTION('',(0.,0.,1.));
#1029=DIRECTION('center_axis',(0.,0.,-1.));
#1030=DIRECTION('ref_axis',(1.,0.,0.));
#1031=DIRECTION('center_axis',(0.,-0.0523359562429437,-0.998629534754574));
#1032=DIRECTION('ref_axis',(0.,-0.998629534754574,0.0523359562429437));
#1033=DIRECTION('',(0.,0.,1.));
#1034=DIRECTION('center_axis',(1.,0.,0.));
#1035=DIRECTION('ref_axis',(0.,1.,0.));
#1036=DIRECTION('center_axis',(1.,0.,0.));
#1037=DIRECTION('ref_axis',(0.,1.,0.));
#1038=DIRECTION('',(1.,0.,0.));
#1039=DIRECTION('center_axis',(1.,0.,0.));
#1040=DIRECTION('ref_axis',(0.,1.,0.));
#1041=DIRECTION('center_axis',(1.,0.,0.));
#1042=DIRECTION('ref_axis',(0.,1.,0.));
#1043=DIRECTION('center_axis',(1.,0.,0.));
#1044=DIRECTION('ref_axis',(0.,1.,0.));
#1045=DIRECTION('center_axis',(1.,0.,0.));
#1046=DIRECTION('ref_axis',(0.,1.,0.));
#1047=DIRECTION('',(1.,0.,0.));
#1048=DIRECTION('center_axis',(1.,0.,0.));
#1049=DIRECTION('ref_axis',(0.,1.,0.));
#1050=DIRECTION('center_axis',(1.,0.,0.));
#1051=DIRECTION('ref_axis',(0.,1.,0.));
#1052=DIRECTION('center_axis',(1.,0.,0.));
#1053=DIRECTION('ref_axis',(0.,1.,0.));
#1054=DIRECTION('center_axis',(1.,0.,0.));
#1055=DIRECTION('ref_axis',(0.,1.,0.));
#1056=DIRECTION('',(1.,0.,0.));
#1057=DIRECTION('center_axis',(1.,0.,0.));
#1058=DIRECTION('ref_axis',(0.,1.,0.));
#1059=DIRECTION('center_axis',(1.,0.,0.));
#1060=DIRECTION('ref_axis',(0.,1.,0.));
#1061=DIRECTION('center_axis',(1.,0.,0.));
#1062=DIRECTION('ref_axis',(0.,0.,-1.));
#1063=DIRECTION('',(0.,0.,-1.));
#1064=DIRECTION('',(0.,-1.,0.));
#1065=DIRECTION('',(0.,0.,1.));
#1066=DIRECTION('',(0.,0.998629534754574,-0.0523359562429438));
#1067=DIRECTION('',(0.,0.,-1.));
#1068=DIRECTION('',(0.,-1.,0.));
#1069=DIRECTION('',(0.,0.,-1.));
#1070=DIRECTION('',(0.,-1.,0.));
#1071=DIRECTION('',(0.,-0.998629534754574,0.0523359562429437));
#1072=DIRECTION('',(0.,-1.,0.));
#1073=DIRECTION('center_axis',(0.,-1.,0.));
#1074=DIRECTION('ref_axis',(1.,0.,0.));
#1075=DIRECTION('',(0.,0.,-1.));
#1076=DIRECTION('',(-1.,0.,0.));
#1077=DIRECTION('center_axis',(0.,0.,-1.));
#1078=DIRECTION('ref_axis',(0.,1.,0.));
#1079=DIRECTION('',(1.,0.,0.));
#1080=DIRECTION('',(0.,1.,0.));
#1081=DIRECTION('center_axis',(0.,-0.0523359562429437,-0.998629534754574));
#1082=DIRECTION('ref_axis',(-1.,0.,0.));
#1083=DIRECTION('',(1.,0.,0.));
#1084=DIRECTION('',(0.,-0.998629534754574,0.0523359562429438));
#1085=DIRECTION('center_axis',(0.,0.,-1.));
#1086=DIRECTION('ref_axis',(-1.,0.,0.));
#1087=DIRECTION('',(0.,-1.,0.));
#1088=DIRECTION('center_axis',(0.,0.,1.));
#1089=DIRECTION('ref_axis',(-1.,0.,0.));
#1090=DIRECTION('center_axis',(0.,0.0523359562429438,0.998629534754574));
#1091=DIRECTION('ref_axis',(0.,-0.998629534754574,0.0523359562429438));
#1092=DIRECTION('',(0.,0.,1.));
#1093=DIRECTION('center_axis',(0.,0.,1.));
#1094=DIRECTION('ref_axis',(-1.,0.,0.));
#1095=DIRECTION('center_axis',(0.,0.,1.));
#1096=DIRECTION('ref_axis',(-1.,0.,0.));
#1097=DIRECTION('center_axis',(0.,0.,-1.));
#1098=DIRECTION('ref_axis',(-1.,0.,0.));
#1099=DIRECTION('center_axis',(0.,0.,1.));
#1100=DIRECTION('ref_axis',(-1.,0.,0.));
#1101=DIRECTION('center_axis',(0.,0.0523359562429438,0.998629534754574));
#1102=DIRECTION('ref_axis',(0.,-0.998629534754574,0.0523359562429438));
#1103=DIRECTION('',(0.,0.,1.));
#1104=DIRECTION('center_axis',(0.,0.,1.));
#1105=DIRECTION('ref_axis',(-1.,0.,0.));
#1106=DIRECTION('center_axis',(0.,0.,1.));
#1107=DIRECTION('ref_axis',(-1.,0.,0.));
#1108=DIRECTION('center_axis',(0.,0.,-1.));
#1109=DIRECTION('ref_axis',(-1.,0.,0.));
#1110=DIRECTION('center_axis',(0.,0.,1.));
#1111=DIRECTION('ref_axis',(-1.,0.,0.));
#1112=DIRECTION('',(0.,0.,1.));
#1113=DIRECTION('center_axis',(0.,0.,-1.));
#1114=DIRECTION('ref_axis',(-1.,0.,0.));
#1115=DIRECTION('center_axis',(0.,0.,1.));
#1116=DIRECTION('ref_axis',(-1.,0.,0.));
#1117=DIRECTION('',(0.,0.,1.));
#1118=DIRECTION('center_axis',(0.,0.,-1.));
#1119=DIRECTION('ref_axis',(-1.,0.,0.));
#1120=DIRECTION('center_axis',(0.,1.,0.));
#1121=DIRECTION('ref_axis',(-1.,0.,0.));
#1122=DIRECTION('',(1.,0.,0.));
#1123=DIRECTION('',(0.,0.,-1.));
#1124=DIRECTION('',(0.,0.,-1.));
#1125=DIRECTION('center_axis',(1.,0.,0.));
#1126=DIRECTION('ref_axis',(0.,0.,-1.));
#1127=DIRECTION('',(0.,1.,0.));
#1128=DIRECTION('',(0.,0.,-1.));
#1129=DIRECTION('center_axis',(0.,-1.,0.));
#1130=DIRECTION('ref_axis',(1.,0.,0.));
#1131=DIRECTION('',(-1.,0.,0.));
#1132=DIRECTION('',(0.,0.,-1.));
#1133=DIRECTION('center_axis',(0.,-1.,0.));
#1134=DIRECTION('ref_axis',(1.,0.,0.));
#1135=DIRECTION('',(1.,0.,0.));
#1136=DIRECTION('',(0.,0.,1.));
#1137=DIRECTION('',(-1.,0.,0.));
#1138=DIRECTION('center_axis',(-1.,0.,0.));
#1139=DIRECTION('ref_axis',(0.,1.,0.));
#1140=DIRECTION('',(0.,1.,0.));
#1141=DIRECTION('center_axis',(1.,1.53134210293125E-15,0.));
#1142=DIRECTION('ref_axis',(1.53134210293125E-15,-1.,0.));
#1143=DIRECTION('',(1.53134210293125E-15,-1.,0.));
#1144=DIRECTION('',(0.,0.,-1.));
#1145=DIRECTION('center_axis',(-1.,0.,0.));
#1146=DIRECTION('ref_axis',(0.,1.,0.));
#1147=DIRECTION('',(0.,1.,0.));
#1148=DIRECTION('center_axis',(1.,1.61486985400023E-15,0.));
#1149=DIRECTION('ref_axis',(1.61486985400023E-15,-1.,0.));
#1150=DIRECTION('',(1.61486985400023E-15,-1.,0.));
#1151=DIRECTION('center_axis',(0.,0.,1.));
#1152=DIRECTION('ref_axis',(1.,0.,0.));
#1153=DIRECTION('',(1.,0.,0.));
#1154=DIRECTION('center_axis',(0.,0.,-1.));
#1155=DIRECTION('ref_axis',(0.,-1.,0.));
#1156=DIRECTION('',(0.,-1.,0.));
#1157=DIRECTION('center_axis',(0.,0.,-1.));
#1158=DIRECTION('ref_axis',(1.,0.,0.));
#1159=DIRECTION('',(1.,0.,0.));
#1160=DIRECTION('center_axis',(0.,1.,0.));
#1161=DIRECTION('ref_axis',(-1.,0.,0.));
#1162=DIRECTION('center_axis',(0.,0.0523359562429438,0.998629534754574));
#1163=DIRECTION('ref_axis',(1.,0.,0.));
#1164=DIRECTION('',(1.,0.,0.));
#1165=DIRECTION('center_axis',(0.,0.0523359562429438,0.998629534754574));
#1166=DIRECTION('ref_axis',(0.,0.998629534754574,-0.0523359562429438));
#1167=DIRECTION('',(0.,0.998629534754574,-0.0523359562429438));
#1168=DIRECTION('center_axis',(0.,0.0523359562429438,0.998629534754574));
#1169=DIRECTION('ref_axis',(0.,-0.998629534754574,0.0523359562429438));
#1170=DIRECTION('center_axis',(0.,1.,0.));
#1171=DIRECTION('ref_axis',(-1.,0.,0.));
#1172=DIRECTION('',(0.,0.,1.));
#1173=DIRECTION('center_axis',(0.,0.,1.));
#1174=DIRECTION('ref_axis',(0.,-1.,0.));
#1175=DIRECTION('',(0.,0.,1.));
#1176=DIRECTION('center_axis',(1.,0.,0.));
#1177=DIRECTION('ref_axis',(0.,1.,0.));
#1178=DIRECTION('',(0.,0.,1.));
#1179=DIRECTION('center_axis',(0.,0.,1.));
#1180=DIRECTION('ref_axis',(1.,0.,0.));
#1181=CARTESIAN_POINT('',(0.,0.,0.));
#1182=CARTESIAN_POINT('Origin',(40.3876140295587,-38.2425057863119,12.25));
#1183=CARTESIAN_POINT('',(37.8876140295587,-38.2425057863119,12.25));
#1184=CARTESIAN_POINT('Origin',(40.3876140295587,-38.2425057863119,12.25));
#1185=CARTESIAN_POINT('Origin',(95.1454768441947,42.1173748701686,12.25));
#1186=CARTESIAN_POINT('',(92.6454768441947,42.1173748701686,12.25));
#1187=CARTESIAN_POINT('Origin',(95.1454768441947,42.1173748701686,12.25));
#1188=CARTESIAN_POINT('Origin',(40.227468647136,18.7438462977055,12.25));
#1189=CARTESIAN_POINT('',(37.727468647136,18.7438462977055,12.25));
#1190=CARTESIAN_POINT('Origin',(40.227468647136,18.7438462977055,12.25));
#1191=CARTESIAN_POINT('Origin',(79.8671918117714,-0.293892110945959,12.25));
#1192=CARTESIAN_POINT('',(77.3671918117714,-0.29389211094596,12.25));
#1193=CARTESIAN_POINT('Origin',(79.8671918117714,-0.293892110945959,12.25));
#1194=CARTESIAN_POINT('Origin',(139.5,68.75,16.));
#1195=CARTESIAN_POINT('',(141.7,68.75,16.));
#1196=CARTESIAN_POINT('Origin',(139.5,68.75,16.));
#1197=CARTESIAN_POINT('',(141.7,68.75,12.2));
#1198=CARTESIAN_POINT('',(141.7,68.75,16.));
#1199=CARTESIAN_POINT('Origin',(139.5,68.75,12.2));
#1200=CARTESIAN_POINT('Origin',(139.5,68.75,12.2));
#1201=CARTESIAN_POINT('',(140.85,68.75,12.2));
#1202=CARTESIAN_POINT('Origin',(139.5,68.75,12.2));
#1203=CARTESIAN_POINT('Origin',(139.5,68.75,16.));
#1204=CARTESIAN_POINT('',(140.85,68.75,3.99999999999999));
#1205=CARTESIAN_POINT('',(140.85,68.75,16.));
#1206=CARTESIAN_POINT('Origin',(139.5,68.75,3.99999999999999));
#1207=CARTESIAN_POINT('Origin',(139.5,68.75,3.99999999999999));
#1208=CARTESIAN_POINT('Origin',(0.,68.75,16.));
#1209=CARTESIAN_POINT('',(0.,66.,16.));
#1210=CARTESIAN_POINT('',(0.,71.5,16.));
#1211=CARTESIAN_POINT('',(0.,34.875,16.));
#1212=CARTESIAN_POINT('',(52.5,66.,16.));
#1213=CARTESIAN_POINT('',(-79.,66.,16.));
#1214=CARTESIAN_POINT('',(52.5,71.5,16.));
#1215=CARTESIAN_POINT('',(52.5,71.5,16.));
#1216=CARTESIAN_POINT('',(-52.5,71.5,16.));
#1217=CARTESIAN_POINT('Origin',(138.8,-66.9,16.));
#1218=CARTESIAN_POINT('',(119.6,-69.8,16.));
#1219=CARTESIAN_POINT('',(119.6,-64.,16.));
#1220=CARTESIAN_POINT('',(119.6,-64.,16.));
#1221=CARTESIAN_POINT('',(158.,-69.8,16.));
#1222=CARTESIAN_POINT('',(119.6,-69.8,16.));
#1223=CARTESIAN_POINT('',(158.,-64.,16.));
#1224=CARTESIAN_POINT('',(158.,-69.8,16.));
#1225=CARTESIAN_POINT('',(-9.6,-64.,16.));
#1226=CARTESIAN_POINT('Origin',(0.100000000000016,-66.9,16.));
#1227=CARTESIAN_POINT('',(0.,-69.8,16.));
#1228=CARTESIAN_POINT('',(0.,-64.,16.));
#1229=CARTESIAN_POINT('',(0.,-32.95,16.));
#1230=CARTESIAN_POINT('',(52.6,-69.8,16.));
#1231=CARTESIAN_POINT('',(-52.4,-69.8,16.));
#1232=CARTESIAN_POINT('',(52.6,-64.,16.));
#1233=CARTESIAN_POINT('',(52.6,-69.8,16.));
#1234=CARTESIAN_POINT('',(-78.95,-64.,16.));
#1235=CARTESIAN_POINT('Origin',(138.75,68.75,16.));
#1236=CARTESIAN_POINT('',(119.5,66.,16.));
#1237=CARTESIAN_POINT('',(119.5,71.5,16.));
#1238=CARTESIAN_POINT('',(119.5,71.5,16.));
#1239=CARTESIAN_POINT('',(158.,66.,16.));
#1240=CARTESIAN_POINT('',(-9.625,66.,16.));
#1241=CARTESIAN_POINT('',(158.,71.5,16.));
#1242=CARTESIAN_POINT('',(158.,71.5,16.));
#1243=CARTESIAN_POINT('',(158.,71.5,16.));
#1244=CARTESIAN_POINT('Origin',(-158.,-64.,11.9770963746341));
#1245=CARTESIAN_POINT('',(119.6,-64.,20.));
#1246=CARTESIAN_POINT('',(119.6,-64.,15.988548187317));
#1247=CARTESIAN_POINT('',(158.,-64.,9.97709637463409));
#1248=CARTESIAN_POINT('',(158.,-64.,5.98854818731704));
#1249=CARTESIAN_POINT('',(0.,-64.,9.97709637463408));
#1250=CARTESIAN_POINT('',(-79.,-64.,9.97709637463408));
#1251=CARTESIAN_POINT('',(0.,-64.,10.988548187317));
#1252=CARTESIAN_POINT('',(52.6,-64.,20.));
#1253=CARTESIAN_POINT('',(52.6,-64.,15.988548187317));
#1254=CARTESIAN_POINT('',(-79.,-64.,20.));
#1255=CARTESIAN_POINT('Origin',(-158.,66.,18.));
#1256=CARTESIAN_POINT('',(52.5,66.,20.));
#1257=CARTESIAN_POINT('',(52.5,66.,19.));
#1258=CARTESIAN_POINT('',(0.,66.0000009834766,3.69090379115999));
#1259=CARTESIAN_POINT('',(0.,66.,14.));
#1260=CARTESIAN_POINT('',(158.,66.0000009834766,3.69090379115999));
#1261=CARTESIAN_POINT('',(-158.,66.0000009834766,3.69090379115999));
#1262=CARTESIAN_POINT('',(158.,66.,9.));
#1263=CARTESIAN_POINT('',(119.5,66.,20.));
#1264=CARTESIAN_POINT('',(119.5,66.,19.));
#1265=CARTESIAN_POINT('',(-79.,66.,20.));
#1266=CARTESIAN_POINT('Origin',(40.3876140295587,-38.2425057863119,11.75));
#1267=CARTESIAN_POINT('',(37.8876140295587,-38.2425057863119,8.9389052867013));
#1268=CARTESIAN_POINT('Origin',(40.3876140295587,-38.2425057863119,8.9389052867013));
#1269=CARTESIAN_POINT('',(37.8876140295587,-38.2425057863119,11.75));
#1270=CARTESIAN_POINT('Origin',(95.1454768441947,42.1173748701686,11.75));
#1271=CARTESIAN_POINT('',(92.6454768441947,42.1173748701686,4.72742239804495));
#1272=CARTESIAN_POINT('Origin',(95.1454768441947,42.1173748701686,4.72742239804495));
#1273=CARTESIAN_POINT('',(92.6454768441947,42.1173748701686,11.75));
#1274=CARTESIAN_POINT('Origin',(40.227468647136,18.7438462977055,11.75));
#1275=CARTESIAN_POINT('',(37.727468647136,18.7438462977055,5.95237712453645));
#1276=CARTESIAN_POINT('Origin',(40.227468647136,18.7438462977055,5.95237712453645));
#1277=CARTESIAN_POINT('',(37.727468647136,18.7438462977055,11.75));
#1278=CARTESIAN_POINT('Origin',(79.8671918117714,-0.293892110945959,11.75));
#1279=CARTESIAN_POINT('',(77.3671918117714,-0.293892110945959,6.95010271710533));
#1280=CARTESIAN_POINT('Origin',(79.8671918117714,-0.293892110945959,6.95010271710533));
#1281=CARTESIAN_POINT('',(77.3671918117714,-0.293892110945959,11.75));
#1282=CARTESIAN_POINT('Origin',(0.,-69.0000010281801,12.));
#1283=CARTESIAN_POINT('',(0.,-71.5750010281801,12.));
#1284=CARTESIAN_POINT('Origin',(0.,-69.0000010281801,12.));
#1285=CARTESIAN_POINT('',(5.,-71.5750010281801,12.));
#1286=CARTESIAN_POINT('',(0.,-71.5750010281801,12.));
#1287=CARTESIAN_POINT('Origin',(5.,-69.0000010281801,12.));
#1288=CARTESIAN_POINT('Origin',(5.,-69.0000010281801,12.));
#1289=CARTESIAN_POINT('Origin',(0.,70.5000003694754,12.));
#1290=CARTESIAN_POINT('',(0.,67.9250003694754,12.));
#1291=CARTESIAN_POINT('Origin',(0.,70.5000003694754,12.));
#1292=CARTESIAN_POINT('',(5.,67.9250003694754,12.));
#1293=CARTESIAN_POINT('',(0.,67.9250003694754,12.));
#1294=CARTESIAN_POINT('Origin',(5.,70.5000003694754,12.));
#1295=CARTESIAN_POINT('Origin',(5.,70.5000003694754,12.));
#1296=CARTESIAN_POINT('Origin',(0.,70.500000960636,4.00000000000002));
#1297=CARTESIAN_POINT('',(0.,67.9250009606359,4.00000000000002));
#1298=CARTESIAN_POINT('Origin',(0.,70.500000960636,4.00000000000002));
#1299=CARTESIAN_POINT('',(5.,67.9250009606359,4.00000000000002));
#1300=CARTESIAN_POINT('',(0.,67.9250009606359,4.00000000000002));
#1301=CARTESIAN_POINT('Origin',(5.,70.500000960636,4.00000000000002));
#1302=CARTESIAN_POINT('Origin',(5.,70.500000960636,4.00000000000002));
#1303=CARTESIAN_POINT('Origin',(0.,0.999999999999996,10.));
#1304=CARTESIAN_POINT('',(0.,71.5,20.));
#1305=CARTESIAN_POINT('',(0.,71.5,15.));
#1306=CARTESIAN_POINT('',(0.,75.,20.));
#1307=CARTESIAN_POINT('',(0.,0.999999999999996,20.));
#1308=CARTESIAN_POINT('',(0.,75.,0.));
#1309=CARTESIAN_POINT('',(0.,75.,5.));
#1310=CARTESIAN_POINT('',(0.,-73.,7.7563513338901));
#1311=CARTESIAN_POINT('',(0.,0.890730991598575,3.88390221301983));
#1312=CARTESIAN_POINT('',(0.,-73.,20.));
#1313=CARTESIAN_POINT('',(0.,-73.,5.));
#1314=CARTESIAN_POINT('',(0.,-69.8,20.));
#1315=CARTESIAN_POINT('',(0.,0.999999999999996,20.));
#1316=CARTESIAN_POINT('',(0.,-69.8,13.5));
#1317=CARTESIAN_POINT('',(0.,-58.0523718431386,9.97709637463409));
#1318=CARTESIAN_POINT('',(0.,-28.5,9.97709637463409));
#1319=CARTESIAN_POINT('',(0.,61.8953280875141,3.69090379115999));
#1320=CARTESIAN_POINT('',(0.,1.0477388603274,6.87979081728355));
#1321=CARTESIAN_POINT('',(0.,31.4476640437571,3.69090379115999));
#1322=CARTESIAN_POINT('Origin',(-158.,71.5,20.));
#1323=CARTESIAN_POINT('',(52.5,71.5,20.));
#1324=CARTESIAN_POINT('',(52.5,71.5,20.));
#1325=CARTESIAN_POINT('',(-78.9999999999999,71.5,20.));
#1326=CARTESIAN_POINT('Origin',(-158.,61.8953280875141,3.69090379115999));
#1327=CARTESIAN_POINT('',(158.,61.8953280875141,3.69090379115999));
#1328=CARTESIAN_POINT('',(-79.,61.8953280875141,3.69090379115999));
#1329=CARTESIAN_POINT('',(158.,66.0000009834766,3.69090379115999));
#1330=CARTESIAN_POINT('Origin',(0.,1.25842229689036,6.86874936624156));
#1331=CARTESIAN_POINT('',(158.,-58.0523718431386,9.97709637463409));
#1332=CARTESIAN_POINT('',(-79.,-58.0523718431386,9.97709637463409));
#1333=CARTESIAN_POINT('',(158.,-33.0964426766062,8.66921154707125));
#1334=CARTESIAN_POINT('Origin',(-158.,-58.,9.97709637463409));
#1335=CARTESIAN_POINT('',(158.,-58.,9.97709637463409));
#1336=CARTESIAN_POINT('Origin',(86.,-67.602784893407,0.));
#1337=CARTESIAN_POINT('',(89.35,-67.602784893407,7.47349527584067));
#1338=CARTESIAN_POINT('Origin',(86.,-67.602784893407,7.47349527584067));
#1339=CARTESIAN_POINT('',(89.35,-67.602784893407,13.));
#1340=CARTESIAN_POINT('',(89.35,-67.602784893407,0.));
#1341=CARTESIAN_POINT('Origin',(86.,-67.602784893407,13.));
#1342=CARTESIAN_POINT('Origin',(86.,-67.602784893407,13.));
#1343=CARTESIAN_POINT('',(87.75,-67.602784893407,13.));
#1344=CARTESIAN_POINT('Origin',(86.,-67.602784893407,13.));
#1345=CARTESIAN_POINT('Origin',(86.,69.3972151065931,0.));
#1346=CARTESIAN_POINT('',(89.35,69.3972151065931,0.293629514064028));
#1347=CARTESIAN_POINT('Origin',(86.,69.3972151065931,0.293629514064028));
#1348=CARTESIAN_POINT('',(89.35,69.3972151065931,3.3));
#1349=CARTESIAN_POINT('',(89.35,69.3972151065931,0.));
#1350=CARTESIAN_POINT('Origin',(86.,69.3972151065931,3.3));
#1351=CARTESIAN_POINT('Origin',(86.,69.3972151065931,3.3));
#1352=CARTESIAN_POINT('',(87.75,69.3972151065931,3.3));
#1353=CARTESIAN_POINT('Origin',(86.,69.3972151065931,3.3));
#1354=CARTESIAN_POINT('Origin',(86.,69.3972151065931,0.));
#1355=CARTESIAN_POINT('',(87.75,69.3972151065931,20.));
#1356=CARTESIAN_POINT('',(87.75,69.3972151065931,0.));
#1357=CARTESIAN_POINT('Origin',(86.,69.3972151065931,20.));
#1358=CARTESIAN_POINT('Origin',(86.,-67.602784893407,0.));
#1359=CARTESIAN_POINT('',(87.75,-67.602784893407,20.));
#1360=CARTESIAN_POINT('',(87.75,-67.602784893407,0.));
#1361=CARTESIAN_POINT('Origin',(86.,-67.602784893407,20.));
#1362=CARTESIAN_POINT('Origin',(158.,-69.8,20.));
#1363=CARTESIAN_POINT('',(119.6,-69.8,20.));
#1364=CARTESIAN_POINT('',(158.,-69.8,20.));
#1365=CARTESIAN_POINT('',(79.,-69.8,20.));
#1366=CARTESIAN_POINT('',(158.,-69.8,20.));
#1367=CARTESIAN_POINT('',(119.6,-69.8,20.));
#1368=CARTESIAN_POINT('Origin',(158.,-68.,0.));
#1369=CARTESIAN_POINT('',(158.,71.5,20.));
#1370=CARTESIAN_POINT('',(158.,-33.5,20.));
#1371=CARTESIAN_POINT('',(158.,71.5,20.));
#1372=CARTESIAN_POINT('Origin',(-158.,71.5,20.));
#1373=CARTESIAN_POINT('',(119.5,71.5,20.));
#1374=CARTESIAN_POINT('',(-78.9999999999999,71.5,20.));
#1375=CARTESIAN_POINT('',(119.5,71.5,20.));
#1376=CARTESIAN_POINT('Origin',(-160.,-73.,0.));
#1377=CARTESIAN_POINT('',(160.,-73.,7.7563513338901));
#1378=CARTESIAN_POINT('',(-80.,-73.,7.7563513338901));
#1379=CARTESIAN_POINT('',(160.,-73.,20.));
#1380=CARTESIAN_POINT('',(160.,-73.,18.));
#1381=CARTESIAN_POINT('',(-80.,-73.,20.));
#1382=CARTESIAN_POINT('Origin',(119.6,-69.8,20.));
#1383=CARTESIAN_POINT('',(119.6,-34.4,20.));
#1384=CARTESIAN_POINT('Origin',(52.6,-64.,20.));
#1385=CARTESIAN_POINT('',(52.6,-69.8,20.));
#1386=CARTESIAN_POINT('',(52.6,-31.5,20.));
#1387=CARTESIAN_POINT('',(52.6,-69.8,20.));
#1388=CARTESIAN_POINT('Origin',(119.5,66.,20.));
#1389=CARTESIAN_POINT('',(119.5,33.5,20.));
#1390=CARTESIAN_POINT('Origin',(52.5,71.5,20.));
#1391=CARTESIAN_POINT('',(52.5000000000001,36.25,20.));
#1392=CARTESIAN_POINT('Origin',(0.,0.999999999999996,20.));
#1393=CARTESIAN_POINT('',(79.,-69.8,20.));
#1394=CARTESIAN_POINT('',(165.,-68.,20.));
#1395=CARTESIAN_POINT('Origin',(160.,-68.,20.));
#1396=CARTESIAN_POINT('',(165.,70.,20.));
#1397=CARTESIAN_POINT('',(165.,-33.5,20.));
#1398=CARTESIAN_POINT('',(160.,75.,20.));
#1399=CARTESIAN_POINT('Origin',(160.,70.,20.));
#1400=CARTESIAN_POINT('',(80.,75.,20.));
#1401=CARTESIAN_POINT('Origin',(158.,-69.8,20.));
#1402=CARTESIAN_POINT('Origin',(0.,1.10141442816153,3.87286076197784));
#1403=CARTESIAN_POINT('',(160.,75.,0.));
#1404=CARTESIAN_POINT('',(-160.,75.,0.));
#1405=CARTESIAN_POINT('',(165.,70.,0.262038896415206));
#1406=CARTESIAN_POINT('Origin',(160.,70.,0.262038896415206));
#1407=CARTESIAN_POINT('',(165.,-68.,7.49431243747489));
#1408=CARTESIAN_POINT('',(165.,-33.253450545335,5.67332294280753));
#1409=CARTESIAN_POINT('Origin',(160.,-68.,7.49431243747489));
#1410=CARTESIAN_POINT('Origin',(160.,75.,0.));
#1411=CARTESIAN_POINT('',(160.,75.,0.));
#1412=CARTESIAN_POINT('Origin',(160.,-68.,0.));
#1413=CARTESIAN_POINT('',(165.,-68.,0.));
#1414=CARTESIAN_POINT('Origin',(165.,-68.,0.));
#1415=CARTESIAN_POINT('',(165.,70.,0.));
#1416=CARTESIAN_POINT('Origin',(160.,70.,0.));
#1417=UNCERTAINTY_MEASURE_WITH_UNIT(LENGTH_MEASURE(0.01),#1421,
'DISTANCE_ACCURACY_VALUE',
'Maximum model space distance between geometric entities at asserted c
onnectivities');
#1418=UNCERTAINTY_MEASURE_WITH_UNIT(LENGTH_MEASURE(0.01),#1421,
'DISTANCE_ACCURACY_VALUE',
'Maximum model space distance between geometric entities at asserted c
onnectivities');
#1419=(
GEOMETRIC_REPRESENTATION_CONTEXT(3)
GLOBAL_UNCERTAINTY_ASSIGNED_CONTEXT((#1417))
GLOBAL_UNIT_ASSIGNED_CONTEXT((#1421,#1423,#1424))
REPRESENTATION_CONTEXT('','3D')
);
#1420=(
GEOMETRIC_REPRESENTATION_CONTEXT(3)
GLOBAL_UNCERTAINTY_ASSIGNED_CONTEXT((#1418))
GLOBAL_UNIT_ASSIGNED_CONTEXT((#1421,#1423,#1424))
REPRESENTATION_CONTEXT('','3D')
);
#1421=(
LENGTH_UNIT()
NAMED_UNIT(*)
SI_UNIT(.MILLI.,.METRE.)
);
#1422=(
LENGTH_UNIT()
NAMED_UNIT(*)
SI_UNIT($,.METRE.)
);
#1423=(
NAMED_UNIT(*)
PLANE_ANGLE_UNIT()
SI_UNIT($,.RADIAN.)
);
#1424=(
NAMED_UNIT(*)
SI_UNIT($,.STERADIAN.)
SOLID_ANGLE_UNIT()
);
#1425=SHAPE_DEFINITION_REPRESENTATION(#1426,#1427);
#1426=PRODUCT_DEFINITION_SHAPE('',$,#1429);
#1427=SHAPE_REPRESENTATION('',(#857),#1419);
#1428=PRODUCT_DEFINITION_CONTEXT('part definition',#1433,'design');
#1429=PRODUCT_DEFINITION('2026-05-12-09-43-54-783','Case',#1430,#1428);
#1430=PRODUCT_DEFINITION_FORMATION('',$,#1435);
#1431=PRODUCT_RELATED_PRODUCT_CATEGORY('Case','Case',(#1435));
#1432=APPLICATION_PROTOCOL_DEFINITION('international standard',
'automotive_design',2009,#1433);
#1433=APPLICATION_CONTEXT(
'Core Data for Automotive Mechanical Design Process');
#1434=PRODUCT_CONTEXT('part definition',#1433,'mechanical');
#1435=PRODUCT('2026-05-12-09-43-54-783','Case',$,(#1434));
#1436=PRESENTATION_STYLE_ASSIGNMENT((#1437));
#1437=SURFACE_STYLE_USAGE(.BOTH.,#1438);
#1438=SURFACE_SIDE_STYLE('',(#1439));
#1439=SURFACE_STYLE_FILL_AREA(#1440);
#1440=FILL_AREA_STYLE('Steel - Satin',(#1441));
#1441=FILL_AREA_STYLE_COLOUR('Steel - Satin',#1442);
#1442=COLOUR_RGB('Steel - Satin',0.627450980392157,0.627450980392157,0.627450980392157);
ENDSEC;
END-ISO-10303-21;
