ISO-10303-21;
HEADER;
/* Generated by software containing ST-Developer
 * from STEP Tools, Inc. (www.steptools.com) 
 */

FILE_DESCRIPTION(
/* description */ (''),
/* implementation_level */ '2;1');

FILE_NAME(
/* name */ 'TopL.step',
/* time_stamp */ '2026-08-06T18:09:32-07:00',
/* author */ (''),
/* organization */ (''),
/* preprocessor_version */ 'ST-DEVELOPER v20.1',
/* originating_system */ 'Autodesk Translation Framework v15.8.0.0',
/* authorisation */ '');

FILE_SCHEMA (('AUTOMOTIVE_DESIGN { 1 0 10303 214 3 1 1 }'));
ENDSEC;

DATA;
#10=MECHANICAL_DESIGN_GEOMETRIC_PRESENTATION_REPRESENTATION('',(#13),#1585);
#11=SHAPE_REPRESENTATION_RELATIONSHIP('SRR','None',#1592,#12);
#12=ADVANCED_BREP_SHAPE_REPRESENTATION('',(#14),#1584);
#13=STYLED_ITEM('',(#1601),#14);
#14=MANIFOLD_SOLID_BREP('top left',#969);
#15=CONICAL_SURFACE('',#1026,4.5,0.785398163397451);
#16=CONICAL_SURFACE('',#1029,4.50000000000002,0.785398163397451);
#17=CONICAL_SURFACE('',#1034,3.85355339059329,1.17809724509618);
#18=CONICAL_SURFACE('',#1036,3.85355339059328,1.17809724509617);
#19=FACE_BOUND('',#131,.T.);
#20=FACE_BOUND('',#134,.T.);
#21=FACE_BOUND('',#168,.T.);
#22=FACE_BOUND('',#169,.T.);
#23=FACE_BOUND('',#180,.T.);
#24=FACE_BOUND('',#181,.T.);
#25=FACE_BOUND('',#182,.T.);
#26=FACE_BOUND('',#183,.T.);
#27=PLANE('',#986);
#28=PLANE('',#991);
#29=PLANE('',#993);
#30=PLANE('',#994);
#31=PLANE('',#995);
#32=PLANE('',#996);
#33=PLANE('',#997);
#34=PLANE('',#998);
#35=PLANE('',#999);
#36=PLANE('',#1000);
#37=PLANE('',#1001);
#38=PLANE('',#1002);
#39=PLANE('',#1003);
#40=PLANE('',#1004);
#41=PLANE('',#1005);
#42=PLANE('',#1006);
#43=PLANE('',#1007);
#44=PLANE('',#1008);
#45=PLANE('',#1009);
#46=PLANE('',#1010);
#47=PLANE('',#1011);
#48=PLANE('',#1012);
#49=PLANE('',#1013);
#50=PLANE('',#1014);
#51=PLANE('',#1015);
#52=PLANE('',#1016);
#53=PLANE('',#1017);
#54=PLANE('',#1021);
#55=PLANE('',#1025);
#56=PLANE('',#1028);
#57=PLANE('',#1031);
#58=PLANE('',#1035);
#59=PLANE('',#1037);
#60=PLANE('',#1040);
#61=PLANE('',#1043);
#62=PLANE('',#1044);
#63=PLANE('',#1045);
#64=PLANE('',#1046);
#65=PLANE('',#1047);
#66=PLANE('',#1048);
#67=PLANE('',#1049);
#68=PLANE('',#1050);
#69=PLANE('',#1051);
#70=PLANE('',#1052);
#71=PLANE('',#1053);
#72=PLANE('',#1054);
#73=FACE_OUTER_BOUND('',#129,.T.);
#74=FACE_OUTER_BOUND('',#130,.T.);
#75=FACE_OUTER_BOUND('',#132,.T.);
#76=FACE_OUTER_BOUND('',#133,.T.);
#77=FACE_OUTER_BOUND('',#135,.T.);
#78=FACE_OUTER_BOUND('',#136,.T.);
#79=FACE_OUTER_BOUND('',#137,.T.);
#80=FACE_OUTER_BOUND('',#138,.T.);
#81=FACE_OUTER_BOUND('',#139,.T.);
#82=FACE_OUTER_BOUND('',#140,.T.);
#83=FACE_OUTER_BOUND('',#141,.T.);
#84=FACE_OUTER_BOUND('',#142,.T.);
#85=FACE_OUTER_BOUND('',#143,.T.);
#86=FACE_OUTER_BOUND('',#144,.T.);
#87=FACE_OUTER_BOUND('',#145,.T.);
#88=FACE_OUTER_BOUND('',#146,.T.);
#89=FACE_OUTER_BOUND('',#147,.T.);
#90=FACE_OUTER_BOUND('',#148,.T.);
#91=FACE_OUTER_BOUND('',#149,.T.);
#92=FACE_OUTER_BOUND('',#150,.T.);
#93=FACE_OUTER_BOUND('',#151,.T.);
#94=FACE_OUTER_BOUND('',#152,.T.);
#95=FACE_OUTER_BOUND('',#153,.T.);
#96=FACE_OUTER_BOUND('',#154,.T.);
#97=FACE_OUTER_BOUND('',#155,.T.);
#98=FACE_OUTER_BOUND('',#156,.T.);
#99=FACE_OUTER_BOUND('',#157,.T.);
#100=FACE_OUTER_BOUND('',#158,.T.);
#101=FACE_OUTER_BOUND('',#159,.T.);
#102=FACE_OUTER_BOUND('',#160,.T.);
#103=FACE_OUTER_BOUND('',#161,.T.);
#104=FACE_OUTER_BOUND('',#162,.T.);
#105=FACE_OUTER_BOUND('',#163,.T.);
#106=FACE_OUTER_BOUND('',#164,.T.);
#107=FACE_OUTER_BOUND('',#165,.T.);
#108=FACE_OUTER_BOUND('',#166,.T.);
#109=FACE_OUTER_BOUND('',#167,.T.);
#110=FACE_OUTER_BOUND('',#170,.T.);
#111=FACE_OUTER_BOUND('',#171,.T.);
#112=FACE_OUTER_BOUND('',#172,.T.);
#113=FACE_OUTER_BOUND('',#173,.T.);
#114=FACE_OUTER_BOUND('',#174,.T.);
#115=FACE_OUTER_BOUND('',#175,.T.);
#116=FACE_OUTER_BOUND('',#176,.T.);
#117=FACE_OUTER_BOUND('',#177,.T.);
#118=FACE_OUTER_BOUND('',#178,.T.);
#119=FACE_OUTER_BOUND('',#179,.T.);
#120=FACE_OUTER_BOUND('',#184,.T.);
#121=FACE_OUTER_BOUND('',#185,.T.);
#122=FACE_OUTER_BOUND('',#186,.T.);
#123=FACE_OUTER_BOUND('',#187,.T.);
#124=FACE_OUTER_BOUND('',#188,.T.);
#125=FACE_OUTER_BOUND('',#189,.T.);
#126=FACE_OUTER_BOUND('',#190,.T.);
#127=FACE_OUTER_BOUND('',#191,.T.);
#128=FACE_OUTER_BOUND('',#192,.T.);
#129=EDGE_LOOP('',(#647,#648,#649,#650));
#130=EDGE_LOOP('',(#651));
#131=EDGE_LOOP('',(#652));
#132=EDGE_LOOP('',(#653,#654,#655,#656));
#133=EDGE_LOOP('',(#657));
#134=EDGE_LOOP('',(#658));
#135=EDGE_LOOP('',(#659,#660,#661,#662));
#136=EDGE_LOOP('',(#663,#664,#665,#666));
#137=EDGE_LOOP('',(#667,#668,#669,#670));
#138=EDGE_LOOP('',(#671,#672,#673,#674));
#139=EDGE_LOOP('',(#675,#676,#677,#678));
#140=EDGE_LOOP('',(#679,#680,#681,#682));
#141=EDGE_LOOP('',(#683,#684,#685,#686));
#142=EDGE_LOOP('',(#687,#688,#689,#690));
#143=EDGE_LOOP('',(#691,#692,#693,#694));
#144=EDGE_LOOP('',(#695,#696,#697,#698));
#145=EDGE_LOOP('',(#699,#700,#701,#702));
#146=EDGE_LOOP('',(#703,#704,#705,#706));
#147=EDGE_LOOP('',(#707,#708,#709,#710));
#148=EDGE_LOOP('',(#711,#712,#713,#714));
#149=EDGE_LOOP('',(#715,#716,#717,#718));
#150=EDGE_LOOP('',(#719,#720,#721,#722));
#151=EDGE_LOOP('',(#723,#724,#725,#726));
#152=EDGE_LOOP('',(#727,#728,#729,#730));
#153=EDGE_LOOP('',(#731,#732,#733,#734));
#154=EDGE_LOOP('',(#735,#736,#737,#738));
#155=EDGE_LOOP('',(#739,#740,#741,#742));
#156=EDGE_LOOP('',(#743,#744,#745,#746));
#157=EDGE_LOOP('',(#747,#748,#749,#750));
#158=EDGE_LOOP('',(#751,#752,#753,#754));
#159=EDGE_LOOP('',(#755,#756,#757,#758));
#160=EDGE_LOOP('',(#759,#760,#761,#762));
#161=EDGE_LOOP('',(#763,#764,#765,#766));
#162=EDGE_LOOP('',(#767,#768,#769,#770));
#163=EDGE_LOOP('',(#771,#772,#773,#774));
#164=EDGE_LOOP('',(#775,#776,#777,#778));
#165=EDGE_LOOP('',(#779,#780,#781,#782));
#166=EDGE_LOOP('',(#783,#784,#785,#786));
#167=EDGE_LOOP('',(#787,#788,#789,#790,#791,#792,#793,#794,#795,#796,#797,
#798,#799,#800));
#168=EDGE_LOOP('',(#801,#802,#803,#804));
#169=EDGE_LOOP('',(#805,#806,#807,#808));
#170=EDGE_LOOP('',(#809,#810,#811,#812));
#171=EDGE_LOOP('',(#813,#814,#815,#816));
#172=EDGE_LOOP('',(#817,#818,#819,#820));
#173=EDGE_LOOP('',(#821));
#174=EDGE_LOOP('',(#822,#823,#824,#825));
#175=EDGE_LOOP('',(#826));
#176=EDGE_LOOP('',(#827,#828,#829,#830));
#177=EDGE_LOOP('',(#831,#832,#833,#834));
#178=EDGE_LOOP('',(#835,#836,#837,#838));
#179=EDGE_LOOP('',(#839,#840,#841,#842,#843,#844,#845,#846,#847,#848,#849,
#850,#851,#852));
#180=EDGE_LOOP('',(#853));
#181=EDGE_LOOP('',(#854));
#182=EDGE_LOOP('',(#855,#856,#857,#858));
#183=EDGE_LOOP('',(#859,#860,#861,#862));
#184=EDGE_LOOP('',(#863,#864,#865,#866));
#185=EDGE_LOOP('',(#867,#868,#869,#870));
#186=EDGE_LOOP('',(#871,#872,#873,#874));
#187=EDGE_LOOP('',(#875,#876,#877,#878));
#188=EDGE_LOOP('',(#879,#880,#881,#882));
#189=EDGE_LOOP('',(#883,#884,#885,#886));
#190=EDGE_LOOP('',(#887,#888,#889,#890,#891,#892,#893));
#191=EDGE_LOOP('',(#894,#895,#896,#897,#898,#899,#900));
#192=EDGE_LOOP('',(#901,#902,#903,#904,#905,#906));
#193=LINE('',#1320,#307);
#194=LINE('',#1329,#308);
#195=LINE('',#1337,#309);
#196=LINE('',#1339,#310);
#197=LINE('',#1341,#311);
#198=LINE('',#1342,#312);
#199=LINE('',#1346,#313);
#200=LINE('',#1348,#314);
#201=LINE('',#1350,#315);
#202=LINE('',#1351,#316);
#203=LINE('',#1354,#317);
#204=LINE('',#1356,#318);
#205=LINE('',#1357,#319);
#206=LINE('',#1361,#320);
#207=LINE('',#1363,#321);
#208=LINE('',#1365,#322);
#209=LINE('',#1366,#323);
#210=LINE('',#1369,#324);
#211=LINE('',#1371,#325);
#212=LINE('',#1372,#326);
#213=LINE('',#1376,#327);
#214=LINE('',#1378,#328);
#215=LINE('',#1380,#329);
#216=LINE('',#1381,#330);
#217=LINE('',#1384,#331);
#218=LINE('',#1386,#332);
#219=LINE('',#1387,#333);
#220=LINE('',#1390,#334);
#221=LINE('',#1392,#335);
#222=LINE('',#1393,#336);
#223=LINE('',#1396,#337);
#224=LINE('',#1397,#338);
#225=LINE('',#1401,#339);
#226=LINE('',#1403,#340);
#227=LINE('',#1405,#341);
#228=LINE('',#1406,#342);
#229=LINE('',#1409,#343);
#230=LINE('',#1411,#344);
#231=LINE('',#1412,#345);
#232=LINE('',#1416,#346);
#233=LINE('',#1417,#347);
#234=LINE('',#1418,#348);
#235=LINE('',#1421,#349);
#236=LINE('',#1422,#350);
#237=LINE('',#1425,#351);
#238=LINE('',#1427,#352);
#239=LINE('',#1428,#353);
#240=LINE('',#1430,#354);
#241=LINE('',#1431,#355);
#242=LINE('',#1435,#356);
#243=LINE('',#1436,#357);
#244=LINE('',#1437,#358);
#245=LINE('',#1440,#359);
#246=LINE('',#1441,#360);
#247=LINE('',#1444,#361);
#248=LINE('',#1445,#362);
#249=LINE('',#1447,#363);
#250=LINE('',#1450,#364);
#251=LINE('',#1452,#365);
#252=LINE('',#1453,#366);
#253=LINE('',#1455,#367);
#254=LINE('',#1456,#368);
#255=LINE('',#1460,#369);
#256=LINE('',#1461,#370);
#257=LINE('',#1462,#371);
#258=LINE('',#1465,#372);
#259=LINE('',#1466,#373);
#260=LINE('',#1469,#374);
#261=LINE('',#1470,#375);
#262=LINE('',#1472,#376);
#263=LINE('',#1478,#377);
#264=LINE('',#1481,#378);
#265=LINE('',#1483,#379);
#266=LINE('',#1484,#380);
#267=LINE('',#1490,#381);
#268=LINE('',#1494,#382);
#269=LINE('',#1495,#383);
#270=LINE('',#1496,#384);
#271=LINE('',#1500,#385);
#272=LINE('',#1503,#386);
#273=LINE('',#1505,#387);
#274=LINE('',#1506,#388);
#275=LINE('',#1511,#389);
#276=LINE('',#1513,#390);
#277=LINE('',#1514,#391);
#278=LINE('',#1516,#392);
#279=LINE('',#1518,#393);
#280=LINE('',#1520,#394);
#281=LINE('',#1524,#395);
#282=LINE('',#1527,#396);
#283=LINE('',#1529,#397);
#284=LINE('',#1530,#398);
#285=LINE('',#1532,#399);
#286=LINE('',#1534,#400);
#287=LINE('',#1539,#401);
#288=LINE('',#1544,#402);
#289=LINE('',#1547,#403);
#290=LINE('',#1548,#404);
#291=LINE('',#1551,#405);
#292=LINE('',#1552,#406);
#293=LINE('',#1555,#407);
#294=LINE('',#1556,#408);
#295=LINE('',#1558,#409);
#296=LINE('',#1559,#410);
#297=LINE('',#1560,#411);
#298=LINE('',#1562,#412);
#299=LINE('',#1565,#413);
#300=LINE('',#1566,#414);
#301=LINE('',#1568,#415);
#302=LINE('',#1571,#416);
#303=LINE('',#1572,#417);
#304=LINE('',#1575,#418);
#305=LINE('',#1576,#419);
#306=LINE('',#1578,#420);
#307=VECTOR('',#1061,3.05);
#308=VECTOR('',#1072,3.05);
#309=VECTOR('',#1081,10.);
#310=VECTOR('',#1082,10.);
#311=VECTOR('',#1083,10.);
#312=VECTOR('',#1084,10.);
#313=VECTOR('',#1087,10.);
#314=VECTOR('',#1088,10.);
#315=VECTOR('',#1089,10.);
#316=VECTOR('',#1090,10.);
#317=VECTOR('',#1093,10.);
#318=VECTOR('',#1094,10.);
#319=VECTOR('',#1095,10.);
#320=VECTOR('',#1098,10.);
#321=VECTOR('',#1099,10.);
#322=VECTOR('',#1100,10.);
#323=VECTOR('',#1101,10.);
#324=VECTOR('',#1104,10.);
#325=VECTOR('',#1105,10.);
#326=VECTOR('',#1106,10.);
#327=VECTOR('',#1109,10.);
#328=VECTOR('',#1110,10.);
#329=VECTOR('',#1111,10.);
#330=VECTOR('',#1112,10.);
#331=VECTOR('',#1115,10.);
#332=VECTOR('',#1116,10.);
#333=VECTOR('',#1117,10.);
#334=VECTOR('',#1120,10.);
#335=VECTOR('',#1121,10.);
#336=VECTOR('',#1122,10.);
#337=VECTOR('',#1125,10.);
#338=VECTOR('',#1126,10.);
#339=VECTOR('',#1129,10.);
#340=VECTOR('',#1130,10.);
#341=VECTOR('',#1131,10.);
#342=VECTOR('',#1132,10.);
#343=VECTOR('',#1135,10.);
#344=VECTOR('',#1136,10.);
#345=VECTOR('',#1137,10.);
#346=VECTOR('',#1140,10.);
#347=VECTOR('',#1141,10.);
#348=VECTOR('',#1142,10.);
#349=VECTOR('',#1145,10.);
#350=VECTOR('',#1146,10.);
#351=VECTOR('',#1149,10.);
#352=VECTOR('',#1150,10.);
#353=VECTOR('',#1151,10.);
#354=VECTOR('',#1154,10.);
#355=VECTOR('',#1155,10.);
#356=VECTOR('',#1158,10.);
#357=VECTOR('',#1159,10.);
#358=VECTOR('',#1160,10.);
#359=VECTOR('',#1163,10.);
#360=VECTOR('',#1164,10.);
#361=VECTOR('',#1167,10.);
#362=VECTOR('',#1168,10.);
#363=VECTOR('',#1171,10.);
#364=VECTOR('',#1174,10.);
#365=VECTOR('',#1175,10.);
#366=VECTOR('',#1176,10.);
#367=VECTOR('',#1179,10.);
#368=VECTOR('',#1180,10.);
#369=VECTOR('',#1183,10.);
#370=VECTOR('',#1184,10.);
#371=VECTOR('',#1185,10.);
#372=VECTOR('',#1188,10.);
#373=VECTOR('',#1189,10.);
#374=VECTOR('',#1192,10.);
#375=VECTOR('',#1193,10.);
#376=VECTOR('',#1196,10.);
#377=VECTOR('',#1203,10.);
#378=VECTOR('',#1206,10.);
#379=VECTOR('',#1207,10.);
#380=VECTOR('',#1208,10.);
#381=VECTOR('',#1215,10.);
#382=VECTOR('',#1218,10.);
#383=VECTOR('',#1219,10.);
#384=VECTOR('',#1220,10.);
#385=VECTOR('',#1225,10.);
#386=VECTOR('',#1228,10.);
#387=VECTOR('',#1229,10.);
#388=VECTOR('',#1230,10.);
#389=VECTOR('',#1237,10.);
#390=VECTOR('',#1238,10.);
#391=VECTOR('',#1239,10.);
#392=VECTOR('',#1240,10.);
#393=VECTOR('',#1241,10.);
#394=VECTOR('',#1242,10.);
#395=VECTOR('',#1245,10.);
#396=VECTOR('',#1248,10.);
#397=VECTOR('',#1251,10.);
#398=VECTOR('',#1252,10.);
#399=VECTOR('',#1255,10.);
#400=VECTOR('',#1258,10.);
#401=VECTOR('',#1265,1.75000000000001);
#402=VECTOR('',#1272,1.75000000000001);
#403=VECTOR('',#1275,10.);
#404=VECTOR('',#1276,10.);
#405=VECTOR('',#1279,10.);
#406=VECTOR('',#1280,10.);
#407=VECTOR('',#1283,10.);
#408=VECTOR('',#1284,10.);
#409=VECTOR('',#1285,10.);
#410=VECTOR('',#1286,10.);
#411=VECTOR('',#1287,10.);
#412=VECTOR('',#1290,10.);
#413=VECTOR('',#1293,10.);
#414=VECTOR('',#1294,10.);
#415=VECTOR('',#1297,10.);
#416=VECTOR('',#1300,10.);
#417=VECTOR('',#1301,10.);
#418=VECTOR('',#1304,10.);
#419=VECTOR('',#1305,10.);
#420=VECTOR('',#1308,10.);
#421=CIRCLE('',#984,3.05);
#422=CIRCLE('',#985,3.05);
#423=CIRCLE('',#987,1.75000000000001);
#424=CIRCLE('',#989,3.05);
#425=CIRCLE('',#990,3.05);
#426=CIRCLE('',#992,1.75000000000001);
#427=CIRCLE('',#1019,5.00000000000002);
#428=CIRCLE('',#1020,5.00000000000002);
#429=CIRCLE('',#1023,5.);
#430=CIRCLE('',#1024,5.);
#431=CIRCLE('',#1027,4.70710678118657);
#432=CIRCLE('',#1030,4.70710678118657);
#433=CIRCLE('',#1032,3.00000000000001);
#434=CIRCLE('',#1033,3.);
#435=CIRCLE('',#1038,1.75000000000001);
#436=CIRCLE('',#1041,1.75000000000001);
#437=VERTEX_POINT('',#1317);
#438=VERTEX_POINT('',#1319);
#439=VERTEX_POINT('',#1323);
#440=VERTEX_POINT('',#1326);
#441=VERTEX_POINT('',#1328);
#442=VERTEX_POINT('',#1332);
#443=VERTEX_POINT('',#1335);
#444=VERTEX_POINT('',#1336);
#445=VERTEX_POINT('',#1338);
#446=VERTEX_POINT('',#1340);
#447=VERTEX_POINT('',#1344);
#448=VERTEX_POINT('',#1345);
#449=VERTEX_POINT('',#1347);
#450=VERTEX_POINT('',#1349);
#451=VERTEX_POINT('',#1353);
#452=VERTEX_POINT('',#1355);
#453=VERTEX_POINT('',#1359);
#454=VERTEX_POINT('',#1360);
#455=VERTEX_POINT('',#1362);
#456=VERTEX_POINT('',#1364);
#457=VERTEX_POINT('',#1368);
#458=VERTEX_POINT('',#1370);
#459=VERTEX_POINT('',#1374);
#460=VERTEX_POINT('',#1375);
#461=VERTEX_POINT('',#1377);
#462=VERTEX_POINT('',#1379);
#463=VERTEX_POINT('',#1383);
#464=VERTEX_POINT('',#1385);
#465=VERTEX_POINT('',#1389);
#466=VERTEX_POINT('',#1391);
#467=VERTEX_POINT('',#1395);
#468=VERTEX_POINT('',#1399);
#469=VERTEX_POINT('',#1400);
#470=VERTEX_POINT('',#1402);
#471=VERTEX_POINT('',#1404);
#472=VERTEX_POINT('',#1408);
#473=VERTEX_POINT('',#1410);
#474=VERTEX_POINT('',#1414);
#475=VERTEX_POINT('',#1415);
#476=VERTEX_POINT('',#1420);
#477=VERTEX_POINT('',#1424);
#478=VERTEX_POINT('',#1426);
#479=VERTEX_POINT('',#1433);
#480=VERTEX_POINT('',#1434);
#481=VERTEX_POINT('',#1439);
#482=VERTEX_POINT('',#1443);
#483=VERTEX_POINT('',#1449);
#484=VERTEX_POINT('',#1451);
#485=VERTEX_POINT('',#1458);
#486=VERTEX_POINT('',#1459);
#487=VERTEX_POINT('',#1464);
#488=VERTEX_POINT('',#1468);
#489=VERTEX_POINT('',#1474);
#490=VERTEX_POINT('',#1476);
#491=VERTEX_POINT('',#1480);
#492=VERTEX_POINT('',#1482);
#493=VERTEX_POINT('',#1486);
#494=VERTEX_POINT('',#1488);
#495=VERTEX_POINT('',#1492);
#496=VERTEX_POINT('',#1493);
#497=VERTEX_POINT('',#1498);
#498=VERTEX_POINT('',#1502);
#499=VERTEX_POINT('',#1504);
#500=VERTEX_POINT('',#1510);
#501=VERTEX_POINT('',#1512);
#502=VERTEX_POINT('',#1515);
#503=VERTEX_POINT('',#1517);
#504=VERTEX_POINT('',#1519);
#505=VERTEX_POINT('',#1521);
#506=VERTEX_POINT('',#1523);
#507=VERTEX_POINT('',#1525);
#508=VERTEX_POINT('',#1536);
#509=VERTEX_POINT('',#1541);
#510=VERTEX_POINT('',#1546);
#511=VERTEX_POINT('',#1550);
#512=VERTEX_POINT('',#1554);
#513=VERTEX_POINT('',#1557);
#514=VERTEX_POINT('',#1564);
#515=VERTEX_POINT('',#1570);
#516=VERTEX_POINT('',#1574);
#517=EDGE_CURVE('',#437,#437,#421,.T.);
#518=EDGE_CURVE('',#437,#438,#193,.T.);
#519=EDGE_CURVE('',#438,#438,#422,.T.);
#520=EDGE_CURVE('',#439,#439,#423,.T.);
#521=EDGE_CURVE('',#440,#440,#424,.T.);
#522=EDGE_CURVE('',#440,#441,#194,.T.);
#523=EDGE_CURVE('',#441,#441,#425,.T.);
#524=EDGE_CURVE('',#442,#442,#426,.T.);
#525=EDGE_CURVE('',#443,#444,#195,.T.);
#526=EDGE_CURVE('',#443,#445,#196,.T.);
#527=EDGE_CURVE('',#445,#446,#197,.T.);
#528=EDGE_CURVE('',#444,#446,#198,.T.);
#529=EDGE_CURVE('',#447,#448,#199,.T.);
#530=EDGE_CURVE('',#447,#449,#200,.T.);
#531=EDGE_CURVE('',#450,#449,#201,.T.);
#532=EDGE_CURVE('',#448,#450,#202,.T.);
#533=EDGE_CURVE('',#451,#447,#203,.T.);
#534=EDGE_CURVE('',#451,#452,#204,.T.);
#535=EDGE_CURVE('',#449,#452,#205,.T.);
#536=EDGE_CURVE('',#453,#454,#206,.T.);
#537=EDGE_CURVE('',#453,#455,#207,.T.);
#538=EDGE_CURVE('',#456,#455,#208,.T.);
#539=EDGE_CURVE('',#454,#456,#209,.T.);
#540=EDGE_CURVE('',#457,#453,#210,.T.);
#541=EDGE_CURVE('',#457,#458,#211,.T.);
#542=EDGE_CURVE('',#455,#458,#212,.T.);
#543=EDGE_CURVE('',#459,#460,#213,.T.);
#544=EDGE_CURVE('',#461,#459,#214,.T.);
#545=EDGE_CURVE('',#462,#461,#215,.T.);
#546=EDGE_CURVE('',#460,#462,#216,.T.);
#547=EDGE_CURVE('',#462,#463,#217,.T.);
#548=EDGE_CURVE('',#464,#461,#218,.T.);
#549=EDGE_CURVE('',#463,#464,#219,.T.);
#550=EDGE_CURVE('',#460,#465,#220,.T.);
#551=EDGE_CURVE('',#466,#462,#221,.T.);
#552=EDGE_CURVE('',#466,#465,#222,.T.);
#553=EDGE_CURVE('',#467,#466,#223,.T.);
#554=EDGE_CURVE('',#463,#467,#224,.T.);
#555=EDGE_CURVE('',#468,#469,#225,.T.);
#556=EDGE_CURVE('',#470,#468,#226,.T.);
#557=EDGE_CURVE('',#471,#470,#227,.T.);
#558=EDGE_CURVE('',#469,#471,#228,.T.);
#559=EDGE_CURVE('',#471,#472,#229,.T.);
#560=EDGE_CURVE('',#473,#470,#230,.T.);
#561=EDGE_CURVE('',#472,#473,#231,.T.);
#562=EDGE_CURVE('',#474,#475,#232,.T.);
#563=EDGE_CURVE('',#471,#475,#233,.T.);
#564=EDGE_CURVE('',#472,#474,#234,.T.);
#565=EDGE_CURVE('',#469,#476,#235,.T.);
#566=EDGE_CURVE('',#475,#476,#236,.T.);
#567=EDGE_CURVE('',#454,#477,#237,.T.);
#568=EDGE_CURVE('',#478,#456,#238,.T.);
#569=EDGE_CURVE('',#477,#478,#239,.T.);
#570=EDGE_CURVE('',#477,#457,#240,.T.);
#571=EDGE_CURVE('',#458,#478,#241,.T.);
#572=EDGE_CURVE('',#479,#480,#242,.T.);
#573=EDGE_CURVE('',#457,#480,#243,.T.);
#574=EDGE_CURVE('',#453,#479,#244,.T.);
#575=EDGE_CURVE('',#480,#481,#245,.T.);
#576=EDGE_CURVE('',#477,#481,#246,.T.);
#577=EDGE_CURVE('',#482,#454,#247,.T.);
#578=EDGE_CURVE('',#482,#479,#248,.T.);
#579=EDGE_CURVE('',#481,#482,#249,.T.);
#580=EDGE_CURVE('',#448,#483,#250,.T.);
#581=EDGE_CURVE('',#484,#450,#251,.T.);
#582=EDGE_CURVE('',#483,#484,#252,.T.);
#583=EDGE_CURVE('',#483,#451,#253,.T.);
#584=EDGE_CURVE('',#452,#484,#254,.T.);
#585=EDGE_CURVE('',#485,#486,#255,.T.);
#586=EDGE_CURVE('',#451,#486,#256,.T.);
#587=EDGE_CURVE('',#447,#485,#257,.T.);
#588=EDGE_CURVE('',#486,#487,#258,.T.);
#589=EDGE_CURVE('',#483,#487,#259,.T.);
#590=EDGE_CURVE('',#488,#448,#260,.T.);
#591=EDGE_CURVE('',#488,#485,#261,.T.);
#592=EDGE_CURVE('',#487,#488,#262,.T.);
#593=EDGE_CURVE('',#446,#489,#427,.T.);
#594=EDGE_CURVE('',#445,#490,#428,.T.);
#595=EDGE_CURVE('',#490,#489,#263,.T.);
#596=EDGE_CURVE('',#489,#491,#264,.T.);
#597=EDGE_CURVE('',#490,#492,#265,.T.);
#598=EDGE_CURVE('',#492,#491,#266,.T.);
#599=EDGE_CURVE('',#491,#493,#429,.T.);
#600=EDGE_CURVE('',#492,#494,#430,.T.);
#601=EDGE_CURVE('',#494,#493,#267,.T.);
#602=EDGE_CURVE('',#495,#496,#268,.T.);
#603=EDGE_CURVE('',#489,#495,#269,.T.);
#604=EDGE_CURVE('',#496,#491,#270,.T.);
#605=EDGE_CURVE('',#496,#497,#431,.T.);
#606=EDGE_CURVE('',#497,#493,#271,.T.);
#607=EDGE_CURVE('',#444,#498,#272,.T.);
#608=EDGE_CURVE('',#499,#446,#273,.T.);
#609=EDGE_CURVE('',#498,#499,#274,.T.);
#610=EDGE_CURVE('',#499,#495,#432,.T.);
#611=EDGE_CURVE('',#476,#500,#275,.T.);
#612=EDGE_CURVE('',#501,#474,#276,.T.);
#613=EDGE_CURVE('',#465,#501,#277,.T.);
#614=EDGE_CURVE('',#502,#467,#278,.T.);
#615=EDGE_CURVE('',#503,#502,#279,.T.);
#616=EDGE_CURVE('',#504,#503,#280,.T.);
#617=EDGE_CURVE('',#505,#504,#433,.T.);
#618=EDGE_CURVE('',#506,#505,#281,.T.);
#619=EDGE_CURVE('',#507,#506,#434,.T.);
#620=EDGE_CURVE('',#500,#507,#282,.T.);
#621=EDGE_CURVE('',#504,#499,#283,.T.);
#622=EDGE_CURVE('',#505,#495,#284,.T.);
#623=EDGE_CURVE('',#506,#496,#285,.T.);
#624=EDGE_CURVE('',#507,#497,#286,.T.);
#625=EDGE_CURVE('',#508,#508,#435,.T.);
#626=EDGE_CURVE('',#439,#508,#287,.T.);
#627=EDGE_CURVE('',#509,#509,#436,.T.);
#628=EDGE_CURVE('',#442,#509,#288,.T.);
#629=EDGE_CURVE('',#501,#510,#289,.T.);
#630=EDGE_CURVE('',#472,#510,#290,.T.);
#631=EDGE_CURVE('',#510,#511,#291,.T.);
#632=EDGE_CURVE('',#511,#473,#292,.T.);
#633=EDGE_CURVE('',#512,#468,#293,.T.);
#634=EDGE_CURVE('',#494,#512,#294,.T.);
#635=EDGE_CURVE('',#513,#443,#295,.T.);
#636=EDGE_CURVE('',#513,#464,#296,.T.);
#637=EDGE_CURVE('',#511,#459,#297,.T.);
#638=EDGE_CURVE('',#498,#503,#298,.T.);
#639=EDGE_CURVE('',#502,#514,#299,.T.);
#640=EDGE_CURVE('',#463,#514,#300,.T.);
#641=EDGE_CURVE('',#514,#513,#301,.T.);
#642=EDGE_CURVE('',#500,#515,#302,.T.);
#643=EDGE_CURVE('',#497,#515,#303,.T.);
#644=EDGE_CURVE('',#515,#516,#304,.T.);
#645=EDGE_CURVE('',#493,#516,#305,.T.);
#646=EDGE_CURVE('',#516,#512,#306,.T.);
#647=ORIENTED_EDGE('',*,*,#517,.F.);
#648=ORIENTED_EDGE('',*,*,#518,.T.);
#649=ORIENTED_EDGE('',*,*,#519,.T.);
#650=ORIENTED_EDGE('',*,*,#518,.F.);
#651=ORIENTED_EDGE('',*,*,#519,.F.);
#652=ORIENTED_EDGE('',*,*,#520,.F.);
#653=ORIENTED_EDGE('',*,*,#521,.F.);
#654=ORIENTED_EDGE('',*,*,#522,.T.);
#655=ORIENTED_EDGE('',*,*,#523,.T.);
#656=ORIENTED_EDGE('',*,*,#522,.F.);
#657=ORIENTED_EDGE('',*,*,#523,.F.);
#658=ORIENTED_EDGE('',*,*,#524,.F.);
#659=ORIENTED_EDGE('',*,*,#525,.F.);
#660=ORIENTED_EDGE('',*,*,#526,.T.);
#661=ORIENTED_EDGE('',*,*,#527,.T.);
#662=ORIENTED_EDGE('',*,*,#528,.F.);
#663=ORIENTED_EDGE('',*,*,#529,.F.);
#664=ORIENTED_EDGE('',*,*,#530,.T.);
#665=ORIENTED_EDGE('',*,*,#531,.F.);
#666=ORIENTED_EDGE('',*,*,#532,.F.);
#667=ORIENTED_EDGE('',*,*,#533,.F.);
#668=ORIENTED_EDGE('',*,*,#534,.T.);
#669=ORIENTED_EDGE('',*,*,#535,.F.);
#670=ORIENTED_EDGE('',*,*,#530,.F.);
#671=ORIENTED_EDGE('',*,*,#536,.F.);
#672=ORIENTED_EDGE('',*,*,#537,.T.);
#673=ORIENTED_EDGE('',*,*,#538,.F.);
#674=ORIENTED_EDGE('',*,*,#539,.F.);
#675=ORIENTED_EDGE('',*,*,#540,.F.);
#676=ORIENTED_EDGE('',*,*,#541,.T.);
#677=ORIENTED_EDGE('',*,*,#542,.F.);
#678=ORIENTED_EDGE('',*,*,#537,.F.);
#679=ORIENTED_EDGE('',*,*,#543,.F.);
#680=ORIENTED_EDGE('',*,*,#544,.F.);
#681=ORIENTED_EDGE('',*,*,#545,.F.);
#682=ORIENTED_EDGE('',*,*,#546,.F.);
#683=ORIENTED_EDGE('',*,*,#547,.F.);
#684=ORIENTED_EDGE('',*,*,#545,.T.);
#685=ORIENTED_EDGE('',*,*,#548,.F.);
#686=ORIENTED_EDGE('',*,*,#549,.F.);
#687=ORIENTED_EDGE('',*,*,#550,.F.);
#688=ORIENTED_EDGE('',*,*,#546,.T.);
#689=ORIENTED_EDGE('',*,*,#551,.F.);
#690=ORIENTED_EDGE('',*,*,#552,.T.);
#691=ORIENTED_EDGE('',*,*,#553,.T.);
#692=ORIENTED_EDGE('',*,*,#551,.T.);
#693=ORIENTED_EDGE('',*,*,#547,.T.);
#694=ORIENTED_EDGE('',*,*,#554,.T.);
#695=ORIENTED_EDGE('',*,*,#555,.F.);
#696=ORIENTED_EDGE('',*,*,#556,.F.);
#697=ORIENTED_EDGE('',*,*,#557,.F.);
#698=ORIENTED_EDGE('',*,*,#558,.F.);
#699=ORIENTED_EDGE('',*,*,#559,.F.);
#700=ORIENTED_EDGE('',*,*,#557,.T.);
#701=ORIENTED_EDGE('',*,*,#560,.F.);
#702=ORIENTED_EDGE('',*,*,#561,.F.);
#703=ORIENTED_EDGE('',*,*,#562,.T.);
#704=ORIENTED_EDGE('',*,*,#563,.F.);
#705=ORIENTED_EDGE('',*,*,#559,.T.);
#706=ORIENTED_EDGE('',*,*,#564,.T.);
#707=ORIENTED_EDGE('',*,*,#565,.F.);
#708=ORIENTED_EDGE('',*,*,#558,.T.);
#709=ORIENTED_EDGE('',*,*,#563,.T.);
#710=ORIENTED_EDGE('',*,*,#566,.T.);
#711=ORIENTED_EDGE('',*,*,#567,.F.);
#712=ORIENTED_EDGE('',*,*,#539,.T.);
#713=ORIENTED_EDGE('',*,*,#568,.F.);
#714=ORIENTED_EDGE('',*,*,#569,.F.);
#715=ORIENTED_EDGE('',*,*,#570,.F.);
#716=ORIENTED_EDGE('',*,*,#569,.T.);
#717=ORIENTED_EDGE('',*,*,#571,.F.);
#718=ORIENTED_EDGE('',*,*,#541,.F.);
#719=ORIENTED_EDGE('',*,*,#572,.T.);
#720=ORIENTED_EDGE('',*,*,#573,.F.);
#721=ORIENTED_EDGE('',*,*,#540,.T.);
#722=ORIENTED_EDGE('',*,*,#574,.T.);
#723=ORIENTED_EDGE('',*,*,#575,.T.);
#724=ORIENTED_EDGE('',*,*,#576,.F.);
#725=ORIENTED_EDGE('',*,*,#570,.T.);
#726=ORIENTED_EDGE('',*,*,#573,.T.);
#727=ORIENTED_EDGE('',*,*,#536,.T.);
#728=ORIENTED_EDGE('',*,*,#577,.F.);
#729=ORIENTED_EDGE('',*,*,#578,.T.);
#730=ORIENTED_EDGE('',*,*,#574,.F.);
#731=ORIENTED_EDGE('',*,*,#579,.T.);
#732=ORIENTED_EDGE('',*,*,#577,.T.);
#733=ORIENTED_EDGE('',*,*,#567,.T.);
#734=ORIENTED_EDGE('',*,*,#576,.T.);
#735=ORIENTED_EDGE('',*,*,#580,.F.);
#736=ORIENTED_EDGE('',*,*,#532,.T.);
#737=ORIENTED_EDGE('',*,*,#581,.F.);
#738=ORIENTED_EDGE('',*,*,#582,.F.);
#739=ORIENTED_EDGE('',*,*,#583,.F.);
#740=ORIENTED_EDGE('',*,*,#582,.T.);
#741=ORIENTED_EDGE('',*,*,#584,.F.);
#742=ORIENTED_EDGE('',*,*,#534,.F.);
#743=ORIENTED_EDGE('',*,*,#585,.T.);
#744=ORIENTED_EDGE('',*,*,#586,.F.);
#745=ORIENTED_EDGE('',*,*,#533,.T.);
#746=ORIENTED_EDGE('',*,*,#587,.T.);
#747=ORIENTED_EDGE('',*,*,#588,.T.);
#748=ORIENTED_EDGE('',*,*,#589,.F.);
#749=ORIENTED_EDGE('',*,*,#583,.T.);
#750=ORIENTED_EDGE('',*,*,#586,.T.);
#751=ORIENTED_EDGE('',*,*,#529,.T.);
#752=ORIENTED_EDGE('',*,*,#590,.F.);
#753=ORIENTED_EDGE('',*,*,#591,.T.);
#754=ORIENTED_EDGE('',*,*,#587,.F.);
#755=ORIENTED_EDGE('',*,*,#592,.T.);
#756=ORIENTED_EDGE('',*,*,#590,.T.);
#757=ORIENTED_EDGE('',*,*,#580,.T.);
#758=ORIENTED_EDGE('',*,*,#589,.T.);
#759=ORIENTED_EDGE('',*,*,#593,.F.);
#760=ORIENTED_EDGE('',*,*,#527,.F.);
#761=ORIENTED_EDGE('',*,*,#594,.T.);
#762=ORIENTED_EDGE('',*,*,#595,.T.);
#763=ORIENTED_EDGE('',*,*,#596,.F.);
#764=ORIENTED_EDGE('',*,*,#595,.F.);
#765=ORIENTED_EDGE('',*,*,#597,.T.);
#766=ORIENTED_EDGE('',*,*,#598,.T.);
#767=ORIENTED_EDGE('',*,*,#599,.F.);
#768=ORIENTED_EDGE('',*,*,#598,.F.);
#769=ORIENTED_EDGE('',*,*,#600,.T.);
#770=ORIENTED_EDGE('',*,*,#601,.T.);
#771=ORIENTED_EDGE('',*,*,#602,.F.);
#772=ORIENTED_EDGE('',*,*,#603,.F.);
#773=ORIENTED_EDGE('',*,*,#596,.T.);
#774=ORIENTED_EDGE('',*,*,#604,.F.);
#775=ORIENTED_EDGE('',*,*,#605,.F.);
#776=ORIENTED_EDGE('',*,*,#604,.T.);
#777=ORIENTED_EDGE('',*,*,#599,.T.);
#778=ORIENTED_EDGE('',*,*,#606,.F.);
#779=ORIENTED_EDGE('',*,*,#607,.F.);
#780=ORIENTED_EDGE('',*,*,#528,.T.);
#781=ORIENTED_EDGE('',*,*,#608,.F.);
#782=ORIENTED_EDGE('',*,*,#609,.F.);
#783=ORIENTED_EDGE('',*,*,#610,.F.);
#784=ORIENTED_EDGE('',*,*,#608,.T.);
#785=ORIENTED_EDGE('',*,*,#593,.T.);
#786=ORIENTED_EDGE('',*,*,#603,.T.);
#787=ORIENTED_EDGE('',*,*,#611,.F.);
#788=ORIENTED_EDGE('',*,*,#566,.F.);
#789=ORIENTED_EDGE('',*,*,#562,.F.);
#790=ORIENTED_EDGE('',*,*,#612,.F.);
#791=ORIENTED_EDGE('',*,*,#613,.F.);
#792=ORIENTED_EDGE('',*,*,#552,.F.);
#793=ORIENTED_EDGE('',*,*,#553,.F.);
#794=ORIENTED_EDGE('',*,*,#614,.F.);
#795=ORIENTED_EDGE('',*,*,#615,.F.);
#796=ORIENTED_EDGE('',*,*,#616,.F.);
#797=ORIENTED_EDGE('',*,*,#617,.F.);
#798=ORIENTED_EDGE('',*,*,#618,.F.);
#799=ORIENTED_EDGE('',*,*,#619,.F.);
#800=ORIENTED_EDGE('',*,*,#620,.F.);
#801=ORIENTED_EDGE('',*,*,#592,.F.);
#802=ORIENTED_EDGE('',*,*,#588,.F.);
#803=ORIENTED_EDGE('',*,*,#585,.F.);
#804=ORIENTED_EDGE('',*,*,#591,.F.);
#805=ORIENTED_EDGE('',*,*,#579,.F.);
#806=ORIENTED_EDGE('',*,*,#575,.F.);
#807=ORIENTED_EDGE('',*,*,#572,.F.);
#808=ORIENTED_EDGE('',*,*,#578,.F.);
#809=ORIENTED_EDGE('',*,*,#621,.T.);
#810=ORIENTED_EDGE('',*,*,#610,.T.);
#811=ORIENTED_EDGE('',*,*,#622,.F.);
#812=ORIENTED_EDGE('',*,*,#617,.T.);
#813=ORIENTED_EDGE('',*,*,#622,.T.);
#814=ORIENTED_EDGE('',*,*,#602,.T.);
#815=ORIENTED_EDGE('',*,*,#623,.F.);
#816=ORIENTED_EDGE('',*,*,#618,.T.);
#817=ORIENTED_EDGE('',*,*,#623,.T.);
#818=ORIENTED_EDGE('',*,*,#605,.T.);
#819=ORIENTED_EDGE('',*,*,#624,.F.);
#820=ORIENTED_EDGE('',*,*,#619,.T.);
#821=ORIENTED_EDGE('',*,*,#625,.F.);
#822=ORIENTED_EDGE('',*,*,#520,.T.);
#823=ORIENTED_EDGE('',*,*,#626,.T.);
#824=ORIENTED_EDGE('',*,*,#625,.T.);
#825=ORIENTED_EDGE('',*,*,#626,.F.);
#826=ORIENTED_EDGE('',*,*,#627,.F.);
#827=ORIENTED_EDGE('',*,*,#524,.T.);
#828=ORIENTED_EDGE('',*,*,#628,.T.);
#829=ORIENTED_EDGE('',*,*,#627,.T.);
#830=ORIENTED_EDGE('',*,*,#628,.F.);
#831=ORIENTED_EDGE('',*,*,#629,.F.);
#832=ORIENTED_EDGE('',*,*,#612,.T.);
#833=ORIENTED_EDGE('',*,*,#564,.F.);
#834=ORIENTED_EDGE('',*,*,#630,.T.);
#835=ORIENTED_EDGE('',*,*,#631,.F.);
#836=ORIENTED_EDGE('',*,*,#630,.F.);
#837=ORIENTED_EDGE('',*,*,#561,.T.);
#838=ORIENTED_EDGE('',*,*,#632,.F.);
#839=ORIENTED_EDGE('',*,*,#633,.F.);
#840=ORIENTED_EDGE('',*,*,#634,.F.);
#841=ORIENTED_EDGE('',*,*,#600,.F.);
#842=ORIENTED_EDGE('',*,*,#597,.F.);
#843=ORIENTED_EDGE('',*,*,#594,.F.);
#844=ORIENTED_EDGE('',*,*,#526,.F.);
#845=ORIENTED_EDGE('',*,*,#635,.F.);
#846=ORIENTED_EDGE('',*,*,#636,.T.);
#847=ORIENTED_EDGE('',*,*,#548,.T.);
#848=ORIENTED_EDGE('',*,*,#544,.T.);
#849=ORIENTED_EDGE('',*,*,#637,.F.);
#850=ORIENTED_EDGE('',*,*,#632,.T.);
#851=ORIENTED_EDGE('',*,*,#560,.T.);
#852=ORIENTED_EDGE('',*,*,#556,.T.);
#853=ORIENTED_EDGE('',*,*,#517,.T.);
#854=ORIENTED_EDGE('',*,*,#521,.T.);
#855=ORIENTED_EDGE('',*,*,#568,.T.);
#856=ORIENTED_EDGE('',*,*,#538,.T.);
#857=ORIENTED_EDGE('',*,*,#542,.T.);
#858=ORIENTED_EDGE('',*,*,#571,.T.);
#859=ORIENTED_EDGE('',*,*,#581,.T.);
#860=ORIENTED_EDGE('',*,*,#531,.T.);
#861=ORIENTED_EDGE('',*,*,#535,.T.);
#862=ORIENTED_EDGE('',*,*,#584,.T.);
#863=ORIENTED_EDGE('',*,*,#638,.F.);
#864=ORIENTED_EDGE('',*,*,#609,.T.);
#865=ORIENTED_EDGE('',*,*,#621,.F.);
#866=ORIENTED_EDGE('',*,*,#616,.T.);
#867=ORIENTED_EDGE('',*,*,#639,.F.);
#868=ORIENTED_EDGE('',*,*,#614,.T.);
#869=ORIENTED_EDGE('',*,*,#554,.F.);
#870=ORIENTED_EDGE('',*,*,#640,.T.);
#871=ORIENTED_EDGE('',*,*,#641,.F.);
#872=ORIENTED_EDGE('',*,*,#640,.F.);
#873=ORIENTED_EDGE('',*,*,#549,.T.);
#874=ORIENTED_EDGE('',*,*,#636,.F.);
#875=ORIENTED_EDGE('',*,*,#642,.F.);
#876=ORIENTED_EDGE('',*,*,#620,.T.);
#877=ORIENTED_EDGE('',*,*,#624,.T.);
#878=ORIENTED_EDGE('',*,*,#643,.T.);
#879=ORIENTED_EDGE('',*,*,#644,.F.);
#880=ORIENTED_EDGE('',*,*,#643,.F.);
#881=ORIENTED_EDGE('',*,*,#606,.T.);
#882=ORIENTED_EDGE('',*,*,#645,.T.);
#883=ORIENTED_EDGE('',*,*,#646,.F.);
#884=ORIENTED_EDGE('',*,*,#645,.F.);
#885=ORIENTED_EDGE('',*,*,#601,.F.);
#886=ORIENTED_EDGE('',*,*,#634,.T.);
#887=ORIENTED_EDGE('',*,*,#642,.T.);
#888=ORIENTED_EDGE('',*,*,#644,.T.);
#889=ORIENTED_EDGE('',*,*,#646,.T.);
#890=ORIENTED_EDGE('',*,*,#633,.T.);
#891=ORIENTED_EDGE('',*,*,#555,.T.);
#892=ORIENTED_EDGE('',*,*,#565,.T.);
#893=ORIENTED_EDGE('',*,*,#611,.T.);
#894=ORIENTED_EDGE('',*,*,#638,.T.);
#895=ORIENTED_EDGE('',*,*,#615,.T.);
#896=ORIENTED_EDGE('',*,*,#639,.T.);
#897=ORIENTED_EDGE('',*,*,#641,.T.);
#898=ORIENTED_EDGE('',*,*,#635,.T.);
#899=ORIENTED_EDGE('',*,*,#525,.T.);
#900=ORIENTED_EDGE('',*,*,#607,.T.);
#901=ORIENTED_EDGE('',*,*,#613,.T.);
#902=ORIENTED_EDGE('',*,*,#629,.T.);
#903=ORIENTED_EDGE('',*,*,#631,.T.);
#904=ORIENTED_EDGE('',*,*,#637,.T.);
#905=ORIENTED_EDGE('',*,*,#543,.T.);
#906=ORIENTED_EDGE('',*,*,#550,.T.);
#907=CYLINDRICAL_SURFACE('',#983,3.05);
#908=CYLINDRICAL_SURFACE('',#988,3.05);
#909=CYLINDRICAL_SURFACE('',#1018,5.00000000000002);
#910=CYLINDRICAL_SURFACE('',#1022,5.);
#911=CYLINDRICAL_SURFACE('',#1039,1.75000000000001);
#912=CYLINDRICAL_SURFACE('',#1042,1.75000000000001);
#913=ADVANCED_FACE('',(#73),#907,.F.);
#914=ADVANCED_FACE('',(#74,#19),#27,.T.);
#915=ADVANCED_FACE('',(#75),#908,.F.);
#916=ADVANCED_FACE('',(#76,#20),#28,.T.);
#917=ADVANCED_FACE('',(#77),#29,.T.);
#918=ADVANCED_FACE('',(#78),#30,.T.);
#919=ADVANCED_FACE('',(#79),#31,.T.);
#920=ADVANCED_FACE('',(#80),#32,.T.);
#921=ADVANCED_FACE('',(#81),#33,.T.);
#922=ADVANCED_FACE('',(#82),#34,.T.);
#923=ADVANCED_FACE('',(#83),#35,.T.);
#924=ADVANCED_FACE('',(#84),#36,.T.);
#925=ADVANCED_FACE('',(#85),#37,.T.);
#926=ADVANCED_FACE('',(#86),#38,.T.);
#927=ADVANCED_FACE('',(#87),#39,.T.);
#928=ADVANCED_FACE('',(#88),#40,.T.);
#929=ADVANCED_FACE('',(#89),#41,.T.);
#930=ADVANCED_FACE('',(#90),#42,.T.);
#931=ADVANCED_FACE('',(#91),#43,.T.);
#932=ADVANCED_FACE('',(#92),#44,.T.);
#933=ADVANCED_FACE('',(#93),#45,.T.);
#934=ADVANCED_FACE('',(#94),#46,.T.);
#935=ADVANCED_FACE('',(#95),#47,.T.);
#936=ADVANCED_FACE('',(#96),#48,.T.);
#937=ADVANCED_FACE('',(#97),#49,.T.);
#938=ADVANCED_FACE('',(#98),#50,.T.);
#939=ADVANCED_FACE('',(#99),#51,.T.);
#940=ADVANCED_FACE('',(#100),#52,.T.);
#941=ADVANCED_FACE('',(#101),#53,.T.);
#942=ADVANCED_FACE('',(#102),#909,.T.);
#943=ADVANCED_FACE('',(#103),#54,.T.);
#944=ADVANCED_FACE('',(#104),#910,.T.);
#945=ADVANCED_FACE('',(#105),#55,.T.);
#946=ADVANCED_FACE('',(#106),#15,.T.);
#947=ADVANCED_FACE('',(#107),#56,.T.);
#948=ADVANCED_FACE('',(#108),#16,.T.);
#949=ADVANCED_FACE('',(#109,#21,#22),#57,.T.);
#950=ADVANCED_FACE('',(#110),#17,.T.);
#951=ADVANCED_FACE('',(#111),#58,.T.);
#952=ADVANCED_FACE('',(#112),#18,.T.);
#953=ADVANCED_FACE('',(#113),#59,.F.);
#954=ADVANCED_FACE('',(#114),#911,.F.);
#955=ADVANCED_FACE('',(#115),#60,.F.);
#956=ADVANCED_FACE('',(#116),#912,.F.);
#957=ADVANCED_FACE('',(#117),#61,.T.);
#958=ADVANCED_FACE('',(#118),#62,.T.);
#959=ADVANCED_FACE('',(#119,#23,#24,#25,#26),#63,.F.);
#960=ADVANCED_FACE('',(#120),#64,.T.);
#961=ADVANCED_FACE('',(#121),#65,.T.);
#962=ADVANCED_FACE('',(#122),#66,.T.);
#963=ADVANCED_FACE('',(#123),#67,.T.);
#964=ADVANCED_FACE('',(#124),#68,.T.);
#965=ADVANCED_FACE('',(#125),#69,.T.);
#966=ADVANCED_FACE('',(#126),#70,.T.);
#967=ADVANCED_FACE('',(#127),#71,.T.);
#968=ADVANCED_FACE('',(#128),#72,.T.);
#969=CLOSED_SHELL('',(#913,#914,#915,#916,#917,#918,#919,#920,#921,#922,
#923,#924,#925,#926,#927,#928,#929,#930,#931,#932,#933,#934,#935,#936,#937,
#938,#939,#940,#941,#942,#943,#944,#945,#946,#947,#948,#949,#950,#951,#952,
#953,#954,#955,#956,#957,#958,#959,#960,#961,#962,#963,#964,#965,#966,#967,
#968));
#970=DERIVED_UNIT_ELEMENT(#972,1.);
#971=DERIVED_UNIT_ELEMENT(#1587,-3.);
#972=(
MASS_UNIT()
NAMED_UNIT(*)
SI_UNIT(.KILO.,.GRAM.)
);
#973=DERIVED_UNIT((#970,#971));
#974=MEASURE_REPRESENTATION_ITEM('density measure',
POSITIVE_RATIO_MEASURE(7850.),#973);
#975=PROPERTY_DEFINITION_REPRESENTATION(#980,#977);
#976=PROPERTY_DEFINITION_REPRESENTATION(#981,#978);
#977=REPRESENTATION('material name',(#979),#1584);
#978=REPRESENTATION('density',(#974),#1584);
#979=DESCRIPTIVE_REPRESENTATION_ITEM('Steel','Steel');
#980=PROPERTY_DEFINITION('material property','material name',#1594);
#981=PROPERTY_DEFINITION('material property','density of part',#1594);
#982=AXIS2_PLACEMENT_3D('',#1315,#1055,#1056);
#983=AXIS2_PLACEMENT_3D('',#1316,#1057,#1058);
#984=AXIS2_PLACEMENT_3D('',#1318,#1059,#1060);
#985=AXIS2_PLACEMENT_3D('',#1321,#1062,#1063);
#986=AXIS2_PLACEMENT_3D('',#1322,#1064,#1065);
#987=AXIS2_PLACEMENT_3D('',#1324,#1066,#1067);
#988=AXIS2_PLACEMENT_3D('',#1325,#1068,#1069);
#989=AXIS2_PLACEMENT_3D('',#1327,#1070,#1071);
#990=AXIS2_PLACEMENT_3D('',#1330,#1073,#1074);
#991=AXIS2_PLACEMENT_3D('',#1331,#1075,#1076);
#992=AXIS2_PLACEMENT_3D('',#1333,#1077,#1078);
#993=AXIS2_PLACEMENT_3D('',#1334,#1079,#1080);
#994=AXIS2_PLACEMENT_3D('',#1343,#1085,#1086);
#995=AXIS2_PLACEMENT_3D('',#1352,#1091,#1092);
#996=AXIS2_PLACEMENT_3D('',#1358,#1096,#1097);
#997=AXIS2_PLACEMENT_3D('',#1367,#1102,#1103);
#998=AXIS2_PLACEMENT_3D('',#1373,#1107,#1108);
#999=AXIS2_PLACEMENT_3D('',#1382,#1113,#1114);
#1000=AXIS2_PLACEMENT_3D('',#1388,#1118,#1119);
#1001=AXIS2_PLACEMENT_3D('',#1394,#1123,#1124);
#1002=AXIS2_PLACEMENT_3D('',#1398,#1127,#1128);
#1003=AXIS2_PLACEMENT_3D('',#1407,#1133,#1134);
#1004=AXIS2_PLACEMENT_3D('',#1413,#1138,#1139);
#1005=AXIS2_PLACEMENT_3D('',#1419,#1143,#1144);
#1006=AXIS2_PLACEMENT_3D('',#1423,#1147,#1148);
#1007=AXIS2_PLACEMENT_3D('',#1429,#1152,#1153);
#1008=AXIS2_PLACEMENT_3D('',#1432,#1156,#1157);
#1009=AXIS2_PLACEMENT_3D('',#1438,#1161,#1162);
#1010=AXIS2_PLACEMENT_3D('',#1442,#1165,#1166);
#1011=AXIS2_PLACEMENT_3D('',#1446,#1169,#1170);
#1012=AXIS2_PLACEMENT_3D('',#1448,#1172,#1173);
#1013=AXIS2_PLACEMENT_3D('',#1454,#1177,#1178);
#1014=AXIS2_PLACEMENT_3D('',#1457,#1181,#1182);
#1015=AXIS2_PLACEMENT_3D('',#1463,#1186,#1187);
#1016=AXIS2_PLACEMENT_3D('',#1467,#1190,#1191);
#1017=AXIS2_PLACEMENT_3D('',#1471,#1194,#1195);
#1018=AXIS2_PLACEMENT_3D('',#1473,#1197,#1198);
#1019=AXIS2_PLACEMENT_3D('',#1475,#1199,#1200);
#1020=AXIS2_PLACEMENT_3D('',#1477,#1201,#1202);
#1021=AXIS2_PLACEMENT_3D('',#1479,#1204,#1205);
#1022=AXIS2_PLACEMENT_3D('',#1485,#1209,#1210);
#1023=AXIS2_PLACEMENT_3D('',#1487,#1211,#1212);
#1024=AXIS2_PLACEMENT_3D('',#1489,#1213,#1214);
#1025=AXIS2_PLACEMENT_3D('',#1491,#1216,#1217);
#1026=AXIS2_PLACEMENT_3D('',#1497,#1221,#1222);
#1027=AXIS2_PLACEMENT_3D('',#1499,#1223,#1224);
#1028=AXIS2_PLACEMENT_3D('',#1501,#1226,#1227);
#1029=AXIS2_PLACEMENT_3D('',#1507,#1231,#1232);
#1030=AXIS2_PLACEMENT_3D('',#1508,#1233,#1234);
#1031=AXIS2_PLACEMENT_3D('',#1509,#1235,#1236);
#1032=AXIS2_PLACEMENT_3D('',#1522,#1243,#1244);
#1033=AXIS2_PLACEMENT_3D('',#1526,#1246,#1247);
#1034=AXIS2_PLACEMENT_3D('',#1528,#1249,#1250);
#1035=AXIS2_PLACEMENT_3D('',#1531,#1253,#1254);
#1036=AXIS2_PLACEMENT_3D('',#1533,#1256,#1257);
#1037=AXIS2_PLACEMENT_3D('',#1535,#1259,#1260);
#1038=AXIS2_PLACEMENT_3D('',#1537,#1261,#1262);
#1039=AXIS2_PLACEMENT_3D('',#1538,#1263,#1264);
#1040=AXIS2_PLACEMENT_3D('',#1540,#1266,#1267);
#1041=AXIS2_PLACEMENT_3D('',#1542,#1268,#1269);
#1042=AXIS2_PLACEMENT_3D('',#1543,#1270,#1271);
#1043=AXIS2_PLACEMENT_3D('',#1545,#1273,#1274);
#1044=AXIS2_PLACEMENT_3D('',#1549,#1277,#1278);
#1045=AXIS2_PLACEMENT_3D('',#1553,#1281,#1282);
#1046=AXIS2_PLACEMENT_3D('',#1561,#1288,#1289);
#1047=AXIS2_PLACEMENT_3D('',#1563,#1291,#1292);
#1048=AXIS2_PLACEMENT_3D('',#1567,#1295,#1296);
#1049=AXIS2_PLACEMENT_3D('',#1569,#1298,#1299);
#1050=AXIS2_PLACEMENT_3D('',#1573,#1302,#1303);
#1051=AXIS2_PLACEMENT_3D('',#1577,#1306,#1307);
#1052=AXIS2_PLACEMENT_3D('',#1579,#1309,#1310);
#1053=AXIS2_PLACEMENT_3D('',#1580,#1311,#1312);
#1054=AXIS2_PLACEMENT_3D('',#1581,#1313,#1314);
#1055=DIRECTION('axis',(0.,0.,1.));
#1056=DIRECTION('refdir',(1.,0.,0.));
#1057=DIRECTION('center_axis',(0.,0.,1.));
#1058=DIRECTION('ref_axis',(1.,0.,0.));
#1059=DIRECTION('center_axis',(0.,0.,1.));
#1060=DIRECTION('ref_axis',(1.,0.,0.));
#1061=DIRECTION('',(0.,0.,1.));
#1062=DIRECTION('center_axis',(0.,0.,1.));
#1063=DIRECTION('ref_axis',(1.,0.,0.));
#1064=DIRECTION('center_axis',(0.,0.,-1.));
#1065=DIRECTION('ref_axis',(1.,0.,0.));
#1066=DIRECTION('center_axis',(0.,0.,-1.));
#1067=DIRECTION('ref_axis',(-1.,0.,0.));
#1068=DIRECTION('center_axis',(0.,0.,1.));
#1069=DIRECTION('ref_axis',(1.,0.,0.));
#1070=DIRECTION('center_axis',(0.,0.,1.));
#1071=DIRECTION('ref_axis',(1.,0.,0.));
#1072=DIRECTION('',(0.,0.,1.));
#1073=DIRECTION('center_axis',(0.,0.,1.));
#1074=DIRECTION('ref_axis',(1.,0.,0.));
#1075=DIRECTION('center_axis',(0.,0.,-1.));
#1076=DIRECTION('ref_axis',(1.,0.,0.));
#1077=DIRECTION('center_axis',(0.,0.,-1.));
#1078=DIRECTION('ref_axis',(-1.,0.,0.));
#1079=DIRECTION('center_axis',(0.,1.,0.));
#1080=DIRECTION('ref_axis',(-1.,0.,0.));
#1081=DIRECTION('',(0.,0.,1.));
#1082=DIRECTION('',(-1.,0.,0.));
#1083=DIRECTION('',(0.,0.,1.));
#1084=DIRECTION('',(-1.,0.,0.));
#1085=DIRECTION('center_axis',(0.,1.,0.));
#1086=DIRECTION('ref_axis',(1.,0.,0.));
#1087=DIRECTION('',(-1.,0.,0.));
#1088=DIRECTION('',(0.,0.,-1.));
#1089=DIRECTION('',(1.,0.,0.));
#1090=DIRECTION('',(0.,0.,-1.));
#1091=DIRECTION('center_axis',(-1.,0.,0.));
#1092=DIRECTION('ref_axis',(0.,1.,0.));
#1093=DIRECTION('',(0.,-1.,0.));
#1094=DIRECTION('',(0.,0.,-1.));
#1095=DIRECTION('',(0.,1.,0.));
#1096=DIRECTION('center_axis',(-1.,0.,0.));
#1097=DIRECTION('ref_axis',(0.,1.,0.));
#1098=DIRECTION('',(0.,-1.,0.));
#1099=DIRECTION('',(0.,0.,-1.));
#1100=DIRECTION('',(0.,1.,0.));
#1101=DIRECTION('',(0.,0.,-1.));
#1102=DIRECTION('center_axis',(0.,-1.,0.));
#1103=DIRECTION('ref_axis',(-1.,0.,0.));
#1104=DIRECTION('',(1.,0.,0.));
#1105=DIRECTION('',(0.,0.,-1.));
#1106=DIRECTION('',(-1.,0.,0.));
#1107=DIRECTION('center_axis',(0.,1.,0.));
#1108=DIRECTION('ref_axis',(1.,0.,0.));
#1109=DIRECTION('',(0.,0.,1.));
#1110=DIRECTION('',(1.,0.,0.));
#1111=DIRECTION('',(0.,0.,-1.));
#1112=DIRECTION('',(-1.,0.,0.));
#1113=DIRECTION('center_axis',(1.,0.,0.));
#1114=DIRECTION('ref_axis',(0.,-1.,0.));
#1115=DIRECTION('',(0.,1.,0.));
#1116=DIRECTION('',(0.,-1.,0.));
#1117=DIRECTION('',(0.,0.,-1.));
#1118=DIRECTION('center_axis',(0.,0.707106781186549,0.707106781186546));
#1119=DIRECTION('ref_axis',(1.,0.,0.));
#1120=DIRECTION('',(0.,-0.707106781186546,0.707106781186549));
#1121=DIRECTION('',(0.577350269189625,0.577350269189625,-0.577350269189628));
#1122=DIRECTION('',(1.,0.,0.));
#1123=DIRECTION('center_axis',(0.707106781186548,0.,0.707106781186548));
#1124=DIRECTION('ref_axis',(0.707106781186548,0.,-0.707106781186548));
#1125=DIRECTION('',(0.,-1.,0.));
#1126=DIRECTION('',(-0.577350269189632,0.577350269189622,0.577350269189624));
#1127=DIRECTION('center_axis',(0.,1.,0.));
#1128=DIRECTION('ref_axis',(1.,0.,0.));
#1129=DIRECTION('',(0.,0.,1.));
#1130=DIRECTION('',(1.,0.,0.));
#1131=DIRECTION('',(0.,0.,-1.));
#1132=DIRECTION('',(-1.,0.,0.));
#1133=DIRECTION('center_axis',(1.,0.,0.));
#1134=DIRECTION('ref_axis',(0.,-1.,0.));
#1135=DIRECTION('',(0.,1.,0.));
#1136=DIRECTION('',(0.,-1.,0.));
#1137=DIRECTION('',(0.,0.,-1.));
#1138=DIRECTION('center_axis',(0.707106781186549,0.,0.707106781186546));
#1139=DIRECTION('ref_axis',(0.707106781186546,0.,-0.707106781186549));
#1140=DIRECTION('',(0.,-1.,0.));
#1141=DIRECTION('',(-0.577350269189625,-0.577350269189625,0.577350269189628));
#1142=DIRECTION('',(-0.577350269189624,0.577350269189627,0.577350269189627));
#1143=DIRECTION('center_axis',(0.,0.707106781186549,0.707106781186546));
#1144=DIRECTION('ref_axis',(1.,0.,0.));
#1145=DIRECTION('',(0.,-0.707106781186546,0.707106781186549));
#1146=DIRECTION('',(1.,0.,0.));
#1147=DIRECTION('center_axis',(0.,1.,0.));
#1148=DIRECTION('ref_axis',(1.,0.,0.));
#1149=DIRECTION('',(-1.,0.,0.));
#1150=DIRECTION('',(1.,0.,0.));
#1151=DIRECTION('',(0.,0.,-1.));
#1152=DIRECTION('center_axis',(1.,0.,0.));
#1153=DIRECTION('ref_axis',(0.,-1.,0.));
#1154=DIRECTION('',(0.,1.,0.));
#1155=DIRECTION('',(0.,-1.,0.));
#1156=DIRECTION('center_axis',(0.,-0.707106781186549,0.707106781186546));
#1157=DIRECTION('ref_axis',(1.,0.,0.));
#1158=DIRECTION('',(-1.,0.,0.));
#1159=DIRECTION('',(-0.577350269189623,0.577350269189628,0.577350269189626));
#1160=DIRECTION('',(0.577350269189625,0.577350269189625,0.577350269189628));
#1161=DIRECTION('center_axis',(0.707106781186549,0.,0.707106781186546));
#1162=DIRECTION('ref_axis',(0.707106781186546,0.,-0.707106781186549));
#1163=DIRECTION('',(0.,-1.,0.));
#1164=DIRECTION('',(-0.577350269189625,-0.577350269189625,0.577350269189628));
#1165=DIRECTION('center_axis',(-0.707106781186549,0.,0.707106781186546));
#1166=DIRECTION('ref_axis',(0.707106781186546,0.,0.707106781186549));
#1167=DIRECTION('',(-0.577350269189625,0.577350269189625,-0.577350269189628));
#1168=DIRECTION('',(0.,1.,0.));
#1169=DIRECTION('center_axis',(0.,0.707106781186549,0.707106781186546));
#1170=DIRECTION('ref_axis',(1.,0.,0.));
#1171=DIRECTION('',(1.,0.,0.));
#1172=DIRECTION('center_axis',(1.,0.,0.));
#1173=DIRECTION('ref_axis',(0.,-1.,0.));
#1174=DIRECTION('',(0.,1.,0.));
#1175=DIRECTION('',(0.,-1.,0.));
#1176=DIRECTION('',(0.,0.,-1.));
#1177=DIRECTION('center_axis',(0.,-1.,0.));
#1178=DIRECTION('ref_axis',(-1.,0.,0.));
#1179=DIRECTION('',(1.,0.,0.));
#1180=DIRECTION('',(-1.,0.,0.));
#1181=DIRECTION('center_axis',(-0.707106781186549,0.,0.707106781186546));
#1182=DIRECTION('ref_axis',(0.707106781186546,0.,0.707106781186549));
#1183=DIRECTION('',(0.,1.,0.));
#1184=DIRECTION('',(0.577350269189625,0.577350269189625,0.577350269189628));
#1185=DIRECTION('',(0.577350269189625,-0.577350269189625,0.577350269189628));
#1186=DIRECTION('center_axis',(0.,-0.707106781186549,0.707106781186546));
#1187=DIRECTION('ref_axis',(1.,0.,0.));
#1188=DIRECTION('',(-1.,0.,0.));
#1189=DIRECTION('',(-0.577350269189625,0.577350269189625,0.577350269189628));
#1190=DIRECTION('center_axis',(0.,0.707106781186549,0.707106781186546));
#1191=DIRECTION('ref_axis',(1.,0.,0.));
#1192=DIRECTION('',(0.577350269189625,0.577350269189625,-0.577350269189628));
#1193=DIRECTION('',(1.,0.,0.));
#1194=DIRECTION('center_axis',(0.707106781186549,0.,0.707106781186546));
#1195=DIRECTION('ref_axis',(0.707106781186546,0.,-0.707106781186549));
#1196=DIRECTION('',(0.,-1.,0.));
#1197=DIRECTION('center_axis',(0.,0.,1.));
#1198=DIRECTION('ref_axis',(-3.55271367880049E-15,1.,0.));
#1199=DIRECTION('center_axis',(0.,0.,1.));
#1200=DIRECTION('ref_axis',(-3.55271367880049E-15,1.,0.));
#1201=DIRECTION('center_axis',(0.,0.,1.));
#1202=DIRECTION('ref_axis',(-3.55271367880049E-15,1.,0.));
#1203=DIRECTION('',(0.,0.,1.));
#1204=DIRECTION('center_axis',(-1.,0.,0.));
#1205=DIRECTION('ref_axis',(0.,-1.,0.));
#1206=DIRECTION('',(0.,-1.,0.));
#1207=DIRECTION('',(0.,-1.,0.));
#1208=DIRECTION('',(0.,0.,1.));
#1209=DIRECTION('center_axis',(0.,0.,1.));
#1210=DIRECTION('ref_axis',(-1.,0.,0.));
#1211=DIRECTION('center_axis',(0.,0.,1.));
#1212=DIRECTION('ref_axis',(-1.,0.,0.));
#1213=DIRECTION('center_axis',(0.,0.,1.));
#1214=DIRECTION('ref_axis',(-1.,0.,0.));
#1215=DIRECTION('',(0.,0.,1.));
#1216=DIRECTION('center_axis',(-0.707106781186543,0.,0.707106781186552));
#1217=DIRECTION('ref_axis',(0.707106781186552,0.,0.707106781186543));
#1218=DIRECTION('',(0.,-1.,0.));
#1219=DIRECTION('',(0.707106781186555,-6.28036983473508E-15,0.70710678118654));
#1220=DIRECTION('',(-0.707106781186555,0.,-0.70710678118654));
#1221=DIRECTION('center_axis',(0.,0.,-1.));
#1222=DIRECTION('ref_axis',(-1.,0.,0.));
#1223=DIRECTION('center_axis',(0.,-1.88688819053354E-15,1.));
#1224=DIRECTION('ref_axis',(-1.,0.,0.));
#1225=DIRECTION('',(0.,-0.707106781186546,-0.707106781186549));
#1226=DIRECTION('center_axis',(0.,0.707106781186549,0.707106781186546));
#1227=DIRECTION('ref_axis',(1.,0.,0.));
#1228=DIRECTION('',(0.,-0.707106781186546,0.707106781186549));
#1229=DIRECTION('',(0.,0.707106781186549,-0.707106781186546));
#1230=DIRECTION('',(-1.,0.,0.));
#1231=DIRECTION('center_axis',(0.,0.,-1.));
#1232=DIRECTION('ref_axis',(-3.55271367880049E-15,1.,0.));
#1233=DIRECTION('center_axis',(9.43444095266771E-16,7.12069408714986E-30,
1.));
#1234=DIRECTION('ref_axis',(-7.54755276213414E-15,1.,0.));
#1235=DIRECTION('center_axis',(0.,0.,1.));
#1236=DIRECTION('ref_axis',(1.,0.,0.));
#1237=DIRECTION('',(0.,-1.,0.));
#1238=DIRECTION('',(-1.,0.,0.));
#1239=DIRECTION('',(0.,-1.,0.));
#1240=DIRECTION('',(-1.,0.,0.));
#1241=DIRECTION('',(0.,-1.,0.));
#1242=DIRECTION('',(1.,0.,0.));
#1243=DIRECTION('center_axis',(0.,0.,-1.));
#1244=DIRECTION('ref_axis',(-3.55271367880049E-15,1.,0.));
#1245=DIRECTION('',(0.,1.,0.));
#1246=DIRECTION('center_axis',(0.,0.,-1.));
#1247=DIRECTION('ref_axis',(-1.,0.,0.));
#1248=DIRECTION('',(-1.,0.,0.));
#1249=DIRECTION('center_axis',(2.51214793389408E-14,0.,-1.));
#1250=DIRECTION('ref_axis',(-5.99255714701489E-15,1.,0.));
#1251=DIRECTION('',(0.,0.923879532511289,-0.382683432365085));
#1252=DIRECTION('',(-0.92387953251129,4.80678696975718E-15,-0.382683432365083));
#1253=DIRECTION('center_axis',(-0.382683432365085,0.,0.923879532511289));
#1254=DIRECTION('ref_axis',(0.923879532511289,0.,0.382683432365085));
#1255=DIRECTION('',(-0.923879532511285,0.,-0.382683432365095));
#1256=DIRECTION('center_axis',(0.,0.,-1.));
#1257=DIRECTION('ref_axis',(-1.,0.,0.));
#1258=DIRECTION('',(0.,-0.923879532511286,-0.382683432365092));
#1259=DIRECTION('center_axis',(0.,0.,1.));
#1260=DIRECTION('ref_axis',(-1.,0.,0.));
#1261=DIRECTION('center_axis',(0.,0.,1.));
#1262=DIRECTION('ref_axis',(-1.,0.,0.));
#1263=DIRECTION('center_axis',(0.,0.,1.));
#1264=DIRECTION('ref_axis',(-1.,0.,0.));
#1265=DIRECTION('',(0.,0.,1.));
#1266=DIRECTION('center_axis',(0.,0.,1.));
#1267=DIRECTION('ref_axis',(-1.,0.,0.));
#1268=DIRECTION('center_axis',(0.,0.,1.));
#1269=DIRECTION('ref_axis',(-1.,0.,0.));
#1270=DIRECTION('center_axis',(0.,0.,1.));
#1271=DIRECTION('ref_axis',(-1.,0.,0.));
#1272=DIRECTION('',(0.,0.,1.));
#1273=DIRECTION('center_axis',(0.,-0.707106781186548,0.707106781186548));
#1274=DIRECTION('ref_axis',(1.,0.,0.));
#1275=DIRECTION('',(0.,-0.707106781186548,-0.707106781186548));
#1276=DIRECTION('',(1.,0.,0.));
#1277=DIRECTION('center_axis',(0.,-1.,0.));
#1278=DIRECTION('ref_axis',(-1.,0.,0.));
#1279=DIRECTION('',(0.,0.,-1.));
#1280=DIRECTION('',(-1.,0.,0.));
#1281=DIRECTION('center_axis',(0.,0.,1.));
#1282=DIRECTION('ref_axis',(1.,0.,0.));
#1283=DIRECTION('',(0.,1.,0.));
#1284=DIRECTION('',(1.,0.,0.));
#1285=DIRECTION('',(0.,1.,0.));
#1286=DIRECTION('',(-1.,0.,0.));
#1287=DIRECTION('',(0.,1.,0.));
#1288=DIRECTION('center_axis',(0.,0.382683432365092,0.923879532511286));
#1289=DIRECTION('ref_axis',(1.,0.,0.));
#1290=DIRECTION('',(0.,-0.923879532511286,0.382683432365092));
#1291=DIRECTION('center_axis',(0.,-0.707106781186549,0.707106781186546));
#1292=DIRECTION('ref_axis',(1.,0.,0.));
#1293=DIRECTION('',(0.,-0.707106781186546,-0.707106781186549));
#1294=DIRECTION('',(1.,0.,0.));
#1295=DIRECTION('center_axis',(0.,-1.,0.));
#1296=DIRECTION('ref_axis',(-1.,0.,0.));
#1297=DIRECTION('',(0.,0.,-1.));
#1298=DIRECTION('center_axis',(0.,-0.382683432365092,0.923879532511286));
#1299=DIRECTION('ref_axis',(1.,0.,0.));
#1300=DIRECTION('',(0.,-0.923879532511286,-0.382683432365092));
#1301=DIRECTION('',(1.,0.,0.));
#1302=DIRECTION('center_axis',(0.,-0.707106781186549,0.707106781186546));
#1303=DIRECTION('ref_axis',(1.,0.,0.));
#1304=DIRECTION('',(0.,-0.707106781186546,-0.707106781186549));
#1305=DIRECTION('',(1.,0.,0.));
#1306=DIRECTION('center_axis',(0.,-1.,0.));
#1307=DIRECTION('ref_axis',(1.,0.,0.));
#1308=DIRECTION('',(0.,0.,-1.));
#1309=DIRECTION('center_axis',(1.,0.,0.));
#1310=DIRECTION('ref_axis',(0.,0.,-1.));
#1311=DIRECTION('center_axis',(1.,0.,0.));
#1312=DIRECTION('ref_axis',(0.,0.,-1.));
#1313=DIRECTION('center_axis',(1.,0.,0.));
#1314=DIRECTION('ref_axis',(0.,0.,-1.));
#1315=CARTESIAN_POINT('',(0.,0.,0.));
#1316=CARTESIAN_POINT('Origin',(-86.,-67.602784893407,20.));
#1317=CARTESIAN_POINT('',(-89.05,-67.602784893407,20.));
#1318=CARTESIAN_POINT('Origin',(-86.,-67.602784893407,20.));
#1319=CARTESIAN_POINT('',(-89.05,-67.602784893407,23.));
#1320=CARTESIAN_POINT('',(-89.05,-67.602784893407,20.));
#1321=CARTESIAN_POINT('Origin',(-86.,-67.602784893407,23.));
#1322=CARTESIAN_POINT('Origin',(-86.,-67.602784893407,23.));
#1323=CARTESIAN_POINT('',(-84.25,-67.602784893407,23.));
#1324=CARTESIAN_POINT('Origin',(-86.,-67.602784893407,23.));
#1325=CARTESIAN_POINT('Origin',(-86.,69.3972151065931,20.));
#1326=CARTESIAN_POINT('',(-89.05,69.3972151065931,20.));
#1327=CARTESIAN_POINT('Origin',(-86.,69.3972151065931,20.));
#1328=CARTESIAN_POINT('',(-89.05,69.3972151065931,23.));
#1329=CARTESIAN_POINT('',(-89.05,69.3972151065931,20.));
#1330=CARTESIAN_POINT('Origin',(-86.,69.3972151065931,23.));
#1331=CARTESIAN_POINT('Origin',(-86.,69.3972151065931,23.));
#1332=CARTESIAN_POINT('',(-84.25,69.3972151065931,23.));
#1333=CARTESIAN_POINT('Origin',(-86.,69.3972151065931,23.));
#1334=CARTESIAN_POINT('Origin',(160.,75.,2.));
#1335=CARTESIAN_POINT('',(0.,75.,20.));
#1336=CARTESIAN_POINT('',(0.,75.,25.));
#1337=CARTESIAN_POINT('',(0.,75.,12.5));
#1338=CARTESIAN_POINT('',(-160.,75.,20.));
#1339=CARTESIAN_POINT('',(80.,75.,20.));
#1340=CARTESIAN_POINT('',(-160.,75.,25.));
#1341=CARTESIAN_POINT('',(-160.,75.,2.));
#1342=CARTESIAN_POINT('',(80.,75.,25.));
#1343=CARTESIAN_POINT('Origin',(-119.5,42.,26.));
#1344=CARTESIAN_POINT('',(-42.,42.,25.));
#1345=CARTESIAN_POINT('',(-119.5,42.,25.));
#1346=CARTESIAN_POINT('',(-59.75,42.,25.));
#1347=CARTESIAN_POINT('',(-42.,42.,20.));
#1348=CARTESIAN_POINT('',(-42.,42.,26.));
#1349=CARTESIAN_POINT('',(-119.5,42.,20.));
#1350=CARTESIAN_POINT('',(-153.,42.,20.));
#1351=CARTESIAN_POINT('',(-119.5,42.,26.));
#1352=CARTESIAN_POINT('Origin',(-42.,42.,26.));
#1353=CARTESIAN_POINT('',(-42.,62.,25.));
#1354=CARTESIAN_POINT('',(-42.,21.5,25.));
#1355=CARTESIAN_POINT('',(-42.,62.,20.));
#1356=CARTESIAN_POINT('',(-42.,62.,26.));
#1357=CARTESIAN_POINT('',(-42.,40.,20.));
#1358=CARTESIAN_POINT('Origin',(-132.5,42.,26.));
#1359=CARTESIAN_POINT('',(-132.5,62.,25.));
#1360=CARTESIAN_POINT('',(-132.5,42.,25.));
#1361=CARTESIAN_POINT('',(-132.5,21.5,25.));
#1362=CARTESIAN_POINT('',(-132.5,62.,20.));
#1363=CARTESIAN_POINT('',(-132.5,62.,26.));
#1364=CARTESIAN_POINT('',(-132.5,42.,20.));
#1365=CARTESIAN_POINT('',(-132.5,40.,20.));
#1366=CARTESIAN_POINT('',(-132.5,42.,26.));
#1367=CARTESIAN_POINT('Origin',(-132.5,62.,26.));
#1368=CARTESIAN_POINT('',(-153.,62.,25.));
#1369=CARTESIAN_POINT('',(-66.25,62.,25.));
#1370=CARTESIAN_POINT('',(-153.,62.,20.));
#1371=CARTESIAN_POINT('',(-153.,62.,26.));
#1372=CARTESIAN_POINT('',(158.,62.,20.));
#1373=CARTESIAN_POINT('Origin',(-33.5,42.,26.));
#1374=CARTESIAN_POINT('',(0.,42.,20.));
#1375=CARTESIAN_POINT('',(0.,42.,25.));
#1376=CARTESIAN_POINT('',(0.,42.,24.5));
#1377=CARTESIAN_POINT('',(-33.5,42.,20.));
#1378=CARTESIAN_POINT('',(-153.,42.,20.));
#1379=CARTESIAN_POINT('',(-33.5,42.,25.));
#1380=CARTESIAN_POINT('',(-33.5,42.,26.));
#1381=CARTESIAN_POINT('',(-16.75,42.,25.));
#1382=CARTESIAN_POINT('Origin',(-33.5,62.,26.));
#1383=CARTESIAN_POINT('',(-33.5,62.,25.));
#1384=CARTESIAN_POINT('',(-33.5,31.5,25.));
#1385=CARTESIAN_POINT('',(-33.5,62.,20.));
#1386=CARTESIAN_POINT('',(-33.5,65.,20.));
#1387=CARTESIAN_POINT('',(-33.5,62.,26.));
#1388=CARTESIAN_POINT('Origin',(-16.75,41.5,25.5));
#1389=CARTESIAN_POINT('',(0.,41.,26.));
#1390=CARTESIAN_POINT('',(0.,32.0000000000001,35.));
#1391=CARTESIAN_POINT('',(-34.5,41.,26.));
#1392=CARTESIAN_POINT('',(-34.5,41.,26.));
#1393=CARTESIAN_POINT('',(-16.75,41.,26.));
#1394=CARTESIAN_POINT('Origin',(-34.,31.5,25.5));
#1395=CARTESIAN_POINT('',(-34.5,63.,26.));
#1396=CARTESIAN_POINT('',(-34.5,31.5,26.));
#1397=CARTESIAN_POINT('',(-33.5,62.,25.));
#1398=CARTESIAN_POINT('Origin',(-153.,-58.,26.));
#1399=CARTESIAN_POINT('',(0.,-58.,20.));
#1400=CARTESIAN_POINT('',(0.,-58.,25.));
#1401=CARTESIAN_POINT('',(0.,-58.,24.5));
#1402=CARTESIAN_POINT('',(-153.,-58.,20.));
#1403=CARTESIAN_POINT('',(-158.,-58.,20.));
#1404=CARTESIAN_POINT('',(-153.,-58.,25.));
#1405=CARTESIAN_POINT('',(-153.,-58.,26.));
#1406=CARTESIAN_POINT('',(-76.5,-58.,25.));
#1407=CARTESIAN_POINT('Origin',(-153.,38.,26.));
#1408=CARTESIAN_POINT('',(-153.,38.,25.));
#1409=CARTESIAN_POINT('',(-153.,19.5,25.));
#1410=CARTESIAN_POINT('',(-153.,38.,20.));
#1411=CARTESIAN_POINT('',(-153.,-61.,20.));
#1412=CARTESIAN_POINT('',(-153.,38.,26.));
#1413=CARTESIAN_POINT('Origin',(-153.5,19.5,25.5));
#1414=CARTESIAN_POINT('',(-154.,39.,26.));
#1415=CARTESIAN_POINT('',(-154.,-59.,26.));
#1416=CARTESIAN_POINT('',(-154.,19.5,26.));
#1417=CARTESIAN_POINT('',(-153.,-58.,25.));
#1418=CARTESIAN_POINT('',(-153.,38.,25.));
#1419=CARTESIAN_POINT('Origin',(-76.5,-58.5,25.5));
#1420=CARTESIAN_POINT('',(0.,-59.,26.));
#1421=CARTESIAN_POINT('',(0.,-43.0000000000001,9.99999999999999));
#1422=CARTESIAN_POINT('',(-76.5,-59.,26.));
#1423=CARTESIAN_POINT('Origin',(-153.,42.,26.));
#1424=CARTESIAN_POINT('',(-153.,42.,25.));
#1425=CARTESIAN_POINT('',(-76.5,42.,25.));
#1426=CARTESIAN_POINT('',(-153.,42.,20.));
#1427=CARTESIAN_POINT('',(-153.,42.,20.));
#1428=CARTESIAN_POINT('',(-153.,42.,26.));
#1429=CARTESIAN_POINT('Origin',(-153.,62.,26.));
#1430=CARTESIAN_POINT('',(-153.,31.5,25.));
#1431=CARTESIAN_POINT('',(-153.,-61.,20.));
#1432=CARTESIAN_POINT('Origin',(-66.25,62.5,25.5));
#1433=CARTESIAN_POINT('',(-131.5,63.,26.));
#1434=CARTESIAN_POINT('',(-154.,63.,26.));
#1435=CARTESIAN_POINT('',(-66.25,63.,26.));
#1436=CARTESIAN_POINT('',(-153.,62.,25.));
#1437=CARTESIAN_POINT('',(-132.5,62.,25.));
#1438=CARTESIAN_POINT('Origin',(-153.5,31.5,25.5));
#1439=CARTESIAN_POINT('',(-154.,41.,26.));
#1440=CARTESIAN_POINT('',(-154.,31.5,26.));
#1441=CARTESIAN_POINT('',(-153.,42.,25.));
#1442=CARTESIAN_POINT('Origin',(-132.,21.5,25.5));
#1443=CARTESIAN_POINT('',(-131.5,41.,26.));
#1444=CARTESIAN_POINT('',(-131.5,41.,26.));
#1445=CARTESIAN_POINT('',(-131.5,21.5,26.));
#1446=CARTESIAN_POINT('Origin',(-76.5,41.5,25.5));
#1447=CARTESIAN_POINT('',(-76.5,41.,26.));
#1448=CARTESIAN_POINT('Origin',(-119.5,62.,26.));
#1449=CARTESIAN_POINT('',(-119.5,62.,25.));
#1450=CARTESIAN_POINT('',(-119.5,31.5,25.));
#1451=CARTESIAN_POINT('',(-119.5,62.,20.));
#1452=CARTESIAN_POINT('',(-119.5,65.,20.));
#1453=CARTESIAN_POINT('',(-119.5,62.,26.));
#1454=CARTESIAN_POINT('Origin',(-42.,62.,26.));
#1455=CARTESIAN_POINT('',(-21.,62.,25.));
#1456=CARTESIAN_POINT('',(158.,62.,20.));
#1457=CARTESIAN_POINT('Origin',(-41.5,21.5,25.5));
#1458=CARTESIAN_POINT('',(-41.,41.,26.));
#1459=CARTESIAN_POINT('',(-41.,63.,26.));
#1460=CARTESIAN_POINT('',(-41.,21.5,26.));
#1461=CARTESIAN_POINT('',(-42.,62.,25.));
#1462=CARTESIAN_POINT('',(-42.,42.,25.));
#1463=CARTESIAN_POINT('Origin',(-21.,62.5,25.5));
#1464=CARTESIAN_POINT('',(-120.5,63.,26.));
#1465=CARTESIAN_POINT('',(-21.,63.,26.));
#1466=CARTESIAN_POINT('',(-119.5,62.,25.));
#1467=CARTESIAN_POINT('Origin',(-59.75,41.5,25.5));
#1468=CARTESIAN_POINT('',(-120.5,41.,26.));
#1469=CARTESIAN_POINT('',(-120.5,41.,26.));
#1470=CARTESIAN_POINT('',(-59.75,41.,26.));
#1471=CARTESIAN_POINT('Origin',(-120.,31.5,25.5));
#1472=CARTESIAN_POINT('',(-120.5,31.5,26.));
#1473=CARTESIAN_POINT('Origin',(-160.,70.,2.));
#1474=CARTESIAN_POINT('',(-165.,70.,25.));
#1475=CARTESIAN_POINT('Origin',(-160.,70.,25.));
#1476=CARTESIAN_POINT('',(-165.,70.,20.));
#1477=CARTESIAN_POINT('Origin',(-160.,70.,20.));
#1478=CARTESIAN_POINT('',(-165.,70.,27.));
#1479=CARTESIAN_POINT('Origin',(-165.,70.,2.));
#1480=CARTESIAN_POINT('',(-165.,-68.,25.));
#1481=CARTESIAN_POINT('',(-165.,35.5,25.));
#1482=CARTESIAN_POINT('',(-165.,-68.,20.));
#1483=CARTESIAN_POINT('',(-165.,35.5,20.));
#1484=CARTESIAN_POINT('',(-165.,-68.,27.));
#1485=CARTESIAN_POINT('Origin',(-160.,-68.,2.));
#1486=CARTESIAN_POINT('',(-160.,-73.,25.));
#1487=CARTESIAN_POINT('Origin',(-160.,-68.,25.));
#1488=CARTESIAN_POINT('',(-160.,-73.,20.));
#1489=CARTESIAN_POINT('Origin',(-160.,-68.,20.));
#1490=CARTESIAN_POINT('',(-160.,-73.,27.));
#1491=CARTESIAN_POINT('Origin',(-164.5,35.5,25.5));
#1492=CARTESIAN_POINT('',(-164.707106781187,70.,25.2928932188135));
#1493=CARTESIAN_POINT('',(-164.707106781187,-68.,25.2928932188134));
#1494=CARTESIAN_POINT('',(-164.707106781187,18.25,25.2928932188135));
#1495=CARTESIAN_POINT('',(-165.,70.,25.));
#1496=CARTESIAN_POINT('',(-164.,-68.,26.));
#1497=CARTESIAN_POINT('Origin',(-160.,-68.,25.5));
#1498=CARTESIAN_POINT('',(-160.,-72.7071067811866,25.2928932188135));
#1499=CARTESIAN_POINT('Origin',(-160.,-68.,25.2928932188135));
#1500=CARTESIAN_POINT('',(-160.,-72.,26.));
#1501=CARTESIAN_POINT('Origin',(80.,74.5,25.5));
#1502=CARTESIAN_POINT('',(0.,74.7071067811866,25.2928932188135));
#1503=CARTESIAN_POINT('',(0.,56.7500000000001,43.25));
#1504=CARTESIAN_POINT('',(-160.,74.7071067811866,25.2928932188135));
#1505=CARTESIAN_POINT('',(-160.,74.,26.));
#1506=CARTESIAN_POINT('',(40.,74.7071067811866,25.2928932188135));
#1507=CARTESIAN_POINT('Origin',(-160.,70.,25.5));
#1508=CARTESIAN_POINT('Origin',(-160.,70.,25.2928932188135));
#1509=CARTESIAN_POINT('Origin',(0.,0.999999999999996,26.));
#1510=CARTESIAN_POINT('',(0.,-71.,26.));
#1511=CARTESIAN_POINT('',(0.,0.999999999999996,26.));
#1512=CARTESIAN_POINT('',(0.,39.,26.));
#1513=CARTESIAN_POINT('',(76.5,39.,26.));
#1514=CARTESIAN_POINT('',(0.,0.999999999999996,26.));
#1515=CARTESIAN_POINT('',(0.,63.,26.));
#1516=CARTESIAN_POINT('',(21.75,63.,26.));
#1517=CARTESIAN_POINT('',(0.,73.,26.));
#1518=CARTESIAN_POINT('',(0.,0.999999999999996,26.));
#1519=CARTESIAN_POINT('',(-160.,73.,26.));
#1520=CARTESIAN_POINT('',(40.,73.,26.));
#1521=CARTESIAN_POINT('',(-163.,70.,26.));
#1522=CARTESIAN_POINT('Origin',(-160.,70.,26.));
#1523=CARTESIAN_POINT('',(-163.,-68.,26.));
#1524=CARTESIAN_POINT('',(-163.,18.25,26.));
#1525=CARTESIAN_POINT('',(-160.,-71.,26.));
#1526=CARTESIAN_POINT('Origin',(-160.,-68.,26.));
#1527=CARTESIAN_POINT('',(-40.,-71.,26.));
#1528=CARTESIAN_POINT('Origin',(-160.,70.,25.6464466094067));
#1529=CARTESIAN_POINT('',(-160.,73.,26.));
#1530=CARTESIAN_POINT('',(-163.,70.,26.));
#1531=CARTESIAN_POINT('Origin',(-163.853553390593,18.25,25.6464466094067));
#1532=CARTESIAN_POINT('',(-163.,-68.,26.));
#1533=CARTESIAN_POINT('Origin',(-160.,-68.,25.6464466094067));
#1534=CARTESIAN_POINT('',(-160.,-71.,26.));
#1535=CARTESIAN_POINT('Origin',(-86.,-67.602784893407,23.3));
#1536=CARTESIAN_POINT('',(-84.25,-67.602784893407,23.3));
#1537=CARTESIAN_POINT('Origin',(-86.,-67.602784893407,23.3));
#1538=CARTESIAN_POINT('Origin',(-86.,-67.602784893407,0.));
#1539=CARTESIAN_POINT('',(-84.25,-67.602784893407,0.));
#1540=CARTESIAN_POINT('Origin',(-86.,69.3972151065931,23.3));
#1541=CARTESIAN_POINT('',(-84.25,69.3972151065931,23.3));
#1542=CARTESIAN_POINT('Origin',(-86.,69.3972151065931,23.3));
#1543=CARTESIAN_POINT('Origin',(-86.,69.3972151065931,0.));
#1544=CARTESIAN_POINT('',(-84.25,69.3972151065931,0.));
#1545=CARTESIAN_POINT('Origin',(76.5,38.5,25.5));
#1546=CARTESIAN_POINT('',(0.,38.,25.));
#1547=CARTESIAN_POINT('',(0.,28.5,15.5));
#1548=CARTESIAN_POINT('',(76.5,38.,25.));
#1549=CARTESIAN_POINT('Origin',(153.,38.,26.));
#1550=CARTESIAN_POINT('',(0.,38.,20.));
#1551=CARTESIAN_POINT('',(0.,38.,24.5));
#1552=CARTESIAN_POINT('',(153.,38.,20.));
#1553=CARTESIAN_POINT('Origin',(0.,0.999999999999996,20.));
#1554=CARTESIAN_POINT('',(0.,-73.,20.));
#1555=CARTESIAN_POINT('',(0.,0.999999999999996,20.));
#1556=CARTESIAN_POINT('',(-80.,-73.,20.));
#1557=CARTESIAN_POINT('',(0.,62.,20.));
#1558=CARTESIAN_POINT('',(0.,0.999999999999996,20.));
#1559=CARTESIAN_POINT('',(158.,62.,20.));
#1560=CARTESIAN_POINT('',(0.,0.999999999999996,20.));
#1561=CARTESIAN_POINT('Origin',(40.,73.8535533905933,25.6464466094067));
#1562=CARTESIAN_POINT('',(0.,43.2291847198288,38.3314754519512));
#1563=CARTESIAN_POINT('Origin',(21.75,62.5,25.5));
#1564=CARTESIAN_POINT('',(0.,62.,25.));
#1565=CARTESIAN_POINT('',(0.,46.5000000000001,9.49999999999999));
#1566=CARTESIAN_POINT('',(21.75,62.,25.));
#1567=CARTESIAN_POINT('Origin',(43.5,62.,26.));
#1568=CARTESIAN_POINT('',(0.,62.,24.5));
#1569=CARTESIAN_POINT('Origin',(-40.,-71.8535533905933,25.6464466094067));
#1570=CARTESIAN_POINT('',(0.,-72.7071067811866,25.2928932188135));
#1571=CARTESIAN_POINT('',(0.,-41.2291847198288,38.3314754519512));
#1572=CARTESIAN_POINT('',(-40.,-72.7071067811866,25.2928932188135));
#1573=CARTESIAN_POINT('Origin',(-80.,-72.5,25.5));
#1574=CARTESIAN_POINT('',(0.,-73.,25.));
#1575=CARTESIAN_POINT('',(0.,-54.7500000000001,43.25));
#1576=CARTESIAN_POINT('',(-80.,-73.,25.));
#1577=CARTESIAN_POINT('Origin',(-160.,-73.,2.));
#1578=CARTESIAN_POINT('',(0.,-73.,12.5));
#1579=CARTESIAN_POINT('Origin',(0.,0.999999999999996,23.));
#1580=CARTESIAN_POINT('Origin',(0.,0.999999999999996,23.));
#1581=CARTESIAN_POINT('Origin',(0.,0.999999999999996,23.));
#1582=UNCERTAINTY_MEASURE_WITH_UNIT(LENGTH_MEASURE(0.01),#1586,
'DISTANCE_ACCURACY_VALUE',
'Maximum model space distance between geometric entities at asserted c
onnectivities');
#1583=UNCERTAINTY_MEASURE_WITH_UNIT(LENGTH_MEASURE(0.01),#1586,
'DISTANCE_ACCURACY_VALUE',
'Maximum model space distance between geometric entities at asserted c
onnectivities');
#1584=(
GEOMETRIC_REPRESENTATION_CONTEXT(3)
GLOBAL_UNCERTAINTY_ASSIGNED_CONTEXT((#1582))
GLOBAL_UNIT_ASSIGNED_CONTEXT((#1586,#1588,#1589))
REPRESENTATION_CONTEXT('','3D')
);
#1585=(
GEOMETRIC_REPRESENTATION_CONTEXT(3)
GLOBAL_UNCERTAINTY_ASSIGNED_CONTEXT((#1583))
GLOBAL_UNIT_ASSIGNED_CONTEXT((#1586,#1588,#1589))
REPRESENTATION_CONTEXT('','3D')
);
#1586=(
LENGTH_UNIT()
NAMED_UNIT(*)
SI_UNIT(.MILLI.,.METRE.)
);
#1587=(
LENGTH_UNIT()
NAMED_UNIT(*)
SI_UNIT($,.METRE.)
);
#1588=(
NAMED_UNIT(*)
PLANE_ANGLE_UNIT()
SI_UNIT($,.RADIAN.)
);
#1589=(
NAMED_UNIT(*)
SI_UNIT($,.STERADIAN.)
SOLID_ANGLE_UNIT()
);
#1590=SHAPE_DEFINITION_REPRESENTATION(#1591,#1592);
#1591=PRODUCT_DEFINITION_SHAPE('',$,#1594);
#1592=SHAPE_REPRESENTATION('',(#982),#1584);
#1593=PRODUCT_DEFINITION_CONTEXT('part definition',#1598,'design');
#1594=PRODUCT_DEFINITION('2026-05-12-09-43-54-783','Case',#1595,#1593);
#1595=PRODUCT_DEFINITION_FORMATION('',$,#1600);
#1596=PRODUCT_RELATED_PRODUCT_CATEGORY('Case','Case',(#1600));
#1597=APPLICATION_PROTOCOL_DEFINITION('international standard',
'automotive_design',2009,#1598);
#1598=APPLICATION_CONTEXT(
'Core Data for Automotive Mechanical Design Process');
#1599=PRODUCT_CONTEXT('part definition',#1598,'mechanical');
#1600=PRODUCT('2026-05-12-09-43-54-783','Case',$,(#1599));
#1601=PRESENTATION_STYLE_ASSIGNMENT((#1602));
#1602=SURFACE_STYLE_USAGE(.BOTH.,#1603);
#1603=SURFACE_SIDE_STYLE('',(#1604));
#1604=SURFACE_STYLE_FILL_AREA(#1605);
#1605=FILL_AREA_STYLE('Steel - Satin',(#1606));
#1606=FILL_AREA_STYLE_COLOUR('Steel - Satin',#1607);
#1607=COLOUR_RGB('Steel - Satin',0.627450980392157,0.627450980392157,0.627450980392157);
ENDSEC;
END-ISO-10303-21;
