ISO-10303-21;
HEADER;
/* Generated by software containing ST-Developer
 * from STEP Tools, Inc. (www.steptools.com) 
 */

FILE_DESCRIPTION(
/* description */ (''),
/* implementation_level */ '2;1');

FILE_NAME(
/* name */ 'TopR.step',
/* time_stamp */ '2026-08-06T18:09:17-07:00',
/* author */ (''),
/* organization */ (''),
/* preprocessor_version */ 'ST-DEVELOPER v20.1',
/* originating_system */ 'Autodesk Translation Framework v15.8.0.0',
/* authorisation */ '');

FILE_SCHEMA (('AUTOMOTIVE_DESIGN { 1 0 10303 214 3 1 1 }'));
ENDSEC;

DATA;
#10=MECHANICAL_DESIGN_GEOMETRIC_PRESENTATION_REPRESENTATION('',(#13),#1417);
#11=SHAPE_REPRESENTATION_RELATIONSHIP('SRR','None',#1424,#12);
#12=ADVANCED_BREP_SHAPE_REPRESENTATION('',(#14),#1416);
#13=STYLED_ITEM('',(#1433),#14);
#14=MANIFOLD_SOLID_BREP('top right',#858);
#15=CONICAL_SURFACE('',#903,3.85355339059328,1.17809724509617);
#16=CONICAL_SURFACE('',#906,3.8535533905933,1.17809724509618);
#17=CONICAL_SURFACE('',#908,4.5,0.785398163397451);
#18=CONICAL_SURFACE('',#911,4.50000000000002,0.785398163397451);
#19=CONICAL_SURFACE('',#915,4.75000000000001,0.785398163397446);
#20=FACE_BOUND('',#118,.T.);
#21=FACE_BOUND('',#121,.T.);
#22=FACE_BOUND('',#132,.T.);
#23=FACE_BOUND('',#133,.T.);
#24=FACE_BOUND('',#169,.T.);
#25=FACE_BOUND('',#170,.T.);
#26=FACE_BOUND('',#171,.T.);
#27=FACE_BOUND('',#172,.T.);
#28=PLANE('',#875);
#29=PLANE('',#880);
#30=PLANE('',#882);
#31=PLANE('',#883);
#32=PLANE('',#884);
#33=PLANE('',#885);
#34=PLANE('',#886);
#35=PLANE('',#887);
#36=PLANE('',#888);
#37=PLANE('',#889);
#38=PLANE('',#890);
#39=PLANE('',#891);
#40=PLANE('',#897);
#41=PLANE('',#900);
#42=PLANE('',#901);
#43=PLANE('',#902);
#44=PLANE('',#905);
#45=PLANE('',#910);
#46=PLANE('',#913);
#47=PLANE('',#914);
#48=PLANE('',#919);
#49=PLANE('',#920);
#50=PLANE('',#921);
#51=PLANE('',#922);
#52=PLANE('',#923);
#53=PLANE('',#924);
#54=PLANE('',#925);
#55=PLANE('',#926);
#56=PLANE('',#927);
#57=PLANE('',#928);
#58=PLANE('',#929);
#59=PLANE('',#930);
#60=PLANE('',#931);
#61=PLANE('',#932);
#62=PLANE('',#933);
#63=PLANE('',#934);
#64=PLANE('',#935);
#65=PLANE('',#938);
#66=FACE_OUTER_BOUND('',#116,.T.);
#67=FACE_OUTER_BOUND('',#117,.T.);
#68=FACE_OUTER_BOUND('',#119,.T.);
#69=FACE_OUTER_BOUND('',#120,.T.);
#70=FACE_OUTER_BOUND('',#122,.T.);
#71=FACE_OUTER_BOUND('',#123,.T.);
#72=FACE_OUTER_BOUND('',#124,.T.);
#73=FACE_OUTER_BOUND('',#125,.T.);
#74=FACE_OUTER_BOUND('',#126,.T.);
#75=FACE_OUTER_BOUND('',#127,.T.);
#76=FACE_OUTER_BOUND('',#128,.T.);
#77=FACE_OUTER_BOUND('',#129,.T.);
#78=FACE_OUTER_BOUND('',#130,.T.);
#79=FACE_OUTER_BOUND('',#131,.T.);
#80=FACE_OUTER_BOUND('',#134,.T.);
#81=FACE_OUTER_BOUND('',#135,.T.);
#82=FACE_OUTER_BOUND('',#136,.T.);
#83=FACE_OUTER_BOUND('',#137,.T.);
#84=FACE_OUTER_BOUND('',#138,.T.);
#85=FACE_OUTER_BOUND('',#139,.T.);
#86=FACE_OUTER_BOUND('',#140,.T.);
#87=FACE_OUTER_BOUND('',#141,.T.);
#88=FACE_OUTER_BOUND('',#142,.T.);
#89=FACE_OUTER_BOUND('',#143,.T.);
#90=FACE_OUTER_BOUND('',#144,.T.);
#91=FACE_OUTER_BOUND('',#145,.T.);
#92=FACE_OUTER_BOUND('',#146,.T.);
#93=FACE_OUTER_BOUND('',#147,.T.);
#94=FACE_OUTER_BOUND('',#148,.T.);
#95=FACE_OUTER_BOUND('',#149,.T.);
#96=FACE_OUTER_BOUND('',#150,.T.);
#97=FACE_OUTER_BOUND('',#151,.T.);
#98=FACE_OUTER_BOUND('',#152,.T.);
#99=FACE_OUTER_BOUND('',#153,.T.);
#100=FACE_OUTER_BOUND('',#154,.T.);
#101=FACE_OUTER_BOUND('',#155,.T.);
#102=FACE_OUTER_BOUND('',#156,.T.);
#103=FACE_OUTER_BOUND('',#157,.T.);
#104=FACE_OUTER_BOUND('',#158,.T.);
#105=FACE_OUTER_BOUND('',#159,.T.);
#106=FACE_OUTER_BOUND('',#160,.T.);
#107=FACE_OUTER_BOUND('',#161,.T.);
#108=FACE_OUTER_BOUND('',#162,.T.);
#109=FACE_OUTER_BOUND('',#163,.T.);
#110=FACE_OUTER_BOUND('',#164,.T.);
#111=FACE_OUTER_BOUND('',#165,.T.);
#112=FACE_OUTER_BOUND('',#166,.T.);
#113=FACE_OUTER_BOUND('',#167,.T.);
#114=FACE_OUTER_BOUND('',#168,.T.);
#115=FACE_OUTER_BOUND('',#173,.T.);
#116=EDGE_LOOP('',(#571,#572,#573,#574));
#117=EDGE_LOOP('',(#575));
#118=EDGE_LOOP('',(#576));
#119=EDGE_LOOP('',(#577,#578,#579,#580));
#120=EDGE_LOOP('',(#581));
#121=EDGE_LOOP('',(#582));
#122=EDGE_LOOP('',(#583,#584,#585,#586,#587,#588,#589));
#123=EDGE_LOOP('',(#590,#591,#592,#593,#594,#595,#596));
#124=EDGE_LOOP('',(#597,#598,#599,#600,#601,#602));
#125=EDGE_LOOP('',(#603,#604,#605,#606));
#126=EDGE_LOOP('',(#607,#608,#609,#610));
#127=EDGE_LOOP('',(#611,#612,#613,#614));
#128=EDGE_LOOP('',(#615,#616,#617,#618));
#129=EDGE_LOOP('',(#619,#620,#621,#622));
#130=EDGE_LOOP('',(#623,#624,#625,#626));
#131=EDGE_LOOP('',(#627,#628,#629,#630,#631,#632,#633,#634,#635,#636,#637,
#638,#639,#640));
#132=EDGE_LOOP('',(#641));
#133=EDGE_LOOP('',(#642,#643,#644,#645));
#134=EDGE_LOOP('',(#646,#647,#648,#649));
#135=EDGE_LOOP('',(#650));
#136=EDGE_LOOP('',(#651,#652,#653,#654));
#137=EDGE_LOOP('',(#655));
#138=EDGE_LOOP('',(#656,#657,#658,#659));
#139=EDGE_LOOP('',(#660,#661,#662,#663));
#140=EDGE_LOOP('',(#664,#665,#666,#667));
#141=EDGE_LOOP('',(#668,#669,#670,#671));
#142=EDGE_LOOP('',(#672,#673,#674,#675));
#143=EDGE_LOOP('',(#676,#677,#678,#679));
#144=EDGE_LOOP('',(#680,#681,#682,#683));
#145=EDGE_LOOP('',(#684,#685,#686,#687));
#146=EDGE_LOOP('',(#688,#689,#690,#691));
#147=EDGE_LOOP('',(#692,#693,#694,#695));
#148=EDGE_LOOP('',(#696,#697,#698,#699));
#149=EDGE_LOOP('',(#700,#701,#702,#703));
#150=EDGE_LOOP('',(#704,#705,#706,#707));
#151=EDGE_LOOP('',(#708,#709,#710,#711));
#152=EDGE_LOOP('',(#712,#713,#714,#715));
#153=EDGE_LOOP('',(#716,#717,#718,#719));
#154=EDGE_LOOP('',(#720,#721,#722,#723));
#155=EDGE_LOOP('',(#724,#725,#726,#727));
#156=EDGE_LOOP('',(#728,#729,#730,#731));
#157=EDGE_LOOP('',(#732,#733,#734,#735));
#158=EDGE_LOOP('',(#736,#737,#738,#739));
#159=EDGE_LOOP('',(#740,#741,#742,#743));
#160=EDGE_LOOP('',(#744,#745,#746,#747));
#161=EDGE_LOOP('',(#748,#749,#750,#751));
#162=EDGE_LOOP('',(#752,#753,#754,#755));
#163=EDGE_LOOP('',(#756,#757,#758,#759));
#164=EDGE_LOOP('',(#760,#761,#762,#763));
#165=EDGE_LOOP('',(#764,#765,#766,#767));
#166=EDGE_LOOP('',(#768,#769,#770,#771));
#167=EDGE_LOOP('',(#772,#773,#774,#775));
#168=EDGE_LOOP('',(#776,#777,#778,#779,#780,#781,#782,#783,#784,#785,#786,
#787,#788,#789));
#169=EDGE_LOOP('',(#790));
#170=EDGE_LOOP('',(#791));
#171=EDGE_LOOP('',(#792));
#172=EDGE_LOOP('',(#793,#794,#795,#796));
#173=EDGE_LOOP('',(#797,#798,#799,#800));
#174=LINE('',#1182,#270);
#175=LINE('',#1191,#271);
#176=LINE('',#1199,#272);
#177=LINE('',#1201,#273);
#178=LINE('',#1203,#274);
#179=LINE('',#1205,#275);
#180=LINE('',#1207,#276);
#181=LINE('',#1209,#277);
#182=LINE('',#1210,#278);
#183=LINE('',#1214,#279);
#184=LINE('',#1216,#280);
#185=LINE('',#1218,#281);
#186=LINE('',#1220,#282);
#187=LINE('',#1222,#283);
#188=LINE('',#1224,#284);
#189=LINE('',#1225,#285);
#190=LINE('',#1229,#286);
#191=LINE('',#1231,#287);
#192=LINE('',#1233,#288);
#193=LINE('',#1235,#289);
#194=LINE('',#1237,#290);
#195=LINE('',#1238,#291);
#196=LINE('',#1241,#292);
#197=LINE('',#1243,#293);
#198=LINE('',#1244,#294);
#199=LINE('',#1247,#295);
#200=LINE('',#1248,#296);
#201=LINE('',#1251,#297);
#202=LINE('',#1253,#298);
#203=LINE('',#1254,#299);
#204=LINE('',#1257,#300);
#205=LINE('',#1258,#301);
#206=LINE('',#1261,#302);
#207=LINE('',#1263,#303);
#208=LINE('',#1264,#304);
#209=LINE('',#1267,#305);
#210=LINE('',#1268,#306);
#211=LINE('',#1271,#307);
#212=LINE('',#1275,#308);
#213=LINE('',#1278,#309);
#214=LINE('',#1280,#310);
#215=LINE('',#1281,#311);
#216=LINE('',#1283,#312);
#217=LINE('',#1284,#313);
#218=LINE('',#1289,#314);
#219=LINE('',#1291,#315);
#220=LINE('',#1293,#316);
#221=LINE('',#1294,#317);
#222=LINE('',#1297,#318);
#223=LINE('',#1302,#319);
#224=LINE('',#1307,#320);
#225=LINE('',#1308,#321);
#226=LINE('',#1310,#322);
#227=LINE('',#1313,#323);
#228=LINE('',#1317,#324);
#229=LINE('',#1318,#325);
#230=LINE('',#1323,#326);
#231=LINE('',#1327,#327);
#232=LINE('',#1328,#328);
#233=LINE('',#1331,#329);
#234=LINE('',#1334,#330);
#235=LINE('',#1337,#331);
#236=LINE('',#1338,#332);
#237=LINE('',#1341,#333);
#238=LINE('',#1346,#334);
#239=LINE('',#1349,#335);
#240=LINE('',#1350,#336);
#241=LINE('',#1352,#337);
#242=LINE('',#1355,#338);
#243=LINE('',#1357,#339);
#244=LINE('',#1358,#340);
#245=LINE('',#1361,#341);
#246=LINE('',#1362,#342);
#247=LINE('',#1365,#343);
#248=LINE('',#1366,#344);
#249=LINE('',#1368,#345);
#250=LINE('',#1371,#346);
#251=LINE('',#1373,#347);
#252=LINE('',#1374,#348);
#253=LINE('',#1377,#349);
#254=LINE('',#1378,#350);
#255=LINE('',#1381,#351);
#256=LINE('',#1382,#352);
#257=LINE('',#1384,#353);
#258=LINE('',#1387,#354);
#259=LINE('',#1388,#355);
#260=LINE('',#1390,#356);
#261=LINE('',#1393,#357);
#262=LINE('',#1394,#358);
#263=LINE('',#1396,#359);
#264=LINE('',#1399,#360);
#265=LINE('',#1400,#361);
#266=LINE('',#1402,#362);
#267=LINE('',#1405,#363);
#268=LINE('',#1407,#364);
#269=LINE('',#1408,#365);
#270=VECTOR('',#947,3.05);
#271=VECTOR('',#958,3.05);
#272=VECTOR('',#967,10.);
#273=VECTOR('',#968,10.);
#274=VECTOR('',#969,10.);
#275=VECTOR('',#970,10.);
#276=VECTOR('',#971,10.);
#277=VECTOR('',#972,10.);
#278=VECTOR('',#973,10.);
#279=VECTOR('',#976,10.);
#280=VECTOR('',#977,10.);
#281=VECTOR('',#978,10.);
#282=VECTOR('',#979,10.);
#283=VECTOR('',#980,10.);
#284=VECTOR('',#981,10.);
#285=VECTOR('',#982,10.);
#286=VECTOR('',#985,10.);
#287=VECTOR('',#986,10.);
#288=VECTOR('',#987,10.);
#289=VECTOR('',#988,10.);
#290=VECTOR('',#989,10.);
#291=VECTOR('',#990,10.);
#292=VECTOR('',#993,10.);
#293=VECTOR('',#994,10.);
#294=VECTOR('',#995,10.);
#295=VECTOR('',#998,10.);
#296=VECTOR('',#999,10.);
#297=VECTOR('',#1002,10.);
#298=VECTOR('',#1003,10.);
#299=VECTOR('',#1004,10.);
#300=VECTOR('',#1007,10.);
#301=VECTOR('',#1008,10.);
#302=VECTOR('',#1011,10.);
#303=VECTOR('',#1012,10.);
#304=VECTOR('',#1013,10.);
#305=VECTOR('',#1016,10.);
#306=VECTOR('',#1017,10.);
#307=VECTOR('',#1020,10.);
#308=VECTOR('',#1023,10.);
#309=VECTOR('',#1026,10.);
#310=VECTOR('',#1027,10.);
#311=VECTOR('',#1028,10.);
#312=VECTOR('',#1029,10.);
#313=VECTOR('',#1030,10.);
#314=VECTOR('',#1033,10.);
#315=VECTOR('',#1034,10.);
#316=VECTOR('',#1035,10.);
#317=VECTOR('',#1036,10.);
#318=VECTOR('',#1039,1.75000000000001);
#319=VECTOR('',#1046,1.75000000000001);
#320=VECTOR('',#1053,10.);
#321=VECTOR('',#1054,10.);
#322=VECTOR('',#1057,10.);
#323=VECTOR('',#1060,10.);
#324=VECTOR('',#1065,10.);
#325=VECTOR('',#1066,10.);
#326=VECTOR('',#1073,10.);
#327=VECTOR('',#1078,10.);
#328=VECTOR('',#1079,10.);
#329=VECTOR('',#1082,10.);
#330=VECTOR('',#1087,10.);
#331=VECTOR('',#1090,10.);
#332=VECTOR('',#1091,10.);
#333=VECTOR('',#1094,4.75000000000001);
#334=VECTOR('',#1101,4.25000000000001);
#335=VECTOR('',#1104,10.);
#336=VECTOR('',#1105,10.);
#337=VECTOR('',#1108,10.);
#338=VECTOR('',#1111,10.);
#339=VECTOR('',#1112,10.);
#340=VECTOR('',#1113,10.);
#341=VECTOR('',#1116,10.);
#342=VECTOR('',#1117,10.);
#343=VECTOR('',#1120,10.);
#344=VECTOR('',#1121,10.);
#345=VECTOR('',#1124,10.);
#346=VECTOR('',#1127,10.);
#347=VECTOR('',#1128,10.);
#348=VECTOR('',#1129,10.);
#349=VECTOR('',#1132,10.);
#350=VECTOR('',#1133,10.);
#351=VECTOR('',#1136,10.);
#352=VECTOR('',#1137,10.);
#353=VECTOR('',#1140,10.);
#354=VECTOR('',#1143,10.);
#355=VECTOR('',#1144,10.);
#356=VECTOR('',#1147,10.);
#357=VECTOR('',#1150,10.);
#358=VECTOR('',#1151,10.);
#359=VECTOR('',#1154,10.);
#360=VECTOR('',#1157,10.);
#361=VECTOR('',#1158,10.);
#362=VECTOR('',#1161,10.);
#363=VECTOR('',#1164,10.);
#364=VECTOR('',#1165,10.);
#365=VECTOR('',#1166,10.);
#366=CIRCLE('',#873,3.05);
#367=CIRCLE('',#874,3.05);
#368=CIRCLE('',#876,1.75000000000001);
#369=CIRCLE('',#878,3.05);
#370=CIRCLE('',#879,3.05);
#371=CIRCLE('',#881,1.75000000000001);
#372=CIRCLE('',#892,3.00000000000002);
#373=CIRCLE('',#893,3.);
#374=CIRCLE('',#894,5.25);
#375=CIRCLE('',#896,1.75000000000001);
#376=CIRCLE('',#899,1.75000000000001);
#377=CIRCLE('',#904,4.70710678118657);
#378=CIRCLE('',#907,4.70710678118658);
#379=CIRCLE('',#909,5.);
#380=CIRCLE('',#912,5.00000000000002);
#381=CIRCLE('',#916,4.25000000000001);
#382=CIRCLE('',#918,4.25000000000001);
#383=CIRCLE('',#937,5.00000000000002);
#384=CIRCLE('',#939,5.);
#385=VERTEX_POINT('',#1179);
#386=VERTEX_POINT('',#1181);
#387=VERTEX_POINT('',#1185);
#388=VERTEX_POINT('',#1188);
#389=VERTEX_POINT('',#1190);
#390=VERTEX_POINT('',#1194);
#391=VERTEX_POINT('',#1197);
#392=VERTEX_POINT('',#1198);
#393=VERTEX_POINT('',#1200);
#394=VERTEX_POINT('',#1202);
#395=VERTEX_POINT('',#1204);
#396=VERTEX_POINT('',#1206);
#397=VERTEX_POINT('',#1208);
#398=VERTEX_POINT('',#1212);
#399=VERTEX_POINT('',#1213);
#400=VERTEX_POINT('',#1215);
#401=VERTEX_POINT('',#1217);
#402=VERTEX_POINT('',#1219);
#403=VERTEX_POINT('',#1221);
#404=VERTEX_POINT('',#1223);
#405=VERTEX_POINT('',#1227);
#406=VERTEX_POINT('',#1228);
#407=VERTEX_POINT('',#1230);
#408=VERTEX_POINT('',#1232);
#409=VERTEX_POINT('',#1234);
#410=VERTEX_POINT('',#1236);
#411=VERTEX_POINT('',#1240);
#412=VERTEX_POINT('',#1242);
#413=VERTEX_POINT('',#1246);
#414=VERTEX_POINT('',#1250);
#415=VERTEX_POINT('',#1252);
#416=VERTEX_POINT('',#1256);
#417=VERTEX_POINT('',#1260);
#418=VERTEX_POINT('',#1262);
#419=VERTEX_POINT('',#1266);
#420=VERTEX_POINT('',#1270);
#421=VERTEX_POINT('',#1272);
#422=VERTEX_POINT('',#1274);
#423=VERTEX_POINT('',#1276);
#424=VERTEX_POINT('',#1279);
#425=VERTEX_POINT('',#1282);
#426=VERTEX_POINT('',#1285);
#427=VERTEX_POINT('',#1287);
#428=VERTEX_POINT('',#1288);
#429=VERTEX_POINT('',#1290);
#430=VERTEX_POINT('',#1292);
#431=VERTEX_POINT('',#1296);
#432=VERTEX_POINT('',#1301);
#433=VERTEX_POINT('',#1306);
#434=VERTEX_POINT('',#1312);
#435=VERTEX_POINT('',#1316);
#436=VERTEX_POINT('',#1322);
#437=VERTEX_POINT('',#1326);
#438=VERTEX_POINT('',#1330);
#439=VERTEX_POINT('',#1336);
#440=VERTEX_POINT('',#1340);
#441=VERTEX_POINT('',#1344);
#442=VERTEX_POINT('',#1348);
#443=VERTEX_POINT('',#1354);
#444=VERTEX_POINT('',#1356);
#445=VERTEX_POINT('',#1360);
#446=VERTEX_POINT('',#1364);
#447=VERTEX_POINT('',#1370);
#448=VERTEX_POINT('',#1372);
#449=VERTEX_POINT('',#1376);
#450=VERTEX_POINT('',#1380);
#451=VERTEX_POINT('',#1386);
#452=VERTEX_POINT('',#1392);
#453=VERTEX_POINT('',#1398);
#454=VERTEX_POINT('',#1404);
#455=VERTEX_POINT('',#1406);
#456=EDGE_CURVE('',#385,#385,#366,.T.);
#457=EDGE_CURVE('',#385,#386,#174,.T.);
#458=EDGE_CURVE('',#386,#386,#367,.T.);
#459=EDGE_CURVE('',#387,#387,#368,.T.);
#460=EDGE_CURVE('',#388,#388,#369,.T.);
#461=EDGE_CURVE('',#388,#389,#175,.T.);
#462=EDGE_CURVE('',#389,#389,#370,.T.);
#463=EDGE_CURVE('',#390,#390,#371,.T.);
#464=EDGE_CURVE('',#391,#392,#176,.T.);
#465=EDGE_CURVE('',#393,#391,#177,.T.);
#466=EDGE_CURVE('',#394,#393,#178,.T.);
#467=EDGE_CURVE('',#395,#394,#179,.T.);
#468=EDGE_CURVE('',#396,#395,#180,.T.);
#469=EDGE_CURVE('',#397,#396,#181,.T.);
#470=EDGE_CURVE('',#392,#397,#182,.T.);
#471=EDGE_CURVE('',#398,#399,#183,.T.);
#472=EDGE_CURVE('',#400,#398,#184,.T.);
#473=EDGE_CURVE('',#401,#400,#185,.T.);
#474=EDGE_CURVE('',#402,#401,#186,.T.);
#475=EDGE_CURVE('',#403,#402,#187,.T.);
#476=EDGE_CURVE('',#404,#403,#188,.T.);
#477=EDGE_CURVE('',#399,#404,#189,.T.);
#478=EDGE_CURVE('',#405,#406,#190,.T.);
#479=EDGE_CURVE('',#407,#405,#191,.T.);
#480=EDGE_CURVE('',#408,#407,#192,.T.);
#481=EDGE_CURVE('',#409,#408,#193,.T.);
#482=EDGE_CURVE('',#410,#409,#194,.T.);
#483=EDGE_CURVE('',#406,#410,#195,.T.);
#484=EDGE_CURVE('',#411,#394,#196,.T.);
#485=EDGE_CURVE('',#411,#412,#197,.T.);
#486=EDGE_CURVE('',#395,#412,#198,.T.);
#487=EDGE_CURVE('',#393,#413,#199,.T.);
#488=EDGE_CURVE('',#413,#411,#200,.T.);
#489=EDGE_CURVE('',#414,#400,#201,.T.);
#490=EDGE_CURVE('',#415,#414,#202,.T.);
#491=EDGE_CURVE('',#415,#401,#203,.T.);
#492=EDGE_CURVE('',#416,#398,#204,.T.);
#493=EDGE_CURVE('',#416,#414,#205,.T.);
#494=EDGE_CURVE('',#417,#407,#206,.T.);
#495=EDGE_CURVE('',#417,#418,#207,.T.);
#496=EDGE_CURVE('',#408,#418,#208,.T.);
#497=EDGE_CURVE('',#405,#419,#209,.T.);
#498=EDGE_CURVE('',#417,#419,#210,.T.);
#499=EDGE_CURVE('',#420,#391,#211,.T.);
#500=EDGE_CURVE('',#421,#420,#372,.T.);
#501=EDGE_CURVE('',#422,#421,#212,.T.);
#502=EDGE_CURVE('',#423,#422,#373,.T.);
#503=EDGE_CURVE('',#399,#423,#213,.T.);
#504=EDGE_CURVE('',#424,#404,#214,.T.);
#505=EDGE_CURVE('',#419,#424,#215,.T.);
#506=EDGE_CURVE('',#425,#406,#216,.T.);
#507=EDGE_CURVE('',#413,#425,#217,.T.);
#508=EDGE_CURVE('',#426,#426,#374,.T.);
#509=EDGE_CURVE('',#427,#428,#218,.T.);
#510=EDGE_CURVE('',#429,#427,#219,.T.);
#511=EDGE_CURVE('',#430,#429,#220,.T.);
#512=EDGE_CURVE('',#428,#430,#221,.T.);
#513=EDGE_CURVE('',#390,#431,#222,.T.);
#514=EDGE_CURVE('',#431,#431,#375,.T.);
#515=EDGE_CURVE('',#387,#432,#223,.T.);
#516=EDGE_CURVE('',#432,#432,#376,.T.);
#517=EDGE_CURVE('',#392,#433,#224,.T.);
#518=EDGE_CURVE('',#433,#420,#225,.T.);
#519=EDGE_CURVE('',#423,#416,#226,.T.);
#520=EDGE_CURVE('',#422,#434,#227,.T.);
#521=EDGE_CURVE('',#434,#416,#377,.T.);
#522=EDGE_CURVE('',#421,#435,#228,.T.);
#523=EDGE_CURVE('',#435,#434,#229,.T.);
#524=EDGE_CURVE('',#433,#435,#378,.T.);
#525=EDGE_CURVE('',#434,#436,#230,.T.);
#526=EDGE_CURVE('',#436,#414,#379,.T.);
#527=EDGE_CURVE('',#435,#437,#231,.T.);
#528=EDGE_CURVE('',#437,#436,#232,.T.);
#529=EDGE_CURVE('',#433,#438,#233,.T.);
#530=EDGE_CURVE('',#438,#437,#380,.T.);
#531=EDGE_CURVE('',#397,#438,#234,.T.);
#532=EDGE_CURVE('',#396,#439,#235,.T.);
#533=EDGE_CURVE('',#439,#438,#236,.T.);
#534=EDGE_CURVE('',#426,#440,#237,.T.);
#535=EDGE_CURVE('',#440,#440,#381,.T.);
#536=EDGE_CURVE('',#441,#441,#382,.T.);
#537=EDGE_CURVE('',#441,#440,#238,.T.);
#538=EDGE_CURVE('',#442,#411,#239,.T.);
#539=EDGE_CURVE('',#442,#425,#240,.T.);
#540=EDGE_CURVE('',#410,#442,#241,.T.);
#541=EDGE_CURVE('',#428,#443,#242,.T.);
#542=EDGE_CURVE('',#443,#444,#243,.T.);
#543=EDGE_CURVE('',#444,#427,#244,.T.);
#544=EDGE_CURVE('',#445,#443,#245,.T.);
#545=EDGE_CURVE('',#445,#430,#246,.T.);
#546=EDGE_CURVE('',#444,#446,#247,.T.);
#547=EDGE_CURVE('',#446,#429,#248,.T.);
#548=EDGE_CURVE('',#446,#445,#249,.T.);
#549=EDGE_CURVE('',#444,#447,#250,.T.);
#550=EDGE_CURVE('',#448,#447,#251,.T.);
#551=EDGE_CURVE('',#446,#448,#252,.T.);
#552=EDGE_CURVE('',#443,#449,#253,.T.);
#553=EDGE_CURVE('',#447,#449,#254,.T.);
#554=EDGE_CURVE('',#403,#450,#255,.T.);
#555=EDGE_CURVE('',#450,#424,#256,.T.);
#556=EDGE_CURVE('',#450,#417,#257,.T.);
#557=EDGE_CURVE('',#451,#402,#258,.T.);
#558=EDGE_CURVE('',#450,#451,#259,.T.);
#559=EDGE_CURVE('',#418,#451,#260,.T.);
#560=EDGE_CURVE('',#452,#448,#261,.T.);
#561=EDGE_CURVE('',#445,#452,#262,.T.);
#562=EDGE_CURVE('',#449,#452,#263,.T.);
#563=EDGE_CURVE('',#453,#409,#264,.T.);
#564=EDGE_CURVE('',#442,#453,#265,.T.);
#565=EDGE_CURVE('',#412,#453,#266,.T.);
#566=EDGE_CURVE('',#454,#437,#267,.T.);
#567=EDGE_CURVE('',#454,#455,#268,.T.);
#568=EDGE_CURVE('',#455,#436,#269,.T.);
#569=EDGE_CURVE('',#439,#454,#383,.T.);
#570=EDGE_CURVE('',#455,#415,#384,.T.);
#571=ORIENTED_EDGE('',*,*,#456,.F.);
#572=ORIENTED_EDGE('',*,*,#457,.T.);
#573=ORIENTED_EDGE('',*,*,#458,.T.);
#574=ORIENTED_EDGE('',*,*,#457,.F.);
#575=ORIENTED_EDGE('',*,*,#458,.F.);
#576=ORIENTED_EDGE('',*,*,#459,.F.);
#577=ORIENTED_EDGE('',*,*,#460,.F.);
#578=ORIENTED_EDGE('',*,*,#461,.T.);
#579=ORIENTED_EDGE('',*,*,#462,.T.);
#580=ORIENTED_EDGE('',*,*,#461,.F.);
#581=ORIENTED_EDGE('',*,*,#462,.F.);
#582=ORIENTED_EDGE('',*,*,#463,.F.);
#583=ORIENTED_EDGE('',*,*,#464,.F.);
#584=ORIENTED_EDGE('',*,*,#465,.F.);
#585=ORIENTED_EDGE('',*,*,#466,.F.);
#586=ORIENTED_EDGE('',*,*,#467,.F.);
#587=ORIENTED_EDGE('',*,*,#468,.F.);
#588=ORIENTED_EDGE('',*,*,#469,.F.);
#589=ORIENTED_EDGE('',*,*,#470,.F.);
#590=ORIENTED_EDGE('',*,*,#471,.F.);
#591=ORIENTED_EDGE('',*,*,#472,.F.);
#592=ORIENTED_EDGE('',*,*,#473,.F.);
#593=ORIENTED_EDGE('',*,*,#474,.F.);
#594=ORIENTED_EDGE('',*,*,#475,.F.);
#595=ORIENTED_EDGE('',*,*,#476,.F.);
#596=ORIENTED_EDGE('',*,*,#477,.F.);
#597=ORIENTED_EDGE('',*,*,#478,.F.);
#598=ORIENTED_EDGE('',*,*,#479,.F.);
#599=ORIENTED_EDGE('',*,*,#480,.F.);
#600=ORIENTED_EDGE('',*,*,#481,.F.);
#601=ORIENTED_EDGE('',*,*,#482,.F.);
#602=ORIENTED_EDGE('',*,*,#483,.F.);
#603=ORIENTED_EDGE('',*,*,#467,.T.);
#604=ORIENTED_EDGE('',*,*,#484,.F.);
#605=ORIENTED_EDGE('',*,*,#485,.T.);
#606=ORIENTED_EDGE('',*,*,#486,.F.);
#607=ORIENTED_EDGE('',*,*,#466,.T.);
#608=ORIENTED_EDGE('',*,*,#487,.T.);
#609=ORIENTED_EDGE('',*,*,#488,.T.);
#610=ORIENTED_EDGE('',*,*,#484,.T.);
#611=ORIENTED_EDGE('',*,*,#473,.T.);
#612=ORIENTED_EDGE('',*,*,#489,.F.);
#613=ORIENTED_EDGE('',*,*,#490,.F.);
#614=ORIENTED_EDGE('',*,*,#491,.T.);
#615=ORIENTED_EDGE('',*,*,#472,.T.);
#616=ORIENTED_EDGE('',*,*,#492,.F.);
#617=ORIENTED_EDGE('',*,*,#493,.T.);
#618=ORIENTED_EDGE('',*,*,#489,.T.);
#619=ORIENTED_EDGE('',*,*,#480,.T.);
#620=ORIENTED_EDGE('',*,*,#494,.F.);
#621=ORIENTED_EDGE('',*,*,#495,.T.);
#622=ORIENTED_EDGE('',*,*,#496,.F.);
#623=ORIENTED_EDGE('',*,*,#479,.T.);
#624=ORIENTED_EDGE('',*,*,#497,.T.);
#625=ORIENTED_EDGE('',*,*,#498,.F.);
#626=ORIENTED_EDGE('',*,*,#494,.T.);
#627=ORIENTED_EDGE('',*,*,#465,.T.);
#628=ORIENTED_EDGE('',*,*,#499,.F.);
#629=ORIENTED_EDGE('',*,*,#500,.F.);
#630=ORIENTED_EDGE('',*,*,#501,.F.);
#631=ORIENTED_EDGE('',*,*,#502,.F.);
#632=ORIENTED_EDGE('',*,*,#503,.F.);
#633=ORIENTED_EDGE('',*,*,#477,.T.);
#634=ORIENTED_EDGE('',*,*,#504,.F.);
#635=ORIENTED_EDGE('',*,*,#505,.F.);
#636=ORIENTED_EDGE('',*,*,#497,.F.);
#637=ORIENTED_EDGE('',*,*,#478,.T.);
#638=ORIENTED_EDGE('',*,*,#506,.F.);
#639=ORIENTED_EDGE('',*,*,#507,.F.);
#640=ORIENTED_EDGE('',*,*,#487,.F.);
#641=ORIENTED_EDGE('',*,*,#508,.F.);
#642=ORIENTED_EDGE('',*,*,#509,.F.);
#643=ORIENTED_EDGE('',*,*,#510,.F.);
#644=ORIENTED_EDGE('',*,*,#511,.F.);
#645=ORIENTED_EDGE('',*,*,#512,.F.);
#646=ORIENTED_EDGE('',*,*,#463,.T.);
#647=ORIENTED_EDGE('',*,*,#513,.T.);
#648=ORIENTED_EDGE('',*,*,#514,.T.);
#649=ORIENTED_EDGE('',*,*,#513,.F.);
#650=ORIENTED_EDGE('',*,*,#514,.F.);
#651=ORIENTED_EDGE('',*,*,#459,.T.);
#652=ORIENTED_EDGE('',*,*,#515,.T.);
#653=ORIENTED_EDGE('',*,*,#516,.T.);
#654=ORIENTED_EDGE('',*,*,#515,.F.);
#655=ORIENTED_EDGE('',*,*,#516,.F.);
#656=ORIENTED_EDGE('',*,*,#464,.T.);
#657=ORIENTED_EDGE('',*,*,#517,.T.);
#658=ORIENTED_EDGE('',*,*,#518,.T.);
#659=ORIENTED_EDGE('',*,*,#499,.T.);
#660=ORIENTED_EDGE('',*,*,#471,.T.);
#661=ORIENTED_EDGE('',*,*,#503,.T.);
#662=ORIENTED_EDGE('',*,*,#519,.T.);
#663=ORIENTED_EDGE('',*,*,#492,.T.);
#664=ORIENTED_EDGE('',*,*,#520,.T.);
#665=ORIENTED_EDGE('',*,*,#521,.T.);
#666=ORIENTED_EDGE('',*,*,#519,.F.);
#667=ORIENTED_EDGE('',*,*,#502,.T.);
#668=ORIENTED_EDGE('',*,*,#522,.T.);
#669=ORIENTED_EDGE('',*,*,#523,.T.);
#670=ORIENTED_EDGE('',*,*,#520,.F.);
#671=ORIENTED_EDGE('',*,*,#501,.T.);
#672=ORIENTED_EDGE('',*,*,#518,.F.);
#673=ORIENTED_EDGE('',*,*,#524,.T.);
#674=ORIENTED_EDGE('',*,*,#522,.F.);
#675=ORIENTED_EDGE('',*,*,#500,.T.);
#676=ORIENTED_EDGE('',*,*,#521,.F.);
#677=ORIENTED_EDGE('',*,*,#525,.T.);
#678=ORIENTED_EDGE('',*,*,#526,.T.);
#679=ORIENTED_EDGE('',*,*,#493,.F.);
#680=ORIENTED_EDGE('',*,*,#523,.F.);
#681=ORIENTED_EDGE('',*,*,#527,.T.);
#682=ORIENTED_EDGE('',*,*,#528,.T.);
#683=ORIENTED_EDGE('',*,*,#525,.F.);
#684=ORIENTED_EDGE('',*,*,#524,.F.);
#685=ORIENTED_EDGE('',*,*,#529,.T.);
#686=ORIENTED_EDGE('',*,*,#530,.T.);
#687=ORIENTED_EDGE('',*,*,#527,.F.);
#688=ORIENTED_EDGE('',*,*,#470,.T.);
#689=ORIENTED_EDGE('',*,*,#531,.T.);
#690=ORIENTED_EDGE('',*,*,#529,.F.);
#691=ORIENTED_EDGE('',*,*,#517,.F.);
#692=ORIENTED_EDGE('',*,*,#469,.T.);
#693=ORIENTED_EDGE('',*,*,#532,.T.);
#694=ORIENTED_EDGE('',*,*,#533,.T.);
#695=ORIENTED_EDGE('',*,*,#531,.F.);
#696=ORIENTED_EDGE('',*,*,#508,.T.);
#697=ORIENTED_EDGE('',*,*,#534,.T.);
#698=ORIENTED_EDGE('',*,*,#535,.T.);
#699=ORIENTED_EDGE('',*,*,#534,.F.);
#700=ORIENTED_EDGE('',*,*,#536,.F.);
#701=ORIENTED_EDGE('',*,*,#537,.T.);
#702=ORIENTED_EDGE('',*,*,#535,.F.);
#703=ORIENTED_EDGE('',*,*,#537,.F.);
#704=ORIENTED_EDGE('',*,*,#538,.T.);
#705=ORIENTED_EDGE('',*,*,#488,.F.);
#706=ORIENTED_EDGE('',*,*,#507,.T.);
#707=ORIENTED_EDGE('',*,*,#539,.F.);
#708=ORIENTED_EDGE('',*,*,#483,.T.);
#709=ORIENTED_EDGE('',*,*,#540,.T.);
#710=ORIENTED_EDGE('',*,*,#539,.T.);
#711=ORIENTED_EDGE('',*,*,#506,.T.);
#712=ORIENTED_EDGE('',*,*,#509,.T.);
#713=ORIENTED_EDGE('',*,*,#541,.T.);
#714=ORIENTED_EDGE('',*,*,#542,.T.);
#715=ORIENTED_EDGE('',*,*,#543,.T.);
#716=ORIENTED_EDGE('',*,*,#544,.T.);
#717=ORIENTED_EDGE('',*,*,#541,.F.);
#718=ORIENTED_EDGE('',*,*,#512,.T.);
#719=ORIENTED_EDGE('',*,*,#545,.F.);
#720=ORIENTED_EDGE('',*,*,#510,.T.);
#721=ORIENTED_EDGE('',*,*,#543,.F.);
#722=ORIENTED_EDGE('',*,*,#546,.T.);
#723=ORIENTED_EDGE('',*,*,#547,.T.);
#724=ORIENTED_EDGE('',*,*,#511,.T.);
#725=ORIENTED_EDGE('',*,*,#547,.F.);
#726=ORIENTED_EDGE('',*,*,#548,.T.);
#727=ORIENTED_EDGE('',*,*,#545,.T.);
#728=ORIENTED_EDGE('',*,*,#546,.F.);
#729=ORIENTED_EDGE('',*,*,#549,.T.);
#730=ORIENTED_EDGE('',*,*,#550,.F.);
#731=ORIENTED_EDGE('',*,*,#551,.F.);
#732=ORIENTED_EDGE('',*,*,#542,.F.);
#733=ORIENTED_EDGE('',*,*,#552,.T.);
#734=ORIENTED_EDGE('',*,*,#553,.F.);
#735=ORIENTED_EDGE('',*,*,#549,.F.);
#736=ORIENTED_EDGE('',*,*,#476,.T.);
#737=ORIENTED_EDGE('',*,*,#554,.T.);
#738=ORIENTED_EDGE('',*,*,#555,.T.);
#739=ORIENTED_EDGE('',*,*,#504,.T.);
#740=ORIENTED_EDGE('',*,*,#505,.T.);
#741=ORIENTED_EDGE('',*,*,#555,.F.);
#742=ORIENTED_EDGE('',*,*,#556,.T.);
#743=ORIENTED_EDGE('',*,*,#498,.T.);
#744=ORIENTED_EDGE('',*,*,#475,.T.);
#745=ORIENTED_EDGE('',*,*,#557,.F.);
#746=ORIENTED_EDGE('',*,*,#558,.F.);
#747=ORIENTED_EDGE('',*,*,#554,.F.);
#748=ORIENTED_EDGE('',*,*,#556,.F.);
#749=ORIENTED_EDGE('',*,*,#558,.T.);
#750=ORIENTED_EDGE('',*,*,#559,.F.);
#751=ORIENTED_EDGE('',*,*,#495,.F.);
#752=ORIENTED_EDGE('',*,*,#548,.F.);
#753=ORIENTED_EDGE('',*,*,#551,.T.);
#754=ORIENTED_EDGE('',*,*,#560,.F.);
#755=ORIENTED_EDGE('',*,*,#561,.F.);
#756=ORIENTED_EDGE('',*,*,#544,.F.);
#757=ORIENTED_EDGE('',*,*,#561,.T.);
#758=ORIENTED_EDGE('',*,*,#562,.F.);
#759=ORIENTED_EDGE('',*,*,#552,.F.);
#760=ORIENTED_EDGE('',*,*,#482,.T.);
#761=ORIENTED_EDGE('',*,*,#563,.F.);
#762=ORIENTED_EDGE('',*,*,#564,.F.);
#763=ORIENTED_EDGE('',*,*,#540,.F.);
#764=ORIENTED_EDGE('',*,*,#538,.F.);
#765=ORIENTED_EDGE('',*,*,#564,.T.);
#766=ORIENTED_EDGE('',*,*,#565,.F.);
#767=ORIENTED_EDGE('',*,*,#485,.F.);
#768=ORIENTED_EDGE('',*,*,#528,.F.);
#769=ORIENTED_EDGE('',*,*,#566,.F.);
#770=ORIENTED_EDGE('',*,*,#567,.T.);
#771=ORIENTED_EDGE('',*,*,#568,.T.);
#772=ORIENTED_EDGE('',*,*,#530,.F.);
#773=ORIENTED_EDGE('',*,*,#533,.F.);
#774=ORIENTED_EDGE('',*,*,#569,.T.);
#775=ORIENTED_EDGE('',*,*,#566,.T.);
#776=ORIENTED_EDGE('',*,*,#468,.T.);
#777=ORIENTED_EDGE('',*,*,#486,.T.);
#778=ORIENTED_EDGE('',*,*,#565,.T.);
#779=ORIENTED_EDGE('',*,*,#563,.T.);
#780=ORIENTED_EDGE('',*,*,#481,.T.);
#781=ORIENTED_EDGE('',*,*,#496,.T.);
#782=ORIENTED_EDGE('',*,*,#559,.T.);
#783=ORIENTED_EDGE('',*,*,#557,.T.);
#784=ORIENTED_EDGE('',*,*,#474,.T.);
#785=ORIENTED_EDGE('',*,*,#491,.F.);
#786=ORIENTED_EDGE('',*,*,#570,.F.);
#787=ORIENTED_EDGE('',*,*,#567,.F.);
#788=ORIENTED_EDGE('',*,*,#569,.F.);
#789=ORIENTED_EDGE('',*,*,#532,.F.);
#790=ORIENTED_EDGE('',*,*,#456,.T.);
#791=ORIENTED_EDGE('',*,*,#460,.T.);
#792=ORIENTED_EDGE('',*,*,#536,.T.);
#793=ORIENTED_EDGE('',*,*,#553,.T.);
#794=ORIENTED_EDGE('',*,*,#562,.T.);
#795=ORIENTED_EDGE('',*,*,#560,.T.);
#796=ORIENTED_EDGE('',*,*,#550,.T.);
#797=ORIENTED_EDGE('',*,*,#526,.F.);
#798=ORIENTED_EDGE('',*,*,#568,.F.);
#799=ORIENTED_EDGE('',*,*,#570,.T.);
#800=ORIENTED_EDGE('',*,*,#490,.T.);
#801=CYLINDRICAL_SURFACE('',#872,3.05);
#802=CYLINDRICAL_SURFACE('',#877,3.05);
#803=CYLINDRICAL_SURFACE('',#895,1.75000000000001);
#804=CYLINDRICAL_SURFACE('',#898,1.75000000000001);
#805=CYLINDRICAL_SURFACE('',#917,4.25000000000001);
#806=CYLINDRICAL_SURFACE('',#936,5.00000000000002);
#807=CYLINDRICAL_SURFACE('',#940,5.);
#808=ADVANCED_FACE('',(#66),#801,.F.);
#809=ADVANCED_FACE('',(#67,#20),#28,.T.);
#810=ADVANCED_FACE('',(#68),#802,.F.);
#811=ADVANCED_FACE('',(#69,#21),#29,.T.);
#812=ADVANCED_FACE('',(#70),#30,.F.);
#813=ADVANCED_FACE('',(#71),#31,.F.);
#814=ADVANCED_FACE('',(#72),#32,.F.);
#815=ADVANCED_FACE('',(#73),#33,.T.);
#816=ADVANCED_FACE('',(#74),#34,.T.);
#817=ADVANCED_FACE('',(#75),#35,.T.);
#818=ADVANCED_FACE('',(#76),#36,.T.);
#819=ADVANCED_FACE('',(#77),#37,.T.);
#820=ADVANCED_FACE('',(#78),#38,.T.);
#821=ADVANCED_FACE('',(#79,#22,#23),#39,.T.);
#822=ADVANCED_FACE('',(#80),#803,.F.);
#823=ADVANCED_FACE('',(#81),#40,.F.);
#824=ADVANCED_FACE('',(#82),#804,.F.);
#825=ADVANCED_FACE('',(#83),#41,.F.);
#826=ADVANCED_FACE('',(#84),#42,.T.);
#827=ADVANCED_FACE('',(#85),#43,.T.);
#828=ADVANCED_FACE('',(#86),#15,.T.);
#829=ADVANCED_FACE('',(#87),#44,.T.);
#830=ADVANCED_FACE('',(#88),#16,.T.);
#831=ADVANCED_FACE('',(#89),#17,.T.);
#832=ADVANCED_FACE('',(#90),#45,.T.);
#833=ADVANCED_FACE('',(#91),#18,.T.);
#834=ADVANCED_FACE('',(#92),#46,.T.);
#835=ADVANCED_FACE('',(#93),#47,.T.);
#836=ADVANCED_FACE('',(#94),#19,.F.);
#837=ADVANCED_FACE('',(#95),#805,.F.);
#838=ADVANCED_FACE('',(#96),#48,.T.);
#839=ADVANCED_FACE('',(#97),#49,.T.);
#840=ADVANCED_FACE('',(#98),#50,.T.);
#841=ADVANCED_FACE('',(#99),#51,.T.);
#842=ADVANCED_FACE('',(#100),#52,.T.);
#843=ADVANCED_FACE('',(#101),#53,.T.);
#844=ADVANCED_FACE('',(#102),#54,.T.);
#845=ADVANCED_FACE('',(#103),#55,.T.);
#846=ADVANCED_FACE('',(#104),#56,.T.);
#847=ADVANCED_FACE('',(#105),#57,.T.);
#848=ADVANCED_FACE('',(#106),#58,.T.);
#849=ADVANCED_FACE('',(#107),#59,.T.);
#850=ADVANCED_FACE('',(#108),#60,.T.);
#851=ADVANCED_FACE('',(#109),#61,.T.);
#852=ADVANCED_FACE('',(#110),#62,.T.);
#853=ADVANCED_FACE('',(#111),#63,.T.);
#854=ADVANCED_FACE('',(#112),#64,.T.);
#855=ADVANCED_FACE('',(#113),#806,.T.);
#856=ADVANCED_FACE('',(#114,#24,#25,#26,#27),#65,.F.);
#857=ADVANCED_FACE('',(#115),#807,.T.);
#858=CLOSED_SHELL('',(#808,#809,#810,#811,#812,#813,#814,#815,#816,#817,
#818,#819,#820,#821,#822,#823,#824,#825,#826,#827,#828,#829,#830,#831,#832,
#833,#834,#835,#836,#837,#838,#839,#840,#841,#842,#843,#844,#845,#846,#847,
#848,#849,#850,#851,#852,#853,#854,#855,#856,#857));
#859=DERIVED_UNIT_ELEMENT(#861,1.);
#860=DERIVED_UNIT_ELEMENT(#1419,-3.);
#861=(
MASS_UNIT()
NAMED_UNIT(*)
SI_UNIT(.KILO.,.GRAM.)
);
#862=DERIVED_UNIT((#859,#860));
#863=MEASURE_REPRESENTATION_ITEM('density measure',
POSITIVE_RATIO_MEASURE(7850.),#862);
#864=PROPERTY_DEFINITION_REPRESENTATION(#869,#866);
#865=PROPERTY_DEFINITION_REPRESENTATION(#870,#867);
#866=REPRESENTATION('material name',(#868),#1416);
#867=REPRESENTATION('density',(#863),#1416);
#868=DESCRIPTIVE_REPRESENTATION_ITEM('Steel','Steel');
#869=PROPERTY_DEFINITION('material property','material name',#1426);
#870=PROPERTY_DEFINITION('material property','density of part',#1426);
#871=AXIS2_PLACEMENT_3D('',#1177,#941,#942);
#872=AXIS2_PLACEMENT_3D('',#1178,#943,#944);
#873=AXIS2_PLACEMENT_3D('',#1180,#945,#946);
#874=AXIS2_PLACEMENT_3D('',#1183,#948,#949);
#875=AXIS2_PLACEMENT_3D('',#1184,#950,#951);
#876=AXIS2_PLACEMENT_3D('',#1186,#952,#953);
#877=AXIS2_PLACEMENT_3D('',#1187,#954,#955);
#878=AXIS2_PLACEMENT_3D('',#1189,#956,#957);
#879=AXIS2_PLACEMENT_3D('',#1192,#959,#960);
#880=AXIS2_PLACEMENT_3D('',#1193,#961,#962);
#881=AXIS2_PLACEMENT_3D('',#1195,#963,#964);
#882=AXIS2_PLACEMENT_3D('',#1196,#965,#966);
#883=AXIS2_PLACEMENT_3D('',#1211,#974,#975);
#884=AXIS2_PLACEMENT_3D('',#1226,#983,#984);
#885=AXIS2_PLACEMENT_3D('',#1239,#991,#992);
#886=AXIS2_PLACEMENT_3D('',#1245,#996,#997);
#887=AXIS2_PLACEMENT_3D('',#1249,#1000,#1001);
#888=AXIS2_PLACEMENT_3D('',#1255,#1005,#1006);
#889=AXIS2_PLACEMENT_3D('',#1259,#1009,#1010);
#890=AXIS2_PLACEMENT_3D('',#1265,#1014,#1015);
#891=AXIS2_PLACEMENT_3D('',#1269,#1018,#1019);
#892=AXIS2_PLACEMENT_3D('',#1273,#1021,#1022);
#893=AXIS2_PLACEMENT_3D('',#1277,#1024,#1025);
#894=AXIS2_PLACEMENT_3D('',#1286,#1031,#1032);
#895=AXIS2_PLACEMENT_3D('',#1295,#1037,#1038);
#896=AXIS2_PLACEMENT_3D('',#1298,#1040,#1041);
#897=AXIS2_PLACEMENT_3D('',#1299,#1042,#1043);
#898=AXIS2_PLACEMENT_3D('',#1300,#1044,#1045);
#899=AXIS2_PLACEMENT_3D('',#1303,#1047,#1048);
#900=AXIS2_PLACEMENT_3D('',#1304,#1049,#1050);
#901=AXIS2_PLACEMENT_3D('',#1305,#1051,#1052);
#902=AXIS2_PLACEMENT_3D('',#1309,#1055,#1056);
#903=AXIS2_PLACEMENT_3D('',#1311,#1058,#1059);
#904=AXIS2_PLACEMENT_3D('',#1314,#1061,#1062);
#905=AXIS2_PLACEMENT_3D('',#1315,#1063,#1064);
#906=AXIS2_PLACEMENT_3D('',#1319,#1067,#1068);
#907=AXIS2_PLACEMENT_3D('',#1320,#1069,#1070);
#908=AXIS2_PLACEMENT_3D('',#1321,#1071,#1072);
#909=AXIS2_PLACEMENT_3D('',#1324,#1074,#1075);
#910=AXIS2_PLACEMENT_3D('',#1325,#1076,#1077);
#911=AXIS2_PLACEMENT_3D('',#1329,#1080,#1081);
#912=AXIS2_PLACEMENT_3D('',#1332,#1083,#1084);
#913=AXIS2_PLACEMENT_3D('',#1333,#1085,#1086);
#914=AXIS2_PLACEMENT_3D('',#1335,#1088,#1089);
#915=AXIS2_PLACEMENT_3D('',#1339,#1092,#1093);
#916=AXIS2_PLACEMENT_3D('',#1342,#1095,#1096);
#917=AXIS2_PLACEMENT_3D('',#1343,#1097,#1098);
#918=AXIS2_PLACEMENT_3D('',#1345,#1099,#1100);
#919=AXIS2_PLACEMENT_3D('',#1347,#1102,#1103);
#920=AXIS2_PLACEMENT_3D('',#1351,#1106,#1107);
#921=AXIS2_PLACEMENT_3D('',#1353,#1109,#1110);
#922=AXIS2_PLACEMENT_3D('',#1359,#1114,#1115);
#923=AXIS2_PLACEMENT_3D('',#1363,#1118,#1119);
#924=AXIS2_PLACEMENT_3D('',#1367,#1122,#1123);
#925=AXIS2_PLACEMENT_3D('',#1369,#1125,#1126);
#926=AXIS2_PLACEMENT_3D('',#1375,#1130,#1131);
#927=AXIS2_PLACEMENT_3D('',#1379,#1134,#1135);
#928=AXIS2_PLACEMENT_3D('',#1383,#1138,#1139);
#929=AXIS2_PLACEMENT_3D('',#1385,#1141,#1142);
#930=AXIS2_PLACEMENT_3D('',#1389,#1145,#1146);
#931=AXIS2_PLACEMENT_3D('',#1391,#1148,#1149);
#932=AXIS2_PLACEMENT_3D('',#1395,#1152,#1153);
#933=AXIS2_PLACEMENT_3D('',#1397,#1155,#1156);
#934=AXIS2_PLACEMENT_3D('',#1401,#1159,#1160);
#935=AXIS2_PLACEMENT_3D('',#1403,#1162,#1163);
#936=AXIS2_PLACEMENT_3D('',#1409,#1167,#1168);
#937=AXIS2_PLACEMENT_3D('',#1410,#1169,#1170);
#938=AXIS2_PLACEMENT_3D('',#1411,#1171,#1172);
#939=AXIS2_PLACEMENT_3D('',#1412,#1173,#1174);
#940=AXIS2_PLACEMENT_3D('',#1413,#1175,#1176);
#941=DIRECTION('axis',(0.,0.,1.));
#942=DIRECTION('refdir',(1.,0.,0.));
#943=DIRECTION('center_axis',(0.,0.,1.));
#944=DIRECTION('ref_axis',(1.,0.,0.));
#945=DIRECTION('center_axis',(0.,0.,1.));
#946=DIRECTION('ref_axis',(1.,0.,0.));
#947=DIRECTION('',(0.,0.,1.));
#948=DIRECTION('center_axis',(0.,0.,1.));
#949=DIRECTION('ref_axis',(1.,0.,0.));
#950=DIRECTION('center_axis',(0.,0.,-1.));
#951=DIRECTION('ref_axis',(1.,0.,0.));
#952=DIRECTION('center_axis',(0.,0.,-1.));
#953=DIRECTION('ref_axis',(-1.,0.,0.));
#954=DIRECTION('center_axis',(0.,0.,1.));
#955=DIRECTION('ref_axis',(1.,0.,0.));
#956=DIRECTION('center_axis',(0.,0.,1.));
#957=DIRECTION('ref_axis',(1.,0.,0.));
#958=DIRECTION('',(0.,0.,1.));
#959=DIRECTION('center_axis',(0.,0.,1.));
#960=DIRECTION('ref_axis',(1.,0.,0.));
#961=DIRECTION('center_axis',(0.,0.,-1.));
#962=DIRECTION('ref_axis',(1.,0.,0.));
#963=DIRECTION('center_axis',(0.,0.,-1.));
#964=DIRECTION('ref_axis',(-1.,0.,0.));
#965=DIRECTION('center_axis',(1.,0.,0.));
#966=DIRECTION('ref_axis',(0.,0.,-1.));
#967=DIRECTION('',(0.,-0.923879532511286,-0.382683432365092));
#968=DIRECTION('',(0.,-1.,0.));
#969=DIRECTION('',(0.,-0.707106781186546,0.707106781186549));
#970=DIRECTION('',(0.,0.,1.));
#971=DIRECTION('',(0.,1.,0.));
#972=DIRECTION('',(0.,0.,-1.));
#973=DIRECTION('',(0.,-0.707106781186546,-0.707106781186549));
#974=DIRECTION('center_axis',(1.,0.,0.));
#975=DIRECTION('ref_axis',(0.,0.,-1.));
#976=DIRECTION('',(0.,-0.923879532511286,0.382683432365092));
#977=DIRECTION('',(0.,-0.707106781186546,0.707106781186549));
#978=DIRECTION('',(0.,0.,1.));
#979=DIRECTION('',(0.,1.,0.));
#980=DIRECTION('',(0.,0.,-1.));
#981=DIRECTION('',(0.,-0.707106781186546,-0.707106781186549));
#982=DIRECTION('',(0.,-1.,0.));
#983=DIRECTION('center_axis',(1.,0.,0.));
#984=DIRECTION('ref_axis',(0.,0.,-1.));
#985=DIRECTION('',(0.,-1.,0.));
#986=DIRECTION('',(0.,-0.707106781186546,0.707106781186549));
#987=DIRECTION('',(0.,0.,1.));
#988=DIRECTION('',(0.,1.,0.));
#989=DIRECTION('',(0.,0.,-1.));
#990=DIRECTION('',(0.,-0.707106781186548,-0.707106781186548));
#991=DIRECTION('center_axis',(0.,1.,0.));
#992=DIRECTION('ref_axis',(1.,0.,0.));
#993=DIRECTION('',(-1.,0.,0.));
#994=DIRECTION('',(0.,0.,-1.));
#995=DIRECTION('',(1.,0.,0.));
#996=DIRECTION('center_axis',(0.,0.707106781186549,0.707106781186546));
#997=DIRECTION('ref_axis',(1.,0.,0.));
#998=DIRECTION('',(1.,0.,0.));
#999=DIRECTION('',(-0.577350269189625,0.577350269189625,-0.577350269189628));
#1000=DIRECTION('center_axis',(0.,1.,0.));
#1001=DIRECTION('ref_axis',(-1.,0.,0.));
#1002=DIRECTION('',(-1.,0.,0.));
#1003=DIRECTION('',(0.,0.,1.));
#1004=DIRECTION('',(-1.,0.,0.));
#1005=DIRECTION('center_axis',(0.,0.707106781186549,0.707106781186546));
#1006=DIRECTION('ref_axis',(1.,0.,0.));
#1007=DIRECTION('',(-1.,0.,0.));
#1008=DIRECTION('',(0.,0.707106781186543,-0.707106781186552));
#1009=DIRECTION('center_axis',(0.,1.,0.));
#1010=DIRECTION('ref_axis',(1.,0.,0.));
#1011=DIRECTION('',(-1.,0.,0.));
#1012=DIRECTION('',(0.,0.,-1.));
#1013=DIRECTION('',(1.,0.,0.));
#1014=DIRECTION('center_axis',(0.,0.707106781186549,0.707106781186546));
#1015=DIRECTION('ref_axis',(1.,0.,0.));
#1016=DIRECTION('',(1.,0.,0.));
#1017=DIRECTION('',(0.577350269189625,-0.577350269189625,0.577350269189628));
#1018=DIRECTION('center_axis',(0.,0.,1.));
#1019=DIRECTION('ref_axis',(1.,0.,0.));
#1020=DIRECTION('',(-1.,0.,0.));
#1021=DIRECTION('center_axis',(0.,0.,-1.));
#1022=DIRECTION('ref_axis',(0.,-1.,0.));
#1023=DIRECTION('',(0.,-1.,0.));
#1024=DIRECTION('center_axis',(0.,0.,-1.));
#1025=DIRECTION('ref_axis',(1.,0.,0.));
#1026=DIRECTION('',(1.,0.,0.));
#1027=DIRECTION('',(-1.,0.,0.));
#1028=DIRECTION('',(0.,1.,0.));
#1029=DIRECTION('',(-1.,0.,0.));
#1030=DIRECTION('',(0.,1.,0.));
#1031=DIRECTION('center_axis',(0.,0.,1.));
#1032=DIRECTION('ref_axis',(-1.,0.,0.));
#1033=DIRECTION('',(0.,1.,0.));
#1034=DIRECTION('',(1.,0.,0.));
#1035=DIRECTION('',(0.,-1.,0.));
#1036=DIRECTION('',(-1.,0.,0.));
#1037=DIRECTION('center_axis',(0.,0.,1.));
#1038=DIRECTION('ref_axis',(-1.,0.,0.));
#1039=DIRECTION('',(0.,0.,1.));
#1040=DIRECTION('center_axis',(0.,0.,1.));
#1041=DIRECTION('ref_axis',(-1.,0.,0.));
#1042=DIRECTION('center_axis',(0.,0.,1.));
#1043=DIRECTION('ref_axis',(-1.,0.,0.));
#1044=DIRECTION('center_axis',(0.,0.,1.));
#1045=DIRECTION('ref_axis',(-1.,0.,0.));
#1046=DIRECTION('',(0.,0.,1.));
#1047=DIRECTION('center_axis',(0.,0.,1.));
#1048=DIRECTION('ref_axis',(-1.,0.,0.));
#1049=DIRECTION('center_axis',(0.,0.,1.));
#1050=DIRECTION('ref_axis',(-1.,0.,0.));
#1051=DIRECTION('center_axis',(0.,-0.382683432365092,0.923879532511286));
#1052=DIRECTION('ref_axis',(1.,0.,0.));
#1053=DIRECTION('',(1.,0.,0.));
#1054=DIRECTION('',(0.,0.923879532511287,0.38268343236509));
#1055=DIRECTION('center_axis',(0.,0.382683432365092,0.923879532511286));
#1056=DIRECTION('ref_axis',(1.,0.,0.));
#1057=DIRECTION('',(0.,0.923879532511285,-0.382683432365094));
#1058=DIRECTION('center_axis',(0.,0.,-1.));
#1059=DIRECTION('ref_axis',(1.,0.,0.));
#1060=DIRECTION('',(0.923879532511285,0.,-0.382683432365095));
#1061=DIRECTION('center_axis',(0.,1.88688819053354E-15,1.));
#1062=DIRECTION('ref_axis',(1.,0.,0.));
#1063=DIRECTION('center_axis',(0.382683432365085,0.,0.923879532511289));
#1064=DIRECTION('ref_axis',(0.923879532511289,0.,-0.382683432365085));
#1065=DIRECTION('',(0.92387953251129,0.,-0.382683432365083));
#1066=DIRECTION('',(0.,1.,0.));
#1067=DIRECTION('center_axis',(0.,0.,-1.));
#1068=DIRECTION('ref_axis',(0.,-1.,0.));
#1069=DIRECTION('center_axis',(-9.43444095266767E-16,0.,1.));
#1070=DIRECTION('ref_axis',(0.,-1.,0.));
#1071=DIRECTION('center_axis',(0.,0.,-1.));
#1072=DIRECTION('ref_axis',(1.,0.,0.));
#1073=DIRECTION('',(0.707106781186555,0.,-0.70710678118654));
#1074=DIRECTION('center_axis',(0.,0.,1.));
#1075=DIRECTION('ref_axis',(1.,0.,0.));
#1076=DIRECTION('center_axis',(0.707106781186543,0.,0.707106781186552));
#1077=DIRECTION('ref_axis',(0.707106781186552,0.,-0.707106781186543));
#1078=DIRECTION('',(0.707106781186552,0.,-0.707106781186543));
#1079=DIRECTION('',(0.,1.,0.));
#1080=DIRECTION('center_axis',(0.,0.,-1.));
#1081=DIRECTION('ref_axis',(0.,-1.,0.));
#1082=DIRECTION('',(0.,-0.707106781186549,-0.707106781186546));
#1083=DIRECTION('center_axis',(0.,0.,1.));
#1084=DIRECTION('ref_axis',(0.,-1.,0.));
#1085=DIRECTION('center_axis',(0.,-0.707106781186549,0.707106781186546));
#1086=DIRECTION('ref_axis',(1.,0.,0.));
#1087=DIRECTION('',(1.,0.,0.));
#1088=DIRECTION('center_axis',(0.,-1.,0.));
#1089=DIRECTION('ref_axis',(1.,0.,0.));
#1090=DIRECTION('',(1.,0.,0.));
#1091=DIRECTION('',(0.,0.,1.));
#1092=DIRECTION('center_axis',(0.,0.,1.));
#1093=DIRECTION('ref_axis',(-1.,0.,0.));
#1094=DIRECTION('',(-0.707106781186546,-8.65956056235491E-17,-0.707106781186549));
#1095=DIRECTION('center_axis',(0.,0.,-1.));
#1096=DIRECTION('ref_axis',(-1.,0.,0.));
#1097=DIRECTION('center_axis',(0.,0.,-1.));
#1098=DIRECTION('ref_axis',(-1.,0.,0.));
#1099=DIRECTION('center_axis',(0.,0.,1.));
#1100=DIRECTION('ref_axis',(-1.,0.,0.));
#1101=DIRECTION('',(0.,0.,1.));
#1102=DIRECTION('center_axis',(-0.707106781186549,0.,0.707106781186546));
#1103=DIRECTION('ref_axis',(0.707106781186546,0.,0.707106781186549));
#1104=DIRECTION('',(0.,-1.,0.));
#1105=DIRECTION('',(0.577350269189624,0.577350269189627,0.577350269189627));
#1106=DIRECTION('center_axis',(0.,-0.707106781186548,0.707106781186548));
#1107=DIRECTION('ref_axis',(1.,0.,0.));
#1108=DIRECTION('',(1.,0.,0.));
#1109=DIRECTION('center_axis',(-0.707106781186549,0.,0.707106781186546));
#1110=DIRECTION('ref_axis',(0.707106781186546,0.,0.707106781186549));
#1111=DIRECTION('',(-0.577350269189625,-0.577350269189625,-0.577350269189628));
#1112=DIRECTION('',(0.,-1.,0.));
#1113=DIRECTION('',(0.577350269189625,-0.577350269189625,0.577350269189628));
#1114=DIRECTION('center_axis',(0.,-0.707106781186549,0.707106781186546));
#1115=DIRECTION('ref_axis',(1.,0.,0.));
#1116=DIRECTION('',(1.,0.,0.));
#1117=DIRECTION('',(-0.577350269189625,0.577350269189625,0.577350269189628));
#1118=DIRECTION('center_axis',(0.,0.707106781186549,0.707106781186546));
#1119=DIRECTION('ref_axis',(1.,0.,0.));
#1120=DIRECTION('',(-1.,0.,0.));
#1121=DIRECTION('',(-0.577350269189618,-0.577350269189628,0.577350269189631));
#1122=DIRECTION('center_axis',(0.707106781186549,0.,0.707106781186546));
#1123=DIRECTION('ref_axis',(0.707106781186546,0.,-0.707106781186549));
#1124=DIRECTION('',(0.,1.,0.));
#1125=DIRECTION('center_axis',(0.,1.,0.));
#1126=DIRECTION('ref_axis',(1.,0.,0.));
#1127=DIRECTION('',(0.,0.,-1.));
#1128=DIRECTION('',(1.,0.,0.));
#1129=DIRECTION('',(0.,0.,-1.));
#1130=DIRECTION('center_axis',(-1.,0.,0.));
#1131=DIRECTION('ref_axis',(0.,1.,0.));
#1132=DIRECTION('',(0.,0.,-1.));
#1133=DIRECTION('',(0.,1.,0.));
#1134=DIRECTION('center_axis',(0.,-0.707106781186549,0.707106781186546));
#1135=DIRECTION('ref_axis',(1.,0.,0.));
#1136=DIRECTION('',(1.,0.,0.));
#1137=DIRECTION('',(0.577350269189625,0.577350269189625,0.577350269189628));
#1138=DIRECTION('center_axis',(-0.707106781186549,0.,0.707106781186546));
#1139=DIRECTION('ref_axis',(0.707106781186546,0.,0.707106781186549));
#1140=DIRECTION('',(0.,-1.,0.));
#1141=DIRECTION('center_axis',(0.,-1.,0.));
#1142=DIRECTION('ref_axis',(-1.,0.,0.));
#1143=DIRECTION('',(-1.,0.,0.));
#1144=DIRECTION('',(0.,0.,-1.));
#1145=DIRECTION('center_axis',(-1.,0.,0.));
#1146=DIRECTION('ref_axis',(0.,1.,0.));
#1147=DIRECTION('',(0.,1.,0.));
#1148=DIRECTION('center_axis',(1.,0.,0.));
#1149=DIRECTION('ref_axis',(0.,-1.,0.));
#1150=DIRECTION('',(0.,-1.,0.));
#1151=DIRECTION('',(0.,0.,-1.));
#1152=DIRECTION('center_axis',(0.,-1.,0.));
#1153=DIRECTION('ref_axis',(-1.,0.,0.));
#1154=DIRECTION('',(-1.,0.,0.));
#1155=DIRECTION('center_axis',(0.,-1.,0.));
#1156=DIRECTION('ref_axis',(-1.,0.,0.));
#1157=DIRECTION('',(-1.,0.,0.));
#1158=DIRECTION('',(0.,0.,-1.));
#1159=DIRECTION('center_axis',(-1.,0.,0.));
#1160=DIRECTION('ref_axis',(0.,1.,0.));
#1161=DIRECTION('',(0.,1.,0.));
#1162=DIRECTION('center_axis',(1.,0.,0.));
#1163=DIRECTION('ref_axis',(0.,1.,0.));
#1164=DIRECTION('',(0.,0.,1.));
#1165=DIRECTION('',(0.,1.,0.));
#1166=DIRECTION('',(0.,0.,1.));
#1167=DIRECTION('center_axis',(0.,0.,1.));
#1168=DIRECTION('ref_axis',(0.,-1.,0.));
#1169=DIRECTION('center_axis',(0.,0.,1.));
#1170=DIRECTION('ref_axis',(0.,-1.,0.));
#1171=DIRECTION('center_axis',(0.,0.,1.));
#1172=DIRECTION('ref_axis',(1.,0.,0.));
#1173=DIRECTION('center_axis',(0.,0.,1.));
#1174=DIRECTION('ref_axis',(1.,0.,0.));
#1175=DIRECTION('center_axis',(0.,0.,1.));
#1176=DIRECTION('ref_axis',(1.,0.,0.));
#1177=CARTESIAN_POINT('',(0.,0.,0.));
#1178=CARTESIAN_POINT('Origin',(86.,-67.602784893407,20.));
#1179=CARTESIAN_POINT('',(82.95,-67.602784893407,20.));
#1180=CARTESIAN_POINT('Origin',(86.,-67.602784893407,20.));
#1181=CARTESIAN_POINT('',(82.95,-67.602784893407,23.));
#1182=CARTESIAN_POINT('',(82.95,-67.602784893407,20.));
#1183=CARTESIAN_POINT('Origin',(86.,-67.602784893407,23.));
#1184=CARTESIAN_POINT('Origin',(86.,-67.602784893407,23.));
#1185=CARTESIAN_POINT('',(87.75,-67.602784893407,23.));
#1186=CARTESIAN_POINT('Origin',(86.,-67.602784893407,23.));
#1187=CARTESIAN_POINT('Origin',(86.,69.3972151065931,20.));
#1188=CARTESIAN_POINT('',(82.95,69.3972151065931,20.));
#1189=CARTESIAN_POINT('Origin',(86.,69.3972151065931,20.));
#1190=CARTESIAN_POINT('',(82.95,69.3972151065931,23.));
#1191=CARTESIAN_POINT('',(82.95,69.3972151065931,20.));
#1192=CARTESIAN_POINT('Origin',(86.,69.3972151065931,23.));
#1193=CARTESIAN_POINT('Origin',(86.,69.3972151065931,23.));
#1194=CARTESIAN_POINT('',(87.75,69.3972151065931,23.));
#1195=CARTESIAN_POINT('Origin',(86.,69.3972151065931,23.));
#1196=CARTESIAN_POINT('Origin',(0.,0.999999999999996,23.));
#1197=CARTESIAN_POINT('',(0.,-71.,26.));
#1198=CARTESIAN_POINT('',(0.,-72.7071067811866,25.2928932188135));
#1199=CARTESIAN_POINT('',(0.,-41.2291847198288,38.3314754519512));
#1200=CARTESIAN_POINT('',(0.,-59.,26.));
#1201=CARTESIAN_POINT('',(0.,0.999999999999996,26.));
#1202=CARTESIAN_POINT('',(0.,-58.,25.));
#1203=CARTESIAN_POINT('',(0.,-43.0000000000001,9.99999999999999));
#1204=CARTESIAN_POINT('',(0.,-58.,20.));
#1205=CARTESIAN_POINT('',(0.,-58.,24.5));
#1206=CARTESIAN_POINT('',(0.,-73.,20.));
#1207=CARTESIAN_POINT('',(0.,0.999999999999996,20.));
#1208=CARTESIAN_POINT('',(0.,-73.,25.));
#1209=CARTESIAN_POINT('',(0.,-73.,12.5));
#1210=CARTESIAN_POINT('',(0.,-54.7500000000001,43.25));
#1211=CARTESIAN_POINT('Origin',(0.,0.999999999999996,23.));
#1212=CARTESIAN_POINT('',(0.,74.7071067811866,25.2928932188135));
#1213=CARTESIAN_POINT('',(0.,73.,26.));
#1214=CARTESIAN_POINT('',(0.,43.2291847198288,38.3314754519512));
#1215=CARTESIAN_POINT('',(0.,75.,25.));
#1216=CARTESIAN_POINT('',(0.,56.7500000000001,43.25));
#1217=CARTESIAN_POINT('',(0.,75.,20.));
#1218=CARTESIAN_POINT('',(0.,75.,12.5));
#1219=CARTESIAN_POINT('',(0.,62.,20.));
#1220=CARTESIAN_POINT('',(0.,0.999999999999996,20.));
#1221=CARTESIAN_POINT('',(0.,62.,25.));
#1222=CARTESIAN_POINT('',(0.,62.,24.5));
#1223=CARTESIAN_POINT('',(0.,63.,26.));
#1224=CARTESIAN_POINT('',(0.,46.5000000000001,9.49999999999999));
#1225=CARTESIAN_POINT('',(0.,0.999999999999996,26.));
#1226=CARTESIAN_POINT('Origin',(0.,0.999999999999996,23.));
#1227=CARTESIAN_POINT('',(0.,41.,26.));
#1228=CARTESIAN_POINT('',(0.,39.,26.));
#1229=CARTESIAN_POINT('',(0.,0.999999999999996,26.));
#1230=CARTESIAN_POINT('',(0.,42.,25.));
#1231=CARTESIAN_POINT('',(0.,32.0000000000001,35.));
#1232=CARTESIAN_POINT('',(0.,42.,20.));
#1233=CARTESIAN_POINT('',(0.,42.,24.5));
#1234=CARTESIAN_POINT('',(0.,38.,20.));
#1235=CARTESIAN_POINT('',(0.,0.999999999999996,20.));
#1236=CARTESIAN_POINT('',(0.,38.,25.));
#1237=CARTESIAN_POINT('',(0.,38.,24.5));
#1238=CARTESIAN_POINT('',(0.,28.5,15.5));
#1239=CARTESIAN_POINT('Origin',(-153.,-58.,26.));
#1240=CARTESIAN_POINT('',(153.,-58.,25.));
#1241=CARTESIAN_POINT('',(-76.5,-58.,25.));
#1242=CARTESIAN_POINT('',(153.,-58.,20.));
#1243=CARTESIAN_POINT('',(153.,-58.,26.));
#1244=CARTESIAN_POINT('',(-158.,-58.,20.));
#1245=CARTESIAN_POINT('Origin',(-76.5,-58.5,25.5));
#1246=CARTESIAN_POINT('',(154.,-59.,26.));
#1247=CARTESIAN_POINT('',(-76.5,-59.,26.));
#1248=CARTESIAN_POINT('',(154.,-59.,26.));
#1249=CARTESIAN_POINT('Origin',(160.,75.,2.));
#1250=CARTESIAN_POINT('',(160.,75.,25.));
#1251=CARTESIAN_POINT('',(80.,75.,25.));
#1252=CARTESIAN_POINT('',(160.,75.,20.));
#1253=CARTESIAN_POINT('',(160.,75.,2.));
#1254=CARTESIAN_POINT('',(80.,75.,20.));
#1255=CARTESIAN_POINT('Origin',(80.,74.5,25.5));
#1256=CARTESIAN_POINT('',(160.,74.7071067811866,25.2928932188134));
#1257=CARTESIAN_POINT('',(40.,74.7071067811866,25.2928932188135));
#1258=CARTESIAN_POINT('',(160.,74.,26.));
#1259=CARTESIAN_POINT('Origin',(-33.5,42.,26.));
#1260=CARTESIAN_POINT('',(43.5,42.,25.));
#1261=CARTESIAN_POINT('',(-16.75,42.,25.));
#1262=CARTESIAN_POINT('',(43.5,42.,20.));
#1263=CARTESIAN_POINT('',(43.5,42.,26.));
#1264=CARTESIAN_POINT('',(-153.,42.,20.));
#1265=CARTESIAN_POINT('Origin',(-16.75,41.5,25.5));
#1266=CARTESIAN_POINT('',(44.5,41.,26.));
#1267=CARTESIAN_POINT('',(-16.75,41.,26.));
#1268=CARTESIAN_POINT('',(43.5,42.,25.));
#1269=CARTESIAN_POINT('Origin',(0.,0.999999999999996,26.));
#1270=CARTESIAN_POINT('',(160.,-71.,26.));
#1271=CARTESIAN_POINT('',(-40.,-71.,26.));
#1272=CARTESIAN_POINT('',(163.,-68.,26.));
#1273=CARTESIAN_POINT('Origin',(160.,-68.,26.));
#1274=CARTESIAN_POINT('',(163.,70.,26.));
#1275=CARTESIAN_POINT('',(163.,-16.25,26.));
#1276=CARTESIAN_POINT('',(160.,73.,26.));
#1277=CARTESIAN_POINT('Origin',(160.,70.,26.));
#1278=CARTESIAN_POINT('',(40.,73.,26.));
#1279=CARTESIAN_POINT('',(44.5,63.,26.));
#1280=CARTESIAN_POINT('',(21.75,63.,26.));
#1281=CARTESIAN_POINT('',(44.5,21.5,26.));
#1282=CARTESIAN_POINT('',(154.,39.,26.));
#1283=CARTESIAN_POINT('',(76.5,39.,26.));
#1284=CARTESIAN_POINT('',(154.,-28.5,26.));
#1285=CARTESIAN_POINT('',(148.250002130866,52.0000007748604,26.));
#1286=CARTESIAN_POINT('Origin',(143.000002130866,52.0000007748604,26.));
#1287=CARTESIAN_POINT('',(130.,41.,26.));
#1288=CARTESIAN_POINT('',(130.,63.,26.));
#1289=CARTESIAN_POINT('',(130.,21.5,26.));
#1290=CARTESIAN_POINT('',(51.,41.,26.));
#1291=CARTESIAN_POINT('',(26.,41.,26.));
#1292=CARTESIAN_POINT('',(51.,63.,26.));
#1293=CARTESIAN_POINT('',(51.,31.5,26.));
#1294=CARTESIAN_POINT('',(64.5,63.,26.));
#1295=CARTESIAN_POINT('Origin',(86.,69.3972151065931,0.));
#1296=CARTESIAN_POINT('',(87.75,69.3972151065931,23.3));
#1297=CARTESIAN_POINT('',(87.75,69.3972151065931,0.));
#1298=CARTESIAN_POINT('Origin',(86.,69.3972151065931,23.3));
#1299=CARTESIAN_POINT('Origin',(86.,69.3972151065931,23.3));
#1300=CARTESIAN_POINT('Origin',(86.,-67.602784893407,0.));
#1301=CARTESIAN_POINT('',(87.75,-67.602784893407,23.3));
#1302=CARTESIAN_POINT('',(87.75,-67.602784893407,0.));
#1303=CARTESIAN_POINT('Origin',(86.,-67.602784893407,23.3));
#1304=CARTESIAN_POINT('Origin',(86.,-67.602784893407,23.3));
#1305=CARTESIAN_POINT('Origin',(-40.,-71.8535533905933,25.6464466094067));
#1306=CARTESIAN_POINT('',(160.,-72.7071067811866,25.2928932188135));
#1307=CARTESIAN_POINT('',(-40.,-72.7071067811866,25.2928932188135));
#1308=CARTESIAN_POINT('',(160.,-72.7071067811866,25.2928932188135));
#1309=CARTESIAN_POINT('Origin',(40.,73.8535533905933,25.6464466094067));
#1310=CARTESIAN_POINT('',(160.,73.,26.));
#1311=CARTESIAN_POINT('Origin',(160.,70.,25.6464466094067));
#1312=CARTESIAN_POINT('',(164.707106781187,70.,25.2928932188134));
#1313=CARTESIAN_POINT('',(163.,70.,26.));
#1314=CARTESIAN_POINT('Origin',(160.,70.,25.2928932188135));
#1315=CARTESIAN_POINT('Origin',(163.853553390593,-16.25,25.6464466094067));
#1316=CARTESIAN_POINT('',(164.707106781187,-68.,25.2928932188135));
#1317=CARTESIAN_POINT('',(163.,-68.,26.));
#1318=CARTESIAN_POINT('',(164.707106781187,-16.25,25.2928932188135));
#1319=CARTESIAN_POINT('Origin',(160.,-68.,25.6464466094067));
#1320=CARTESIAN_POINT('Origin',(160.,-68.,25.2928932188135));
#1321=CARTESIAN_POINT('Origin',(160.,70.,25.5));
#1322=CARTESIAN_POINT('',(165.,70.,25.));
#1323=CARTESIAN_POINT('',(164.,70.,26.));
#1324=CARTESIAN_POINT('Origin',(160.,70.,25.));
#1325=CARTESIAN_POINT('Origin',(164.5,-33.5,25.5));
#1326=CARTESIAN_POINT('',(165.,-68.,25.));
#1327=CARTESIAN_POINT('',(164.,-68.,26.));
#1328=CARTESIAN_POINT('',(165.,-33.5,25.));
#1329=CARTESIAN_POINT('Origin',(160.,-68.,25.5));
#1330=CARTESIAN_POINT('',(160.,-73.,25.));
#1331=CARTESIAN_POINT('',(160.,-72.,26.));
#1332=CARTESIAN_POINT('Origin',(160.,-68.,25.));
#1333=CARTESIAN_POINT('Origin',(-80.,-72.5,25.5));
#1334=CARTESIAN_POINT('',(-80.,-73.,25.));
#1335=CARTESIAN_POINT('Origin',(-160.,-73.,2.));
#1336=CARTESIAN_POINT('',(160.,-73.,20.));
#1337=CARTESIAN_POINT('',(-80.,-73.,20.));
#1338=CARTESIAN_POINT('',(160.,-73.,27.));
#1339=CARTESIAN_POINT('Origin',(143.000002130866,52.0000007748604,25.5));
#1340=CARTESIAN_POINT('',(147.250002130866,52.0000007748604,25.));
#1341=CARTESIAN_POINT('',(147.750002130866,52.0000007748604,25.5));
#1342=CARTESIAN_POINT('Origin',(143.000002130866,52.0000007748604,25.));
#1343=CARTESIAN_POINT('Origin',(143.000002130866,52.0000007748604,26.));
#1344=CARTESIAN_POINT('',(147.250002130866,52.0000007748604,20.));
#1345=CARTESIAN_POINT('Origin',(143.000002130866,52.0000007748604,20.));
#1346=CARTESIAN_POINT('',(147.250002130866,52.0000007748604,26.));
#1347=CARTESIAN_POINT('Origin',(153.5,-28.5,25.5));
#1348=CARTESIAN_POINT('',(153.,38.,25.));
#1349=CARTESIAN_POINT('',(153.,-28.5,25.));
#1350=CARTESIAN_POINT('',(153.,38.,25.));
#1351=CARTESIAN_POINT('Origin',(76.5,38.5,25.5));
#1352=CARTESIAN_POINT('',(76.5,38.,25.));
#1353=CARTESIAN_POINT('Origin',(129.5,21.5,25.5));
#1354=CARTESIAN_POINT('',(129.,62.,25.));
#1355=CARTESIAN_POINT('',(130.,63.,26.));
#1356=CARTESIAN_POINT('',(129.,42.,25.));
#1357=CARTESIAN_POINT('',(129.,21.5,25.));
#1358=CARTESIAN_POINT('',(129.,42.,25.));
#1359=CARTESIAN_POINT('Origin',(64.5,62.5,25.5));
#1360=CARTESIAN_POINT('',(52.,62.,25.));
#1361=CARTESIAN_POINT('',(64.5,62.,25.));
#1362=CARTESIAN_POINT('',(52.,62.,25.));
#1363=CARTESIAN_POINT('Origin',(26.,41.5,25.5));
#1364=CARTESIAN_POINT('',(52.,42.,25.));
#1365=CARTESIAN_POINT('',(26.,42.,25.));
#1366=CARTESIAN_POINT('',(52.,42.,25.));
#1367=CARTESIAN_POINT('Origin',(51.5,31.5,25.5));
#1368=CARTESIAN_POINT('',(52.,31.5,25.));
#1369=CARTESIAN_POINT('Origin',(52.,42.,26.));
#1370=CARTESIAN_POINT('',(129.,42.,20.));
#1371=CARTESIAN_POINT('',(129.,42.,26.));
#1372=CARTESIAN_POINT('',(52.,42.,20.));
#1373=CARTESIAN_POINT('',(-153.,42.,20.));
#1374=CARTESIAN_POINT('',(52.,42.,26.));
#1375=CARTESIAN_POINT('Origin',(129.,42.,26.));
#1376=CARTESIAN_POINT('',(129.,62.,20.));
#1377=CARTESIAN_POINT('',(129.,62.,26.));
#1378=CARTESIAN_POINT('',(129.,42.,20.));
#1379=CARTESIAN_POINT('Origin',(21.75,62.5,25.5));
#1380=CARTESIAN_POINT('',(43.5,62.,25.));
#1381=CARTESIAN_POINT('',(21.75,62.,25.));
#1382=CARTESIAN_POINT('',(43.5,62.,25.));
#1383=CARTESIAN_POINT('Origin',(44.,21.5,25.5));
#1384=CARTESIAN_POINT('',(43.5,21.5,25.));
#1385=CARTESIAN_POINT('Origin',(43.5,62.,26.));
#1386=CARTESIAN_POINT('',(43.5,62.,20.));
#1387=CARTESIAN_POINT('',(158.,62.,20.));
#1388=CARTESIAN_POINT('',(43.5,62.,26.));
#1389=CARTESIAN_POINT('Origin',(43.5,42.,26.));
#1390=CARTESIAN_POINT('',(43.5,40.,20.));
#1391=CARTESIAN_POINT('Origin',(52.,62.,26.));
#1392=CARTESIAN_POINT('',(52.,62.,20.));
#1393=CARTESIAN_POINT('',(52.,65.,20.));
#1394=CARTESIAN_POINT('',(52.,62.,26.));
#1395=CARTESIAN_POINT('Origin',(129.,62.,26.));
#1396=CARTESIAN_POINT('',(158.,62.,20.));
#1397=CARTESIAN_POINT('Origin',(153.,38.,26.));
#1398=CARTESIAN_POINT('',(153.,38.,20.));
#1399=CARTESIAN_POINT('',(153.,38.,20.));
#1400=CARTESIAN_POINT('',(153.,38.,26.));
#1401=CARTESIAN_POINT('Origin',(153.,-58.,26.));
#1402=CARTESIAN_POINT('',(153.,-61.,20.));
#1403=CARTESIAN_POINT('Origin',(165.,-68.,2.));
#1404=CARTESIAN_POINT('',(165.,-68.,20.));
#1405=CARTESIAN_POINT('',(165.,-68.,2.));
#1406=CARTESIAN_POINT('',(165.,70.,20.));
#1407=CARTESIAN_POINT('',(165.,-33.5,20.));
#1408=CARTESIAN_POINT('',(165.,70.,2.));
#1409=CARTESIAN_POINT('Origin',(160.,-68.,2.));
#1410=CARTESIAN_POINT('Origin',(160.,-68.,20.));
#1411=CARTESIAN_POINT('Origin',(0.,0.999999999999996,20.));
#1412=CARTESIAN_POINT('Origin',(160.,70.,20.));
#1413=CARTESIAN_POINT('Origin',(160.,70.,2.));
#1414=UNCERTAINTY_MEASURE_WITH_UNIT(LENGTH_MEASURE(0.01),#1418,
'DISTANCE_ACCURACY_VALUE',
'Maximum model space distance between geometric entities at asserted c
onnectivities');
#1415=UNCERTAINTY_MEASURE_WITH_UNIT(LENGTH_MEASURE(0.01),#1418,
'DISTANCE_ACCURACY_VALUE',
'Maximum model space distance between geometric entities at asserted c
onnectivities');
#1416=(
GEOMETRIC_REPRESENTATION_CONTEXT(3)
GLOBAL_UNCERTAINTY_ASSIGNED_CONTEXT((#1414))
GLOBAL_UNIT_ASSIGNED_CONTEXT((#1418,#1420,#1421))
REPRESENTATION_CONTEXT('','3D')
);
#1417=(
GEOMETRIC_REPRESENTATION_CONTEXT(3)
GLOBAL_UNCERTAINTY_ASSIGNED_CONTEXT((#1415))
GLOBAL_UNIT_ASSIGNED_CONTEXT((#1418,#1420,#1421))
REPRESENTATION_CONTEXT('','3D')
);
#1418=(
LENGTH_UNIT()
NAMED_UNIT(*)
SI_UNIT(.MILLI.,.METRE.)
);
#1419=(
LENGTH_UNIT()
NAMED_UNIT(*)
SI_UNIT($,.METRE.)
);
#1420=(
NAMED_UNIT(*)
PLANE_ANGLE_UNIT()
SI_UNIT($,.RADIAN.)
);
#1421=(
NAMED_UNIT(*)
SI_UNIT($,.STERADIAN.)
SOLID_ANGLE_UNIT()
);
#1422=SHAPE_DEFINITION_REPRESENTATION(#1423,#1424);
#1423=PRODUCT_DEFINITION_SHAPE('',$,#1426);
#1424=SHAPE_REPRESENTATION('',(#871),#1416);
#1425=PRODUCT_DEFINITION_CONTEXT('part definition',#1430,'design');
#1426=PRODUCT_DEFINITION('2026-05-12-09-43-54-783','Case',#1427,#1425);
#1427=PRODUCT_DEFINITION_FORMATION('',$,#1432);
#1428=PRODUCT_RELATED_PRODUCT_CATEGORY('Case','Case',(#1432));
#1429=APPLICATION_PROTOCOL_DEFINITION('international standard',
'automotive_design',2009,#1430);
#1430=APPLICATION_CONTEXT(
'Core Data for Automotive Mechanical Design Process');
#1431=PRODUCT_CONTEXT('part definition',#1430,'mechanical');
#1432=PRODUCT('2026-05-12-09-43-54-783','Case',$,(#1431));
#1433=PRESENTATION_STYLE_ASSIGNMENT((#1434));
#1434=SURFACE_STYLE_USAGE(.BOTH.,#1435);
#1435=SURFACE_SIDE_STYLE('',(#1436));
#1436=SURFACE_STYLE_FILL_AREA(#1437);
#1437=FILL_AREA_STYLE('Steel - Satin',(#1438));
#1438=FILL_AREA_STYLE_COLOUR('Steel - Satin',#1439);
#1439=COLOUR_RGB('Steel - Satin',0.627450980392157,0.627450980392157,0.627450980392157);
ENDSEC;
END-ISO-10303-21;
